<svg xmlns="http://www.w3.org/2000/svg" width="2000" height="1125"><path fill="#f90d00" d="M465 345q36.155-.035 72.311-.052 16.786-.007 33.573-.023 14.625-.015 29.25-.02 7.75 0 15.499-.01 7.285-.01 14.57-.008 2.682 0 5.363-.006 3.645-.007 7.29-.001l2.173-.01c4.857.016 4.857.016 5.971 1.13.099 2.346.132 4.663.123 7.01l.004 2.26q.002 3.796-.007 7.592l.003 5.46q.002 7.539-.007 15.078-.005 8.115-.002 16.23 0 14.074-.008 28.147-.011 20.347-.012 40.696-.004 33.009-.019 66.018-.014 32.075-.02 64.148v3.991l-.005 19.82q-.016 82.275-.05 164.55h-2l-8.787-20.86a6243 6243 0 0 1-11.177-26.652 2467 2467 0 0 0-4.536-10.8 18390 18390 0 0 1-30.9-73.845q-2.755-6.618-5.514-13.235-1.764-4.24-3.524-8.483c-1.713-4.12-3.47-8.22-5.25-12.312-2.813-6.535-5.441-13.136-8.062-19.75-3.242-8.167-6.589-16.27-10.125-24.313-5.063-11.519-9.867-23.139-14.658-34.773-3.238-7.856-6.51-15.697-9.78-23.54l-4.811-11.54q-3.269-7.838-6.532-15.678a27778 27778 0 0 0-23.267-55.706c-3.7-8.834-7.397-17.67-11.077-26.513l-2.523-6.055q-2.386-5.725-4.766-11.453l-2.336-5.617-1.269-3.053a2132 2132 0 0 0-7.2-17.088l-1.532-3.597q-1.48-3.47-2.97-6.934l-1.35-3.164-1.203-2.806C465 347 465 347 465 345m-313 0h185c-1.826 5.477-3.572 10.58-5.828 15.832l-.805 1.884a1991 1991 0 0 1-1.719 4.008c-1.568 3.646-3.123 7.297-4.68 10.948l-.983 2.306c-3.627 8.508-7.184 17.045-10.735 25.584l-.962 2.313-5.48 13.18q-2.964 7.13-5.933 14.257l-1.169 2.807c-3.67 8.805-7.36 17.6-11.052 26.397A13882 13882 0 0 0 272 502l-7 16.813c-.313.752-.626 1.504-.95 2.278a22341 22341 0 0 1-17.197 41.146 18093 18093 0 0 0-16.733 40.092 4043 4043 0 0 1-11.495 27.359c-4.994 11.759-9.884 23.56-14.77 35.364-5.733 13.85-11.5 27.686-17.292 41.51l-1.165 2.78-4.46 10.645c-3.86 9.21-7.7 18.426-11.536 27.645q-4.239 10.18-8.481 20.359l-4.991 11.978-1.712 4.107L153 787h-1zm1326.132 83.88 2.847.006h3.26c1.709.009 1.709.009 3.452.016l3.155.003c3.905.006 7.81.02 11.716.033L1529 429l1 79c5.916-.739 5.916-.739 11.824-1.535 25.862-3.53 52.019-.122 74.176 14.535 4.726 3.604 8.884 7.725 13 12l2.074 2.086c16.045 17.09 21.361 39.21 21.301 61.977v2.222c-.033 11.058-.71 21.188-4.375 31.715l-1.168 3.508c-3.933 10.97-9.304 20.606-16.832 29.492l-2.094 2.5c-18.85 21.771-45.728 33.023-73.906 36.5-5.58.27-11.164.295-16.75.313l-2.411.007c-46.195.017-46.195.017-58.485-9.61-1.736-2.193-1.728-3.39-1.726-6.168l-.02-2.782.025-3.06-.01-3.248c-.008-3.61.007-7.218.02-10.827q0-3.87-.006-7.74c-.005-6.291.005-12.582.02-18.872.018-7.32.02-14.64.02-21.959q.005-19.582.042-39.164.035-19.02.04-38.04l.001-2.368.002-4.721v-2.353l.001-2.346q.007-18.102.028-36.204l.01-13.141q.007-11.391.031-22.782.007-3.792.008-7.584.004-5.153.02-10.304l-.003-3.075.012-2.766.003-2.405c.19-2.664.601-2.771 3.26-2.921M1529 554v103c17.54 2.923 34.773.712 49.5-9.781 11.185-9.22 16.711-21.878 18.317-36.115 1.454-16.71-.129-32.843-11.005-46.354-7-7.5-16.51-12.074-26.722-13.02-3.057-.095-6.095-.09-9.153-.042l-3.103-.01c-6.474.045-11.257.86-17.834 2.322m-349.129-125.13 3.145-.009 3.421.006 3.487-.003q3.656 0 7.313.006 5.62.006 11.24-.007 3.543 0 7.085.004l3.422-.006 3.145.01 2.783.002C1227 429 1227 429 1228 430c.101 1.376.134 2.757.139 4.137l.016 2.719.003 3.021.015 3.183c.016 3.548.024 7.097.032 10.645l.03 7.597q.033 8.2.056 16.4.035 11.854.08 23.71.071 19.233.132 38.466.058 18.687.125 37.375l.008 2.325.041 11.549q.17 47.936.323 95.873-2.863 1.2-5.727 2.396l-3.221 1.348c-21.455 8.829-43.68 12.492-66.802 12.568l-2.364.01c-12.384.01-23.91-.987-35.886-4.322l-3.64-.934A205 205 0 0 1 1104 696v-2l-2.648-.816c-19.041-6.725-32.803-23.095-41.653-40.614-2.626-5.518-4.699-10.372-4.699-16.57l-2-1c-.502-1.88-.502-1.88-.852-4.348l-.392-2.747c-.637-4.964-1.241-9.927-1.756-14.905l-.23-2.205c-2.027-22.765 7.218-48.832 21.485-66.335 8.73-10.34 18.748-19.088 30.745-25.46l3.258-1.746c19.167-9.823 43.455-14.477 64.902-11.744l3.84.49-.007-2.879q-.03-13.398-.045-26.797-.007-6.888-.023-13.778-.016-6.642-.02-13.285-.003-2.54-.01-5.08a2183 2183 0 0 1-.009-7.09l-.01-2.144c.012-5.736.345-6.072 5.995-6.076m-62.125 138.728c-10.193 14.023-12.983 30.142-11.121 47.09 2.163 13.593 7.509 25.236 18.375 33.968 12.095 8.126 25.808 9.288 40 8.344l9-2V552c-20.672-2.584-41.387-.548-56.254 15.598M894 449c2.65-.394 2.65-.394 6.054-.42l3.853-.048q2.092-.002 4.183 0l4.274-.024q4.483-.019 8.966-.009c3.832.006 7.662-.025 11.494-.065 2.943-.026 5.886-.029 8.83-.025q2.119-.003 4.237-.03a325 325 0 0 1 5.925.006l3.407-.006c2.777.621 2.777.621 4.6 3.003 1.16 2.581 2.185 5.127 3.087 7.81l1.044 3.064 1.109 3.307q1.214 3.564 2.433 7.128l1.261 3.696c1.91 5.554 3.885 11.084 5.868 16.613l1.236 3.452 2.667 7.44c13.75 38.353 27.394 76.744 40.872 115.193 5.372 15.32 10.83 30.61 16.305 45.894l1.75 4.902c1.422 3.991 2.857 7.976 4.319 11.953l1.667 4.588.785 2.1c1.304 3.612 2.078 6.63 1.774 10.478-3.392.76-6.544 1.133-10.018 1.161l-2.942.03-3.142.012-3.252.017q-3.398.014-6.793.02c-3.472.01-6.944.041-10.415.072q-3.302.01-6.602.016l-3.154.038-2.923-.01-2.572.011c-2.722-.457-3.534-1.188-5.187-3.367a135 135 0 0 1-3.031-8.29l-.84-2.477c-.885-2.617-1.757-5.237-2.629-7.858l-1.762-5.223A3845 3845 0 0 1 976 659l-3-9-3-9-87-1-1 6a196 196 0 0 1-2.187 6.703 2471 2471 0 0 0-2.08 6.11 561 561 0 0 0-2.924 9.063c-1 3.16-2.02 6.316-3.038 9.472a671 671 0 0 0-1.542 4.869 644 644 0 0 1-2.292 7.142c-.22.725-.441 1.45-.67 2.197-1.01 3.035-1.984 5.174-4.311 7.397-4.395 1.557-8.552 1.475-13.183 1.445l-2.983.01q-3.114.002-6.228-.017c-3.183-.016-6.364 0-9.546.02q-3.028-.004-6.055-.013l-2.888.019-2.68-.029-2.358-.007c-2.524-.473-3.42-1.437-5.035-3.381 2.108-8.334 4.81-16.364 7.75-24.437l2.68-7.438 1.323-3.664c5.433-15.012 5.433-15.012 10.31-30.211 1.552-5.185 3.42-10.195 5.37-15.242 3.113-8.213 5.696-16.605 8.32-24.985l1.099-3.484.963-3.087a161 161 0 0 1 3.11-8.255c1.986-4.908 3.741-9.868 5.43-14.885l.918-2.703 1.925-5.681c1.341-3.968 2.69-7.934 4.037-11.9l2.006-5.907A4030 4030 0 0 1 874.813 513l1.03-2.984c1.908-5.5 3.863-10.982 5.852-16.454l1.384-3.82q1.314-3.62 2.649-7.234c3.41-9.39 5.355-18.193 5.928-28.16C892 452 892 452 894 449m32 47-.592 2.11c-5.17 18.395-10.667 36.664-16.408 54.89l-1.455 4.621-.758 2.41-1.53 4.859q-1.854 5.895-3.715 11.788l-1.355 4.295-.626 1.978A156 156 0 0 0 897 592l58-1c-1.208-6.041-2.307-11.432-4.137-17.203l-.607-1.93q-.966-3.06-1.943-6.117-.675-2.13-1.346-4.261A4944 4944 0 0 0 943 549l-1.12-3.518c-1.856-5.836-1.856-5.836-3.723-11.669-1.126-3.517-2.218-7.028-3.223-10.583-.828-2.862-1.79-5.582-2.871-8.355-2.289-6.162-3.715-12.45-5.063-18.875zm485.195 28.52c1.946 1.645 1.946 1.645 4.805 3.48v2l1.77.742c11.852 6.684 19.446 26.183 23.238 38.59 8.198 30.309 6.74 62.233-8.955 89.902-2.692 4.516-5.76 8.674-9.053 12.766l-1.602 2.098c-12.805 15.864-33.542 26.08-53.58 28.641-15.138 1.4-31.15 1.66-45.818-2.739l-3.512-1.031c-22.83-7.435-39.896-22.51-50.8-43.907-12.928-26.521-14.773-57.521-5.97-85.601 4.48-12.1 10.017-22.506 18.282-32.461l1.55-2.008c13.89-17.449 37.93-27.163 59.513-29.68 25.002-1.929 50.47 2.996 70.132 19.208M1325 561v2h-2a689 689 0 0 0-3.812 7.25l-1.08 2.008c-5.09 9.897-6.654 19.952-6.545 30.992l.02 3.291c.312 15.718 4.062 30.647 15.034 42.412 9.552 8.205 20.218 9.845 32.383 9.047 8.746-1.746 16.7-7.538 21.66-14.82 10.516-17.108 12.35-38.57 8.157-58.124-3.053-12.062-7.995-22.57-18.692-29.369-14.666-8.172-33.04-6.801-45.125 5.313m435.68-56.121c23.108-.521 44.31 6.172 61.32 22.121 9.703 10.05 16.705 22.422 20 36l.761 2.784c2.22 8.583 2.663 16.627 2.552 25.466l.01 3.93c-.087 15.347-.087 15.347-3.323 21.82-6.335 2.344-13.094 2.277-19.752 2.227h-3.137a2408 2408 0 0 1-10.177-.032l-7.091-.008q-9.3-.014-18.599-.05c-6.334-.02-12.669-.03-19.004-.04q-18.62-.032-37.24-.097 1.151 3.859 2.324 7.71l.651 2.196c2.795 9.124 7.787 15.215 16.025 20.094 11.628 5.798 22.481 7.393 35.375 7.375l3.717-.005c13.817-.184 27.152-2.242 39.912-7.733C1827 648 1827 648 1830 649v42c-13.585 6.793-13.585 6.793-19.375 8.25l-3.398.89c-11.932 2.585-23.697 3.265-35.852 3.235h-2.392c-22.496-.06-41.725-4.15-60.983-16.375l-2.059-1.277c-4.811-3.183-8.294-7.296-11.941-11.723l-1.55-1.777c-3.45-3.974-3.45-3.974-3.45-6.223h-2a1161 1161 0 0 1-4.375-8.937l-1.25-2.518c-2.37-4.913-4.017-9.44-4.905-14.832L1676 638l-2-1c-.92-3.85-1.244-7.82-1.687-11.75l-.404-3.552c-3.16-30.73 2.994-60 22.091-84.698 15.276-18.267 36.224-28.676 59.75-31.75 2.309-.179 4.616-.267 6.93-.371M1734 561c-3.29 5.153-5.875 10.08-6.568 16.195L1727 581q12.439.034 24.878.052 5.775.007 11.552.023 5.572.016 11.146.02 2.127.003 4.254.01c1.985.008 3.97.008 5.954.009l3.426.006c2.875.005 2.875.005 5.79-1.12-.219-9.36-2.86-16.86-9.187-23.875-7.814-7.048-16.566-7.93-26.684-7.5-9.928.725-17.727 4.717-24.129 12.375M400 508h2c6.19 14.374 12.357 28.756 18.35 43.215 5.62 13.561 11.35 27.077 17.065 40.599a14835 14835 0 0 1 24.166 57.485 3461 3461 0 0 0 15.019 35.415c3.997 9.295 7.893 18.63 11.775 27.973a5002 5002 0 0 0 15 35.75l.88 2.073c2.853 6.724 5.72 13.442 8.62 20.146l1.295 2.999q1.167 2.694 2.343 5.384C519 784.779 519 784.779 519 787h-78c-2.899-5.073-4.743-8.708-6.5-14.062-2.747-8.091-5.868-16.015-9.062-23.938l-3.92-9.736a3897 3897 0 0 1-8.888-22.29q-.878-2.218-1.76-4.433-1.228-3.09-2.448-6.182l-1.42-3.579C406 700 406 700 406 698l-85 1c-1.237-3.712-.623-4.486.95-7.973l1.321-2.978 1.416-3.111q1.352-3.017 2.7-6.036l1.334-2.983c2.717-6.2 5.24-12.461 7.279-18.919h2l.23-2.367c1.04-4.912 3.029-9.192 5.082-13.758l2.758-6.246 1.462-3.3c2.421-5.49 4.791-11.002 7.156-16.516l1.492-3.48c4.548-10.634 8.986-21.312 13.42-31.993 4.137-9.963 8.336-19.891 12.674-29.768 4.292-9.8 8.406-19.673 12.525-29.546l.824-1.973 2.229-5.345A83 83 0 0 1 400 508"/><path fill="#f70e00"/><path fill="#f70e00"/><path fill="#f70e00"/><path fill="#f70e00"/><path fill="#f70e00"/><path fill="#f70e00"/><path fill="#f70e00"/><path fill="#f70e00"/><path fill="#f70e00"/><path fill="#f70e00"/><path fill="#f70e00"/></svg>