<svg xmlns="http://www.w3.org/2000/svg" width="300" height="182"><path d="m145.563 9.375 3.22-.007C158.031 9.58 164.42 11.7 172 17l2.36 1.605L176 20v2h2v2h2c8.501 9.618 10.904 21.43 10.379 33.875C189.633 68.029 185.76 75.549 179 83l-1.586 1.898c-7.75 8.658-18.13 12.108-29.453 12.977-13.497.426-24.307-3.742-34.184-12.973-9.194-9.84-12.376-20.621-12.254-33.832.323-9.156 2.515-17.916 8.477-25.07h2l.75-1.875c1.456-2.476 2.628-3.076 5.25-4.125v-2a799 799 0 0 1 4.063-2.312l2.285-1.301L127 13l3.086-1.629c4.986-2.076 10.146-1.987 15.476-1.996M122 20c-1 1.903-1 1.903-1 4 2.581 6.022 5.155 8.186 11 11l2 1c4.265.271 8.54.232 12.813.25 1.783.03 1.783.03 3.603.063l3.479.015 3.182.028c3.337-.406 5.124-1.56 7.923-3.356l3.563-.375c3.616-.309 3.616-.309 5.875-3.187.515-.805 1.03-1.61 1.562-2.438l-2-3h-2v-2h-2v-2c-15.632-8.007-32.737-10.77-48 0m-7.625 7.125c-2.668 2.64-2.668 2.64-2.5 5.875 1.856 4.948 4.954 7.696 9.688 9.875 4.473 1.494 8.445.988 13.07.465 3.77-.38 7.518-.54 11.304-.59l3.715-.078c3.615.354 5.386 1.314 8.348 3.328h2v2h2l2 4h6c-2.459-5.532-5.644-9.183-11-12-6.12-1.74-11.944-2.165-18.25-1.437-5.578.627-8.7-.17-13.75-2.563l-2.875-.937c-2.662-1.331-3.101-2.307-4.125-5.063l-1.125-2.75L118 25c-1.433-.105-1.433-.105-3.625 2.125M178 30v2h-2v2l-11 2-1 4q2.877-.426 5.75-.875l3.234-.492c2.716-.57 4.692-1.142 7.016-2.633.805-2.05.805-2.05 1-4zm-70 7c-2.021 5.255-2.339 9.047-3 15h54l-1-2h-2v-2c-3.5-2.333-5.844-2.635-10-3q-2.005.482-4 1c-3.102.216-6.204.185-9.312.188l-2.514.037c-6.236.014-12.909-.52-18.174-4.225-1.25-2.625-1.25-2.625-2-5zm69.625 2.375-2.336.773c-2.19.815-4.222 1.767-6.289 2.852l1 3h2l.938 2.438c.825 2.453.825 2.453 2.062 3.562 1.853.072 3.708.084 5.563.063l3.066-.028L186 52c.18-5.22-.03-9.073-2-14-2.383 0-4.115.617-6.375 1.375M110 55c-2.575 6.105-3.52 9.768-1 16 2.645-2.645 3.445-5.662 4.625-9.125l.695-1.996A997 997 0 0 0 116 55zm10 0a534 534 0 0 0-2.836 6.352q-1.17 2.66-2.39 5.296l-1.149 2.602-1.086 2.39c-.707 3.093-.029 4.609 1.461 7.36l2 1 .627-1.728q1.402-3.856 2.81-7.71l.987-2.72.947-2.588.873-2.396C123 61 123 61 124 60c.04-1.666.043-3.334 0-5zm9 0c-2.95 6.134-5.475 12.137-7.309 18.695-.97 3.238-2.288 6.233-3.691 9.305 1.375 1.542 1.375 1.542 3 3h2l1.137-3.297c2.76-7.944 5.609-15.772 8.98-23.48 1.006-2.134 1.006-2.134.883-4.223zm9 0a1726 1726 0 0 0-5.123 12.788 1205 1205 0 0 1-1.766 4.428 802 802 0 0 0-2.548 6.472l-.821 2.03c-1.315 3.417-2.23 5.806-.742 9.282h3c3-6.445 5.48-12.975 7.832-19.684a310 310 0 0 1 2.918-7.941c.922-2.488 1.645-4.81 2.25-7.375zm10 0v14h7c1.106-2.39 1.106-2.39 2-5l-1-2c-.04-2.333-.043-4.667 0-7zm12 0-2 5 1 1c.455 2.655.702 5.322 1 8h6c1.13-5.023.78-8.979 0-14zm11 0c-1.106 2.39-1.106 2.39-2 5l1 2c.04 2.333.043 4.667 0 7h6c1.106-2.39 1.106-2.39 2-5l-1-2c-.04-2.333-.043-4.667 0-7zm11 0-2 2c.016 2.383.016 2.383.438 5 .662 4.8.662 4.8-.438 7h4c1.73-6.912 1.73-6.912 2-14zm-39 11q-1.978 5.09-3.937 10.188l-1.131 2.908-1.084 2.822-1 2.587c-.845 2.486-1.393 4.912-1.848 7.495l4 1 .867-2.215a96 96 0 0 1 2.203-5.039c3.058-6.693 3.381-12.452 2.93-19.746zm5 6c5.709 9.373 5.709 9.373 15 14 5.282.813 5.282.813 9.93-1.32 4.108-3.932 6.134-7.543 9.07-12.68zm0 8v4h2v2c5.637 3.436 5.637 3.436 12 5l1-2-2.012-.953c-4.745-2.3-9.034-4.488-12.988-8.047m0 9v5l8-1c-2.666-1.777-5.028-2.875-8-4m-5 1-1 4h2z"/><path d="M180 16v2h2a100 100 0 0 1 4.438 6.063l1.197 1.7C194.49 35.746 197.096 46.944 196 59c-2.452 12.938-8.105 24.204-18 33h-2v2c-13.394 8.011-27.775 11.491-43.305 7.871C117.622 97 107.32 88.095 100 74l-1.047-1.82c-5.631-12.879-4.023-25.868.902-38.633C101.55 29.778 103.65 26.389 106 23l2-3h2l.777-1.812c4.177-7.472 14.173-11.004 21.95-13.278C150.642.6 165.169 6.113 180 16m-63 0-3 2v2h-2v2h-2a96 96 0 0 0-4 6.188l-1.078 1.751c-6.722 11.1-7.997 21.721-5.203 34.295 2.1 7.714 5.164 13.64 10.281 19.766l1.809 2.184c7.151 7.865 18.034 13.578 28.73 14.187 10.225.244 18.319-.302 27.461-5.371a691 691 0 0 1 3.75-1.812L174 92v-2l1.75-.75c2.58-1.433 4.311-3.034 6.25-5.25v-2h2a764 764 0 0 0 3.938-7.5l1.13-2.11c4.799-9.337 5.352-20.652 2.827-30.827C186.984 27.493 179.065 17.209 166 10c-16.466-7.105-34.92-5.1-49 6m-22.437 98.188c1.972 1.367 1.972 1.367 3.437 2.812.5 2.813.5 2.813 0 5h-2l-1 3-2.062-.937c-4.458-1.613-8.147-2.755-12.688-1-2.812 2.42-3.995 4.45-5.25 7.937.24 3.36 1.15 6.177 3 9 3.017 1.902 4.936 2.191 8.438 1.688l2.367-.329c2.413-.395 4.81-.82 7.195-1.359 2.152 3.228 2.2 4.284 2 8-6.078 3.602-10.917 5.162-18 4-2.914-1.094-5.305-2.403-8-4v-2h-2c-4.73-6.355-4.802-12.243-4-20 1.945-6.294 6.808-10.152 12.375-13.375 5.923-1.41 10.781-1.486 16.188 1.563M188 113c17 0 17 0 23 3 3.429 3.88 4.668 6.967 4.387 12.043-.85 4.302-3.314 7.01-6.512 9.832-4.35 1.702-8.223 1.311-12.875 1.125v12c-5 1-5 1-8 0zm8 9v8c4.01.179 4.01.179 8 0l2-2c-.29-3.307-.29-3.307-2-6-2.67-.141-5.324-.042-8 0M68 24l4 1 1 5 3.25-1C80 28 80 28 84 28c2 3 2 3 1.688 5.125L85 36c-.272 2.27-.498 4.541-.719 6.816-.273 2.124-.72 4.12-1.281 6.184l5 3-2 3c-8.232 1.583-15.019-3.156-22-7v2l-4 1c.547-3.375 1.055-5.082 3-8l5 1v-2h-7v-3l4-2-1-5 3-2c.733-3.066.733-3.066 1-6m4 9 2 1 1 3v-4zm7 1 1 2Zm-7 4 1 4 3-2h-2v-2zm5 0-1 2 3-1zm2 5v3Zm-7 1v3l2 1zm72 69h10c.117 4.333.188 8.666.25 13l.102 3.7c.078 7.286-.418 12.105-4.352 18.3h-2v2c-4.427 2.012-9.162 3.863-14.004 2.39-1.697-.726-3.351-1.551-4.996-2.39 1.875-5.75 1.875-5.75 3-8l3.188.813c3.804.549 3.804.549 6.53-1.5 3.984-4.324 2.794-10.656 2.595-16.125l-.069-3.545A562 562 0 0 0 144 113M79 60h5v4h-2l.625 2.375L83 69l-2 2v4l5 1 1 3c-1 1-1 1-4.062 1.063L80 80v9l-4 1v-8c-2.374-.25-2.374-.25-5 0l-1.312 1.563C68 85 68 85 66.039 84.977c-2.022-.263-4.032-.615-6.039-.977.506-2.169 1-4 2-6h-2l.563-2.25c.429-2.7.288-4.196-.563-6.75l4-1v-6c3.375-.625 3.375-.625 7-1l2 2c2.575-.165 2.575-.165 5-1zm-7 8c-1.194 3.343-1.194 3.343-2 7l2 3h3v-2h-2l2-4zm-9.937 98.813 2.22.001c5.436.045 5.436.045 7.717 1.186v2h-2l-.375 2.688c-.57 3.016-1.391 5.515-2.625 8.312-2.169-.506-4-1-6-2l-1 2h-4l-.586-2.117-.789-2.758-.773-2.742c-.712-2.529-.712-2.529-2.852-4.383 3.758-2.505 6.72-2.26 11.063-2.187M58 170l1 4 1-4zm6 0 2 3 1-3zm43.438-2.937c2.562.937 2.562.937 4.374 4L113 174l-1-6c3.75-1.125 3.75-1.125 6 0q-.212 2.688-.437 5.375l-.247 3.023C117 179 117 179 116 181c-2.375-.25-2.375-.25-5-1-1.312-2.062-1.312-2.062-2-4v5h-5c-1.102-4.41-1.077-8.484-1-13 2-1 2-1 4.438-.937m-25.938-.25 2.969-.043C87 167 87 167 89 169l-4 4 5 5-1 3H75c0-3.787.425-7.265 1-11h-2v-2c2.602-1.3 4.597-1.168 7.5-1.187M80 170v2h2v-2zm0 5v3l3-1-1-2zm-55-7-1 3 2 1 1-5 5 1-.254 1.828-.308 2.422-.317 2.39c-.121 2.365.183 4.111.879 6.36h-6v-4l-3-1v2h2l-1 3h-6v-13c2.667-1.333 4.167-.671 7 0m160.125-.562 2.758.308L190 168c.222 1.79.427 3.582.625 5.375l.352 3.023L191 179c-2 2-2 2-4.602 2.195L178 181v-13c2.623-1.312 4.23-.896 7.125-.562M184 170v2l2-1zm0 6v2h2v-2zm59.125-8.562 2.758.308L248 168l-.125 3.25c.114 3.407.338 4.957 2.125 7.75l-2 2c-2.125-.375-2.125-.375-4-1v-4h-2l.563 1.938L243 180c-1 1-1 1-4.062 1.063L236 181v-13c2.623-1.312 4.23-.896 7.125-.562M242 170v2l2-1zm-108-2-.062 2.313c-.067 2.789-.067 2.789 1.062 5.687-.937 2.688-.937 2.688-2 5-3.053.294-5.955.419-9 0-2.625-2.187-2.625-2.187-4-5 .17-3.553 1-5 3-8 3.655-1.624 7.175-.662 11 0m-7 2-2 2c.322 3.1.322 3.1 1 6h4v-2h-2l2-5z"/><path d="M150 17c1.875 1.125 1.875 1.125 3 3 .506 3.98.666 6.096-1.75 9.375-2.306 1.666-3.428 2.459-6.25 2.625-3.25-.937-3.25-.937-6-2-1.212-7.27-1.212-7.27-.312-10.375 3.288-4.071 6.452-3.97 11.312-2.625m-6 3-2 2c.32 2.603.32 2.603 1 5l5 1v-2h2v-4h-2v-2zM42.625 167.938l2.477.027L47 168c2.285 4.005 2.085 6.492 1 11-3.491 2.327-4.892 2.503-9 2-2.437-1.5-2.437-1.5-4-4-.13-2.924.332-5.09 1-8 2.405-1.203 3.95-1.1 6.625-1.062M42 170l-2 1v6l4 1c.77-2.345.77-2.345 1-5-1.334-1.835-1.334-1.835-3-3m121-2h10c2.271 4.543 2.162 6.174 1 11-3.491 2.327-4.892 2.503-9 2-2.437-1.562-2.437-1.562-4-4 .174-3.365.488-5.976 2-9m3 3v7h4c.93-2.606 1.15-3.642.063-6.25L169 170c-1.224-.075-1.224-.075-3 1m93-4.125 2.688-.008C264 167 264 167 266 168v6h-2l-1-2 .063 3.938A59 59 0 0 1 263 180c-1 1-1 1-4.062 1.063L256 181v-8h-4v-5c2.488-1.244 4.227-1.133 7-1.125m-35.941.656c6.355-.083 6.355-.083 9.129 2.531 1.085 3.926.319 6.207-1.188 9.938-2.84 1.42-4.855 1.315-8 1-2.375-1.625-2.375-1.625-4-4-.494-4.038-.73-8.378 4.059-9.469M224 171c-.934 3.01-1.044 3.867 0 7l4-1v-6zm52-4 3 1c.95 2.285.95 2.285 1.688 5.063l.761 2.785L282 178h2l-1 3h-13c1.98-9.619 1.98-9.619 4-13zm-65.437.375 2.44.273C215 168 215 168 216 169c.188 2.438.188 2.438 0 5-2 2-2 2-4.625 2.125L209 176v2h2l-1 3h-6v-13c2.497-1.248 3.813-.952 6.563-.625M210 170v3h2l-1-3zm-196-2v5l-2 1-2-3-3 1v5a85 85 0 0 0 7-2l-1 6c-7.284.358-7.284.358-10-1-1.685-3.37-1.297-6.264-1-10 3.754-3.754 7.015-3.02 12-2m280 0v2h-2v8c2.993-.998 3.948-1.752 6-4 1 1 1 1 1.125 3.5C299 180 299 180 298 181c-1.853.072-3.708.084-5.562.063l-3.067-.028L287 181c0-1.658.006-3.315.035-4.973.17-4.144.17-4.144-1.035-8.027 2.862-1.43 4.934-.6 8 0m-136 0a260 260 0 0 1-.312 4.75l-.176 2.672c-.576 2.901-1.588 4.37-3.512 6.578l-6-1-1-4 3-2 1 1v-8c2.667-1.333 4.167-.671 7 0m-58 0v2h-2v8h2l-1 3h-6v-13c2.667-1.333 4.167-.671 7 0"/><path/></svg>