<svg xmlns="http://www.w3.org/2000/svg" width="500" height="500"><path fill="#ec3a6a" d="m296 109 2.93 1.02c31.28 11.214 54.843 35.401 69.124 64.936 13.505 29.192 13.498 63.666 2.669 93.626-11.77 30.965-34.507 54.281-64.16 68.668-10.829 4.763-21.94 7.805-33.5 10.188l-2.618.57c-5.968 1.149-10.636.763-16.445-1.008v2l-3.312-.437c-3.413-.43-6.825-.765-10.25-1.063A187 187 0 0 1 228 346v-2l-2.562.188c-4.068-.222-6.732-1.527-10.438-3.188l-3.562-.687C197.38 336.967 181.6 324.603 171 315v-2l-1.73-.687C161.52 307.83 155.875 297.377 151 290l-1.59-2.39c-4.14-6.531-6.787-13.36-9.41-20.61l-.871-2.043c-2.959-6.945-3.836-14.564-5.129-21.957l-.53-2.388c-2.298-12.77-1.329-27.979 1.53-40.612l.625-2.98c7.19-31.583 27.37-58.704 54.5-76.02 10.972-6.598 22.407-11.897 34.875-15 1.201-.3 2.403-.598 3.64-.906 21.378-4.76 46.834-4.223 67.36 3.906m-54.937 35.125-2.812.415c-11.408 1.808-24.31 4.69-33.251 12.46-.898 2.037-.898 2.037-1 4l1 1c5.17-.427 9.275-1.792 14-3.875 21.28-8.905 48.429-10.019 70.114-1.272 3.078 1.297 6.152 2.594 9.189 3.986 2.322 1.062 2.322 1.062 5.697 2.161l3-2c.035-1.887.035-1.887-1-4a55.6 55.6 0 0 0-7-4l-2.148-1.035c-11.48-5.297-23.126-8.42-35.852-7.965-4 0-4 0-6.629-.57-4.588-.585-8.753.02-13.309.695M196 185c-5.318 4.81-10.35 9.794-14 16 .317 2.16.317 2.16 1 4l4 1 1.793-2.266 2.394-2.984 2.356-2.953C196 195 196 195 198.801 192.766L201 191v-2l1.598-.762c2.415-1.245 4.737-2.614 7.07-4.005 20.093-11.877 43.123-16.047 66.222-11.103 11.082 2.855 21.743 6.998 30.438 14.55 1.579 1.527 1.579 1.527 3.672 1.32v2a505 505 0 0 0 4.215 3.363c2.804 2.572 4.888 5.646 7.074 8.746 1.907 2.107 2.886 2.73 5.711 2.891l2-2c-.243-4.385-2.03-6.642-4.937-9.812l-2.153-2.395c-1.716-2.021-1.716-2.021-3.91-1.793l-2-4h-2l-1-3a113 113 0 0 0-7.062-5l-1.952-1.328c-4.484-2.969-8.91-4.942-13.986-6.672l-2.598-1.062C256.031 157.005 221.473 163.713 196 185m7.625 20.25c-7.44 9.072-12.778 19.106-14.625 30.75l-.46 2.781c-1.678 13.57.608 28.483 5.46 41.219l2 2c2.603-.32 2.603-.32 5-1 .21-4.545-.454-7.963-1.937-12.25-1.818-5.677-2.848-10.807-3.063-16.75l-.156-3.086c-.42-14.728 3.519-27.216 13.469-38.164 11.474-12.146 25.384-18.812 42.234-20 18.383-.321 34.647 5.273 48.281 17.844 9.434 10.452 14.885 23.623 15.485 37.656-.45 5.39-1.708 9.189-5.625 13L307 261l-2.625 1.875c-5.934 1.978-11.758.27-17.375-2.187-5.265-4.443-5.832-10.271-6.729-16.717-.787-4.917-2.111-8.08-5.271-11.971h-2v-2c-1.685-1.332-1.685-1.332-3.812-2.562l-2.145-1.317c-5.926-3.252-13.7-3.046-20.207-1.66-6.045 2.346-11.127 6.748-14.211 12.414-4.217 9.67-2.651 19.953.566 29.754 7.192 17.852 19.187 30.088 36.809 37.66 5.886 2.516 5.886 2.516 12 1.711l1-4c-2.51-1.624-4.76-2.925-7.625-3.812-14.617-5.144-26.069-15.484-33.125-29.188-3.417-7.928-5.375-18.12-3.687-26.687 2.239-5.16 4.897-7.486 9.812-10.125 4.588-1.504 8.199-2.207 12.773-.286q2.101 1.064 4.153 2.223c1.677 1.028 1.677 1.028 3.699.875 1.785 4.82 3.115 9.4 3.813 14.5 1.25 7.32 4.768 12.936 10.687 17.438 5.786 3.663 11.711 5.23 18.5 4.062 8.457-3.058 14.405-7.129 19.086-14.773 4.544-11.07.547-24.916-3.77-35.457-1.295-2.725-2.61-5.28-4.316-7.77h-2l-.75-2.187c-1.373-3.09-2.974-5.323-5.25-7.813h-2v-2l-5-2v-2a714 714 0 0 0-9-5l-2.262-1.305c-27.462-15.013-61.875-7.766-83.113 14.555m17.121 12.55c-7.525 9.48-11.334 19.101-11.246 31.2l.015 2.757c.515 20.358 10.375 36.77 23.618 51.638L235 305c2.707-.14 2.707-.14 5-1 .955-1.725.955-1.725 1-4-2.208-2.542-2.208-2.542-5-5l-2.187-2.812L232 290h-2c-.26-.695-.52-1.39-.79-2.105-1.336-3.195-2.944-6.158-4.585-9.207-7.242-14.2-9.94-29.184-5.375-44.75 1.739-4.463 4.353-9.74 8.75-11.938v-2l2.125-.75c2.945-1.14 2.945-1.14 5.375-3.187 8.756-5.942 20.492-5.796 30.5-4.063 9.915 2.66 17.373 7.973 22.75 16.71 3.134 5.74 4.566 10.873 4.941 17.407.16 2.123.16 2.123 2.309 3.883 2.603-.32 2.603-.32 5-1 2.36-6.671-.569-14.908-3.41-21.047-6.935-11.608-17.55-20.403-30.774-23.762-16.646-3.013-34.269.73-46.07 13.61M252 245c-.76 10.914 1.524 19.75 8.508 28.297 8.625 9.845 18.762 15.837 32.004 17.015 5.604.103 10.245-.16 15.488-2.312 1.15-1.925 1.15-1.925 1-4-1.962-2.426-1.962-2.426-5.676-2.055q-2.318.086-4.637.18c-8.403.202-14.772-1.247-22.687-4.125h-2v-2l-3.125-2.437c-7.502-6.285-10.416-14.513-11.355-24.032-.582-2.833-1.211-3.835-3.52-5.531-2.075-.15-2.075-.15-4 1"/><path fill="#d84a70" d="M416 400c3.063 2.563 3.063 2.563 5 5l1.375-2.437C424 400 424 400 426 399c8.904-.584 8.904-.584 13 3v4l-2.062-.5c-3.354-.57-6.542-.567-9.938-.5l-1 3 2.3.55 3.012.762 2.989.739c2.73.96 3.947 1.69 5.699 3.949.688 2.188.688 2.188 1 4 6.082 1.947 6.082 1.947 12 1v-3l-1.828-.516c-8.85-2.683-8.85-2.683-11.172-6.484 0-3.753.18-6.022 2.625-8.937 3.343-1.496 5.742-1.439 9.375-1.063 3.438 1.5 3.438 1.5 6 3v4l-2.062-.5c-3.354-.57-6.542-.567-9.938-.5v3l2.082.48c7.33 1.899 7.33 1.899 10.106 4.832 1.024 3.389.909 5.324-.188 8.688-2.662 2.757-5.2 3.729-9 4-3.56-.944-6.761-2.256-10-4l-1.687 1.438c-2.614 1.765-4.172 2.338-7.313 2.562-3.544-.921-5.942-1.962-9-4l1-4 1.703.465c2.355.549 4.642.85 7.047 1.098l2.422.253L435 420v-5l-1.828-.113c-7.938-.653-7.938-.653-11.172-3.887v2c-3.31 1.655-6.991 1.1-10.625 1.063l-2.43-.014q-2.972-.02-5.945-.049c2.011 4.04 2.011 4.04 5.938 5.938 3.207.065 4.323-.477 7.062-1.938 2.25.375 2.25.375 4 1v3c-2.866 2.14-5.588 3.88-9 5-3.402-.704-6.068-2.177-9-4l-2-1c-2.278-4.468-3.743-7.908-3-13 1.503-3.967 3.272-6.458 6.688-9 4.368-1.319 7.94-1.358 12.312 0m-12 5.875c-1.142 2.035-1.142 2.035-1 4.125h14l-3-6c-5.526-.664-5.526-.664-10 1.875"/><path fill="#d04a69" d="m142 399 3.188.563c3.383.388 5.576.32 8.812-.563l2 4 1-3c3.276-1.092 3.843-.79 7 0 2.203-.202 2.203-.202 4.438-.625 3.07-.373 4.451-.413 7.437.625 3.605 3.393 5.033 6.646 5.223 11.504-.322 5.268-1.01 8.85-5.098 12.496-2.937 1.938-2.937 1.938-6 3-2.875-.812-2.875-.812-5-2l-.437 3.438C164 432 164 432 163 433c-2 .04-4 .043-6 0-.897-3.068-1.117-5.793-1.098-8.984l.01-2.832.025-2.934.014-2.98q.018-3.636.049-7.27c-3.583-1.002-3.583-1.002-7 0v17l-6 1c-4.629-4.629-3.158-13.688-3.23-19.793.217-3.025.64-4.674 2.23-7.207m22 8a758 758 0 0 0-.062 4.938l-.036 2.777c-.161 2.25-.161 2.25 1.098 3.285 2.915.5 2.915.5 6 0 2.098-2.107 2.098-2.107 3-5-.237-3.401-.57-4.57-3-7-2.783-.209-4.487-.256-7 1"/><path fill="#e24e78" d="M233 394h7v6l3-1c1 1 1 1 1.063 4.063L244 406l-2 1-2-1v12h4l1 6c-3.188 1.594-6.538 1.518-10 1-2.529-2.284-3.592-4.633-4-8q.452-2.51 1-5a99 99 0 0 0 0-5l-2-1-1 18-4 2c-1.457-.988-1.457-.988-3-3a78 78 0 0 1-.687-8.187l-.104-2.272A495 495 0 0 1 221 407h-7v17l-7 2v-2l-2-1c-.212-16.75-.212-16.75 1-22 1.75-1.562 1.75-1.562 4-2 1.668.324 3.335.66 5 1a80 80 0 0 0 4-.562c3.554-.539 5.761-.159 9 1.562l2-2h3zm-5 8 1 2Z"/><path fill="#e0406a" d="M260 244c.953 4.763 1.083 9.167 1 14h2l1.625 3.563c1.913 3.873 4.255 6.854 7.203 9.992C273 273 273 273 273 275l5-2 2 5h3v2c8.017 1.125 15.921 1.096 24 1v1c-11.308 2.557-22.6 1.2-33-4v-2l-1.812-.805c-5.859-3.2-10.134-9.964-12.188-16.195-.882-4.647-1.498-9.298-2-14h-6c.419 10.826 2.681 19.92 9.73 28.344C263 275 263 275 264 278c1.82 1.064 1.82 1.064 4 2q2.285 1.462 4.563 2.938c9.239 5.524 18.737 7.12 29.437 6.062 4.878-1.194 4.878-1.194 8-5 .625 2.375.625 2.375 1 5-4.266 4.266-12.99 3.904-18.82 4.09q-3.09-.038-6.18-.09l-3 1 .938 2.688c1.755 5.473 1.755 5.473 2.062 8.312l-2 3c-5.126.844-10.379.465-15-2l-1 2-1.187-1.375c-2.117-1.898-4.188-2.589-6.813-3.625l-1-2-3-1v-2l-5-1v-4c2.881 1.351 5.318 2.927 7.875 4.813 5.538 3.74 14.67 8.87 21.543 7.816L282 305c-.19-1.975-.19-1.975-1-4-1.78-.964-1.78-.964-4-1.437-5.124-1.48-9.44-3.836-14-6.563l3-1c.662-4.487 1.17-8.398-1.605-12.2a146 146 0 0 0-4.293-3.937C255.12 271.447 251.28 265.587 250 259c-.234-5.016-.176-9.984 0-15 3.283-1.642 6.425-.519 10 0"/><path fill="#da4c71" d="m108 400 2-.562 2-.438 3 2c.372 2.028.372 2.028.363 4.508l-.002 2.742-.049 2.875.01 2.805c-.044 5.674-.566 10.66-2.322 16.07-3.588 3.178-7.284 3.764-12 4-3.054-.487-6.019-1.182-9-2l-1-5h2c.275-3.999.275-3.999-1.5-7.312-2.193-5.392-2.082-8.942-.25-14.438 3.84-7.13 9.187-7.77 16.75-5.25m-9.937 8.125c-1.362 3.685-.618 5.356.937 8.875 3.287.8 4.71 1.097 8 0 1.4-2.799 1.253-4.905 1-8-1.063-1.98-1.063-1.98-3-3-3.518-.704-4.49-.56-6.937 2.125M104 424c-2.333.04-4.667.043-7 0v3h9l1-4c-1.224-.075-1.224-.075-3 1"/><path fill="#dc416a" d="m285 175 3.688 1.32c7.988 3.15 14.632 7.309 21.312 12.68l-1 2a769 769 0 0 1-5.5-3.375l-3.094-1.898L298 184v-2a1694 1694 0 0 0-9-3l-2.418-.81c-18.892-6.186-37.413-7.849-56.633-2.065C227 177 227 177 224 177l-.875 1.813C222 181 222 181 220 184a155 155 0 0 0-2 5 119 119 0 0 0 7.438-2.062c3.082-.812 5.412-1.129 8.562-.938-3.079 2.052-6.15 3.495-9.5 5.063-15.372 7.541-26.673 19.71-32.5 35.937-.932 2.986-1.546 5.907-2 9l-.406 2.594c-1.54 12.733.824 25.934 3.406 38.406h-3c-3.66-15.422-4.663-33.286-2-49l2-3c.545-2.075.942-4.15 1.34-6.258L192 217l3-1c1.05-1.771 1.05-1.771 2-4a240 240 0 0 1 3.375-5.687l1.773-2.95C204 201 204 201 208 200v-13l-5 2c3.585-3.897 7.23-6.6 11.938-9.062l1.968-1.042C237.148 168.584 263.694 167.343 285 175"/><path fill="#e34e78" d="M32 391q5.718-.042 11.438-.062l3.298-.026 3.135-.01 2.904-.016C55 391 55 391 56 392c.188 2.438.188 2.438 0 5l-2 2c-3.258-.023-3.258-.023-7.125-.375l-3.883-.336L40 398v6l3.027-.035c1.29-.01 2.581-.018 3.91-.027l3.903-.036C54 404 54 404 55 405c.04 1.666.043 3.334 0 5-4.873 1.591-8.808 2.212-14 2l-.148 2.555-.227 3.32c-.07 1.09-.14 2.181-.21 3.305C40 424 40 424 38 426c-2.625-.375-2.625-.375-5-1-2.691-6.914-2.008-13.632-1.625-20.937l.172-3.807q.21-4.629.453-9.256"/><path fill="#e74f7a" d="M131 399c4.544 1.902 6.715 4.684 9 9 .5 3.572.591 5.196-1.562 8.125L137 418c.217 2.208.217 2.208 1 4-4.753 3.236-8.18 4.656-13.977 4.398-3-.59-4.339-1.909-6.023-4.398v-2l-2-1c-1.537-5.2-.76-9.944 1-15 4.438-4.55 7.717-5.426 14-5m-6.25 7.938L123 409h9c-.64-3.08-.64-3.08-2.812-3.937-2.406-.315-2.406-.315-4.438 1.875M124 416v2c4.716.925 7.673 1.23 12-1-4.486-2.393-7.008-1.868-12-1"/><path fill="#eb3a69" d="m255.938 151.938 3.228.013q3.917.018 7.834.049v2l3.688-.062c3.232-.006 6.161.274 9.312 1.062v2l2 1v6q-2.97.039-5.937.063l-3.34.035C270 164 270 164 269 163a154 154 0 0 0-6.52-.246l-4.037-.1a1702 1702 0 0 0-6.379-.13c-2.049-.04-4.097-.092-6.146-.145l-3.726-.076c-2.975-.282-4.687-.743-7.192-2.303l-2 2v-2l-2-1v-3l4 2 2-5c6.326-1.14 12.523-1.114 18.938-1.062"/><path fill="#ef507e" d="m68 399 3.375.563c3.45.754 3.45.754 5.625-.563 5.786-.56 5.786-.56 8 0 2.662 2.193 3.859 3.93 4.314 7.38.08 2.821.035 5.612-.064 8.433l-.055 2.966A487 487 0 0 1 89 425c-2.312.688-2.312.688-5 1-2.015-1.502-2.893-2.4-3.34-4.901.015-.697.03-1.393.047-2.11l.03-2.296c.024-.785.05-1.571.076-2.38l.04-2.417c.036-1.965.09-3.93.147-5.896l-7 1v17l-4 2c-3-2-3-2-3.464-3.876l-.118-2.265-.135-2.496-.096-2.613-.154-2.566c-.223-4.856.036-8.622 1.967-13.184"/><path fill="#da4a71" d="m331 393.063 2 1.937-2 4-1.562-.937c-4.213-1.837-8.057-2.523-12.438-1.063-.733 2.015-.733 2.015-1 4l1.758.77q2.43 1.07 4.851 2.16c1.913.856 3.838 1.686 5.766 2.507 3.159 1.88 4.3 3.133 5.625 6.563-.067 3.845-.403 6.15-2.625 9.313-4.775 3.392-8.945 3.99-14.625 3.062-3.2-.606-4.395-.963-6.547-3.46L309 420l2-4 6 3c1.874.07 3.75.084 5.625.063l3.04-.028L328 419v-7c-.568-.182-1.137-.364-1.723-.55-13.595-4.427-13.595-4.427-16.277-8.45.112-7.064.112-7.064 3.313-10.437 5.945-3.457 11.962-3.437 17.687.5"/><path fill="#d0476b" d="M287 106v1c-4.366.07-8.454.07-12.793-.492-6.44-.749-12.906-.694-19.38-.693-2.19-.002-4.38-.02-6.57-.04-11.78-.12-11.78-.12-23.257 2.225l-1 2c-2.328.598-2.328.598-5.25 1.063l-2.89.472L213 112q-2.502.487-5 1l-1 3c-2.512 1.535-2.512 1.535-5.687 3.063l-3.137 1.535C195 122 195 122 191.69 123.02c-2.934.726-2.934.726-4.066 3.605L187 129h-2l-1 2-3.125 1.625c-3.93 2.146-6.344 4.987-9.168 8.41-1.59 1.831-3.196 3.323-5.082 4.84-2.663 1.856-2.663 1.856-3.625 4.125h-2l-.625 1.688c-1.925 3.237-4.414 4.994-7.375 7.312 6.937-20.056 31.382-35.905 49.599-44.849 7.263-3.443 14.593-6.208 22.401-8.151 1.201-.3 2.403-.598 3.64-.906 19.029-4.237 39.418-3.254 58.36.906"/><path fill="#da4c72" d="M280 399c3.65 1.659 6.124 3.436 8 7 1.17 4.638 1.227 8.184-.062 12.813-2.275 3.742-3.995 5.292-7.938 7.187-6.082.722-6.082.722-8.75-1.375L270 423l-3-2c-2.733-3.77-3.256-6.495-2.625-11 1.131-4.594 2.885-7.21 6.691-10.004 3.158-1.627 5.477-1.572 8.934-.996m-8.875 6.5c-1.599 3.553-1.7 6.666-1.125 10.5 1.44 2.955 2.33 3.736 5.375 4.938 3.584.085 4.975-.51 7.625-2.938 1.426-4.025 1.428-7.042-.312-10.937-2.217-2.71-3.132-3.004-6.625-3.375-3.06.032-3.06.032-4.938 1.812"/><path fill="#d84b72" d="m337 399 3 1 1 19c4.769 1.035 4.769 1.035 9 0q.039-2.375.063-4.75l.035-2.672c-.09-2.36-.429-4.323-1.098-6.578h2v-5h4v25l-5-1-3.437 1.125c-3.563.875-3.563.875-6.875-.187-3.167-2.284-3.614-3.235-4.688-6.938-.276-2.901-.28-5.775-.25-8.687l-.023-2.338c.02-5.722.02-5.722 2.273-7.975"/><path fill="#f0507f" d="M158 401h4v2l1.875-1.125c4.53-1.269 8.722-.473 13.125 1.125 2.567 3.85 1.833 5.586 1 10l-3 1-.875-3.375c-.817-3.628-.817-3.628-3.125-5.625-2.83.363-5.29 1.097-8 2a758 758 0 0 0-.062 4.938l-.036 2.777c-.161 2.25-.161 2.25 1.098 3.285 1.52.072 3.042.084 4.563.063l2.503-.028L173 418a88 88 0 0 1 1 5c-1 1-1 1-4.562 1.063L166 424l-1-2-3-1v11h-4z"/><path fill="#d84a6f" d="M375 400c1.77 1.555 1.77 1.555 3 3l-2 4-3-1v-2l-3.875.313-2.18.175c-2.34.386-2.34.386-3.945 3.512-.316 2.216-.316 2.216-.25 4.563l-.016 2.378c.082 2.282.082 2.282 2.266 4.059 3.917 1.237 5.456.829 9-1 2.25.375 2.25.375 4 1-.562 1.813-.562 1.813-2 4-3.99 2.07-6.476 3-11 3v-2l-2.312-.687c-3.43-1.676-4.258-2.775-5.688-6.313-.755-5.609-.368-10.284 3-15 4.724-3.487 9.487-3.66 15-2"/><path fill="#cf4c6e" d="M198 391h6c.625 2.875.625 2.875 1 6l-2 2 1 1a99 99 0 0 1 .098 5.348l-.01 3.271-.025 3.443-.014 3.456A2762 2762 0 0 1 204 424l-4 2c-3-2-3-2-3.547-3.82-.556-6.315-.31-12.43.228-18.733.26-3.194.345-5.368-.681-8.447.938-2.187.938-2.187 2-4"/><path fill="#d45275" d="M61 390.875C64 391 64 391 65 392c.161 3.065-.018 5.055-1 8a120 120 0 0 0-.098 5.762l.01 3.388.026 3.538.013 3.572q.018 4.37.049 8.74l-4 2c-2.987-2.467-3.465-4.208-4-8-.185-3.064-.23-6.119-.25-9.187l-.062-2.483c-.016-2.373-.016-2.373.312-6.33l3-2-2-2c-.187-2.562-.187-2.562 0-5 1-1 1-1 4-1.125"/><path fill="#d8496f" d="M392 399c2.875 1.25 2.875 1.25 5 3 .813 2.188.813 2.188 1 4l-2.062-.5c-3.447-.587-6.45-.823-9.938-.5-2.223 1.323-2.223 1.323-3 4 .068 3.052.467 5.997 1 9 3.343 1.194 3.343 1.194 7 2l3-2c2.188.375 2.188.375 4 1-.312 1.875-.312 1.875-1 4-3.365 2.243-4.976 2.848-9 3-2.924-.948-5.587-2.082-8-4-.605-2.082-.605-2.082-1-4l-2-1v-10h2l.188-1.75c2.175-6.024 6.984-6.979 12.812-6.25"/><path fill="#d3496d" d="m269 391 1 4c-3.01.934-3.867 1.044-7 0v4l4 2-1 4h-3l-1 19-4 1c-2.113-2.113-1.463-6.512-1.625-9.437l-.156-2.393c-.343-5.921-.343-5.921.781-8.17l-4-1 2-5h2l.313-2.312c.74-2.894 1.397-3.856 3.687-5.688 2.862-1.43 4.934-.6 8 0"/><path fill="#cf486b" d="M260 244c.953 4.763 1.083 9.167 1 14h2l1.625 3.563c1.913 3.873 4.255 6.854 7.203 9.992C273 273 273 273 273 275l5-2 2 5h3v2c8.017 1.125 15.921 1.096 24 1v1c-11.308 2.557-22.6 1.2-33-4v-2l-1.812-.805c-5.859-3.2-10.134-9.964-12.188-16.195-.882-4.647-1.498-9.298-2-14h-6c.419 10.826 2.681 19.92 9.73 28.344C263 275 263 275 264 278a90 90 0 0 0 4 2l1 2c-6.23-1.063-10.089-6.626-13.75-11.437-5.742-8.623-5.6-16.585-5.25-26.563 3.283-1.642 6.425-.519 10 0"/><path fill="#ef5180" d="m183 399 3.188.563c3.407.39 5.543.206 8.812-.563 1 1 1 1 1.063 4.063L196 406l-6 2-.148 3.43-.227 4.445c-.03.746-.062 1.493-.094 2.262-.304 5.636-.304 5.636-2.531 7.863-2.625-.375-2.625-.375-5-1-.226-3.582-.428-7.166-.625-10.75l-.195-3.078-.157-2.969-.158-2.73c.145-2.662.778-4.204 2.135-6.473"/><path fill="#db426a" d="M265 225c3.15.7 6.065 1.652 9 3l1 2 3 1c4.573 6.321 5 12.36 5 20l7 2 .188 1.875c.64 2.403.64 2.403 3.375 3.375L296 259l-2 2c5.807.3 8.792-.214 14-3l3 1c-8.789 6.278-8.789 6.278-14.168 5.813-5.847-1.097-10.758-2.995-14.402-7.946-2.084-4.179-2.572-8.508-3.246-13.072-.666-4.077-1.483-6.667-4.184-9.795v-2h-2v-2l-2.312-.812c-2.562-1.132-3.885-2.1-5.688-4.188"/><path fill="#ef507e" d="M37 396h1l1 8 14 1 1 5H38v13h-5a629 629 0 0 1-.25-10.125l-.102-2.883c-.083-5.991.333-9.436 4.352-13.992"/><path fill="#cc496b" d="M358 159c4.03 3.445 5.86 7.332 8 12.063l1.06 2.31C379.793 201.46 381.744 232.417 373 262h-1c-.163-4.89-.235-7.653 2-12 2.11-8.088 2.18-16.322 2.188-24.625l.002-2.888c-.05-6.539-.503-12.986-1.19-19.487h-2l-.078-2.055c-.43-7.038-1.98-12.57-4.922-18.945a3013 3013 0 0 1-2.25-5l-1.016-2.187C364 173 364 173 364 171h-3a665 665 0 0 1-1.5-4.312l-.844-2.426C358 162 358 162 358 159"/><path fill="#d74a72" d="M294.438 399.438 297 400c2.232-.369 2.232-.369 4-1l2 4-2.937 1.438c-2.868 1.264-2.868 1.264-4.063 2.562a254 254 0 0 0-.562 8.563l-.131 2.443A1763 1763 0 0 0 295 424c-1.937.563-1.937.563-4 1-2.523-2.523-1.583-9.033-1.75-12.437l-.207-3.26-.152-3.112-.156-2.868L289 401c3-2 3-2 5.438-1.562"/><path fill="#cb4a67" d="M300 337c2.063.438 2.063.438 4 1-9.329 4.543-18.649 6.701-28.791 8.584-1.955.368-3.903.77-5.85 1.178-5.82 1.148-9.82 1.504-15.359-.762v2l-3.312-.437c-3.413-.43-6.825-.765-10.25-1.063A187 187 0 0 1 228 346v-2l-2.687.125c-3.286-.124-5.367-.739-8.313-2.125v-1c2-.043 4-.04 6 0l1 1c2.14.373 4.287.699 6.438 1 6.345.892 6.345.892 8.562 2 24.494 1.424 24.494 1.424 48.05-4.273 3.22-1.2 6.57-1.71 9.946-2.297 1.993-.238 1.993-.238 3.004-1.43"/><path fill="#eb507d" d="M142 399c10 1 10 1 12 2v3l-2.945.988c-3.468 1.771-3.468 1.771-3.86 5.805a111 111 0 0 0-.07 4.394l-.062 2.272A239 239 0 0 0 147 423h-5z"/><path fill="#ce496a" d="m258.063 141.688 2.073-.012c7.04-.02 13.11.178 19.864 2.324l2.66.746c4.72 1.359 9.015 2.864 13.34 5.254-3.62 1.316-5.51.657-9-.812-8.844-3.408-17.566-4.502-27-4.188v-2l-2.25 1.063c-3.08 1.05-3.734.696-6.75-.063-3.382.15-6.715.696-10.062 1.188l-2.855.407c-6.028.922-11.526 2.234-17.122 4.733C219 151 219 151 216 150c13.168-8.008 27.126-8.273 42.063-8.312"/><path fill="#c94a6a" d="m285 175 3.688 1.32c7.988 3.15 14.632 7.309 21.312 12.68l-1 2a769 769 0 0 1-5.5-3.375l-3.094-1.898L298 184v-2a1694 1694 0 0 0-9-3l-2.418-.81c-21.704-7.107-40.884-6.991-62.582-.19-1.66.363-3.325.713-5 1 3.375-2.946 6.645-3.961 10.938-5.125l3.652-1.008c16.397-4.17 35.46-3.599 51.41 2.133"/><path fill="#cf486a" d="M266.766 233.418c3.803 2.693 5 5.498 5.972 10l.575 3.77c1.176 6.9 3.577 12.16 7.687 17.812-2.169-.506-4-1-6-2-1-2.625-1-2.625-2-6l-1.062-3.566a110 110 0 0 1-1.938-8.371c-.852-4.133-2.366-6.77-5-10.063-4.184-2.092-9.444-1.432-14-1-2.787 1.013-4.539 2.242-7 4l-2.937 1.75L239 241c1.357-4.44 3.134-6.452 7-9 7.83-3.405 13.37-2.2 20.766 1.418"/><path fill="#d84d72" d="M172 405c2.366 2.284 2.963 3.451 3.188 6.75L175 414l2-1v-3h2l-1-6 2 1c1.2 4.708 1.567 9.477-.187 14.063-1.813 2.937-1.813 2.937-4 3.875L174 423l-2-4-3.875.125c-2.18.07-2.18.07-4.125-.125-2.491-2.491-2.351-3.489-2.437-6.937.095-4.721.095-4.721 2.625-7.25 3.203-.926 4.713-1.036 7.812.187m-8 2a758 758 0 0 0-.062 4.938l-.036 2.777c-.161 2.25-.161 2.25 1.098 3.285 2.915.5 2.915.5 6 0 2.098-2.107 2.098-2.107 3-5-.237-3.401-.57-4.57-3-7-2.783-.209-4.487-.256-7 1"/><path fill="#ef517f" d="M131 399c2.873 1.405 4.745 2.745 7 5 .195 2.164.195 2.164.125 4.625l-.055 2.477L138 413h-8v-2h4c-.348-1.975-.348-1.975-1-4l-2-1v-2l-3.937.375c-.731.07-1.462.14-2.215.21L123 405l-1 2-2-1v2h-2c.362-5.437.362-5.437 3.125-7.875 3.571-1.397 6.065-1.533 9.875-1.125"/><path fill="#cc496c" d="M248 201c8.8.313 16.776.618 25 4l3.29 1.098c10.667 3.678 10.667 3.678 13.71 9.902l3 2v2h2l-1 4-1.363-1.723C285.106 213.237 276.54 207.52 265 205l-3.312-.75c-9.091-.616-17.11.44-25.543 3.91C234 209 234 209 232 209l1-3 2.375-.375c2.766-.416 2.766-.416 4.625-2.625 2.688-.27 5.291-.087 8 0z"/><path fill="#cd4a6c" d="M32 391q5.718-.042 11.438-.062l3.298-.026 3.135-.01 2.904-.016C55 391 55 391 56 392c.04 1.666.043 3.334 0 5l-3-3 1-2H33v31h5v-13h16v1l-13 1-.375 5.875C40.25 423.75 40.25 423.75 38 426c-2.625-.375-2.625-.375-5-1-2.691-6.914-2.008-13.632-1.625-20.937l.172-3.807q.21-4.629.453-9.256"/><path fill="#f05280" d="m109 400 4 1v24l-5 1 1-6h-2l.496-1.64c.59-2.762.6-5.288.567-8.11l-.028-2.984L108 405l-7-1 2-2c3.125.375 3.125.375 6 1z"/><path fill="#cc4e6c" d="M215 400c2.706-.185 5.315-.583 8-1-3.523 1.973-7.054 3.154-11 4l-4-2v22h4v-16h2v17l-7 2v-2l-2-1c-.206-16.299-.206-16.299 1-22 3.796-2.53 4.638-1.74 9-1"/><path fill="#f05281" d="M208 401c8 0 8 0 10 1-1 3-1 3-3.016 4.207-2.357 1.759-2.357 1.759-2.593 5.367q-.1 2.056-.141 4.113l-.09 2.127A320 320 0 0 0 212 423h-4z"/><path fill="#cd486a" d="M136 198c1.175 3.713 1.133 7.25 1.125 11.125l.008 3.758C137 216 137 216 136 218c-.512 11.663.292 23.361 1 35-5.896-5.896-4.222-19.7-4.25-27.5.06-21.122.06-21.122 3.25-27.5"/><path fill="#c74b67" d="M280.313 217.875c3.406 2.709 6.054 5.669 8.687 9.125l-1 2c-7.105-4.579-7.105-4.579-9-7v-3h-2v-2l-2.625-.875a123 123 0 0 1-6.043-2.172c-4.09-1.17-7.786-1.335-12.02-1.328l-2.4-.004c-5.777.104-10.538 1.112-15.846 3.504C236 217 236 217 233 217c13.26-10.987 33.985-8.58 47.313.875"/><path fill="#cc4f6e" d="m68 399 3.375.563c3.45.754 3.45.754 5.625-.563 5.32-.422 5.32-.422 8 0 2 2 2 2 3 4l-2.062-1.062c-4.752-1.517-9.23-.256-13.938 1.062v-2h-4v22h4v-15l2-1v17l-4 2c-3-2-3-2-3.464-3.876l-.118-2.265-.135-2.496-.096-2.613-.154-2.566c-.223-4.856.036-8.622 1.967-13.184"/><path fill="#d1486b" d="M356 290h3c-1.532 4.675-4.09 8.03-7.125 11.813l-1.498 1.879C343.84 311.795 336.565 319.014 328 325h-2c1.238-3.714 2.852-4.774 6-7h2l.188-1.875L335 314q2.495-1.01 5-2a95 95 0 0 0 4-5l2-1a161 161 0 0 0 3-7h3l2-7h2z"/><path fill="#f05280" d="m232 404 6 1 1 14h3l2 4c-2.957 1.478-5.742 1.06-9 1-1.254-3.763-1.107-7.272-1.062-11.187l.013-2.272q.02-2.77.049-5.541z"/><path fill="#ed507f" d="M226 403c2 2 2 2 2.227 3.88-.01.743-.02 1.487-.032 2.253l-.02 2.441-.05 2.551-.027 2.574c-.024 2.1-.06 4.2-.098 6.301l-5 1-1-20z"/><path fill="#d9436b" d="m261.75 181.25 3.152.371 3.02.395 2.737.352c2.613.705 3.644 1.568 5.341 3.632l-3.375-.437c-13.368-1.65-25.296-1.53-38.625.437v-3q2.03-.474 4.063-.937l2.285-.528L243 181l3.074-.645c5.358-.485 10.362.18 15.676.895"/><path fill="#f0517f" d="m96 403 3 1-1.062 2.563c-1.074 3.934-.85 6.487.062 10.437l2 2-2 3c-3.088-.894-4.634-1.418-6.375-4.187-1.01-4.546-.078-8.455 1.375-12.813z"/><path fill="#f14f7f" d="M203 400v23h-4v-22c3-1 3-1 4-1"/><path fill="#db436a" d="m226 197 2 1-1.75.625c-2.498 1.305-2.498 1.305-4.125 4.25-2.343 3.445-4.675 4.875-8.125 7.125l-.937 2c-1.468 2.763-3.684 3.45-6.375 4.852-2.652 1.804-3.56 4.23-4.688 7.148-.719-1.7-.719-1.7-1-4 5.285-8.763 15.03-19.676 25-23"/><path fill="#f15281" d="M59 401h4v22h-4z"/><path fill="#d0486a" d="M229 241h2l.078 3.262c.467 13.623 3.04 24.439 10.336 36.18A66 66 0 0 1 245 287l-3-1v-2l-3-1v-4h-2q-1.727-3.84-3.437-7.687l-.987-2.186c-3.033-6.847-3.72-12.5-3.638-19.94l.013-2.388q.02-2.9.049-5.799"/><path fill="#ca4a69" d="m289 157-22-3v-2c-17.523.643-17.523.643-35 2 13.09-7.995 45.11-5.918 57 3"/><path fill="#d9446a" d="m205 176 3 1-2.344 1.688c-6.416 4.7-12.186 9.507-17.656 15.312a953 953 0 0 1-4 4c.075-3.166.299-5.297 2.59-7.594a100 100 0 0 1 3.816-2.914c1.908-1.786 2.027-2.998 2.594-5.492 2.5-1.687 2.5-1.687 5-3l1-1c2-.04 4-.043 6 0z"/><path fill="#db4c73" d="m183 399 3.188.563c3.407.39 5.543.206 8.812-.563 1 1 1 1 1.063 4.063L196 406l-6 2-1 16h-1l-.184-3.867-.254-5.008-.119-2.55-.127-2.442-.11-2.254c-.106-1.968-.106-1.968-1.206-3.879l1-3-4-1z"/><path fill="#cf476b" d="M224 225c0 3 0 3-1.437 5.688-3.54 7.502-2.686 16.188-2.625 24.312l.013 3.504q.018 4.248.049 8.496c-5.557-8.335-4.18-18.527-3-28 1.186-5.631 3.014-9.74 7-14"/><path fill="#c94b67" d="m273 192 2 2-2.676-.219c-15.328-1.185-29.517-1.335-44.324 3.219 1-2 1-2 3.73-3.035l3.458-1.028 3.417-1.035c10.996-2.922 23.42-3.195 34.395.098"/><path fill="#f15381" d="M68 401h4l1 5-3 1-1 3h2l1-2v15h-4z"/><path fill="#ed517e" d="M264.625 391.875 267 392l1 2h-6l-1 7h4v2h-4l.07 3.36q.029 2.194.055 4.39l.05 2.21c.039 4.175-.26 6.21-2.175 10.04l-1-19-3-1v-2l3-1a127 127 0 0 0 2-6c2-2 2-2 4.625-2.125"/><path fill="#e54d78" d="M360 406c1.176 3.674 1.074 7.17 1 11 5.224 2.902 9.16 3.222 15 2-.5 1.938-.5 1.938-2 4-4.84 1.29-6.834 1.562-11.375-.625-3.683-3.332-4.484-5.612-4.875-10.5C358 409 358 409 360 406"/><path fill="#d4466b" d="M251 293c2.881 1.351 5.318 2.927 7.875 4.813 5.02 3.422 10.364 5.239 16.086 7.109C278 306 278 306 281 308c-4.548.178-7.88-.002-12-2l-1 2-1.187-1.375c-2.117-1.898-4.188-2.589-6.813-3.625l-1-2-3-1v-2l-5-1z"/><path fill="#c94a6a" d="M310 116c4.656 1.357 8.577 3.313 12.625 5.938l1.834 1.185c6.472 4.31 12.01 9.441 17.541 14.877l2.523 2.477A469 469 0 0 1 350 146l-1 2-1.25-1.285c-3.822-3.881-7.767-7.53-11.898-11.078-1.599-1.413-3.11-2.924-4.602-4.45-2.044-1.987-3.635-3.121-6.25-4.187v-2l-6-2v-2l-2.25-.375c-2.551-.58-4.477-1.362-6.75-2.625z"/><path fill="#e03f6b" d="M245 287a318 318 0 0 1 6 5v1l-7 1v2h-2l.125 3.875c.07 2.18.07 2.18-.125 4.125-2 2-2 2-5.375 2.438C233 306 233 306 230.563 303.5L229 301l1-2 2.188 2.563c2.548 2.786 2.548 2.786 5.625 2.25L240 303v-3l-3-2v-2l1.86-.246c2.278-.566 2.278-.566 3.406-2.602l.984-2.214 1.016-2.223z"/><path fill="#cb4968" d="m250.367 161.734 3.184-.007 3.324.023 3.3-.023 3.192.007 2.91.007c2.92.278 5.052 1.08 7.723 2.259 3.107.798 6.227 1.509 9.355 2.219C286 167 286 167 288 169l-1.79-.38c-6.48-1.341-12.962-2.384-19.522-3.245l-3.036-.4c-7.269-.909-14.323-1.355-21.652-.975 3.342-2.228 4.464-2.256 8.367-2.266"/><path fill="#cd486b" d="M321 254c1.168 3.504.61 4.953-.937 8.227-3.304 5.514-8.22 7.66-14.184 9.28-5.274.903-10.55.719-15.879.493v-2l-3-1 2.438.5c9.706 1.362 16.212.146 24.562-5.5 2.957-3.024 5.115-6.23 7-10"/><path fill="#c94b69" d="m215 152-2.187 1.207-2.813 1.606-2.812 1.582L205 158v3c6.109-.623 10.983-2.465 16.57-4.916 3.626-1.534 6.481-2.44 10.43-2.084l-4 1v2c-3.163 1.845-6.366 2.604-9.914 3.422-2.064.572-3.846 1.34-5.774 2.266-3.463 1.372-4.856 1.532-8.312.312-1-1-1-1-1.062-4.562L203 155a519 519 0 0 1 4.875-2.062l2.742-1.16C213 151 213 151 215 152"/><path fill="#d04769" d="M201 189h2c-1.177 3.178-2.357 4.292-5.062 6.5-3.098 2.637-3.17 2.882-3.938 6.5-2.125 3.313-2.125 3.313-5 6-6.102-.102-6.102-.102-8-2q-.061-3.5 0-7l3-1-1 6 4 1 1.61-2.047 2.14-2.703 2.11-2.672c1.948-2.347 3.871-4.538 6.14-6.578h2z"/><path fill="#cd4968" d="m152 159 1 2-1.25 2.063c-1.518 2.548-2.366 4.583-3.25 7.375-1.184 3.737-2.714 7.065-4.5 10.562-1.057 2.649-2.029 5.318-3 8h-2l-.375 3.438L138 196l-2 1c2.205-11.826 7.145-29.145 16-38"/><path fill="#d5496d" d="M392 399c2.875 1.25 2.875 1.25 5 3 .813 2.188.813 2.188 1 4l-2-.5c-3.731-.622-7.219-.564-11-.5v-2h3v-2h-4v2a105 105 0 0 1-5 4c.318-2.972 1.036-4.038 3.125-6.25 3.633-2.211 5.682-2.274 9.875-1.75"/><path fill="#d5466c" d="M229 163h11v2l-1.772.519q-3.99 1.173-7.978 2.356l-2.79.816-2.694.801-2.476.73c-2.316.713-2.316.713-4.4 1.935C216 173 216 173 213 172l3-1 1-3c4.075-1.489 7.665-2.263 12-2z"/><path fill="#ce4969" d="m271 404 2 1-2 3c-.315 1.952-.315 1.952-.25 4l-.016 2.063c.167 2.261.167 2.261 2.266 4.937 3.135 1.101 4.637 1.121 7.813.063L283 418l-1 3c-4.716.925-7.673 1.23-12-1v2c-3-1-3-1-4.812-3.437-1.646-4.937-.539-8.646.812-13.563h1v14c2.243-1.798 2.243-1.798 2.125-4.277l-.25-5.313C269 407 269 407 271 404"/><path fill="#ca4b6a" d="M88 404h1v21c-5 1-5 1-6.794-.187-1.433-2.154-1.557-3.258-1.499-5.825l.03-2.295c.024-.785.05-1.571.076-2.38l.04-2.417c.036-1.965.09-3.93.147-5.896l-7 1 1-2q3.5-.062 7 0c1 1 1 1 1.098 4.816a763 763 0 0 1-.035 4.747l-.014 2.443q-.02 2.997-.049 5.994h5z"/><path fill="#c84b67" d="m269 391 1 4-1-2c-3.417-.167-3.417-.167-7 0-2.463 2.463-2.998 4.707-4 8h-3v2h3v21h-1q-.29-4.187-.562-8.375l-.17-2.406c-.381-5.992-.381-5.992.732-8.219l-4-1 2-5h2l.313-2.312c.74-2.894 1.397-3.856 3.687-5.688 2.862-1.43 4.934-.6 8 0"/><path fill="#cc4a68" d="m190 325 1.188 1.438c1.732 1.761 1.732 1.761 4.25 2 3.25.713 4.482 2.02 6.562 4.562v2l1.64-.684c3.425-.459 5.167.905 8.11 2.622l2.984 1.714L217 340c-2.705 1.353-4.54.751-7.383-.004-8.06-3.068-15.508-8.178-22.617-12.996z"/><path fill="#cd496a" d="m360 402 2 1-1.562 2.438c-1.835 4.545-1.732 7.87-.438 12.562 2.213 3.404 3.548 3.887 7.5 4.875 3.376.12 4.819.084 7.5-1.875l1-2-2-1 4 1c-.562 1.813-.562 1.813-2 4-3.99 2.07-6.476 3-11 3v-2l-2.312-.687c-3.43-1.676-4.258-2.775-5.688-6.313-.778-5.774-.102-9.959 3-15"/><path fill="#cd496b" d="M141 267c3.444 2.296 3.435 2.748 4.313 6.563 1.545 5.636 4.252 9.768 7.687 14.437a74 74 0 0 1 4 6l-1 3c-4.466-5.806-8.14-11.851-11.437-18.375l-1.073-2.09C141.763 273.04 141 270.97 141 267"/><path fill="#d2476b" d="M311 191c4.404 3.355 7.438 6.715 10.508 11.328 1.758 1.97 2.92 2.297 5.492 2.672l.375-2.437L328 200l2-1 2 5c-1.625 2.063-1.625 2.063-4 4-3.062 0-3.062 0-6-1-3-3.1-3-3.1-3-6h-2v-2h-2v-2h-2z"/><path fill="#cc496a" d="M294.438 399.438 297 400c2.232-.369 2.232-.369 4-1l2 4-6 2v-2l-3 1-2-1-1 21h-1c-.254-3.79-.474-7.582-.687-11.375l-.221-3.273-.166-3.125-.175-2.889L289 401c3-2 3-2 5.438-1.562"/><path fill="#da436c" d="M289 229c4.765 5.632 5.4 11.905 6 19 3.583 1.002 3.583 1.002 7 0l-1 3h-7l-1-3-2-1c-.379-1.75-.379-1.75-.562-4l-.22-2.434L290 238a884 884 0 0 0-.562-5.062z"/><path fill="#ea527e" d="M337 401h1l2 19 10 1-1 2c-7.01 1.609-7.01 1.609-10.246-.383-2.67-3.983-2.184-7.69-2.004-12.367l.055-2.691q.07-3.281.195-6.559"/><path fill="#ca4a6a" d="M296 151q2.159.68 4.313 1.375l2.425.773C305 154 305 154 308 156c.313 3 .313 3 0 6l-2 2c-5.287-.311-9.273-1.818-14-4l-3-1v-2c4.608.778 8.528 2.403 12.793 4.258L304 162l2-1c-.155-1.922-.155-1.922-1-4-2.067-1.565-2.067-1.565-4.562-2.75l-2.504-1.297L296 152z"/><path fill="#cd4968" d="m402 417 1.625.938c2.847 1.273 5.266 1.803 8.375 2.062a89 89 0 0 0 4-2c2.25.375 2.25.375 4 1v3c-7.877 5.217-7.877 5.217-12.562 4.313L405 425v-1l11-2v-1l-2 1c-7.246.584-7.246.584-10.5-1.937C402 418 402 418 402 417"/><path fill="#e94d7a" d="m275 402-1.937.813c-2.394 1.074-2.394 1.074-3.063 4.187a119 119 0 0 0-.062 5.688l.027 3.011L270 418l-3 1c-.972-5.79-1.383-10.44 1-16 2.865-2.218 3.495-2.168 7-1"/><path fill="#de416b" d="m202 274 2 1c.25 5.625.25 5.625-2 9-1.945.512-1.945.512-4.125.688L194 285v-3h-2l-1-6c3 1 3 1 4.188 3.063L196 281h6z"/><path fill="#e44b76" d="M312 401c4.498 1.687 8.729 3.817 13 6l-1 3c-3.806-.672-7.352-1.727-11-3z"/><path fill="#de4d76" d="M61 390.875C64 391 64 391 65 392c.125 2.5.125 2.5 0 5-1 1-1 1-4 1.125C58 398 58 398 57 397c-.125-2.5-.125-2.5 0-5 1-1 1-1 4-1.125"/><path fill="#cd486a" d="M310 224c5.399 5.399 6.06 15.176 6.25 22.5C316 250 316 250 314 253l-.367-3.691-.508-4.871-.238-2.424c-.518-4.876-1.5-9.296-2.887-14.014z"/><path fill="#d0476a" d="M295 224h2v2h2c3.267 7.54 4.572 13.788 4 22-2.819-4.228-3.202-8.605-4.121-13.555-.853-3.344-2.029-5.57-3.879-8.445z"/><path fill="#cf496a" d="M330 408c3 2 3 2 3.813 5.875.438 3.345.05 5.286-1.813 8.125-3.071 2.4-6.376 3.98-10.305 4.027-2.195-.277-2.195-.277-5.695-1.027v-1l2.555-.332 3.32-.48 3.305-.458c3.132-.477 3.132-.477 4.82-3.73h2z"/><path fill="#c84b62" d="m308 258 3 1c-8.88 6.343-8.88 6.343-14.344 5.742-2.3-.458-4.463-.91-6.656-1.742l-1-2 2.633.105c8.57.205 8.57.205 16.367-3.105"/><path fill="#ea517e" d="M399 413h2c3 5.75 3 5.75 3 8q2.374.079 4.75.125l2.672.07c2.692-.204 4.277-.83 6.578-2.195-.812 1.938-.812 1.938-2 4-3.729 1.243-7.142 1.797-11 1-3.622-3.314-5.565-6.067-6-11"/><path fill="#ec4f7d" d="M424 403h1l1 7 3.188.313c3.74.674 5.857 1.34 8.812 3.687.813 2.188.813 2.188 1 4l-2 1v-4l-1.742-.41c-2.184-.57-4.265-1.25-6.383-2.027l-2.07-.747C425 411 425 411 423 409c-.187-2.562-.187-2.562 0-5z"/><path fill="#cd4b6a" d="M399 406c1.245 2.49.777 3.41 0 6h6l1 2h-3l-1 2-1-3h-2a1204 1204 0 0 0 1.875 3.813l1.055 2.144c1.136 2.255 1.136 2.255 3.07 5.043-2.312-.562-2.312-.562-5-2-2.449-4.39-3.57-7.98-3-13z"/><path fill="#ce4964" d="M73 407h1v17l-4 2-3-2 1-2 4 1-.035-3.246-.028-4.192-.025-2.142c-.009-1.807.036-3.614.088-5.42z"/><path fill="#d6446a" d="M258 219c3.827 1.315 4.055 2.11 6 6h-18l1-2c2.066-.414 2.066-.414 4.563-.625l2.503-.227L256 222v-2z"/><path fill="#ca4c66" d="m136 418 2 1c-.125 1.813-.125 1.813-1 4-4.18 2.926-7.966 3.514-12.941 3.371-2.98-.537-4.329-1.963-6.059-4.371l1-2 2.563 1.5c3.863 1.686 6.266 1.963 10.437 1.5 2.441-1.223 2.441-1.223 4-3z"/><path fill="#cd496c" d="m223 400 2.375.563c2.596.697 2.596.697 4.625-.563l-1 24-4 2-2-2 5-1c-.06-2.898-.147-5.791-.25-8.687l-.043-2.475c-.21-5.188-.836-8.037-4.707-11.838m5 2 1 2Z"/><path fill="#c94a6a" d="m226 197 2 1-1.812.75c-2.3 1.113-2.3 1.113-3.625 3.25-1.563 2-1.563 2-3.86 2.836-3.268 1.407-5.064 3.228-7.516 5.789l-2.394 2.477L207 215c0-3 0-3 1.723-5.086C219.816 199.061 219.816 199.061 226 197"/><path fill="#eb4d7b" d="m292 401 3 2 3-2 3 1-4 1v2l-2 1c-.392 2.291-.392 2.291-.5 4.938-.279 4.84-.279 4.84-2.5 7.062z"/><path fill="#cb4a68" d="M251 182q4.063-.08 8.125-.125c.76-.017 1.521-.034 2.305-.05 4.584-.04 8.29.315 12.57 2.175l2 2-3.375-.437c-7.22-.895-14.34-1.721-21.625-1.563z"/><path fill="#ee507e" d="m329 393.375 2 1.625v2l-2-1c-4.899-1.633-10.047-1.651-15 0v4l-2-1c1.435-4.543 1.435-4.543 3.625-6.312 4.839-1.401 8.86-1.383 13.375.687"/><path fill="#d4476e" d="m286 190 6 1v2l2.188.313c3.138.767 5.228 1.75 7.812 3.687.813 2.188.813 2.188 1 4l-5-2v-2l-2.062-.75c-3.507-1.492-6.654-3.318-9.938-5.25z"/><path fill="#c74c66" d="M288 169c4.752-.432 7.782 1.015 12 3l1-2c2 2 2 2 2 5h2l1 3c-3.795-1.45-7.368-3.184-11-5a384 384 0 0 0-7-3z"/><path fill="#c34c66" d="m63 398 1 3-5 1-1 22c-2.423-4.846-2.332-8.257-2.312-13.562l-.05-2.616-.001-2.513-.01-2.288C56.47 398.454 58.613 398 63 398"/><path fill="#d5446b" d="M173 315c4.933 1.323 9.356 3.366 13 7 .7 2.164.7 2.164 1 4-2.954-1.384-5.512-2.986-8.125-4.937l-2.07-1.528C175 318 175 318 173 315"/><path fill="#da426a" d="m239 215 2 1c-1.392 2.784-3.156 2.979-6 4v2l-5-1v2l-5 2 1-3h2v-2q1.904-.972 3.813-1.937l2.144-1.09C236 216 236 216 239 215"/><path fill="#c84a6a" d="M287 107c7.16.405 12.625 2.822 19 6l2.328 1.16L310 115c-2 1-2 1-3.812.582-16.362-5.756-16.362-5.756-19.188-8.582"/><path fill="#ca496c" d="M239 406h1v12h4l1 6c-3.215 1.607-6.436 1.057-10 1v-1l9-1-2-3h-3c-1.418-2.836-.863-4.99-.562-8.125l.308-3.32z"/><path fill="#cb4a6a" d="M182 400h1v23l5 1-1 2-5-1c-.197-3.604-.38-7.208-.562-10.812l-.17-3.104-.147-2.979-.143-2.745C181 403 181 403 182 400"/><path fill="#cd4b6a" d="M131 404v2l3 1v3l-12 1c.375-2.937.375-2.937 1-6 2.709-1.354 5.01-1.065 8-1m-6.25 2.938L123 409h9c-.64-3.08-.64-3.08-2.812-3.937-2.406-.315-2.406-.315-4.438 1.875"/><path fill="#dc416a" d="M323 320h5l1 2-2 1-.812 1.875c-1.563 2.797-3.358 3.71-6.188 5.125h-2v-2l3-2 1-3h2z"/><path fill="#cb496b" d="m237 296 4 1c.625 3.375.625 3.375 1 7-2 2-2 2-5.375 2.438C233 306 233 306 230.563 303.5L229 301l1-2 2.188 2.563c2.548 2.786 2.548 2.786 5.625 2.25L240 303v-3l-3-2zm-13-83 2 1-1.828 1.906c-4.774 5.113-8.428 9.65-11.172 16.094-1-3-1-3 .25-6.625C215 222 215 222 218 221v-3c1.822-1.925 3.892-3.375 6-5"/><path fill="#cf4a69" d="M351 400h1c.145 3.104.234 6.206.313 9.313l.126 2.67c.047 2.434.037 4.628-.439 7.017-2.395 2.168-2.395 2.168-5 3l-2-1 5-2q.039-2.375.063-4.75l.035-2.672c-.09-2.36-.429-4.323-1.098-6.578h2z"/><path fill="#d14a6b" d="M131 399c3.082 1.37 4.576 2.293 6.313 5.188L138 406l-2.437-2c-4.002-2.69-7.895-2.518-12.563-2-1.34.306-2.676.632-4 1 3.874-4.05 6.332-4.384 12-4"/><path fill="#d3486d" d="M233 394h7v6l3-1c1 1 1 1 1.063 4.063L244 406h-3l2-1v-4h-5c-1.125-3.75-1.125-3.75 0-6h-4l-1 3z"/><path fill="#d44568" d="M219 285c3.89 3.59 6.897 7.739 10 12l-1 2c-7.827-4.918-7.827-4.918-9-10z"/><path fill="#cf476a" d="M240 225c3.125-.187 3.125-.187 6 0-2.52 2.015-5.029 4.021-7.625 5.938-2.48 2.153-3.85 4.174-5.375 7.062-.934-3.01-1.044-3.867 0-7a264 264 0 0 1 5-3z"/><path fill="#eb4d7a" d="M400 405h3l-1 6h15v1h-18z"/><path fill="#ce4867" d="m443 400 2 1-2 3c-.417 2.542-.417 2.542 0 5l3 2v2l3 1c-3.03-.337-4.84-.89-7.375-2.625-1.625-2.375-1.625-2.375-1.5-6C441 402 441 402 443 400"/><path fill="#d6446a" d="M279 220c2.71.155 4.466.482 6.445 2.402 1.232 1.496 2.398 3.044 3.555 4.598l-1 2c-6.923-4.462-6.923-4.462-9-7z"/><path fill="#c74c67" d="M219.625 404.25C222 405 222 405 223 406c.073 2.863.092 5.7.063 8.563l-.014 2.443q-.02 2.997-.049 5.994h-1l-1-16h-7c1.891-2.489 2.414-3.056 5.625-2.75"/><path fill="#db4e70" d="M169.813 398.688c3.51.344 5.336 1.3 8.187 3.312l-1 2c-8.571-.857-8.571-.857-12-3 2-2 2-2 4.813-2.312"/><path fill="#e13f6c" d="m251.188 211.734 2.367-.007 2.445.023 2.445-.023 2.368.007 2.144.007c2.353.298 3.99 1.098 6.043 2.259l-3.867-.035-5.008-.028-2.55-.025-2.442-.01-2.254-.016c-1.97-.004-1.97-.004-3.879 1.114-2.008-.281-4.01-.61-6-1 2.854-1.614 4.914-2.255 8.188-2.266"/><path fill="#cc496a" d="m217 179 2 1c-3.625 3-3.625 3-7 3l-.562 1.875c-2.152 3.181-4.813 3.32-8.438 4.125 3.96-4.47 8.446-7.709 14-10"/><path fill="#c34d64" d="m163 422 3 1c3.843.14 7.317.179 11-1-2.528 3.09-5.144 4.116-9 5l-3-2-1 7h-1z"/><path fill="#d14766" d="m416 400 1 2-2.555-.105-3.32-.082-3.305-.106L405 402l-2 3h-3c1-3 1-3 3.5-4.75 4.359-1.557 8.038-1.5 12.5-.25"/><path fill="#ca4a69" d="M238 241h1l.184 3.465.254 4.472.119 2.288c-.117 3.694-.117 3.694 1.443 6.775q.061 3.5 0 7c-2.837-2.837-2.746-5.929-3.187-9.75l-.288-2.133c-.519-4.263-.465-7.875.475-12.117"/><path fill="#cf4967" d="M445 399c5.26-.316 8.446.334 13 3v4l-5-1v-3l-8-2z"/><path fill="#f05180" d="M234 395h4v7l-5 1z"/><path fill="#ce486a" d="M217 341c2-.043 4-.04 6 0l1 1c2.18.397 4.37.743 6.563 1.063l3.628.535L237 344v1l-9 1v-2l-2.687.125c-3.286-.124-5.367-.739-8.313-2.125z"/><path fill="#d3476c" d="M318 331a500 500 0 0 1-5.312 3.063l-2.989 1.722C307 337 307 337 304 336c8.4-7.8 8.4-7.8 14-5"/><path fill="#d6466c" d="m190 325 1.188 1.438c1.747 1.778 1.747 1.778 4.375 2 2.437.562 2.437.562 3.75 2.625L200 333c-5.155-.483-8.816-3.186-13-6z"/><path fill="#c34d63" d="M121 414h18l-3 3c-2.625-.25-2.625-.25-6-1a243 243 0 0 0-4.875-.562l-2.367-.254L121 415z"/><path fill="#d3456d" d="M157 297c3.117 1.365 5.087 2.87 7.313 5.438l1.613 1.808L167 306l-1 3a835 835 0 0 1-3.937-4.312l-2.215-2.426C158 300 158 300 157 297"/><path fill="#c74c67" d="M275 194c7.273.162 12.156 3.952 18 8l-2 1-3-1v-2l-1.703-.371c-2.487-.681-4.702-1.623-7.047-2.691l-2.422-1.098L275 195z"/><path fill="#da446a" d="M277 273c1.5 1.375 1.5 1.375 3 3v2l3 1c-6.75.125-6.75.125-9-1 .375-1.937.375-1.937 1-4z"/><path fill="#c84b6b" d="M316 186c4.27 1.989 7.79 4.544 11 8 .938 2.875.938 2.875 1 5l-2.187-2.25c-2.697-2.746-2.697-2.746-5.5-4.812-2.268-1.9-3.245-3.22-4.313-5.938"/><path fill="#d2486a" d="M450 410c3.679.245 5.441.37 7.938 3.188 1.277 3.381.947 5.353.062 8.812h-1l-.125-3.25c-.515-3.986-.515-3.986-3.937-6.125L450 411z"/><path fill="#cd4966" d="m311 416 4 2-2 1-2-1v2l1.938.875C315 422 315 422 316 424c-2.375-.187-2.375-.187-5-1-1.312-2.562-1.312-2.562-2-5z"/><path fill="#eb4f7c" d="M384 401h4v2h-3v2q-1.47 1.53-3 3l-1 2h-2c.613-2.962 1.254-4.38 3-7h2z"/><path fill="#cf4769" d="m137 254 .313 1.938L138 258l3 1c1.097 3.29.8 4.713 0 8-2-1-2-1-3.125-4.25-.73-3.127-1.067-5.576-.875-8.75"/><path fill="#e33f6c" d="M243 105v1h-5l-1 3-2.75-.5c-3.36-.601-3.36-.601-7.25-.5 5.025-3.35 10.085-3.118 16-3"/><path fill="#ce486c" d="M229 286c3.787 1.488 5.774 3.62 8 7l-1 3a91 91 0 0 1-4-4v-2h-2z"/><path fill="#d2476c" d="M234 186c-2.686 1.79-4.663 2.66-7.687 3.625-1.213.39-1.213.39-2.45.79-.615.192-1.23.386-1.863.585v-3c4.12-1.292 7.668-2.263 12-2"/><path fill="#ce486c" d="M350 148c5.802 5.645 5.802 5.645 8 9v2c-3.491-1.164-3.852-1.89-5.687-4.937l-1.325-2.153C350 150 350 150 350 148"/><path fill="#ee507f" d="m198 392 5 1v4h-5z"/><path fill="#cd486b" d="M293 239h1l1 9c3.583 1.002 3.583 1.002 7 0l-1 3q-3.5.061-7 0c-1-1-1-1-1.098-3.504l.036-3.059.027-3.066z"/><path fill="#e2406c" d="m206 187 2 1-1 2c-2.062.625-2.062.625-4 1v-2zm-7 6 2 1-5 5c0-3 0-3 1.5-4.687z"/><path fill="#d74c72" d="M132 417c2.063.438 2.063.438 4 1h-2l-1 3h-9v-3l3.438.063c3.378.353 3.378.353 4.562-1.063"/><path fill="#e1406d" d="m241 239 2 1-2 3a107 107 0 0 0-.625 7.188l-.227 3.855L240 257h-1q-.08-3.937-.125-7.875l-.05-2.262c-.018-1.955.072-3.91.175-5.863z"/><path fill="#cb496a" d="M160 148c.813 1.688.813 1.688 1 4-2.46 2.87-4.855 4.903-8 7 1.486-4.593 3.85-7.436 7-11"/><path fill="#cc496b" d="M220 267c3.648 3.883 4.585 6.712 5 12-2.734-2.36-3.911-4.565-5-8z"/><path fill="#cb496a" d="m200 207 3 1-7 10-1-4c1.313-1.5 1.313-1.5 3-3 1.176-2.1 1.176-2.1 2-4"/><path fill="#d5456a" d="m312 176 1 7c-2.884-1.293-4.872-2.66-7-5 4.875-2 4.875-2 6-2"/><path fill="#c94a6b" d="M245 274c7.667 5.966 7.667 5.966 9 11-7.667-5.966-7.667-5.966-9-11"/><path fill="#d1466b" d="M311 259c-5.625 4-5.625 4-9 4v-2c5.625-3.125 5.625-3.125 9-2"/><path fill="#dd436e" d="m319 223 2 1v3h2l1 7h-2v-3h-2z"/><path fill="#c74c66" d="M293 203c3.984 2.163 6.89 4.712 10 8l-1 2a418 418 0 0 1-3.5-2.875l-1.969-1.617L295 207v-2h-2z"/><path fill="#e94b78" d="m443 407 2 2c1.984.714 3.983 1.386 6 2l-1 2h-4v-2l-4-2z"/><path fill="#e4406d" d="M242 299h1c.375 2.75.375 2.75 0 6-3 2.375-3 2.375-6 4l-2-1v-2l6-2z"/><path fill="#ce486a" d="M254 285c4.248.472 6.2 2.967 9 6-4.412 0-5.784-2.07-9-5z"/><path fill="#c64b67" d="m281 251 .813 1.938c1.074 2.393 1.074 2.393 4.187 3.062v3l3 1-2 1c-3.536-3.173-5.586-5.167-6-10"/><path fill="#cd4b6a" d="M276 186h8l2 4c-3.41-.787-6.689-1.871-10-3z"/><path fill="#e13f6b" d="M290 179c5.75 1.875 5.75 1.875 8 3v2c-2.312.313-2.312.313-5 0-1.812-2.5-1.812-2.5-3-5"/><path fill="#d1476b" d="m232 154-4 1v2c-2.354 1.43-3.48 2.087-6.25 1.625L220 158l3-1 1-2c2.928-.976 4.956-1.082 8-1"/><path fill="#c94b69" d="M266 268c6.571 4 6.571 4 8 8-3.362-1.44-5.592-3.248-8-6z"/><path fill="#d1476c" d="M241 265h3l1 9c-2.503-2.938-3.47-5.179-4-9"/><path fill="#d54468" d="M281 209c2.938.813 2.938.813 6 2l1 3c-2.375-.25-2.375-.25-5-1-1.312-2.062-1.312-2.062-2-4"/><path fill="#c94a6e" d="m196 183 2 1-8 8c0-3 0-3 2.438-5.625L195 184z"/><path fill="#d74569" d="m300 170 3 2v3h2l1 3c-4.63-1.462-4.63-1.462-6.375-4-.625-2-.625-2 .375-4"/><path fill="#d1476b" d="m324 410 5 1 2 6-3 2v-7z"/><path fill="#e04e74" d="M230 399h4v3h-2v3h-2z"/><path fill="#d14868" d="M167 309h4l2 6h-2v-2l-4-2z"/><path fill="#ce4969" d="M370 262h2q-.425 2.19-.875 4.375l-.492 2.46C370 271 370 271 368 273q.212-2.188.438-4.375c.08-.812.162-1.624.246-2.46C369 264 369 264 370 262"/><path fill="#cd486e" d="M263 292c4.314.48 6.166 1.746 9 5-3.775-1.09-6.47-1.908-9-5"/><path fill="#c94a69" d="M219 285c3.08 2.773 4.688 5.063 6 9l-3-2v-2l-3-1z"/><path fill="#c74b66" d="m286 190 6 1v2l3 1-2 1c-2.475-1.114-4.679-2.582-7-4z"/><path fill="#e2416d" d="m157 154 1 3c-1.404 2.264-3.197 4.02-5 6l-1-2z"/><path fill="#bf5155"/><path fill="#bf5155"/></svg>