<svg xmlns="http://www.w3.org/2000/svg" width="1000" height="275"><path fill="#a158fe" d="m40.645-.154 2.816-.026 3.068-.013 3.249-.025q5.328-.035 10.656-.055l3.684-.017q9.66-.039 19.321-.06 7.974-.02 15.948-.082c6.43-.05 12.86-.074 19.291-.081q3.664-.01 7.328-.046c18.484-.172 31.704.93 45.666 14.141 9.164 9.707 12.83 22.022 12.574 35.047C183.357 60.806 178.551 71.254 170 80c-11.664 9-11.664 9-17 9l-1 2-3 1 2.344.883c12.354 4.862 23.273 12.41 28.847 24.972 5.165 13.697 5.332 26.436-.191 40.145-2.014 3.648-4.312 6.822-7 10l-1.621 1.957c-4.563 5.022-10.18 8.348-16.379 11.043h-3l-1 2c-6.34 1.905-12.525 2.404-19 1l-2.738-.496C118.38 181.232 107.85 175.994 101 167c-6.195-9.586-6.195-9.586-8-15l-.011 3.184a7275 7275 0 0 1-.173 29.833 3283 3283 0 0 0-.087 15.335q-.024 7.41-.097 14.822a761 761 0 0 0-.024 5.63c-.015 16.207-1.94 29.462-13.885 41.489C69.19 271 69.19 271 65 271v2l-2.25.438c-1.543.315-3.084.656-4.6 1.082-4.386.98-8.925.75-13.4.793l-3.066.087c-6.63.056-11.064-.907-16.684-4.4a490 490 0 0 0-3.562-1.875C13.313 264.317 8.525 258.267 4 250l-1.328-2.383C-.25 241.218-.408 234.798-.5 227.875l-.056-2.82c.082-9.063 3.36-15.567 8.181-23.117.59-.94 1.18-1.88 1.79-2.848.522-.69 1.046-1.38 1.585-2.09h2v-2c6.474-5.686 14.006-9.02 22-12l-2.3-.55-3.012-.762-2.989-.739c-2.764-.972-3.771-1.84-5.699-3.949l-3-1a91 91 0 0 1-4-4l-1.434-1.426C8.076 166.062 4.636 162.294 3 156l-1.523-4.11c-1.613-4.823-1.977-9.204-1.914-14.265l.011-2.504C-.269 128.447 1.228 123.068 4 117c.365-1.325.71-2.657 1-4h2l.813-1.758C13.297 100.887 23.263 95.58 34 92v-2l-3.25.188C26.594 89.98 26.07 89.505 23 87l-2.55-1.691C10.27 78.412 3.365 69.43.447 57.337-2.058 44.253-1.17 32.07 6.055 20.8L8 18l2-3h2v-2C20.132 5.978 29.639-.078 40.645-.154M92 92v35a780 780 0 0 0 3.402-6.875L96.938 117l1.527-3.125C100 111 100 111 101.69 108.75c1.509-1.653 1.509-1.653 1.309-3.75l1.746-.82c2.274-1.19 4.237-2.555 6.317-4.055 4.985-3.39 10.219-5.308 15.937-7.125v-1z"/><path fill="#fd7161" d="m40.645-.154 2.816-.026 3.068-.013 3.249-.025q5.328-.035 10.656-.055l3.684-.017q9.66-.039 19.321-.06 7.974-.02 15.948-.082c6.43-.05 12.86-.074 19.291-.081q3.664-.01 7.328-.046c18.484-.172 31.704.93 45.666 14.141 9.164 9.707 12.83 22.022 12.574 35.047C183.357 60.806 178.551 71.254 170 80c-11.664 9-11.664 9-17 9l-1 2c-5.947 1.278-11.925 1.135-17.984 1.114h-3.284q-5.349-.002-10.697-.016l-7.436-.005q-9.767-.006-19.535-.024-9.975-.015-19.949-.02Q53.558 92.033 34 92v-2l-3.25.188C26.594 89.98 26.07 89.505 23 87l-2.55-1.691C10.27 78.412 3.365 69.43.447 57.337-2.058 44.253-1.17 32.07 6.055 20.8L8 18l2-3h2v-2C20.132 5.978 29.639-.078 40.645-.154"/><path d="M722 75c4.65 3.896 7.976 7.208 10 13l2-2 1.418-1.387c1.619-1.611 1.619-1.611 3.133-3.445 8.895-10 22.15-15.42 35.3-16.375 13.596-.474 25.94 3.55 36.337 12.332 11.883 11.268 17.18 26.088 17.92 42.224.17 6.64.122 13.28.087 19.92l-.008 6.402q-.014 8.361-.05 16.724c-.02 5.705-.03 11.41-.04 17.115-.02 11.163-.056 22.327-.097 33.49h-29l.003-8.806c0-9.635-.034-19.27-.083-28.905-.03-5.838-.047-11.676-.04-17.514a1948 1948 0 0 0-.059-16.923 654 654 0 0 1-.001-6.434c.262-16.678.262-16.678-6.82-31.418-6.017-5.991-12.913-9.069-21.375-9.437-7.208.2-13.541 2.28-18.625 7.437h-2l-.871 1.746a776 776 0 0 1-2.164 4.29l-1.028 2.026-1.035 2.036c-1.457 3.073-2.03 5.586-2.06 8.945l-.03 2.486-.017 2.716-.03 2.868a4261 4261 0 0 0-.081 9.399l-.063 6.511q-.083 8.574-.153 17.149-.077 8.747-.161 17.494-.161 17.168-.307 34.334h-28l-.076-8.442q-.125-13.812-.263-27.624-.083-8.374-.158-16.747-.072-8.083-.156-16.165-.03-3.083-.056-6.164-.037-4.32-.086-8.64l-.017-2.57c-.054-4.327-.373-8.382-1.188-12.648v-2l-2-1-.812-2.187C706.9 103.393 703.27 99.568 698 97c-2.191-.696-2.191-.696-4-1v-2q-3.562-.04-7.125-.062l-2.016-.026c-4.058-.02-7.906.133-11.859 1.088l-1 2-2.75 1.75c-6.86 4.75-9.823 10.416-12.25 18.25-.512 3.33-.566 6.582-.546 9.948l-.031 2.842c-.03 3.062-.031 6.124-.032 9.187q-.023 3.207-.05 6.414c-.044 5.599-.064 11.198-.08 16.798-.019 5.725-.06 11.45-.1 17.174A9810 9810 0 0 0 656 213h-28V69h28l1 11 1.938-2.125C676.275 60.635 702.76 61.195 722 75m-167.855 1.566C555.474 77.66 556.748 78.82 558 80l1-11h28c.068 17.717.123 35.433.155 53.15q.022 12.341.071 24.683.046 10.767.056 21.535.004 5.692.035 11.383c.146 26.234-.413 51.032-19.797 71.093-4.212 4.242-8.376 8.07-13.52 11.156h-2l-1 2c-4.877 2.313-9.935 4.144-15 6l-2.82 1.094c-10.58 3.41-22.262 1.662-33.18.906v-2l-1.8-.227c-7.126-1.13-13.297-3.563-19.2-7.773-1-3-1-3 .08-5.36l1.666-2.745 1.787-2.979 1.904-3.103 1.893-3.14q2.322-3.844 4.67-7.673c3.245.603 5.674 1.235 8.5 2.938 9.18 4.71 19.738 4.998 29.5 2.062 5.617-2.325 10.72-4.641 15-9h2l.816-1.738c1.21-2.313 2.603-4.328 4.121-6.45C559.1 212.65 558.146 199.054 558 185l-1.54 1.426C546.982 195 546.982 195 542 195l-1 2c-17.455 6.071-34.343 4.973-51-3l-1-2h-3v-2l-2.215-.77c-8.381-3.702-13.658-10.794-16.91-19.105-.674-2.298-.674-2.298-2.875-3.125l-2-7-2-1c-6.056-21.034-4.007-39.512 3-60h2l.75-2.062c5.524-12.983 16.435-21.756 29.05-27.684 20.092-7.875 41.89-5.437 59.345 7.312M493.25 107.25c-7.144 9.64-9.15 19.97-8.25 31.75 1.668 8.814 4.803 15.524 11 22l1.879 1.965c6.246 5.968 13.973 9.527 22.644 10.125 11.62-.422 20.04-4.776 28.227-12.778 6.284-8.452 9.75-17.79 10.25-28.312l-1-3-.187-3.937c-.607-6.342-3.775-11.572-6.813-17.063h-2l-2-4h-2l-.77-1.836c-2.583-4.543-7.793-6.584-12.48-8.477-15.414-2.825-28.453 1.494-38.5 13.563m470.875-30.062C966.57 79.04 968.832 80.832 971 83l1-14h28v144h-28l-1-14-2.75 2.563c-7.397 6.319-15.876 10.892-25.25 13.437l-3.266 1.02c-12.819 3.365-24.306 1.895-36.734-2.02l-2.86-.867c-15.305-4.852-28.766-18.054-36.21-32.184-7.342-15.393-9.507-30.083-9.93-46.949l-.078-2.875c.108-2.928 1.12-5.366 2.078-8.125l.367-2.707c.757-3.939 2.188-7.406 3.82-11.043l.947-2.128C864.711 99.229 868.433 91.82 875 86l2.008-2.016C886.482 74.791 897.989 68.495 911 66l2.871-.55c17.684-2.54 35.708 1.296 50.254 11.737M893 110c-8.855 12.543-11.623 25.952-9.574 41.16 2.532 11.792 8.961 22.48 18.574 29.84 11.491 7.106 22.665 9.89 36.16 7.422 10.992-3.186 20.24-10.09 26.375-19.75 4.183-7.63 7.252-14.92 7.465-23.672l.152-3.094c.435-14.867-4.663-25.856-14.77-36.613-8.208-7.9-17.88-12.415-29.32-12.793-13.994.46-26.172 6.712-35.062 17.5M241 0h114v27h-86v57h66v28h-66v101h-28z"/><path fill="#f14e1e" d="M41.595-.114h3.444l3.602.016 3.323.003c4.096.006 8.19.02 12.286.032L92 0v91l-58 1v-2l-3.25.187C26.594 89.98 26.07 89.505 23 87l-2.55-1.691C10.27 78.412 3.365 69.43.447 57.337-2.058 44.253-1.17 32.07 6.055 20.8L8 18l2-3h2v-2C20.576 5.594 30.082-.14 41.595-.114"/><path fill="#0acd84" d="M44.546 182.886h3.214l3.42.016 3.539.005c3.719.005 7.437.018 11.156.03l7.578.014q9.273.017 18.547.049c.102 7.613.172 15.226.22 22.84q.03 3.877.082 7.756c.049 3.734.071 7.467.089 11.2l.062 3.459c.004 13.394-4.245 24.488-13.73 34.038C69.19 271 69.19 271 65 271v2l-2.25.437c-1.543.316-3.084.657-4.6 1.083-4.386.98-8.925.75-13.4.792l-3.066.088c-6.63.056-11.064-.907-16.684-4.4a490 490 0 0 0-3.563-1.875C13.313 264.317 8.525 258.267 4 250l-1.328-2.383C-.25 241.218-.408 234.798-.5 227.875l-.056-2.82c.082-9.063 3.36-15.567 8.181-23.118.59-.94 1.18-1.879 1.79-2.847.522-.69 1.046-1.38 1.585-2.09h2v-2c9.102-7.862 19.524-12.142 31.546-12.114"/><path fill="#1abbfb" d="M161 97c.73.446 1.46.892 2.21 1.352 10.664 7.313 17.155 17.27 20.247 29.671 2.242 12.292.263 24.96-6.77 35.415A136 136 0 0 1 173 168l-1.621 1.957c-4.563 5.022-10.18 8.348-16.379 11.043h-3l-1 2c-6.34 1.905-12.525 2.404-19 1l-2.738-.496c-12.358-2.58-23.122-8.784-30.168-19.367-7.67-12.62-9.2-26.066-6.442-40.567.912-2.699 1.986-5.07 3.348-7.57l1.438-2.816c5.94-10.497 15.844-17.382 27.386-20.71C136.54 89.922 150.746 90.687 161 97"/><path d="M390 69h28v144h-28z"/><path fill="#010101" d="M412.188 8.625c4.803 2.657 8.05 6.088 9.812 11.375.747 6.602.535 11.866-3.45 17.344-3.422 3.655-7.09 5.25-11.925 6.593-6.094.106-10.794-1.424-15.5-5.312-3.964-4.897-6.463-9.127-6.125-15.625.995-4.595 2.352-8.55 5.945-11.71 6.757-4.314 13.714-6.101 21.243-2.665"/><path fill="#3c3941"/><path fill="#3c3941"/><path fill="#3c3941"/><path fill="#3c3941"/><path fill="#3c3941"/></svg>