<svg xmlns="http://www.w3.org/2000/svg" width="1125" height="417"><path fill="#171515" d="M347.125 120.313c22.052 20.392 37.351 49.743 39.06 79.95 1.282 33.64-6.257 64.495-28.185 90.737l-2.52 3.016C341.88 309.78 319.295 327.776 298 330c-4.565-2.13-4.565-2.13-6-5a65 65 0 0 1-.142-4.2l-.021-2.631-.013-2.856-.072-5.997a1416 1416 0 0 1-.078-9.445c-.016-3.041-.056-6.08-.1-9.121l.006-2.807c-.124-6.729-1.82-11.85-4.58-17.943l-1-3-2-1c1.672-1.672 3.87-1.534 6.117-1.9 16.564-2.72 30.57-8.365 40.883-22.1 1.622-2.58 2.866-5.174 4-8l.832-1.902c5.532-14.198 6.103-33.03.168-47.098-2.273-4.31-4.54-8.54-8-12 .274-2.341.62-4.674 1-7 .17-2.772.19-5.536.188-8.312l.001-2.246c-.054-5.653-.685-10.976-2.189-16.442-12.227 1.834-22.71 6.14-33 13-1.92-.048-1.92-.048-4.113-.46l-2.5-.432-2.7-.483c-15.162-2.413-30.259-2.93-45.323.395-7.281 1.59-11.202-.294-17.489-3.895-7.987-4.422-15.798-6.898-24.875-8.125-2.284 9.81-3.426 20.418-1.062 30.313.085 5.038-2.122 7.043-5.079 10.964-8.053 11.793-7.557 28.775-5.129 42.38 2.846 13.342 9.164 25.014 20.833 32.593 10.01 5.535 21.152 8.342 32.437 9.75 0 3.444-.988 4.482-2.937 7.184-1.241 2.12-1.758 4.13-2.375 6.503-1.109 3.428-1.464 4.149-4.5 6.375-7.002 2.175-16.058 2.38-22.75-.75-5.005-3.053-8.368-7.195-11.875-11.812-3.96-5.162-8.056-9.754-14.563-11.5a97 97 0 0 0-7 0v3c1.802 1.601 1.802 1.601 4.125 3.125 5.79 4.331 9.059 9.277 12.293 15.684 4.191 8.28 8.461 12.967 17.332 16.066 8.053 2.11 16.126 1.389 24.25.125 2.65 2.65 1.235 10.308 1.25 13.875l.063 3.668.015 3.512.028 3.234C232 326 232 326 230.694 327.84c-3.068 2.1-6.195 1.749-9.694 1.16-4.173-1.322-8.059-3.103-12-5l-1.796-.86c-9.631-4.685-17.968-10.316-26.204-17.14l-2.34-1.91c-22.215-18.719-37.531-48.726-40.465-77.536-1.15-15.072-.71-29.84 2.805-44.554l.773-3.48c7.953-31.7 29.987-58.278 57.666-74.857C213.333 95.579 228.116 90.424 244 88l2.293-.395c36.903-5.353 73.545 8.24 100.832 32.707"/><path fill="#0f0d0e" d="M529.91 138.129c1.85 3.177.776 6.437.09 9.871l-.405 2.116c-.428 2.098-.91 4.177-1.408 6.259l-.462 2.152c-1.207 5.025-1.207 5.025-3.534 7.036-2.904.58-4.618-.036-7.441-.938-6.648-1.68-13.028-2.005-19.875-2.062l-3.032-.066c-9.228.022-18.522 2.106-25.35 8.706C458.37 183.393 457.853 201.88 459 217c1.104 10.653 3.477 20.377 10.313 28.875 8.204 6.487 16.45 7.618 26.687 7.125l8-1 1-27c-6.163.08-6.163.08-12.326.18l-2.322.015-2.38.032C486 225 486 225 484 223c-.259-2.49-.259-2.49-.266-5.594l-.007-3.37.023-3.536-.023-3.535.007-3.371.007-3.104C484 198 484 198 486 196c2.087-.254 2.087-.254 4.693-.259l2.953-.019 3.198.012 3.273-.005q3.43-.002 6.86.01c3.509.011 7.017 0 10.527-.012q3.326 0 6.652.007l3.198-.012 2.953.02c.86 0 1.72.002 2.606.004C535 196 535 196 537 198c.294 3.016.294 3.016.354 6.94l.04 2.164c.04 2.368.063 4.735.083 7.103l.024 2.45q.062 6.418.09 12.835c.021 4.42.09 8.837.17 13.256.052 3.398.069 6.796.076 10.194q.015 2.444.07 4.886c.272 12.743.272 12.743-2.625 16.254-2.083 1.337-3.932 2.166-6.282 2.918l-3.422 1.512c-21.442 7.575-46.696 8.69-67.8-1.008-14.132-7.652-23.323-18.925-28.005-34.36-3.164-11.22-4.013-21.93-4.023-33.519l-.002-2.174c.034-22.497 3.65-43.793 19.19-61.138 7.811-7.45 19.306-13.066 30.062-14.313l2.082-.324c15.917-2.209 38.524-2 52.828 6.453m150.715-1.262 2.006-.003q2.104 0 4.207.006 3.23.005 6.459-.007 2.04 0 4.078.004l3.773.004C704 137 704 137 705 138c.093 1.627.117 3.258.114 4.887v3.155l-.016 3.43-.005 3.494a5801 5801 0 0 1-.03 11.096l-.014 7.502c-.01 6.146-.03 12.29-.049 18.436h40l-.035-11.086q-.012-5.296-.02-10.594-.008-3.69-.02-7.38c-.013-3.53-.018-7.059-.023-10.588l-.015-3.35v-3.093l-.007-2.732C745 139 745 139 746 137q6.381-.037 12.762-.055 2.173-.008 4.345-.02c2.078-.013 4.155-.018 6.233-.023l3.793-.016C776 137 776 137 777 138c.099 1.833.126 3.67.127 5.504l.009 3.62-.007 4.009.006 4.192q.005 5.71 0 11.417c-.003 3.974 0 7.948 0 11.923q.004 10.013-.005 20.024-.007 11.593.002 23.185.007 9.935.003 19.87-.003 5.94.001 11.883.004 5.584-.005 11.17l.002 4.11q.002 2.795-.006 5.589l-.001 3.166C777 280 777 280 776 281c-4.116.218-8.235.186-12.356.185-2.07.002-4.139.02-6.208.04l-3.932.005-3.63.013C747 281 747 281 745 279c-.24-2.518-.24-2.518-.227-5.735v-3.64l.032-3.945.008-4.027c.008-3.535.028-7.07.05-10.604.02-3.606.03-7.212.04-10.819.02-7.076.059-14.153.097-21.23h-40l.035 13.309q.01 5.238.017 10.478.007 5.538.023 11.076.016 5.33.02 10.659.003 2.037.01 4.075c.008 1.897.008 3.793.009 5.69l.006 3.277C705 280 705 280 704 281c-2.219.088-4.44.107-6.66.098l-2.014-.005c-2.13-.005-4.259-.018-6.389-.03q-2.16-.008-4.322-.014-5.308-.017-10.615-.049c-1.323-2.645-1.126-4.623-1.127-7.587l-.009-3.599.007-3.969-.006-4.163q-.005-5.663 0-11.324c.003-3.943 0-7.887 0-11.83q-.004-9.933.005-19.866.007-11.499-.002-22.998-.007-9.859-.003-19.718.003-5.894-.001-11.789-.004-5.538.005-11.078.002-3.015-.005-6.029l.009-3.59.001-3.14c.26-4.783 3.695-3.45 7.751-3.453m220 0 2.006-.003q2.104 0 4.207.006 3.23.005 6.459-.007 2.04 0 4.078.004l3.773.004C924 137 924 137 925 138a68 68 0 0 1 .114 4.428v2.851l-.016 3.1-.005 3.157c-.005 3.342-.018 6.684-.03 10.026l-.014 6.78q-.017 8.329-.049 16.658l2.078-.846 2.728-1.102 2.704-1.096c11.08-4.253 22.41-3.825 33.49.044 9.334 4.574 14.378 11.644 18.14 21.117 5.84 19.588 5.566 44.883-3.39 63.508-5.078 9.329-10.728 13.174-20.75 16.375-14.76 3.769-29.121-.83-42-8l-.937 2.438C916 280 916 280 915 281a75 75 0 0 1-4.656.133l-2.848.004-2.996-.012-2.996.012-2.848-.004-2.63-.004C894 281 894 281 893 280c-.099-1.833-.126-3.67-.127-5.504l-.009-3.62.007-4.009-.006-4.192q-.005-5.71 0-11.417c.003-3.974 0-7.948 0-11.923q-.004-10.013.005-20.024.007-11.593-.002-23.185-.007-9.935-.003-19.87.003-5.94-.001-11.883-.004-5.584.005-11.17l-.002-4.11q-.002-2.794.006-5.589l.001-3.166c.259-4.8 3.673-3.467 7.751-3.47m27.651 71.164-2.433 1.111L924 210q-.184 9.103-.275 18.207a708 708 0 0 1-.102 6.195c-.06 2.967-.09 5.932-.111 8.899l-.078 2.803c-.002 2.402.035 4.553.566 6.896 2.253 2.18 2.253 2.18 5 3l2.105.766c5.727 1.332 11.156 1.779 16.895.234 4.291-3.13 5.635-5.973 7-11 .415-3.036.605-6.065.75-9.125l.122-2.542c.332-9.074.355-18.19-5.872-25.333-3.317-3.087-5.702-3.432-10.187-3.437l-3.231-.06c-3.287.456-5.34 1.162-8.306 2.528M798.129 181.77l3.635.005 3.798.037 3.811.002c9.346.046 9.346.046 11.627 1.186l.025 2.383q.116 11.145.263 22.288.076 5.729.134 11.457.056 5.535.136 11.068.029 2.106.045 4.211c.017 1.975.048 3.95.078 5.923l.04 3.399c.395 4.632.915 8.907 4.279 12.271 7.758 1.984 14.926.537 22-3l1-70c2.745-1.373 4.962-1.13 8.031-1.133l3.645-.004 3.824.012 3.824-.012 3.645.004 3.357.004C878 182 878 182 880 183q.034 18.945.052 37.89.007 8.796.023 17.592.016 8.481.02 16.961.003 3.244.01 6.487.01 4.527.009 9.052l.01 2.738c-.01 6.166-.01 6.166-1.124 7.28-1.477.099-2.958.13-4.437.133l-2.711.004-2.852-.012-2.852.012-2.71-.004-2.504-.004C859 281 859 281 858 280a100 100 0 0 1 0-5l-2.387 1.207C840.886 283.37 825.101 286.984 809 282c-8.244-3.026-13.154-7.128-16.992-15.047-2.65-6.513-3.13-13.15-3.17-20.142l-.014-2.062q-.021-3.337-.027-6.675l-.009-2.313q-.022-6.044-.028-12.086c-.006-4.165-.03-8.329-.058-12.493-.019-3.204-.024-6.408-.026-9.612a703 703 0 0 0-.024-4.609c-.017-2.14-.015-4.28-.008-6.42l-.011-3.69L789 184c3.517-2.345 4.97-2.246 9.129-2.23m-182.977-27.903 3.791-.004 3.995.012 3.982-.012 3.795.004 3.504.004C637 154 637 154 639 155v27c6.866-.04 6.866-.04 13.732-.09l2.577-.008 2.65-.016C660 182 660 182 661 183c.1 1.842.13 3.687.133 5.531l.004 3.395-.012 3.574.012 3.574-.004 3.395-.004 3.138C661 208 661 208 660 209a76 76 0 0 1-4.691.098l-2.862-.01-3.01-.025-3.021-.014q-3.708-.018-7.416-.049.03 8.835.153 17.67.034 3.004.043 6.008c.009 2.883.05 5.764.097 8.646l-.012 2.706c.104 4.433.288 6.399 3.032 10.035 4.016 2.892 7.61 2.588 12.423 2.648 5.104.127 5.104.127 7.264 2.287.474 3.291.37 6.616.375 9.938l.074 2.787.012 2.677.025 2.453C662 279 662 279 660.113 280.74c-8.703 5.191-21.415 3.727-30.86 1.658-7.129-2.188-13.259-5.942-17.253-12.398-3.63-7.702-4.559-14.576-4.39-23.012.005-1.094.01-2.188.017-3.316.022-3.453.072-6.906.123-10.36q.03-3.537.055-7.076.067-8.617.195-17.236l-3.246.035-4.192.028-2.142.025c-1.807.009-3.614-.036-5.42-.088-1-1-1-1-1.114-3.041l.016-2.65.01-2.862.025-3.01.014-3.021q.02-3.708.049-7.416l16-4-.035-6.09-.02-5.818q-.008-2.026-.02-4.054-.018-2.907-.023-5.815l-.016-3.54c.211-4.987 2.88-3.812 7.266-3.816M567 181.813l3.969-.038 3.781-.005 3.484-.013C581 182 581 182 583 184c.199 3.002.273 5.913.259 8.916l.01 2.799c.01 3.064.003 6.127-.003 9.191l.005 6.367a4841 4841 0 0 1-.01 13.356c-.012 5.717-.005 11.434.007 17.151q.009 6.576 0 13.15-.003 3.165.005 6.326c.005 2.943-.003 5.885-.014 8.828l.012 2.66c-.042 6.027-.042 6.027-2.271 8.256-2.766.259-2.766.259-6.25.266l-3.781.007-3.969-.023-3.969.023-3.781-.007-3.484-.007C553 281 553 281 551 279a128 128 0 0 1-.227-9.04v-2.838c0-3.106.016-6.211.032-9.317l.008-6.449c.008-5.665.028-11.33.05-16.995.02-5.778.03-11.556.04-17.334q.032-17.014.097-34.027c4.577-2.288 10.975-1.185 16-1.187m8.188-40.25c4.856 2.734 7.881 6.222 9.44 11.609.896 5.463.274 10.075-2.628 14.828-3.7 4.511-7.906 6.995-13.668 7.938-5.05.135-9.202-1.25-13.16-4.387-4.02-4.185-6.036-8.73-6.172-14.551.959-6.006 3.173-10.183 8-14 6.01-3.873 11.733-4.258 18.188-1.437"/><path fill="#151313" d="m198 280 4 1 1 4c-1.875.625-1.875.625-4 1l-2-2c.375-2.125.375-2.125 1-4"/><path fill="#141212" d="M231 287v3l-5 1-1-4c2.49-1.245 3.41-.777 6 0"/><path fill="#151313" d="M217 287c2.125.375 2.125.375 4 1v3l-4 1-2-3zm-11-1 5 1v3l-3 1-3-3z"/><path fill="#141212" d="m192 273 4 2-1 4-3-1c-.75-2-.75-2-1-4zm-5-6 4 2v2h-4z"/><path fill="#121011" d="M182 263h3v3h-3z"/></svg>