<svg xmlns="http://www.w3.org/2000/svg" xml:space="preserve" id="Layer_1" width="256" height="256" fill="#4a576f99" stroke="#4a576f99" stroke-width=".4" viewBox="0 0 40 40"><g id="SVGRepo_iconCarrier"><g display="none"><path d="M20.01 36.5a.84.84 0 0 1-.693-.368L9.468 21.529a11.57 11.57 0 0 1-1.79-6.162C7.678 8.824 13.206 3.5 20 3.5c6.795 0 12.322 5.324 12.322 11.867a11.5 11.5 0 0 1-1.77 6.129l-9.851 14.636a.83.83 0 0 1-.691.368zM20 5.17c-5.873 0-10.652 4.574-10.652 10.197 0 1.854.525 3.669 1.52 5.251l9.14 13.55 9.146-13.581a9.8 9.8 0 0 0 1.499-5.22C30.652 9.744 25.873 5.17 20 5.17z" display="inline"/><path d="M20 20.857c-3.159 0-5.728-2.482-5.728-5.535 0-3.051 2.569-5.534 5.728-5.534s5.729 2.483 5.729 5.534c0 3.053-2.571 5.535-5.729 5.535zm0-9.399c-2.237 0-4.057 1.734-4.057 3.864s1.82 3.865 4.057 3.865 4.058-1.734 4.058-3.865c0-2.13-1.822-3.864-4.058-3.864z" display="inline"/></g><path d="M36.705 34.289 26.059 23.615c3.918-4.69 3.688-11.708-.707-16.114C23.1 5.243 20.104 4 16.919 4S10.74 5.243 8.488 7.501c-4.647 4.66-4.647 12.241 0 16.899a11.84 11.84 0 0 0 8.431 3.5c2.866 0 5.573-1.015 7.728-2.86l10.639 10.665a1.002 1.002 0 1 0 1.419-1.416zM9.766 23.126c-3.945-3.958-3.945-10.395 0-14.351 1.912-1.914 4.452-2.97 7.153-2.97s5.243 1.056 7.153 2.97c3.946 3.956 3.946 10.394 0 14.351-1.91 1.914-4.452 2.969-7.153 2.969s-5.241-1.055-7.153-2.969z" display="none"/><path d="M25.38 34.848a1 1 0 0 1-.206-.024l-10.498-2.561-10.61 2.561A.86.86 0 0 1 3 33.986V8.635a.86.86 0 0 1 .657-.836l10.76-2.623.407.003 10.504 2.558 10.607-2.561A.856.856 0 0 1 37 6.012v25.352c0 .397-.27.741-.656.837l-10.759 2.622a1 1 0 0 1-.205.025zm-9.899-4.16 9.039 2.203V9.311l-9.039-2.203zM26.24 9.311v23.58l9.039-2.202V7.108zm-21.519 0v23.58l9.039-2.202V7.108z" display="none"/><g display="none"><path d="M9.708 35C7.112 35 5 32.893 5 30.303a4.708 4.708 0 0 1 9.415 0A4.71 4.71 0 0 1 9.708 35zm0-7.555a2.863 2.863 0 0 0-2.863 2.857 2.863 2.863 0 0 0 5.724 0 2.863 2.863 0 0 0-2.861-2.857zM24.574 35a1.126 1.126 0 0 1-1.125-1.126c0-9.552-7.771-17.324-17.323-17.324-.621 0-1.126-.505-1.126-1.125s.505-1.126 1.126-1.126c10.792 0 19.573 8.781 19.573 19.575 0 .621-.506 1.126-1.125 1.126z" display="inline"/><path d="M33.916 35a1.084 1.084 0 0 1-1.082-1.084c0-14.75-12-26.751-26.751-26.751a1.084 1.084 0 0 1 0-2.165C22.027 5 35 17.972 35 33.916c0 .598-.486 1.084-1.084 1.084z" display="inline"/></g><g fill-rule="evenodd" clip-rule="evenodd" display="none"><path d="M20 29.616c-6.911 0-13.412-3.681-17-9.615 3.588-5.935 10.089-9.617 17-9.617s13.412 3.682 17 9.617c-3.588 5.935-10.09 9.615-17 9.615zm-.002-17.362c-5.817 0-11.309 2.848-14.687 7.618l-.088.125.088.124c3.378 4.77 8.87 7.618 14.687 7.618 5.82 0 11.311-2.849 14.687-7.618l.089-.124-.089-.125c-3.376-4.769-8.867-7.618-14.687-7.618z" display="inline"/><path d="M19.987 13.521a6.48 6.48 0 0 0 0 12.957A6.474 6.474 0 0 0 26.465 20a6.475 6.475 0 0 0-6.478-6.479zm0 11.336c-2.68 0-4.858-2.175-4.858-4.858s2.178-4.859 4.858-4.859c2.686 0 4.858 2.175 4.858 4.859s-2.172 4.858-4.858 4.858z" display="inline"/></g><path d="M7.336 35.5a.726.726 0 0 1-.725-.726v-7.599c0-.4.326-.725.725-.725h3.181v-6.336c0-.342.276-.619.619-.619h8.247v-5.949h-3.181a.727.727 0 0 1-.725-.726V5.223c0-.399.326-.723.725-.723H23.8c.398 0 .725.324.725.723v7.599a.726.726 0 0 1-.725.726h-3.18v5.949h8.245c.341 0 .618.277.618.619v6.336h3.182c.397 0 .724.324.724.725v7.599a.727.727 0 0 1-.724.725h-7.599a.726.726 0 0 1-.726-.725v-7.599c0-.4.325-.725.726-.725h3.179v-5.717H11.754v5.717h3.18c.399 0 .725.324.725.725v7.599c0 .4-.325.726-.725.726H7.336zm.725-1.449h6.149V27.9H8.061zm17.729 0h6.149V27.9H25.79zm-8.863-21.952h6.146v-6.15h-6.146z" display="none"/><g display="none"><path d="M11.018 35.01a.76.76 0 0 1-.759-.717L8.879 9.946H5.75a.762.762 0 0 1 0-1.521h3.59l.155.025.105-.024h5.171V5.75c0-.419.34-.76.76-.76h8.939a.76.76 0 0 1 .76.76v2.676h5.174l.175.028.118-.028h3.554a.762.762 0 0 1 0 1.521h-3.128l-1.36 24.346a.76.76 0 0 1-.759.718zm.717-1.52h16.549L29.6 9.946H10.4zM16.29 8.426h7.42V6.51h-7.42z" display="inline"/><path d="M14.302 12.201a.78.78 0 0 0-.57.252.76.76 0 0 0-.192.551l.998 17.608a.76.76 0 0 0 .759.716v.19l.045-.19a.764.764 0 0 0 .715-.804l-.999-17.606a.76.76 0 0 0-.756-.717zm11.407.001c-.445 0-.776.314-.8.716l-1 17.606a.765.765 0 0 0 .717.804l.044.19v-.19a.76.76 0 0 0 .757-.716l1.001-17.608a.76.76 0 0 0-.715-.802zM20 12.201a.76.76 0 0 0-.76.76v17.607a.76.76 0 0 0 1.52 0V12.961a.76.76 0 0 0-.76-.76z" display="inline"/></g><g display="none"><path d="M8.236 15.765A4.24 4.24 0 0 0 4 20a4.24 4.24 0 0 0 4.236 4.234A4.24 4.24 0 0 0 12.471 20a4.24 4.24 0 0 0-4.235-4.235zm0 7.059A2.827 2.827 0 0 1 5.413 20a2.827 2.827 0 0 1 2.823-2.824 2.825 2.825 0 0 1 0 5.648zM20 15.765A4.24 4.24 0 0 0 15.764 20 4.24 4.24 0 0 0 20 24.234 4.24 4.24 0 0 0 24.236 20 4.24 4.24 0 0 0 20 15.765zm0 7.059A2.826 2.826 0 0 1 17.178 20 2.826 2.826 0 0 1 20 17.176a2.824 2.824 0 0 1 0 5.648zm11.764-7.059A4.24 4.24 0 0 0 27.529 20a4.24 4.24 0 0 0 4.235 4.234A4.24 4.24 0 0 0 36 20a4.24 4.24 0 0 0-4.236-4.235zm0 7.059A2.827 2.827 0 0 1 28.942 20a2.827 2.827 0 0 1 2.822-2.824A2.825 2.825 0 0 1 34.587 20a2.826 2.826 0 0 1-2.823 2.824z" display="inline"/></g><path d="M33.125 19.125H8.98L20.841 7.5a.875.875 0 1 0-1.224-1.249L6.262 19.339a.88.88 0 0 0-.262.626V20c0 .319.171.598.427.751L19.69 33.75a.87.87 0 0 0 1.238-.012.876.876 0 0 0-.013-1.238L9.055 20.875h24.07a.876.876 0 0 0 0-1.75z" display="none"/><path d="M34 20a.87.87 0 0 0-.428-.751L20.31 6.25a.875.875 0 0 0-1.226 1.25l11.861 11.625H6.875a.876.876 0 0 0 0 1.75H31.02L19.158 32.5a.877.877 0 0 0 .613 1.5.87.87 0 0 0 .612-.25l13.353-13.089a.88.88 0 0 0 .264-.626l-.001-.017z" display="none"/><path d="M33.75 19.616 20.66 6.262A.88.88 0 0 0 20.037 6l-.02.001L20 6a.87.87 0 0 0-.751.428L6.25 19.69a.875.875 0 0 0 1.25 1.224l11.625-11.86v24.07a.876.876 0 0 0 1.75.001V8.981L32.5 20.841a.876.876 0 0 0 1.25-1.225z" display="none"/><path d="M33.737 19.071a.875.875 0 0 0-1.237.014l-11.625 11.86V6.875a.875.875 0 0 0-1.75 0V31.02L7.5 19.159a.875.875 0 0 0-1.25 1.224l13.09 13.354a.87.87 0 0 0 .625.263l.018-.001L20 34c.32 0 .599-.172.752-.428L33.75 20.31a.877.877 0 0 0-.013-1.239z" display="none"/><path d="M26.714 34a.87.87 0 0 1-.612-.251l-13.429-13.16a.877.877 0 0 1 0-1.25L26.027 6.251a.874.874 0 1 1 1.224 1.248L14.536 19.965l12.79 12.536A.875.875 0 0 1 26.714 34z" display="none"/><path d="M13.36 34a.876.876 0 0 1-.614-1.499l12.717-12.466-12.79-12.536a.876.876 0 0 1 1.225-1.249l13.429 13.161a.877.877 0 0 1 0 1.249L13.974 33.75a.88.88 0 0 1-.614.25z" display="none"/><path d="M5.938 28.131a.938.938 0 0 1-.669-1.594L19.37 12.149a.94.94 0 0 1 1.338 0l14.023 14.308a.94.94 0 0 1-.012 1.326.94.94 0 0 1-1.326-.014L20.039 14.146 6.608 27.85a.94.94 0 0 1-.67.281z" display="none"/><path d="M19.962 28.131a.94.94 0 0 1-.67-.281L5.27 13.542a.938.938 0 1 1 1.337-1.313l13.354 13.625L33.394 12.15a.94.94 0 0 1 1.326-.015.94.94 0 0 1 .013 1.327L20.632 27.85a.95.95 0 0 1-.67.281z" display="none"/><g display="none"><path d="M6.72 34a.72.72 0 0 1-.72-.719V27.47c0-.396.323-.721.72-.721h5.81c.397 0 .72.324.72.721v5.811a.72.72 0 0 1-.72.719zm.719-1.439h4.371V28.19H7.439zM17.095 34a.72.72 0 0 1-.72-.719V27.47c0-.396.323-.721.72-.721h5.811c.396 0 .72.324.72.721v5.811a.72.72 0 0 1-.72.719zm.72-1.439h4.371V28.19h-4.371zM27.471 34a.72.72 0 0 1-.721-.719V27.47c0-.396.323-.721.721-.721h5.81c.396 0 .72.324.72.721v5.811a.72.72 0 0 1-.721.719zm.718-1.439h4.371V28.19h-4.371zM6.72 23.625a.72.72 0 0 1-.72-.719v-5.811a.72.72 0 0 1 .72-.72h5.81a.72.72 0 0 1 .72.72v5.811a.72.72 0 0 1-.72.719zm.719-1.439h4.371v-4.371H7.439zm9.656 1.439a.72.72 0 0 1-.72-.719v-5.811a.72.72 0 0 1 .72-.72h5.811c.396 0 .72.323.72.72v5.811a.72.72 0 0 1-.72.719zm.72-1.439h4.371v-4.371h-4.371zm9.656 1.439a.72.72 0 0 1-.721-.719v-5.811c0-.397.323-.72.721-.72h5.81c.396 0 .72.323.72.72v5.811a.72.72 0 0 1-.72.719zm.718-1.439h4.371v-4.371h-4.371zM6.72 13.25a.72.72 0 0 1-.72-.719v-5.81C6 6.324 6.323 6 6.72 6h5.81a.72.72 0 0 1 .72.72v5.81a.72.72 0 0 1-.72.719H6.72zm.719-1.439h4.371V7.439H7.439zm9.656 1.439a.72.72 0 0 1-.72-.719v-5.81a.72.72 0 0 1 .72-.72h5.811c.396 0 .72.323.72.72v5.81a.72.72 0 0 1-.72.719zm.72-1.439h4.371V7.439h-4.371zm9.656 1.439a.72.72 0 0 1-.721-.719v-5.81c0-.397.323-.72.721-.72h5.81a.72.72 0 0 1 .719.72v5.81a.72.72 0 0 1-.72.719zm.718-1.439h4.371V7.439h-4.371z" display="inline"/></g><g display="none"><path d="M16.225 8.013h16.949a.827.827 0 0 0 0-1.654H16.225a.827.827 0 0 0 0 1.654zm16.949 3.41H16.225a.826.826 0 1 0 0 1.652h16.949a.826.826 0 1 0 0-1.652zm0 5.269H16.225a.827.827 0 0 0 0 1.654h16.949a.827.827 0 0 0 0-1.654zm0 4.961H16.225a.827.827 0 0 0 0 1.654h16.949a.827.827 0 0 0 0-1.654zm0 5.374H16.225a.827.827 0 1 0 0 1.653h16.949a.826.826 0 0 0 0-1.653zm0 4.96H16.225a.828.828 0 0 0 0 1.654h16.949a.827.827 0 0 0 0-1.654zM6.717 33.53A.717.717 0 0 1 6 32.815v-4.961c0-.396.322-.717.717-.717h4.961c.395 0 .717.321.717.717v4.961a.717.717 0 0 1-.717.715zm.717-1.432h3.526V28.57H7.434zm-.717-8.902A.717.717 0 0 1 6 22.48v-4.96c0-.396.322-.717.717-.717h4.961c.395 0 .717.321.717.717v4.961a.717.717 0 0 1-.717.716H6.717zm.717-1.433h3.526v-3.527H7.434zm-.717-8.901A.717.717 0 0 1 6 12.146V7.185c0-.395.322-.717.717-.717h4.961c.395 0 .717.322.717.717v4.961a.72.72 0 0 1-.717.717H6.717zm.717-1.433h3.526V7.901H7.434z" display="inline"/></g><g display="none"><path d="M34.063 10.625H5.938a.938.938 0 1 1 0-1.875h28.125a.938.938 0 0 1 0 1.875m0 10.313H5.938a.938.938 0 0 1 0-1.876h28.125a.938.938 0 0 1 0 1.876m0 10.312H5.938a.938.938 0 1 1 0-1.875h28.125a.938.938 0 0 1 0 1.875" display="inline"/><path d="M34.063 20.938H5.938a.938.938 0 0 1 0-1.876h28.125a.938.938 0 0 1 0 1.876" display="inline"/></g><path d="M21.414 20 33.207 8.207a.999.999 0 1 0-1.414-1.414L20 18.586 8.207 6.793a.999.999 0 1 0-1.414 1.414L18.586 20 6.793 31.793a.999.999 0 1 0 1.414 1.414L20 21.414l11.793 11.793a.997.997 0 0 0 1.414 0 1 1 0 0 0 0-1.414z" display="none"/><path d="M9.411 35a.76.76 0 0 1-.758-.746V5.758c0-.418.339-.758.758-.758h14.706c.198 0 .394.084.546.236l6.449 6.461c.15.13.235.324.235.535v22.021a.763.763 0 0 1-.758.747zm.759-1.504h19.672V12.989h-5.726a.76.76 0 0 1-.759-.757V6.504H10.17zm14.705-22.011h3.9l-3.9-3.914z" display="none"/><g display="none"><path d="M12.966 17.262c-.483 0-.878.395-.878.878s.395.877.878.877h13.518c.483 0 .878-.394.878-.877s-.395-.878-.878-.878z" display="inline"/><path d="M9.411 35a.763.763 0 0 1-.759-.746V5.758c0-.418.34-.758.759-.758h14.704c.2 0 .395.084.547.236l6.449 6.461c.15.13.236.324.236.534v22.022a.764.764 0 0 1-.759.746zm.759-1.504h19.672V12.989h-5.727a.76.76 0 0 1-.758-.757V6.504H10.17zm14.705-22.011h3.9l-3.9-3.915z" display="inline"/><path d="M12.966 21.164c-.483 0-.878.395-.878.878s.395.878.878.878h13.518c.483 0 .878-.395.878-.878s-.395-.878-.878-.878zm0 3.901a.88.88 0 0 0-.878.878c0 .484.395.877.878.877h13.518a.88.88 0 0 0 .878-.877.88.88 0 0 0-.878-.878z" display="inline"/></g><g display="none"><path d="M14.766 16.227c0 .45.367.816.817.816h12.578a.82.82 0 0 0 .817-.816.82.82 0 0 0-.817-.817H15.583a.82.82 0 0 0-.817.817z" display="inline"/><path d="m32.468 10.232-6.002-6.013A.72.72 0 0 0 25.959 4H12.274a.707.707 0 0 0-.706.706v26.516c0 .377.323.694.706.694h14.757v2.685H8.727V9.484H11.5v-1.4H8.02a.707.707 0 0 0-.706.707v26.515A.71.71 0 0 0 8.02 36h19.706a.71.71 0 0 0 .706-.694v-3.39h3.549a.71.71 0 0 0 .706-.694V10.729a.66.66 0 0 0-.219-.497zm-5.804-3.839 3.63 3.642h-3.63zm4.622 24.123H12.981V5.399h12.271v5.33c0 .388.315.705.706.705h5.327z" display="inline"/><path d="M28.161 19.041H15.583a.818.818 0 0 0 0 1.633h12.578a.82.82 0 0 0 .817-.816.82.82 0 0 0-.817-.817zm0 3.631H15.583a.817.817 0 0 0 0 1.632h12.578c.449 0 .817-.365.817-.816s-.368-.816-.817-.816zM11.5 19.495h-.172a.82.82 0 0 0-.817.816c0 .451.367.818.817.818h.172zm0 3.63h-.172a.82.82 0 0 0-.817.816c0 .451.367.818.817.818h.172zm-.989 4.448c0 .45.367.816.817.816h.172v-1.634h-.172a.82.82 0 0 0-.817.818z" display="inline"/></g><path d="M35.823 14.582a.76.76 0 0 0-.585-.274h-2.286V8.381a.76.76 0 0 0-.762-.762H7.81a.76.76 0 0 0-.762.762v3.279H4.762a.76.76 0 0 0-.752.881l3.048 19.197c.06.369.377.643.752.643h24.38a.765.765 0 0 0 .75-.625l3.048-16.549a.76.76 0 0 0-.165-.625zM8.571 9.144h22.857v5.165H16.437l-3.621-2.512a.75.75 0 0 0-.435-.136h-3.81zm22.987 21.712H8.46L5.655 13.184h6.487l3.621 2.511a.76.76 0 0 0 .435.137h18.125z" display="none"/><path d="M8.944 35a3.9 3.9 0 0 1-2.789-1.156C5.41 33.1 5 32.109 5 31.056s.41-2.044 1.155-2.788l12.549-12.549-.896-3.995a.8.8 0 0 1 .202-.768l5.727-5.724a.79.79 0 0 1 .761-.205L28.8 6.18a.79.79 0 0 1 .355 1.318l-4.27 4.271.609 2.497 2.623.883 4.383-4.301a.79.79 0 0 1 .764-.206.8.8 0 0 1 .557.559l1.152 4.302a.78.78 0 0 1-.203.761l-5.727 5.726a.78.78 0 0 1-.761.204l-3.673-.983-2.324 2.084-10.552 10.55A3.92 3.92 0 0 1 8.944 35zm10.505-23.25 1.035 3.862a.79.79 0 0 1-.204.761L7.27 29.382a2.35 2.35 0 0 0-.694 1.674c0 .633.247 1.227.694 1.673a2.36 2.36 0 0 0 1.674.695 2.35 2.35 0 0 0 1.674-.695l13.009-13.005a.79.79 0 0 1 .762-.205l3.672.983 5.131-4.89-.387-2.106-.154-.579-3.672 3.673a.79.79 0 0 1-.761.205l-3.521-.943a.79.79 0 0 1-.557-.556l-.943-3.521a.8.8 0 0 1 .203-.762l3.673-3.672-2.544-.68z" display="none"/><path d="M35.667 18.241 20.476 7.193a.81.81 0 0 0-.953 0l-6.715 4.884v-1.85c0-.53-.371-.961-.828-.961H8.334c-.457 0-.828.432-.828.961v5.706l-3.173 2.308a.81.81 0 0 0-.178 1.132.81.81 0 0 0 1.132.178l2.321-1.688v14.29c0 .447.363.811.81.811h8.178a.81.81 0 0 0 .81-.811v-9.715h5.191v9.715a.81.81 0 0 0 .809.811h8.178a.81.81 0 0 0 .811-.811v-14.29l2.322 1.688a.814.814 0 0 0 1.131-.178.816.816 0 0 0-.181-1.132zM9.162 11.188h1.991v2.092l-1.991 1.448zm21.61 20.154h-6.558v-9.714a.81.81 0 0 0-.811-.81h-6.809a.81.81 0 0 0-.81.81v9.714H9.228V16.684L20 8.85l10.772 7.834z" display="none"/><g display="none"><path d="M9.196 36a.76.76 0 0 1-.766-.767c0-.431.336-.768.766-.768h2.006V10.234l-.071-.021a3.3 3.3 0 0 1-1.666-1.148 3.03 3.03 0 0 1-.656-1.92c0-.88.308-1.63.915-2.229A3.08 3.08 0 0 1 11.968 4c.888 0 1.627.299 2.26.915.617.604.93 1.354.93 2.229 0 .708-.226 1.354-.672 1.92a3.18 3.18 0 0 1-1.681 1.147l-.072.021v.956l10.374 2.568a.78.78 0 0 1 .602.77v2.013l9.285 2.478c.355.093.543.315.572.681q.04.546-.417.77l-9.903 4.772a.56.56 0 0 1-.32.098.8.8 0 0 1-.418-.125c-.237-.148-.348-.357-.348-.656v-1.558l-9.426 3.362v8.104h2.037a.767.767 0 1 1 0 1.535zm3.538-11.271 9.426-3.359v-6.242l-9.426-2.334zm10.975-1.399 6.888-3.335-6.888-1.85zM11.964 5.534c-.433 0-.836.166-1.137.468-.625.624-.625 1.654-.001 2.297a1.57 1.57 0 0 0 1.138.474c.437 0 .848-.168 1.16-.473a1.6 1.6 0 0 0 .494-1.165A1.57 1.57 0 0 0 13.123 6a1.68 1.68 0 0 0-1.159-.466z" display="inline"/></g><path d="M33.334 12.095h-6.857v-1.143a3.62 3.62 0 0 0-3.619-3.619h-5.714a3.623 3.623 0 0 0-3.619 3.619v1.143H6.667A2.67 2.67 0 0 0 4 14.762V30a2.67 2.67 0 0 0 2.667 2.666h26.667A2.67 2.67 0 0 0 36 30V14.762a2.67 2.67 0 0 0-2.666-2.667zm-18.286-1.143c0-1.154.94-2.095 2.095-2.095h5.714c1.155 0 2.095.941 2.095 2.095v1.143h-9.904zm-9.524 3.81c0-.631.513-1.143 1.143-1.143h26.667c.631 0 1.143.512 1.143 1.143v4.953H5.524zm19.238 6.476h3.81v2.158h-3.81zm-13.332 0h3.81v2.158h-3.81zm21.904 9.905H6.667c-.63 0-1.143-.514-1.143-1.143v-8.762h4.382v2.92c0 .422.34.762.762.762h5.333c.421 0 .762-.34.762-.762v-2.92h6.476v2.92c0 .422.342.762.762.762h5.334c.421 0 .762-.34.762-.762v-2.92h4.381V30a1.146 1.146 0 0 1-1.144 1.143z" display="none"/><path d="M25.033 14.427v-5.28a4.565 4.565 0 0 0 3.324-4.388.76.76 0 0 0-.76-.76H12.402a.76.76 0 0 0-.76.76 4.57 4.57 0 0 0 3.324 4.388v5.28a4.566 4.566 0 0 0-3.324 4.389v1.899c0 .419.34.759.76.759h5.01c.125 3.184.419 6.59.821 9.459.186 1.328.384 2.461.572 3.277.204.88.413 1.79 1.195 1.79.781 0 .991-.91 1.195-1.789.188-.816.386-1.949.572-3.277.402-2.869.697-6.275.822-9.459h5.008c.42 0 .76-.34.76-.759v-1.899a4.565 4.565 0 0 0-3.324-4.39zM20 32.434c-.412-2.4-.888-6.395-1.068-10.959h2.137c-.178 4.564-.655 8.558-1.069 10.959zm6.838-12.478H13.163v-1.14a3.04 3.04 0 0 1 2.659-3.015.76.76 0 0 0 .665-.754v-6.52a.76.76 0 0 0-.665-.753 3.04 3.04 0 0 1-2.563-2.254h13.482a3.04 3.04 0 0 1-2.561 2.254.76.76 0 0 0-.667.753v6.521c0 .383.287.707.667.754a3.04 3.04 0 0 1 2.657 3.015v1.139z" display="none"/><g display="none"><path d="M27.758 32.244 34 19.074V7.756H21.241V19.76h4.87l-4.87 12.484zm-4.612-14.389V9.662h8.948v8.983l-5.543 11.693h-2.522l4.868-12.482h-5.751zM12.517 32.244l6.242-13.17V7.756H6V19.76h4.871L6 32.244zM7.905 17.855V9.662h8.948v8.983l-5.542 11.693H8.789l4.868-12.482H7.905z" display="inline"/></g><g display="none"><path d="M23.83 28.146a.75.75 0 0 0-.75.75v5.25H8.287V5.854H23.08v5.25a.75.75 0 0 0 1.5 0v-6a.75.75 0 0 0-.75-.75H7.537a.75.75 0 0 0-.75.75v29.793c0 .415.336.75.75.75H23.83a.75.75 0 0 0 .75-.75v-6a.75.75 0 0 0-.75-.751z" display="inline"/><path d="m34.168 24.248-2.48-8.688a.75.75 0 0 0-.594-.533.75.75 0 0 0-.738.304L29.307 16.8c-1.635-1.122-3.586-1.735-5.693-1.783q-.029-.001-.057.001c-4.104.216-6.771 1.523-10.574 5.178a.75.75 0 0 0 .787 1.242c1.627-.619 3.34-.946 4.955-.946 1.795 0 4.295.403 6.336 2.252l-.947 1.327a.752.752 0 0 0 .611 1.186h8.738a.75.75 0 0 0 .705-1.009zm-7.986-.491.475-.665a.75.75 0 0 0-.068-.953c-1.961-2.059-4.68-3.147-7.863-3.147-.754 0-1.527.063-2.305.188 2.352-1.809 4.373-2.511 7.188-2.663 2.041.052 3.906.717 5.391 1.925a.75.75 0 0 0 1.084-.147l.59-.826 1.795 6.288z" display="inline"/></g><path d="M11.087 35.498a2.45 2.45 0 0 1-1.737-.719l-4.128-4.13a2.44 2.44 0 0 1-.722-1.737c0-.656.256-1.274.722-1.738l8.354-8.355a2.45 2.45 0 0 1 1.738-.719c.656 0 1.274.255 1.736.719l1.483 1.484 1.771-1.771-1.485-1.482c-.463-.464-.72-1.082-.72-1.738s.257-1.272.72-1.737l8.356-8.354c.463-.465 1.08-.72 1.737-.72s1.274.254 1.737.72l4.13 4.128c.464.463.72 1.08.72 1.737s-.256 1.275-.72 1.738l-8.355 8.355a2.44 2.44 0 0 1-1.738.72 2.44 2.44 0 0 1-1.736-.72l-1.483-1.484-1.77 1.771 1.483 1.482c.466.464.72 1.081.72 1.736 0 .656-.254 1.273-.72 1.738l-8.354 8.355a2.44 2.44 0 0 1-1.739.721zm4.226-15.751a.8.8 0 0 0-.571.236l-8.356 8.356a.81.81 0 0 0 0 1.145l4.13 4.13a.8.8 0 0 0 .571.237c.125 0 .367-.03.573-.237l8.356-8.354a.8.8 0 0 0 .236-.574.8.8 0 0 0-.236-.57l-1.483-1.486-2.482 2.484a.82.82 0 0 1-.581.242.824.824 0 0 1-.584-1.405l2.484-2.483-1.483-1.483a.8.8 0 0 0-.574-.238zm9.338-5.221c.219 0 .426.085.58.24a.82.82 0 0 1 .002 1.164l-2.604 2.602 1.485 1.483a.81.81 0 0 0 1.145.001l8.354-8.356a.8.8 0 0 0 .237-.574.8.8 0 0 0-.235-.573l-4.129-4.128a.806.806 0 0 0-1.147 0l-8.354 8.354a.81.81 0 0 0-.003 1.146l1.483 1.483 2.601-2.602a.84.84 0 0 1 .585-.24z" display="none"/><g fill-rule="evenodd" clip-rule="evenodd" display="none"><path d="M13.786 29.113a1.853 1.853 0 0 1-1.853-1.85l-.245-1.479-.287-1.924a2 2 0 0 1-.076-.498L9.373 9.702l-.338-2.035H5.377a.88.88 0 0 1-.877-.876c0-.482.394-.875.877-.875h3.899a.6.6 0 0 1 .169.03l.025.006.075.007a1 1 0 0 1 .218-.044c.484 0 .878.393.878.875l.186 1.122.097-.017a2 2 0 0 1 .304-.033h22.421c1.021 0 1.852.831 1.852 1.853v11.699c0 1.021-.83 1.851-1.852 1.851-.092.001-9.072.071-14.472.638-2.596.273-5.058 1.01-5.75 1.229l-.079.025.329 2.203h18.997c.482 0 .877.394.877.877s-.395.876-.877.876zM12.445 9.618c-.592 0-1.073.48-1.073 1.071l1.626 11.387a1.07 1.07 0 0 0 1.074 1.059c.054-.015 1.638-.682 4.483-1.018 4.797-.565 14.026-.605 14.12-.605.59 0 1.072-.48 1.072-1.073v-9.75c0-.59-.482-1.071-1.072-1.071zm3.503 20.57a1.948 1.948 0 0 0 0 3.897 1.948 1.948 0 1 0 0-3.897z" display="inline"/><circle cx="29.598" cy="32.136" r="1.949" display="inline"/></g><path d="M32 10.465c0-.948-.66-2.295-3.808-3.337C25.993 6.4 23.084 6 20 6c-3.083 0-5.993.4-8.192 1.128C8.661 8.169 8 9.517 8 10.465l.001.022-.001.009v6.326l.001.023-.001.008v6.325l.001.023-.001.01v6.324c0 .947.661 2.295 3.808 3.337C14.007 33.6 16.917 34 20 34s5.993-.4 8.192-1.128C31.34 31.83 32 30.482 32 29.535zm-1.5 19.07c0 1.215-4.09 2.977-10.5 2.977S9.5 30.75 9.5 29.535v-4.052c.557.371 1.306.732 2.308 1.063 2.199.729 5.109 1.129 8.192 1.129s5.993-.4 8.192-1.129c1.001-.331 1.751-.692 2.308-1.063zm0-6.357c0 1.214-4.09 2.977-10.5 2.977S9.5 24.392 9.5 23.178v-4.052c.557.371 1.306.733 2.308 1.065 2.199.728 5.109 1.127 8.192 1.127s5.993-.4 8.192-1.127c1.001-.332 1.751-.694 2.308-1.065zm0-6.356c0 1.213-4.09 2.975-10.5 2.975S9.5 18.035 9.5 16.822v-4.053c.557.371 1.306.733 2.308 1.065 2.199.728 5.109 1.128 8.192 1.128s5.993-.4 8.192-1.128c1.001-.332 1.751-.694 2.308-1.065zM20 13.44c-6.41 0-10.5-1.762-10.5-2.975S13.59 7.489 20 7.489s10.5 1.762 10.5 2.976S26.41 13.44 20 13.44z" display="none"/><path d="M31 10V6.667c0-.368-.353-.667-.786-.667H9.785C9.353 6 9 6.299 9 6.667V10c0 .369.353.667.785.667h1.179v.996c0 3.418 2.296 6.533 5.893 8.052v.569c-3.596 1.518-5.893 4.629-5.893 8.049v1.002H9.785c-.432-.001-.785.298-.785.664v3.335c0 .368.353.666.785.666h20.429c.433 0 .786-.298.786-.666v-3.335c0-.366-.353-.665-.786-.665h-1.179v-1.002c0-3.42-2.297-6.533-5.896-8.051v-.565c3.599-1.518 5.896-4.632 5.896-8.054v-.996h1.179c.433.001.786-.297.786-.666zm-2.428 20.666h.855v2H10.571v-2zm-1.392-17.1c-.148.574-.566 1.333-.566 1.333-.914 1.655-2.516 3.018-4.575 3.783-.286.106-.47.346-.47.611v1.413c0 .265.184.504.47.611 3.296 1.226 5.427 3.979 5.427 7.016v1.003H12.535v-1.002c0-3.037 2.13-5.789 5.423-7.016.286-.105.47-.344.47-.609V19.29c0-.264-.184-.503-.47-.61-2.057-.766-3.658-2.127-4.572-3.782-.344-.56-.565-1.333-.565-1.333a6.5 6.5 0 0 1-.286-1.903v-.985h14.93v.985c0 .651-.1 1.291-.285 1.904zm2.248-4.233H28.25a1 1 0 0 0-.134.01H11.883a1 1 0 0 0-.133-.01h-1.179v-2h18.856v2z" display="none"/><path d="M29.112 30.927H9.876A6.884 6.884 0 0 1 3 24.051a6.886 6.886 0 0 1 6.356-6.858 5.88 5.88 0 0 1 5.583-4.066q.552 0 1.133.125a7.87 7.87 0 0 1 6.963-4.177c3.729 0 6.934 2.659 7.688 6.276 3.619.754 6.277 3.96 6.277 7.688 0 4.35-3.538 7.888-7.888 7.888zM9.833 18.791a5.267 5.267 0 0 0-5.215 5.26 5.265 5.265 0 0 0 5.258 5.258h19.236a6.28 6.28 0 0 0 6.271-6.27c0-3.122-2.35-5.78-5.466-6.185a.81.81 0 0 1-.698-.699c-.404-3.115-3.063-5.463-6.184-5.463a6.26 6.26 0 0 0-5.779 3.831.807.807 0 0 1-.996.453 4.3 4.3 0 0 0-1.32-.232 4.256 4.256 0 0 0-4.164 3.409.81.81 0 0 1-.943.638z" display="none"/><g display="none"><path d="M29.364 15.71a.78.78 0 0 0-.78.78v3.901c0 4.733-3.851 8.585-8.584 8.585s-8.585-3.852-8.585-8.585V16.49a.78.78 0 0 0-1.56 0v3.901c0 5.331 4.134 9.716 9.365 10.116v3.932h-5.463a.78.78 0 1 0 0 1.56h12.486a.78.78 0 0 0 0-1.56H20.78v-3.932c5.23-.4 9.365-4.785 9.365-10.116V16.49a.78.78 0 0 0-.781-.78z" display="inline"/><path d="M20 27.025a6.64 6.64 0 0 0 6.633-6.633v-9.76C26.633 6.976 23.657 4 20 4s-6.633 2.976-6.633 6.633v9.76A6.64 6.64 0 0 0 20 27.025zm-5.072-16.392c0-2.797 2.275-5.072 5.072-5.072s5.072 2.275 5.072 5.072v9.76c0 2.797-2.275 5.072-5.072 5.072s-5.072-2.275-5.072-5.072z" display="inline"/></g><g display="none"><path d="M22.603 19.604a4.44 4.44 0 0 0 1.88-3.626 4.45 4.45 0 0 0-4.444-4.446 4.45 4.45 0 0 0-4.445 4.446c0 1.495.745 2.82 1.881 3.627l-5.008 14.432a.726.726 0 0 0 .683.963c.3 0 .581-.188.684-.488l1.02-2.933h10.37l1.017 2.933a.724.724 0 1 0 1.369-.475zm-2.565-6.613a2.99 2.99 0 0 1 2.986 2.987 2.99 2.99 0 0 1-2.986 2.986 2.99 2.99 0 0 1-2.986-2.986 2.99 2.99 0 0 1 2.986-2.987zm0 7.432c.435 0 .854-.064 1.252-.181l1.603 4.622h-5.709l1.604-4.622c.397.117.816.181 1.25.181zm-4.682 9.706 1.324-3.814h6.715l1.325 3.814z" display="inline"/><path d="M14.12 21.617a.724.724 0 1 0 1.026-1.025 6.47 6.47 0 0 1-1.913-4.613c0-1.743.678-3.381 1.911-4.613a.73.73 0 0 0 0-1.026.727.727 0 0 0-1.025 0 7.92 7.92 0 0 0-2.336 5.639 7.9 7.9 0 0 0 2.337 5.638z" display="inline"/><path d="M12.581 23.154a10.07 10.07 0 0 1-2.974-7.176c0-2.71 1.055-5.259 2.973-7.178a.725.725 0 1 0-1.025-1.024c-2.191 2.191-3.398 5.104-3.398 8.202s1.208 6.011 3.4 8.202c.142.142.326.212.512.212s.372-.07.513-.212a.727.727 0 0 0-.001-1.026z" display="inline"/><path d="M5.982 15.979a13.7 13.7 0 0 1 4.034-9.741.725.725 0 0 0-1.025-1.025 15.13 15.13 0 0 0-4.46 10.766 15.13 15.13 0 0 0 4.46 10.766.72.72 0 0 0 .513.211.723.723 0 0 0 .513-1.237 13.7 13.7 0 0 1-4.035-9.74zm20.786 0a6.48 6.48 0 0 1-1.911 4.612.725.725 0 0 0 1.026 1.024 7.92 7.92 0 0 0 2.337-5.637 7.92 7.92 0 0 0-2.338-5.64.726.726 0 0 0-1.025 1.025 6.5 6.5 0 0 1 1.911 4.616z" display="inline"/><path d="M28.445 7.775A.726.726 0 0 0 27.419 8.8a10.08 10.08 0 0 1 2.973 7.178c0 2.709-1.055 5.258-2.971 7.178a.722.722 0 0 0 .513 1.236.72.72 0 0 0 .513-.212 11.53 11.53 0 0 0 3.397-8.202c0-3.099-1.208-6.012-3.399-8.203z" display="inline"/><path d="M31.007 5.212a.725.725 0 0 0-1.025 1.025 13.7 13.7 0 0 1 4.037 9.741c0 3.677-1.434 7.136-4.035 9.74a.725.725 0 1 0 1.026 1.025 15.13 15.13 0 0 0 4.459-10.766 15.13 15.13 0 0 0-4.462-10.765z" display="inline"/></g><g display="none"><path d="M26.197 5c-4.854 0-8.803 3.948-8.803 8.802 0 .704.084 1.402.249 2.082L5 28.554V35h6.979v-3.542h3.542v-3.542h3.541v-3.541h3.056l2.014-2.016a8.8 8.8 0 0 0 2.066.244c4.853 0 8.803-3.947 8.803-8.801C35 8.949 31.05 5 26.197 5zm0 15.938a7.1 7.1 0 0 1-2.074-.307l-.476-.144-2.223 2.221h-4.03v3.542h-3.541v3.541h-3.541v3.542H6.667v-4.091l12.851-12.875-.146-.479a7.143 7.143 0 0 1 6.825-9.222c3.935 0 7.135 3.201 7.135 7.136s-3.2 7.136-7.135 7.136z" display="inline"/><circle cx="27.671" cy="12.348" r="1.666" display="inline"/></g><path d="M5.812 35.5V7.128h6.317V4.5h1.594v2.628h12.402V4.5h1.604v2.628h6.458V35.5zm26.772-1.604v-19.27H7.416v19.269h25.168zm0-20.874V8.733H27.73v1.675h-1.604V8.733H13.723v1.675h-1.594V8.733H7.416v4.289z" display="none"/><path fill-rule="evenodd" d="m22.672 29.195-7.148 3.457c-.331-.021-.63-.235-.951-.766L5 6.985c.013-.354.356-.697.778-.697l28.958 15.838c.131.141.304.615.256.94q-.027.183-.135.239l-6.256 3.024v5.654c0 .926-.731 1.685-1.646 1.726zm1.06-.506 2.346 2.471c.339.345.504.492.673.492h.001c.115 0 .261-.062.297-.363.016-.135.018-.341.018-.622v-3.22l.012-.011.012-.133-.014-.102-.007-.004-.003-.651-.003.002c.008-.487.029-1.026.029-1.026l.005-.103-8.106-5.941-.256.283 5.957 6.661.036-.019.786.937.293.328zM9.12 9.995a.81.81 0 0 0-.812.811l7.175 18.895c.195.325.464.665.957.665l6.112-2.922.146-.038 1.488-.735-9.567-10.689 13.229 8.908 3.224-1.551c.103-.054.224-.163.259-.392.043-.292-.086-.704-.281-.898L9.169 9.995z" clip-rule="evenodd" display="none"/><path d="M34.285 10H5.714a.714.714 0 0 0-.714.714v18.571c0 .395.32.715.714.715h28.571c.396 0 .715-.32.715-.715V10.714a.713.713 0 0 0-.715-.714zM6.429 12.269l8.818 7.068-8.818 8.124zM20 21.318l-12.335-9.89h24.671zm-3.626-1.077 3.178 2.548.004.002.021.017.038.026.024.015.043.024q.01.003.019.01l.07.027q.032.01.066.017.008.004.017.004a.4.4 0 0 0 .056.009l.017.002a.4.4 0 0 0 .143 0l.016-.002a.3.3 0 0 0 .074-.013q.033-.006.066-.017l.003-.002.067-.025q.01-.007.019-.01l.045-.024.023-.015.037-.026.022-.017.004-.002 3.178-2.548 9.043 8.33H7.332zm8.38-.904 8.817-7.068v15.175z" display="none"/><g display="none"><path d="M20.01 5.5C12.008 5.5 5.5 12.005 5.5 20c0 7.997 6.508 14.5 14.51 14.5 2.701 0 5.34-.75 7.633-2.166a.9.9 0 0 0 .408-.568.918.918 0 0 0-.894-1.127.9.9 0 0 0-.477.138 12.66 12.66 0 0 1-6.67 1.895c-6.99 0-12.677-5.687-12.677-12.67 0-6.984 5.687-12.667 12.677-12.667a12.674 12.674 0 0 1 12.619 11.444c.047.494.152 2.249-.475 4.098-.588 1.732-2.268 2.978-3.943 2.903-1.047-.038-1.807-.407-2.326-1.126-1.666-2.338-.511-7.771.074-9.666a.914.914 0 0 0-.571-1.134c-.199-.069-2.062-.694-4.348-.694-1.554 0-2.929.292-4.088.863-1.801.888-3.064 2.42-3.755 4.554-.87 2.684-.403 5.274 1.249 6.928a5.2 5.2 0 0 0 3.696 1.537c.549 0 1.096-.086 1.624-.258 1.015-.323 1.929-.933 2.718-1.811l.923-1.025.649 1.216q.152.285.332.54c.846 1.189 2.148 1.846 3.767 1.904l.186.002c2.401 0 4.737-1.742 5.552-4.148.723-2.141.635-4.112.563-4.858a14.5 14.5 0 0 0-2.396-6.688A14.52 14.52 0 0 0 20.01 5.5zm-1.871 19.714a3.37 3.37 0 0 1-2.397-1.003c-1.173-1.176-1.466-3.023-.804-5.069.538-1.658 1.456-2.794 2.808-3.473.922-.459 2.026-.69 3.285-.69.688 0 1.834.153 1.883.158l.981.133-.156.979c-.013.078-.317 1.959-.844 4.058-.604 2.413-1.983 4.186-3.69 4.737-.352.113-.71.17-1.066.17z" display="inline"/></g><path d="M34.949 21.604 30.081 8.122a.75.75 0 0 0-.706-.496h-18.75a.75.75 0 0 0-.705.496L5.051 21.604a.8.8 0 0 0-.051.267v9.753c0 .414.336.75.75.75h28.5a.75.75 0 0 0 .75-.75v-9.753a.7.7 0 0 0-.051-.267zM11.151 9.125H28.85l4.333 12h-1.682l-2.024-6.004a.75.75 0 0 0-.711-.51H11.71a.75.75 0 0 0-.704.492l-2.207 6.022h-1.98zm18.767 12h-4.293a.75.75 0 0 0-.67.414l-1.668 3.336h-6.573l-1.668-3.336a.75.75 0 0 0-.671-.414h-3.978l1.837-5.014h15.992zm3.582 9.749h-27v-8.249h7.412l1.668 3.335a.75.75 0 0 0 .67.414h7.5a.75.75 0 0 0 .672-.414l1.668-3.335h7.41z" display="none"/><g display="none"><path d="M20 21.569a.7.7 0 0 1-.282-.062L5.434 15.115A.75.75 0 0 1 5 14.413a.75.75 0 0 1 .46-.683l14.286-5.681a.7.7 0 0 1 .508 0l14.285 5.679c.275.11.455.378.461.683a.74.74 0 0 1-.434.704L20.281 21.51a.7.7 0 0 1-.281.059zM7.626 14.468l12.339 5.522 12.409-5.522L20 9.549z" display="inline"/><path d="M5.434 20.49a.766.766 0 0 1-.376-.983.72.72 0 0 1 .659-.454.7.7 0 0 1 .282.062l13.967 6.249 14.037-6.249a.7.7 0 0 1 .283-.062.71.71 0 0 1 .656.454.764.764 0 0 1-.376.983L20 27.008z" display="inline"/><path d="M5.434 25.48a.763.763 0 0 1-.376-.981.72.72 0 0 1 .659-.454q.146 0 .282.061l13.967 6.25 14.037-6.25a.7.7 0 0 1 .283-.061c.286 0 .544.179.656.454a.76.76 0 0 1-.375.981L20 32z" display="inline"/></g><g display="none"><path d="M21.768 34a.7.7 0 0 1-.502-.208L6.207 18.733a.72.72 0 0 1-.208-.503l.042-11.523A.71.71 0 0 1 6.751 6l11.479.002c.19 0 .368.072.504.207l15.059 15.059a.706.706 0 0 1-.002 1.004L22.27 33.792a.7.7 0 0 1-.502.208zM7.42 17.866l14.347 14.423L32.288 21.77l-14.3-14.298-10.531-.055z" display="inline"/><circle cx="11.78" cy="11.777" r="1.33" display="inline"/></g><g fill-rule="evenodd" clip-rule="evenodd" display="none"><path d="M10.738 35.5c-.462 0-.531-.451-.531-.721V6.297c0-.991.806-1.797 1.797-1.797h15.99a1.8 1.8 0 0 1 1.799 1.797v28.482c0 .229-.056.408-.16.521a.5.5 0 0 1-.391.15c-.34 0-.754-.211-1.106-.563l-8.137-8.138-8.137 8.138c-.389.39-.799.613-1.124.613zm16.116-3.826c.241.24.491.367.723.367.363 0 .618-.313.618-.76V7.297c0-.662-.538-1.198-1.199-1.198h-13.99a1.2 1.2 0 0 0-1.201 1.198v23.984c0 .209.054.391.154.525.113.15.278.234.466.234.23 0 .48-.127.722-.367l6.854-6.855z" display="inline"/><path d="M25.791 15.35c-.004 0-.006-.006-.012-.008a.4.4 0 0 0-.176-.039c-.023 0-.041.01-.063.012-1.507-.037-3.844-.098-3.844-.098L20.4 11.551a.4.4 0 0 0-.047-.1.2.2 0 0 0-.064-.082c-.076-.07-.176-.117-.287-.117s-.213.047-.287.117q-.03.02-.063.082a.4.4 0 0 0-.049.1l-1.296 3.666s-2.339.061-3.842.098c-.023-.002-.043-.012-.066-.012a.5.5 0 0 0-.176.039c-.004.002-.004.008-.01.008a.42.42 0 0 0-.237.376c0 .084.031.156.072.223h.002a.4.4 0 0 0 .138.137l3.071 2.354s-.662 2.239-1.092 3.681a.4.4 0 0 0-.059.199c0 .236.191.428.424.428a.42.42 0 0 0 .314-.146c.303-.207.644-.441.989-.68L20 20.433l2.167 1.489.987.68a.418.418 0 0 0 .737-.282.4.4 0 0 0-.055-.199L22.74 18.44l3.073-2.354a.4.4 0 0 0 .138-.137.41.41 0 0 0-.16-.599zm-4.363 2.581.754 2.533-2.179-1.499-2.181 1.499.754-2.533-2.099-1.611 2.644-.066.882-2.497.88 2.497 2.647.066z" display="inline"/></g><path d="M29.387 34.986a.8.8 0 0 1-.416-.112L20 29.544l-8.977 5.33a.8.8 0 0 1-.412.112.8.8 0 0 1-.481-.158.805.805 0 0 1-.307-.84l2.389-10-7.926-6.717a.81.81 0 0 1 .458-1.426l10.45-.862 4.062-9.479a.81.81 0 0 1 1.49.003l4.06 9.477 10.45.862a.81.81 0 0 1 .458 1.424l-7.928 6.719 2.389 10.002a.8.8 0 0 1-.309.838.8.8 0 0 1-.479.157zM16.489 16.069a.8.8 0 0 1-.677.488l-8.986.742 6.813 5.773a.82.82 0 0 1 .264.807l-2.06 8.624 7.744-4.599a.81.81 0 0 1 .824 0l7.742 4.599-2.06-8.624a.81.81 0 0 1 .265-.807l6.814-5.773-8.988-.742a.8.8 0 0 1-.677-.486L20 7.882z" display="none"/><g display="none"><path d="M33.125 35H6.875a.94.94 0 0 1-.938-.938v-5.75a.937.937 0 1 1 1.876 0v4.813h24.375v-4.813a.937.937 0 1 1 1.876 0v5.75a.94.94 0 0 1-.939.938m-5.549-20.847a.93.93 0 0 1-.651-.264L20.041 7.24l-6.884 6.649a.937.937 0 1 1-1.301-1.347l7.535-7.277a.93.93 0 0 1 1.301 0l7.535 7.277a.937.937 0 0 1-.651 1.611" display="inline"/><path d="M20.041 29.248a.937.937 0 0 1-.937-.937V5.937a.938.938 0 0 1 1.875 0v22.375a.937.937 0 0 1-.938.936" display="inline"/></g><g display="none"><path d="M33.125 35H6.875a.937.937 0 0 1-.938-.938v-5.75a.937.937 0 1 1 1.875 0v4.813h24.375v-4.813a.937.937 0 1 1 1.876 0v5.75c0 .518-.42.938-.938.938" display="inline"/><path d="M20.042 29.249a.93.93 0 0 1-.651-.265l-7.535-7.277a.937.937 0 1 1 1.302-1.349l6.884 6.649 6.884-6.649a.937.937 0 0 1 1.302 1.349l-7.534 7.277a.94.94 0 0 1-.652.265" display="inline"/><path d="M20.042 29.249a.94.94 0 0 1-.938-.939V5.937c0-.519.42-.937.938-.937.519 0 .938.418.938.937V28.31a.94.94 0 0 1-.938.939" display="inline"/></g><g display="none"><path d="M33.732 10.556h-8.844A2.764 2.764 0 0 0 22.13 7.87H6.267A2.77 2.77 0 0 0 3.5 10.637v10.405a2.77 2.77 0 0 0 2.767 2.768h1.292l4.637 5.353a.815.815 0 0 0 .906.231.82.82 0 0 0 .532-.768V23.81h1.478a2.766 2.766 0 0 0 2.758 2.687h8.498v4.815c0 .34.214.648.534.769q.143.05.284.05a.82.82 0 0 0 .619-.281l4.637-5.353h1.291a2.77 2.77 0 0 0 2.768-2.768V13.323a2.77 2.77 0 0 0-2.769-2.767zm-18.63 2.767v8.848h-2.288a.82.82 0 0 0-.819.819v3.44l-3.443-3.978a.84.84 0 0 0-.646-.282H6.268a1.13 1.13 0 0 1-1.129-1.129V10.637c0-.622.507-1.13 1.129-1.13h15.864a1.12 1.12 0 0 1 1.111 1.049h-5.374a2.77 2.77 0 0 0-2.767 2.767zm19.76 10.406a1.13 1.13 0 0 1-1.13 1.129h-1.664a.83.83 0 0 0-.621.282l-3.442 3.977v-3.44a.82.82 0 0 0-.819-.818h-9.317a1.13 1.13 0 0 1-1.128-1.129V13.323c0-.623.506-1.13 1.128-1.13h15.864c.623 0 1.13.507 1.13 1.13v10.406z" display="inline"/><path d="M32.841 14.703h-14.08a.82.82 0 0 0 0 1.637h14.08c.452 0 .82-.368.82-.819s-.368-.818-.82-.818zm0 3.003h-14.08a.82.82 0 0 0 0 1.638h14.08a.82.82 0 0 0 .82-.819.82.82 0 0 0-.82-.819zm-7.415 3.004h-6.665a.82.82 0 0 0 0 1.637h6.665a.819.819 0 0 0 0-1.637z" display="inline"/></g><g display="none"><g display="inline"><path d="M31.228 5H8.772a3.65 3.65 0 0 0-3.647 3.646v14.731a3.65 3.65 0 0 0 3.647 3.646H21.07v7.086c0 .372.23.705.578.833a.89.89 0 0 0 .985-.249l6.644-7.669h1.951a3.65 3.65 0 0 0 3.647-3.646V8.646A3.65 3.65 0 0 0 31.228 5zm1.868 18.378a1.87 1.87 0 0 1-1.868 1.867h-2.315a.9.9 0 0 0-.716.306l-5.347 6.173v-5.589a.89.89 0 0 0-.89-.89H8.772a1.87 1.87 0 0 1-1.866-1.867V8.646c0-1.028.837-1.865 1.866-1.865h22.455c1.03 0 1.868.837 1.868 1.865z"/><path d="M29.965 10.87h-19.93a.891.891 0 0 0 0 1.782h19.93a.89.89 0 1 0 0-1.782zm0 4.253h-19.93a.89.89 0 1 0 0 1.78h19.93a.89.89 0 1 0 0-1.78zm-10.496 4.25h-9.434a.89.89 0 0 0 0 1.782h9.434a.891.891 0 0 0 0-1.782z"/></g></g><path d="M20.014 34.519a.78.78 0 0 1-.585-.262c-4.41-4.925-12.784-14.279-12.92-14.439C5.214 18.236 4.5 16.267 4.5 14.273c0-4.85 4.026-8.792 8.974-8.792 2.429 0 4.697.927 6.387 2.615l.139.138.139-.138c1.69-1.688 3.958-2.615 6.388-2.615 4.948 0 8.974 3.942 8.974 8.792 0 2.02-.684 3.923-1.975 5.499L20.597 34.257a.8.8 0 0 1-.583.262zM13.474 7.05c-4.083 0-7.405 3.24-7.405 7.224 0 1.656.561 3.216 1.62 4.507.245.284 8.05 9.006 12.175 13.612l.147.164 12.321-13.803a7 7 0 0 0 1.598-4.48c0-3.983-3.321-7.224-7.404-7.224-2.339 0-4.491 1.045-5.907 2.869a.784.784 0 0 1-1.24 0c-1.414-1.824-3.566-2.869-5.905-2.869z" display="none"/><path d="M16 31a1 1 0 0 1-.707-.293l-10-10a.999.999 0 1 1 1.414-1.414L16 28.586 35.293 9.293a.999.999 0 1 1 1.414 1.414l-20 20A1 1 0 0 1 16 31" display="none"/><path d="M28.757 35.5a4.64 4.64 0 0 1-4.637-4.637c0-.508.095-1.02.291-1.562l.053-.147-9.788-6.17-.11.115a4.6 4.6 0 0 1-3.322 1.416 4.643 4.643 0 0 1-4.636-4.638 4.64 4.64 0 0 1 4.636-4.637 4.6 4.6 0 0 1 3.289 1.374l.106.107 9.877-5.731-.063-.156a4.6 4.6 0 0 1-.333-1.7 4.64 4.64 0 0 1 4.637-4.635 4.64 4.64 0 0 1 4.636 4.635 4.64 4.64 0 0 1-4.636 4.639 4.6 4.6 0 0 1-3.275-1.358l-.106-.107-9.884 5.735.062.157c.217.554.327 1.119.327 1.678 0 .533-.104 1.081-.312 1.627l-.057.149 9.769 6.156.111-.116a4.58 4.58 0 0 1 3.365-1.466 4.64 4.64 0 0 1 4.636 4.635 4.64 4.64 0 0 1-4.636 4.637zm0-7.702a3.05 3.05 0 0 0-2.587 1.433l-.052.094a3 3 0 0 0-.429 1.539 3.07 3.07 0 0 0 3.067 3.067 3.07 3.07 0 0 0 3.066-3.067 3.07 3.07 0 0 0-3.065-3.066zM11.243 16.811a3.07 3.07 0 0 0-3.066 3.067 3.07 3.07 0 0 0 3.066 3.068 3.06 3.06 0 0 0 2.571-1.406 3.1 3.1 0 0 0 .496-1.662c0-.522-.14-1.028-.411-1.508a1.2 1.2 0 0 1-.169-.213l-.045-.116a3.04 3.04 0 0 0-2.442-1.23zM28.757 6.069a3.07 3.07 0 0 0-3.067 3.065 3.07 3.07 0 0 0 3.067 3.069 3.07 3.07 0 0 0 3.066-3.069 3.07 3.07 0 0 0-3.066-3.065z" display="none"/><g display="none"><path d="M22.746 31.173h-5.538a.91.91 0 0 1-.912-.912v-.641q.008-.828-.079-1.154c-.311-1.139-1.134-2.094-1.931-3.02a23 23 0 0 1-.739-.883 8.1 8.1 0 0 1-1.757-5.061c0-4.526 3.684-8.207 8.21-8.207 4.525 0 8.208 3.681 8.208 8.207a8.1 8.1 0 0 1-1.757 5.063c-.201.258-.433.528-.675.813-.816.96-1.727 2.031-2.041 3.162-.055.202-.082.565-.078 1.073v.646a.91.91 0 0 1-.911.914zm-4.624-1.826h3.712c.01-.71.079-1.06.142-1.288.423-1.523 1.471-2.76 2.396-3.846.243-.286.456-.536.645-.774a6.3 6.3 0 0 0 1.366-3.936c0-3.52-2.862-6.384-6.382-6.384s-6.384 2.864-6.384 6.384c0 1.438.472 2.798 1.366 3.934.211.27.442.535.687.818.843.979 1.888 2.192 2.31 3.733.062.241.134.608.142 1.359zm4.624 4.241h-5.538a.912.912 0 0 1 0-1.825h5.538a.912.912 0 0 1 0 1.825zM21.362 36h-2.769a.913.913 0 1 1 0-1.826h2.769a.914.914 0 0 1 0 1.826zm13.23-15.585h-3.648a.913.913 0 1 1 0-1.824h3.648a.91.91 0 0 1 .911.912.91.91 0 0 1-.911.912zm-25.535 0H5.408a.91.91 0 0 1-.911-.912.91.91 0 0 1 .911-.912h3.648a.911.911 0 1 1 .001 1.824zM20 9.474a.91.91 0 0 1-.914-.912v-3.65a.913.913 0 0 1 1.826 0v3.649a.91.91 0 0 1-.912.913zm10.314 21.259a.9.9 0 0 1-.644-.268l-2.579-2.58a.913.913 0 1 1 1.29-1.289l2.579 2.579a.913.913 0 0 1-.646 1.558zM12.26 12.679a.9.9 0 0 1-.646-.268L9.037 9.833a.914.914 0 0 1 1.29-1.293l2.579 2.579a.913.913 0 0 1-.646 1.56zM9.682 30.733a.913.913 0 0 1-.645-1.558l2.581-2.581a.91.91 0 0 1 1.288 0 .914.914 0 0 1 0 1.293l-2.579 2.58a.9.9 0 0 1-.645.266zm18.056-18.054a.913.913 0 0 1-.646-1.558l2.579-2.579a.913.913 0 1 1 1.29 1.289l-2.577 2.578a.9.9 0 0 1-.646.27z" display="inline"/></g><g display="none"><path d="M20 23.563a3.62 3.62 0 0 1-3.621-3.61c0-1.99 1.624-3.61 3.621-3.61s3.621 1.62 3.621 3.61A3.62 3.62 0 0 1 20 23.563zm0-5.697c-1.156 0-2.097.936-2.097 2.087s.94 2.087 2.097 2.087 2.097-.936 2.097-2.087-.941-2.087-2.097-2.087z" display="inline"/><path d="m34.516 23.432-3.197-1.847a11.7 11.7 0 0 0 0-3.172l3.197-1.845a.716.716 0 0 0 .261-.977l-3.571-6.186a.717.717 0 0 0-.976-.262l-3.198 1.847c-.84-.658-1.76-1.19-2.746-1.588V5.714A.714.714 0 0 0 23.57 5h-7.142a.713.713 0 0 0-.714.714v3.689c-.986.397-1.907.93-2.746 1.588L9.771 9.146a.713.713 0 0 0-.976.26l-3.571 6.186a.716.716 0 0 0 .261.977l3.197 1.845a11.4 11.4 0 0 0 0 3.171L5.485 23.43a.716.716 0 0 0-.261.977l3.571 6.186a.72.72 0 0 0 .435.335.72.72 0 0 0 .541-.073l3.198-1.845c.839.656 1.76 1.188 2.746 1.588v3.689c0 .394.32.714.714.714h7.142c.396 0 .715-.32.715-.714v-3.689a11.5 11.5 0 0 0 2.748-1.588l3.196 1.845a.72.72 0 0 0 .541.073.73.73 0 0 0 .435-.335l3.571-6.186a.714.714 0 0 0-.261-.975zm-4.191 5.828-3.006-1.735a.71.71 0 0 0-.822.076 9.9 9.9 0 0 1-3.164 1.83.715.715 0 0 0-.477.674v3.467h-5.714v-3.467a.71.71 0 0 0-.477-.674 10 10 0 0 1-3.164-1.83.71.71 0 0 0-.822-.076L9.676 29.26l-2.857-4.95 3.003-1.733a.71.71 0 0 0 .345-.748 10.1 10.1 0 0 1 0-3.659.71.71 0 0 0-.345-.748l-3.003-1.733 2.857-4.95 3.004 1.735a.72.72 0 0 0 .822-.074 10 10 0 0 1 3.164-1.83.71.71 0 0 0 .477-.674V6.429h5.714v3.467c0 .304.192.573.477.674a9.9 9.9 0 0 1 3.164 1.83c.23.195.56.227.822.074l3.005-1.735 2.857 4.95-3.004 1.733a.71.71 0 0 0-.345.748 10.2 10.2 0 0 1 0 3.658.71.71 0 0 0 .345.748l3.004 1.733z" display="inline"/></g><g display="none"><path d="M27.383 9.585a3.045 3.045 0 0 0-2.817 4.187 3.03 3.03 0 0 0 2.822 1.896c.39 0 .771-.074 1.133-.221a3.02 3.02 0 0 0 1.662-1.635 3 3 0 0 0 .021-2.326 3.03 3.03 0 0 0-2.821-1.901zm1.444 3.65a1.57 1.57 0 0 1-1.438.957 1.567 1.567 0 1 1 1.45-2.154c.155.387.151.812-.012 1.197zm-14.369 7.874a4.434 4.434 0 0 0-4.429 4.43 4.43 4.43 0 0 0 4.429 4.422 4.43 4.43 0 0 0 4.426-4.422 4.433 4.433 0 0 0-4.426-4.43zm0 7.377a2.954 2.954 0 0 1-2.954-2.947c0-1.629 1.326-2.954 2.954-2.954s2.951 1.325 2.951 2.954a2.95 2.95 0 0 1-2.951 2.947z" display="inline"/><path d="m23.614 23.695-1.813-.663a8 8 0 0 0-.379-.916l.811-1.754a1.18 1.18 0 0 0-.168-1.255 10 10 0 0 0-1.177-1.177 1.18 1.18 0 0 0-1.244-.177l-.011.006-1.754.813a8 8 0 0 0-.913-.376l-.67-1.821a1.19 1.19 0 0 0-1.005-.763 9.6 9.6 0 0 0-1.664 0 1.19 1.19 0 0 0-1.008.767l-.665 1.813a8 8 0 0 0-.915.38l-1.757-.813-.009-.006a1.18 1.18 0 0 0-1.246.178c-.426.361-.821.757-1.173 1.172a1.18 1.18 0 0 0-.172 1.257l.813 1.754q-.217.442-.377.914l-1.816.667a1.19 1.19 0 0 0-.769 1.012c-.043.55-.043 1.106 0 1.658.039.455.34.851.768 1.007l1.815.668q.16.469.379.913l-.814 1.763c-.188.409-.122.897.169 1.249a10 10 0 0 0 1.187 1.186 1.18 1.18 0 0 0 1.247.16l1.75-.813q.442.218.917.38l.668 1.815c.16.433.557.732 1.012.765.279.023.558.036.827.036q.406 0 .828-.036a1.17 1.17 0 0 0 1.011-.767l.666-1.81a8 8 0 0 0 .914-.38l1.765.816q.229.101.482.102c.272 0 .54-.094.751-.267l.012-.01c.424-.359.82-.755 1.174-1.172a1.17 1.17 0 0 0 .172-1.257l-.811-1.757q.218-.447.377-.917l1.815-.666c.429-.158.729-.554.769-1.009.044-.55.044-1.108-.001-1.664a1.19 1.19 0 0 0-.768-1.005zm-.688 2.359-1.977.729a.74.74 0 0 0-.455.489c-.13.454-.312.896-.54 1.311a.74.74 0 0 0-.023.667l.883 1.909q-.347.39-.737.735l-1.91-.886a.75.75 0 0 0-.666.023c-.42.232-.862.415-1.311.548a.73.73 0 0 0-.488.453l-.722 1.969a8 8 0 0 1-1.042 0l-.727-1.973a.74.74 0 0 0-.488-.455 6.2 6.2 0 0 1-1.309-.542.74.74 0 0 0-.669-.025l-1.908.884a9 9 0 0 1-.735-.733l.883-1.913a.74.74 0 0 0-.025-.667 6.3 6.3 0 0 1-.542-1.308.74.74 0 0 0-.456-.49l-1.972-.725a9 9 0 0 1 0-1.039l1.976-.727a.74.74 0 0 0 .455-.487c.133-.463.315-.903.541-1.311a.74.74 0 0 0 .025-.668l-.883-1.906q.343-.386.737-.737l1.91.884c.213.1.461.09.667-.023a6.2 6.2 0 0 1 1.307-.543.74.74 0 0 0 .49-.456l.723-1.973a9 9 0 0 1 1.042 0l.727 1.977a.73.73 0 0 0 .489.456 6.4 6.4 0 0 1 1.309.539.74.74 0 0 0 .667.023l1.906-.884q.392.346.737.737l-.883 1.912a.74.74 0 0 0 .024.666c.229.415.412.855.543 1.311a.73.73 0 0 0 .455.487l1.973.723c.018.345.018.695-.001 1.039zm11.053-13.015q.022-.36.004-.726l1.154-1.049a1.11 1.11 0 0 0 .313-1.147 8.3 8.3 0 0 0-.532-1.312 1.1 1.1 0 0 0-.981-.602h-.039l-1.556.052a7 7 0 0 0-.509-.517l.074-1.56.002-.021a1.12 1.12 0 0 0-.594-1.009 9 9 0 0 0-1.302-.553 1.11 1.11 0 0 0-1.148.296L27.802 6.03a7 7 0 0 0-.727-.005l-1.049-1.157a1.1 1.1 0 0 0-1.147-.312c-.447.14-.887.316-1.307.53a1.1 1.1 0 0 0-.605 1.021l.051 1.558a7 7 0 0 0-.517.51L20.942 8.1a1.1 1.1 0 0 0-1.028.588 8.6 8.6 0 0 0-.558 1.316c-.123.405-.012.84.302 1.14l1.138 1.061a6 6 0 0 0-.006.729l-1.158 1.049c-.314.29-.435.737-.311 1.138a8.4 8.4 0 0 0 .53 1.312c.188.377.566.609.987.609.012 0 .021 0 .037-.002l1.553-.052q.241.273.512.519l-.075 1.565c-.018.423.214.824.587 1.021q.6.319 1.303.554.169.056.346.056c.307 0 .601-.129.807-.354l1.062-1.134q.362.021.729.004l1.047 1.151a1.11 1.11 0 0 0 1.145.316 8.4 8.4 0 0 0 1.304-.528c.385-.189.625-.592.611-1.027l-.052-1.552a7 7 0 0 0 .517-.512l1.559.075.055.002c.414 0 .786-.227.975-.59.217-.407.403-.843.553-1.299a1.11 1.11 0 0 0-.293-1.15zm-1.493-.95c.043.386.039.773-.008 1.15a.74.74 0 0 0 .228.63l1.226 1.148a6 6 0 0 1-.273.64l-1.675-.082a.74.74 0 0 0-.608.272 5.2 5.2 0 0 1-.828.816.74.74 0 0 0-.281.605l.057 1.671a7 7 0 0 1-.646.264l-1.129-1.245a.74.74 0 0 0-.545-.24q-.042-.001-.08.004a5 5 0 0 1-1.154-.008.73.73 0 0 0-.629.229l-1.146 1.224a8 8 0 0 1-.643-.272l.081-1.677a.74.74 0 0 0-.273-.609 5.2 5.2 0 0 1-.81-.822.74.74 0 0 0-.607-.286l-1.674.058a8 8 0 0 1-.263-.645l1.243-1.129a.73.73 0 0 0 .237-.623c-.04-.38-.036-.772.009-1.162a.74.74 0 0 0-.229-.626l-1.225-1.145q.12-.33.272-.641l1.68.079c.235.012.46-.09.608-.272.24-.296.52-.572.826-.816a.73.73 0 0 0 .279-.602l-.055-1.675q.318-.146.646-.262l1.127 1.245c.159.173.39.261.622.238a5 5 0 0 1 1.164.008.74.74 0 0 0 .624-.23l1.144-1.222q.329.122.646.272l-.08 1.675a.74.74 0 0 0 .268.607c.311.251.582.532.814.828a.75.75 0 0 0 .605.282l1.678-.056q.145.313.261.647l-1.245 1.129a.75.75 0 0 0-.239.626z" display="inline"/></g><path d="M33.286 18.322a.747.747 0 0 0-1.033 0L19.512 30.67c-1.263 1.223-2.952 1.905-4.756 1.918h-.054c-1.784 0-3.464-.657-4.732-1.848-1.279-1.202-1.992-2.81-2.006-4.523-.014-1.715.674-3.333 1.935-4.554L23.169 8.8a4.96 4.96 0 0 1 3.438-1.388h.039c1.287 0 2.503.473 3.421 1.336.925.871 1.438 2.03 1.45 3.268a4.5 4.5 0 0 1-1.399 3.288L16.846 28.168a3.05 3.05 0 0 1-2.12.856h-.024a3.07 3.07 0 0 1-2.111-.824 2.77 2.77 0 0 1-.892-2.013 2.77 2.77 0 0 1 .859-2.022l12.63-12.238a.693.693 0 0 0 0-1.003.747.747 0 0 0-1.031 0L11.524 23.165a4.15 4.15 0 0 0-1.287 3.034 4.16 4.16 0 0 0 1.334 3.017 4.55 4.55 0 0 0 3.129 1.221h.036a4.55 4.55 0 0 0 3.146-1.269l13.271-12.867c1.19-1.154 1.839-2.68 1.826-4.296-.013-1.62-.686-3.137-1.894-4.271C29.896 6.615 28.32 6 26.646 6h-.051c-1.691.013-3.277.651-4.463 1.799L8.861 20.663c-1.539 1.493-2.378 3.469-2.361 5.565.017 2.095.886 4.057 2.45 5.527C10.491 33.203 12.533 34 14.701 34h.066c2.192-.017 4.244-.845 5.778-2.33l12.743-12.349a.693.693 0 0 0-.002-.999z" display="none"/><g display="none"><path d="M21.58 30.382c.169.389.51.618.859.618a.83.83 0 0 0 .428-.119c.477-.27.666-.938.432-1.489l-8.49-19.776-.013-.024q-.026-.053-.055-.104l-.051-.082q-.029-.04-.061-.071a.6.6 0 0 0-.074-.086c-.017-.015-.04-.029-.059-.047a1 1 0 0 0-.101-.073c-.009-.004-.011-.009-.018-.014-.017-.009-.032-.014-.046-.023a1 1 0 0 0-.11-.046q-.038-.012-.078-.022c-.036-.006-.067-.011-.104-.021L13.955 9l-.1.002a.5.5 0 0 1-.091.019q-.045.012-.089.026-.05.017-.102.044c-.015.01-.034.013-.053.023l-.017.014a1 1 0 0 0-.093.066c-.023.017-.049.034-.07.056-.023.022-.044.05-.065.074-.021.027-.047.052-.068.083q-.023.033-.044.072c-.021.035-.044.072-.059.111l-.015.022-8.487 19.78c-.237.551-.044 1.22.429 1.489a.85.85 0 0 0 .427.119c.353 0 .692-.229.859-.618l1.759-4.097h11.747zM9.031 24.061l4.919-11.455 4.918 11.455zm18.057-5.246c-.285.363-.481.463-.737.463-.458 0-.825-.429-.825-.955 0-.23.057-.396.142-.559.796-1.451 2.33-2.603 4.718-2.603 3.295 0 5.115 2.24 5.115 5.598v9.055c0 .561-.397 1.021-.882 1.021-.483 0-.88-.46-.88-1.021v-1.188c-.711 1.55-2.36 2.374-4.065 2.374-3.011 0-4.916-1.679-4.916-4.71 0-2.896 1.905-4.643 4.974-4.643h4.007v-.887c0-2.239-1.279-3.624-3.354-3.624-1.506 0-2.417.527-3.297 1.679zm6.65 6.06v-1.383h-4.007c-1.849 0-3.125.89-3.125 2.798 0 1.713 1.021 2.8 3.237 2.8 1.991 0 3.895-1.416 3.895-4.215z" display="inline"/></g><path d="M35.203 9.002a.76.76 0 0 0-.66-.129L8.286 16.106l-2.819-.818a.76.76 0 0 0-.664.122.75.75 0 0 0-.303.605v7.766c0 .24.114.467.309.608a.75.75 0 0 0 .673.113l2.631-.821a.8.8 0 0 0 .354-.006l4.166 1.19-.001.027a6.4 6.4 0 0 0 1.937 4.43 6.38 6.38 0 0 0 4.487 1.831 6.4 6.4 0 0 0 5.378-2.916l10.104 2.886a.756.756 0 0 0 .963-.727V9.604a.76.76 0 0 0-.298-.602zM24.402 26.653a.7.7 0 0 0-.227-.063L9.037 22.265V17.47l21.926-6.041V28.53zm-18.39-9.63 1.512.437v4.818l-1.512.473zM19.055 29.64c-2.487 0-4.586-1.906-4.878-4.333l8.712 2.489a4.9 4.9 0 0 1-3.834 1.844zm14.933-.246-1.513-.433V11.012l1.513-.416z" display="none"/><path d="M11.592 35a.707.707 0 0 1-.706-.708v-5.044c0-.389.316-.706.706-.706h1.681c1.776 0 2.998-.936 3.734-2.859.401-1.05.534-2.122.578-2.669l.018-.224-.207-.088c-1.033-.441-1.94-1.127-2.697-2.042a8.8 8.8 0 0 1-1.472-2.628l-.127-.35-.323.185c-.361.208-.77.315-1.185.315a.707.707 0 0 1 0-1.412.976.976 0 0 0 0-1.951H9.91a4.073 4.073 0 0 1-4.068-4.07A4.07 4.07 0 0 1 9.91 6.682c.773 0 1.525.217 2.176.632l.481.304V5.706c0-.391.317-.706.706-.706h13.453c.39 0 .706.315.706.706v1.912l.48-.304a4.04 4.04 0 0 1 2.177-.632 4.07 4.07 0 0 1 4.068 4.067 4.074 4.074 0 0 1-4.068 4.07h-1.683a.976.976 0 0 0 0 1.951.705.705 0 1 1 0 1.412c-.414 0-.823-.107-1.185-.315l-.323-.185-.127.35a8.7 8.7 0 0 1-1.473 2.628c-.758.915-1.664 1.603-2.696 2.04l-.207.09.018.224c.044.547.176 1.621.578 2.669.736 1.924 1.958 2.859 3.734 2.859h1.681c.39 0 .706.317.706.706v5.044a.707.707 0 0 1-.706.708zm16.11-1.414v-3.632H12.297v3.632zM23.1 28.542l-.4-.507a7 7 0 0 1-1.05-1.901 11 11 0 0 1-.613-2.665l-.033-.311-.311.034a7 7 0 0 1-.693.037c-.232 0-.466-.015-.693-.037l-.311-.034-.033.311a11.2 11.2 0 0 1-.614 2.665 7 7 0 0 1-1.048 1.901l-.399.507zm-9.121-14.43c0 4.463 2.532 7.703 6.021 7.703s6.021-3.24 6.021-7.703V6.411H13.979zM9.91 8.094a2.66 2.66 0 0 0-2.656 2.656 2.66 2.66 0 0 0 2.656 2.656h1.682q.3 0 .585.073l.39.1V10.75A2.66 2.66 0 0 0 9.91 8.094zm20.18 0a2.66 2.66 0 0 0-2.657 2.656v2.829l.391-.1a2.3 2.3 0 0 1 .584-.073h1.683a2.66 2.66 0 0 0 2.656-2.656 2.66 2.66 0 0 0-2.657-2.656z" display="none"/><g display="none"><path d="m13.082 34.5-.177-.131c-2.883-2.106-4.178-16.188-4.178-19.579v-.677h19.846v.677c0 .486-.034 1.178-.099 2.01q.316.083.6.216c1.168.555 1.927 1.764 2.141 3.403.205 1.584-.129 3.395-.936 5.096-.92 1.931-2.39 3.519-3.945 4.267-.693 2.45-1.457 3.994-2.267 4.588l-.18.13zm10.335-1.354c1.986-1.987 3.618-13.307 3.788-17.681h-17.11c.166 4.479 1.532 15.736 3.459 17.681zm4.937-14.965c-.263 2.655-.79 6.471-1.53 9.69.877-.723 1.677-1.769 2.233-2.939.679-1.425.98-2.921.849-4.209-.123-1.229-.625-2.11-1.409-2.484a1 1 0 0 0-.143-.058zm-11.996-6.858.115-.103c.637-.558 1.316-1.406 1.145-1.963-.073-.239-.327-.423-.78-.563-.879-.274-1.432-.72-1.598-1.291-.234-.811.299-1.833 1.467-2.803l.119-.1.994.709-.121.101c-.675.561-1.289 1.353-1.142 1.857.068.235.324.417.785.561.869.269 1.418.716 1.593 1.294.251.829-.277 1.882-1.45 2.89l-.118.104zm3.817 1.211.116-.104c.634-.557 1.314-1.403 1.145-1.962-.073-.237-.33-.423-.784-.563-.875-.271-1.428-.718-1.595-1.292-.236-.803.298-1.823 1.466-2.801l.123-.102.99.711-.121.099c-.675.563-1.287 1.355-1.141 1.86.089.303.43.43.863.59.566.211 1.275.474 1.517 1.261.298.982-.598 2.173-1.455 2.893l-.117.1z" display="inline"/></g><path d="M34.79 10.744a.72.72 0 0 0-.505-.209h-.002l-2.141.008V7.679a.714.714 0 0 0-.714-.714h-.894c-5.365 0-8.508.778-10.535 2.659-2.027-1.881-5.17-2.659-10.535-2.659h-.893a.714.714 0 0 0-.714.714v2.864l-2.141-.008A.717.717 0 0 0 5 11.25v18.393c0 .395.32.714.715.714h.893c9.612 0 11.666 2.169 11.869 2.419.136.163.338.26.553.26h1.94a.72.72 0 0 0 .554-.26c.202-.25 2.257-2.419 11.869-2.419h.893a.714.714 0 0 0 .715-.714V11.25a.72.72 0 0 0-.211-.506zM6.429 28.929V11.966l1.429.006v16.97a56 56 0 0 0-1.25-.013zm2.857.059V8.393h.179c5.221 0 8.101.738 9.82 2.534v20.632c-.946-.869-3.471-2.268-9.999-2.571zm11.429 2.571V10.927c1.718-1.796 4.6-2.534 9.82-2.534h.179v20.595c-6.53.303-9.053 1.702-9.999 2.571zm12.856-2.63h-.179q-.645 0-1.25.013v-16.97l1.429-.006z" display="none"/><g display="none"><path d="M5.285 32.556a.786.786 0 0 1-.785-.785V8.229c0-.433.352-.785.785-.785h29.43c.434 0 .785.353.785.785V31.77a.786.786 0 0 1-.785.785zm.784-1.57H33.93V16.041H6.069zm0-16.514H33.93V9.014H6.069z" display="inline"/><path d="M10.333 11.745a.898.898 0 1 1-1.796.002.898.898 0 0 1 1.796-.002m3.494 0a.899.899 0 1 1-1.795 0 .898.898 0 0 1 1.795 0m3.494 0a.898.898 0 1 1-1.796.002.898.898 0 0 1 1.796-.002" display="inline"/></g><g display="none"><path d="M20.869 25.282a.874.874 0 0 1-.869.877.873.873 0 0 1-.868-.877c0-.484.388-.877.868-.877s.869.393.869.877" display="inline"/><path d="M13.035 34.05a.76.76 0 0 1 0-1.518h6.206v-3.303H5.759A.76.76 0 0 1 5 28.47V6.708c0-.419.34-.758.759-.758H34.24c.42 0 .76.339.76.758V28.47a.76.76 0 0 1-.76.76H20.76v3.303h6.207a.76.76 0 1 1 0 1.518H13.035zm-6.516-6.339h26.963v-5.029H6.519zm0-6.548h26.963V7.468H6.519z" display="inline"/></g><g display="none"><path d="M13.094 35c-1.43 0-2.594-1.187-2.594-2.647V7.649C10.5 6.188 11.664 5 13.094 5h13.81C28.336 5 29.5 6.188 29.5 7.649v24.703c0 1.461-1.164 2.647-2.596 2.647h-13.81zm-1.329-2.647c0 .748.597 1.355 1.329 1.355h13.81c.732 0 1.328-.607 1.328-1.355v-1.961l-16.467.048zm0-3.158 16.514-.049-.047-18.34-16.467.047zm1.329-22.903c-.732 0-1.329.609-1.329 1.357v1.959l16.514-.047-.047-1.912c0-.748-.596-1.357-1.328-1.357z" display="inline"/><path d="M17.897 8.429h4.205c.271 0 .491-.225.491-.502s-.22-.503-.491-.503h-4.205c-.271 0-.492.226-.492.503s.221.502.492.502zM20 30.538c-.815 0-1.478.677-1.478 1.509 0 .833.663 1.51 1.478 1.51.814 0 1.479-.677 1.479-1.51 0-.832-.665-1.509-1.479-1.509zm0 2.014c-.271 0-.493-.228-.493-.505s.222-.502.493-.502.492.225.492.502-.221.505-.492.505z" display="inline"/></g><g display="none"><path d="M12.419 35a6.24 6.24 0 0 1-5.399-3.134l-1.706-2.98a2.4 2.4 0 0 1 .886-3.261l3.979-2.477a2.47 2.47 0 0 1 1.22-.323c.818 0 1.567.411 2.004 1.101l.559.88a.9.9 0 0 0 .739.412c.11 0 .218-.023.316-.066 2.157-.861 4.979-3.395 5.794-4.149.039-.041 3.306-3.452 4.332-5.987a.87.87 0 0 0-.342-1.044l-.883-.563a2.39 2.39 0 0 1-.785-3.205l2.502-4.029C25.813 5.864 26.569 5 27.7 5c.394 0 .797.107 1.201.32l2.964 1.695c2.482 1.425 3.695 4.408 2.885 7.096-1.422 4.729-4.106 8.979-7.979 12.632-3.672 3.884-7.928 6.572-12.657 8.001a5.7 5.7 0 0 1-1.695.256zm-1.038-10.669a.84.84 0 0 0-.446.127l-3.963 2.467a.9.9 0 0 0-.431.549.85.85 0 0 0 .08.657l1.706 2.983c.846 1.476 2.449 2.467 3.987 2.467.499 0 .98-.102 1.429-.301 10.237-4.555 15.351-9.669 19.54-19.546.798-1.877-.156-4.25-2.168-5.403l-2.982-1.707a1 1 0 0 0-.467-.123.81.81 0 0 0-.758.515l-2.471 3.96a.87.87 0 0 0 .309 1.155l.869.554a2.38 2.38 0 0 1 .938 2.895c-1.116 2.749-4.486 6.303-4.63 6.453-.029.027-3.607 3.427-6.349 4.527a2.3 2.3 0 0 1-.868.168c-.816 0-1.57-.416-2.018-1.112l-.556-.88a.92.92 0 0 0-.751-.405zm-4.613-7.199a.753.753 0 0 1-.754-.753c0-5.718 4.649-10.37 10.364-10.37.417 0 .755.34.755.754a.756.756 0 0 1-.755.755c-4.882 0-8.856 3.971-8.856 8.855a.76.76 0 0 1-.754.759zm5.575 0a.753.753 0 0 1-.753-.753 4.79 4.79 0 0 1 4.788-4.787.755.755 0 1 1 0 1.507 3.284 3.284 0 0 0-3.28 3.28.755.755 0 0 1-.755.753z" display="inline"/></g><g display="none"><path d="M17.464 34.5a.7.7 0 0 1-.457-.17c-.559-.446-.136-1.111.067-1.43l.679-1.07c.338-.53.748-1.503.894-2.122.12-.51-.069-1.227-.411-1.568l-1.658-1.651-.639.42c-.205.14-.927.593-1.563.593q-.434 0-.704-.272l-.987-.995c-.636-.643.021-1.799.333-2.266l.429-.646-1.578-1.571c-.264-.264-.801-.462-1.25-.462q-.146 0-.263.027c-.661.148-1.645.551-2.192.894l-1.059.67c-.241.148-.546.339-.867.339a.71.71 0 0 1-.57-.282c-.447-.559.107-1.113.375-1.38l5.799-5.775c.604-.601 1.718-1.052 2.594-1.052l4.567.232.425-.654a18 18 0 0 1 1.662-2.119c.021-.022 2.13-2.276 5.786-4.512a.7.7 0 0 1 .468-.09q.204-.307.483-.475l.532-.271c1.776-.902 4.143-1.297 4.242-1.313q.17-.029.331-.029c.481 0 .91.192 1.207.544.305.364.422.847.334 1.361-.004.021-.414 2.44-1.348 4.251l-.254.489a1.7 1.7 0 0 1-.494.538.7.7 0 0 1-.095.458c-2.253 3.645-4.579 5.715-4.604 5.736a24 24 0 0 1-2.104 1.636l-.523.354.204 4.587c.04.896-.428 2.096-1.064 2.732l-5.794 5.772c-.221.22-.546.542-.933.542zm1.772-7.363c.668.666 1.023 1.909.809 2.83a7 7 0 0 1-.133.479l3.274-3.261c.361-.358.669-1.151.647-1.663l-.164-3.719-5.883 3.887zm-4.732-1.089c.143-.044.378-.143.652-.324l7.715-5.092 1.906-1.293a22 22 0 0 0 1.957-1.52c.364-.342 2.197-2.107 4.039-4.95a1.9 1.9 0 0 1-.557-.271 13.5 13.5 0 0 1-1.504-1.327 13 13 0 0 1-1.301-1.514 2 2 0 0 1-.281-.558c-3.131 1.997-4.985 3.938-5.002 3.957a16.6 16.6 0 0 0-1.512 1.925l-1.313 2.023-5.104 7.65a2.7 2.7 0 0 0-.328.656zm-3.903-6.171c.85 0 1.74.34 2.269.866l1.383 1.373 3.855-5.778-3.607-.189c-.572 0-1.315.3-1.657.64l-3.278 3.265q.218-.065.412-.111.296-.067.623-.066zM32.933 6.919c-.166.024-2.362.393-3.929 1.186l-.491.25a.3.3 0 0 0-.063.132c-.028.132.015.298.115.442.193.262.585.761 1.157 1.341a12 12 0 0 0 1.324 1.171c.111.082.24.128.354.128q.163 0 .229-.108l.231-.452c.815-1.579 1.205-3.814 1.209-3.835q.028-.158-.024-.222c-.014-.017-.059-.031-.112-.033z" display="inline"/><path d="M6.839 34.284c-.408 0-.75-.169-.961-.479-.169-.246-.32-.677-.07-1.333.016-.044 1.736-4.578 3.475-6.019.378-.314.953-.379 1.367-.379 1.017 0 1.975.4 2.565 1.073.404.464.848 1.297.666 2.64-.328 2.023-4.994 3.861-6.415 4.376a1.9 1.9 0 0 1-.627.121zm3.81-6.787c-.292 0-.458.056-.486.071-1.07.891-2.416 3.881-2.932 5.168 2.476-.929 5.115-2.384 5.241-3.158.086-.641-.024-1.145-.329-1.493-.478-.546-1.264-.588-1.494-.588z" display="inline"/><path d="M10.649 26.27c-.313 0-.891.044-1.242.335-1.662 1.377-3.348 5.754-3.417 5.939-.218.573-.095.941.049 1.151.174.252.458.393.8.393q.26 0 .559-.106c.995-.36 5.969-2.248 6.289-4.221.171-1.268-.241-2.052-.619-2.484-.555-.631-1.457-1.007-2.419-1.007zm2.015 3.338c-.163 1.003-3.383 2.594-5.617 3.404a1 1 0 0 1-.136.034c.008-.032.02-.082.041-.134.457-1.195 1.907-4.514 3.108-5.511.049-.032.257-.102.589-.102.251 0 1.109.048 1.64.656.345.397.469.955.375 1.653zm6.773-8.392a.7.7 0 0 1-.503-.208.714.714 0 0 1-.001-1.005l3.783-3.781a.71.71 0 0 1 1.006 0 .713.713 0 0 1 0 1.007l-3.781 3.779a.7.7 0 0 1-.504.208z" display="inline"/><path d="m22.854 16.36-3.782 3.78a.517.517 0 0 0 .73.728l3.78-3.777a.514.514 0 0 0 0-.73.51.51 0 0 0-.728-.001z" display="inline"/></g><path d="M20 5.5c-7.995 0-14.5 6.507-14.5 14.501C5.502 27.996 12.005 34.5 20 34.5s14.502-6.504 14.502-14.499C34.502 12.007 27.995 5.5 20 5.5zM7.521 20.001C7.521 13.119 13.119 7.52 20 7.52c2.965 0 5.689 1.039 7.833 2.771L10.29 27.834a12.42 12.42 0 0 1-2.769-7.833zM20 32.482a12.43 12.43 0 0 1-8.317-3.185l17.615-17.615A12.43 12.43 0 0 1 32.482 20C32.481 26.883 26.883 32.482 20 32.482z" display="none"/><g display="none"><g display="inline"><path d="M32.658 34.5H7.343a.84.84 0 0 1-.844-.844v-2.511c0-2.047 1.282-3.879 3.192-4.56l6.09-2.182v-3.086h1.688v3.681a.845.845 0 0 1-.56.795l-6.65 2.381c-1.239.44-2.071 1.635-2.071 2.971v1.668h23.627v-1.668a3.15 3.15 0 0 0-2.07-2.971l-6.652-2.383a.84.84 0 0 1-.56-.793v-3.895h1.688v3.3l6.093 2.182c1.906.681 3.188 2.513 3.188 4.56v2.511a.844.844 0 0 1-.844.844z"/><path d="M19.833 23.176c-4.138 0-7.504-3.964-7.504-8.838S15.695 5.5 19.833 5.5c4.139 0 7.506 3.964 7.506 8.838s-3.367 8.838-7.506 8.838zm0-15.988c-3.206 0-5.817 3.207-5.817 7.149 0 3.944 2.611 7.151 5.817 7.151 3.209 0 5.817-3.207 5.817-7.151 0-3.941-2.608-7.149-5.817-7.149z"/><path d="M24.679 14.639c-1.555 0-2.813-.675-3.887-2.095-1.193 1.15-3.158 1.973-4.955 1.973-1.092 0-2.035-.229-2.971-.719l.784-1.493c.691.362 1.367.522 2.187.522 1.657 0 3.691-1.008 4.269-2.117a.85.85 0 0 1 .732-.453.81.81 0 0 1 .749.426c1.107 1.937 2.212 2.517 4.084 2.16l.714-.068.153 1.681-.632.058a6.6 6.6 0 0 1-1.227.125z"/></g></g><g display="none"><path d="M20 36c-1.031 0-2.962-1.11-4.02-1.771-1.793-1.119-3.52-2.455-4.737-3.668-3.164-3.154-4.906-7.067-4.906-11.018V9.093a.83.83 0 0 1 .569-.789l12.83-4.262a.85.85 0 0 1 .526 0l12.832 4.262a.83.83 0 0 1 .569.789v10.451c0 3.95-1.741 7.863-4.906 11.018-1.22 1.213-2.946 2.549-4.737 3.668C22.96 34.89 21.029 36 20 36zM7.999 19.544c0 3.506 1.569 7 4.416 9.84 2.62 2.61 6.747 4.955 7.585 4.955s4.963-2.345 7.583-4.955c2.849-2.84 4.418-6.334 4.418-9.84V9.692L20 5.704 7.999 9.692z" display="inline"/><path d="M20.006 28.786a.83.83 0 0 1-.472-.147l-6.09-4.21a.83.83 0 0 1-.346-.535.82.82 0 0 1 .134-.621.835.835 0 0 1 1.156-.212l5.618 3.885 5.303-3.665-.042-3.67H13.916a.83.83 0 0 1-.83-.83v-6.218c0-.458.372-.831.83-.831h12.182a.83.83 0 1 1 0 1.66H14.747v4.558h11.351a.83.83 0 0 1 .83.831v4.966a.83.83 0 0 1-.359.683l-6.089 4.21a.84.84 0 0 1-.474.146z" display="inline"/></g><g display="none"><path d="M5.85 32.486a.85.85 0 0 1-.85-.852V20.588a.85.85 0 0 1 .85-.85h4.625a.85.85 0 0 1 .85.85v11.047a.85.85 0 0 1-.85.852H5.85zm.85-1.702h2.925v-9.347H6.7zm14.932 1.702a.85.85 0 0 1-.85-.852v-16.45c0-.469.381-.852.85-.852h4.625c.469 0 .85.383.85.852v16.45a.85.85 0 0 1-.85.852zm.849-1.702h2.926v-14.75h-2.926zm-8.74 1.702a.85.85 0 0 1-.85-.852V13.019c0-.469.381-.852.85-.852h4.624c.468 0 .85.383.85.852v18.616a.85.85 0 0 1-.85.852h-4.624zm.85-1.702h2.925V13.868h-2.925zm14.933 1.702a.85.85 0 0 1-.85-.852V8.363c0-.468.381-.85.85-.85h4.626c.469 0 .85.382.85.85v23.271a.85.85 0 0 1-.85.852zm.85-1.702h2.927V9.216h-2.927z" display="inline"/></g><path d="M5.646 29C4.187 29 3 27.733 3 26.179s1.187-2.819 2.646-2.819c.494 0 .981.154 1.41.443l.057.038 6.638-5.546-.007-.059a3 3 0 0 1-.044-.417c0-1.556 1.186-2.82 2.645-2.82 1.458 0 2.646 1.265 2.646 2.82 0 .43-.1.859-.296 1.27l-.028.061 2.671 3.587.063-.023q.397-.131.795-.132c.521 0 1.027.163 1.463.475l.063.042 8.216-8.145-.025-.066a3 3 0 0 1-.2-1.068c0-1.554 1.187-2.818 2.646-2.818S37 12.265 37 13.818c0 1.555-1.187 2.82-2.646 2.82a2.46 2.46 0 0 1-1.198-.322l-.059-.031-8.381 8.311.016.06c.072.279.106.515.106.744 0 1.553-1.187 2.821-2.646 2.821s-2.646-1.269-2.646-2.821c0-.514.138-1.011.411-1.478l.035-.061-2.577-3.461-.066.026a2.5 2.5 0 0 1-1.004.211 2.55 2.55 0 0 1-1.659-.623l-.059-.052-.105.002-6.378 5.327.019.068c.087.302.128.563.128.818C8.291 27.733 7.104 29 5.646 29zm0-3.819c-.517 0-.938.448-.938.998 0 .553.421 1 .938 1s.938-.447.938-1c-.001-.55-.421-.998-.938-.998zm16.547-.78a.88.88 0 0 0-.57.205c-.234.19-.368.479-.368.793 0 .551.421.999.938.999s.938-.448.938-.999-.421-.998-.938-.998zm-5.849-7.581c-.517 0-.938.448-.938.999 0 .302.128.586.351.778.134.114.37.188.603.188a.87.87 0 0 0 .646-.26c.177-.188.275-.439.275-.706 0-.55-.421-.999-.937-.999zm18.01-3.999c-.517 0-.938.445-.938.997 0 .551.421.999.938.999s.938-.448.938-.999c.001-.551-.421-.997-.938-.997z" display="none"/><path d="M12.398 35a.8.8 0 0 1-.459-.141.83.83 0 0 1-.323-.995l4.192-11.087h-4.797a.83.83 0 0 1-.773-.518.83.83 0 0 1 .182-.913L26.623 5.245a.83.83 0 0 1 1.035-.117.83.83 0 0 1 .344.984l-3.848 11.103h4.835a.837.837 0 0 1 .585 1.438l-16.59 16.11a.85.85 0 0 1-.586.237zm.644-13.897h3.979c.275 0 .534.135.691.361a.84.84 0 0 1 .092.772l-2.981 7.887.319.209L26.924 18.89h-3.945a.84.84 0 0 1-.792-1.113l2.774-7.998-.32-.203z" display="none"/><path d="M33.037 27.186V5.778c0-.227-.1-.44-.271-.592a.8.8 0 0 0-.627-.178L17.334 7.261a.78.78 0 0 0-.664.771v18.703c-.763-.502-1.757-.784-2.876-.784a7.6 7.6 0 0 0-2.777.549c-1.395.556-2.564 1.465-3.291 2.562-.785 1.184-.974 2.449-.53 3.563C7.779 34.089 9.391 35 11.401 35c.912 0 1.872-.188 2.777-.55 1.395-.554 2.564-1.465 3.291-2.56.534-.806.791-1.646.762-2.453V13.384l13.244-2.014v13.113c-.763-.503-1.757-.786-2.875-.786-.911 0-1.871.19-2.776.55-1.396.556-2.564 1.464-3.291 2.562-.785 1.183-.973 2.448-.531 3.562.584 1.467 2.194 2.377 4.205 2.377.911 0 1.871-.188 2.776-.55 1.396-.554 2.565-1.464 3.291-2.559.534-.807.79-1.648.763-2.453zm-16.87 3.842c-.552.832-1.463 1.532-2.566 1.972a6 6 0 0 1-2.2.439c-1.357 0-2.413-.534-2.754-1.395-.248-.623-.113-1.378.381-2.124.553-.832 1.463-1.532 2.566-1.97a6 6 0 0 1 2.2-.44c1.358 0 2.413.535 2.754 1.394.249.624.113 1.378-.381 2.124zm2.064-19.222V8.703l13.244-2.014v3.103zm12.742 16.97c-.552.834-1.463 1.534-2.565 1.971a6 6 0 0 1-2.2.439c-1.358 0-2.414-.533-2.755-1.394-.247-.624-.112-1.378.382-2.122.552-.834 1.463-1.534 2.565-1.972a6 6 0 0 1 2.201-.441c1.356 0 2.412.536 2.755 1.395.248.623.111 1.378-.383 2.124z" display="none"/><path d="M34.286 31.068H5.713A.714.714 0 0 1 5 30.353V13.216c0-.393.32-.713.713-.713H7.86v-1.069c0-.396.32-.715.713-.715h3.572c.395 0 .714.319.714.715v1.069h1.343l1.589-3.178a.71.71 0 0 1 .638-.394h7.141a.71.71 0 0 1 .638.394l1.589 3.178h8.489c.394 0 .714.32.714.713v17.137c0 .395-.32.715-.714.715zM6.428 29.64H33.57V13.932h-8.215a.71.71 0 0 1-.639-.396l-1.588-3.176H16.87l-1.588 3.176a.72.72 0 0 1-.64.396h-2.499a.715.715 0 0 1-.714-.716v-1.069H9.288v1.069c0 .396-.32.716-.715.716H6.428zm13.568-2.05a6.526 6.526 0 0 1-6.518-6.519c0-3.594 2.924-6.518 6.518-6.518s6.518 2.924 6.518 6.518a6.526 6.526 0 0 1-6.518 6.519zm0-11.607c-2.806 0-5.09 2.282-5.09 5.088s2.285 5.091 5.09 5.091 5.089-2.285 5.089-5.091-2.284-5.088-5.089-5.088z" display="none"/><path d="M13.054 31.397a.713.713 0 0 1-.714-.712v-3.967l-7.312 3.529a.65.65 0 0 1-.297.068c-.206 0-.688-.073-.73-.756l.003-13.235c.028-.643.518-.713.728-.713.105 0 .208.021.267.053l7.342 3.545v-3.967c0-.394.32-.712.714-.712h5.397V9.316c0-.394.32-.714.714-.714H35.28a.714.714 0 1 1 0 1.426H19.878v4.503H35.28c.394 0 .716.326.72.726v15.429c0 .394-.32.712-.712.712H13.054zm.704-1.423h20.803V15.963H13.758zm-8.336-1.506 6.912-3.332v-4.342l-6.912-3.332z" display="none"/><g display="none"><path d="M5.667 31.843A.67.67 0 0 1 5 31.175V8.823c0-.367.3-.666.667-.666h28.666c.367 0 .667.299.667.666v22.352c0 .369-.3.668-.667.668zm1.377-1.336h25.734l-8.068-8.582-3.695 3.928a.67.67 0 0 1-.494.207.67.67 0 0 1-.524-.262l-4.704-6.205zM24.71 20.282c.182 0 .359.076.485.209l8.469 9.008V9.493H6.336v19.734l8.421-11.143a.68.68 0 0 1 .533-.268c.213 0 .406.098.533.266l4.759 6.275 3.639-3.867a.68.68 0 0 1 .489-.208z" display="inline"/><path d="M25.154 17.769c-1.616 0-2.931-1.316-2.931-2.932s1.314-2.93 2.931-2.93 2.932 1.314 2.932 2.93-1.315 2.932-2.932 2.932zm0-4.526c-.879 0-1.595.715-1.595 1.594s.716 1.596 1.595 1.596c.88 0 1.596-.717 1.596-1.596s-.716-1.594-1.596-1.594z" display="inline"/></g><g display="none"><path d="M12.768 34c-.492 0-2.193-.091-3.433-1.268-.867-.825-1.308-1.97-1.308-3.401v-.396c.004-3.677.007-6.849-3.018-8.161a.842.842 0 0 1 .001-1.546c3.024-1.313 3.021-4.485 3.018-8.158v-.4c0-1.433.44-2.577 1.308-3.4C10.576 6.091 12.279 6 12.771 6l2.604.002c.467 0 .847.377.847.842s-.38.842-.847.842h-2.546c-.333 0-1.539.049-2.334.811-.515.492-.775 1.223-.775 2.173v.396c.004 3.405.008 6.926-2.686 8.936 2.693 2.01 2.689 5.53 2.686 8.934v.396c0 .953.264 1.688.784 2.181.806.766 2.032.804 2.27.804h2.603c.467 0 .847.378.847.843s-.381.84-.848.84zm11.856 0c-.467 0-.846-.377-.846-.842s.379-.843.846-.843h2.546c.335 0 1.541-.05 2.334-.81.516-.493.777-1.226.777-2.175v-.396c-.004-3.403-.007-6.924 2.686-8.934-2.692-2.01-2.689-5.53-2.686-8.936v-.394c0-.952-.264-1.687-.784-2.182-.807-.766-2.033-.805-2.271-.805l-2.602.002c-.467 0-.846-.377-.846-.842s.379-.842.846-.842h2.528c.59 0 2.279.097 3.513 1.268.869.823 1.309 1.968 1.309 3.4v.397c-.005 3.675-.01 6.846 3.019 8.16a.841.841 0 0 1 0 1.545c-3.028 1.313-3.023 4.486-3.019 8.159v.398c0 1.432-.439 2.576-1.309 3.401-1.239 1.18-2.94 1.271-3.433 1.271z" display="inline"/></g><path d="M5.563 33.613V29.1H6.99l-.001-.096c-.039-3.956.813-11.284 6.949-15.901l-.078-.171-6.563 1.428-.015.058a1.66 1.66 0 0 1-1.613 1.268c-.92 0-1.669-.749-1.669-1.668 0-.92.749-1.669 1.669-1.669.504 0 .979.232 1.299.635l.037.047 10.12-2.2V8.779h4.511v1.069l9.829-2.137.014-.058a1.66 1.66 0 0 1 1.614-1.268c.92 0 1.668.749 1.668 1.668a1.67 1.67 0 0 1-1.668 1.669 1.65 1.65 0 0 1-1.299-.635l-.038-.047-10.12 2.2v1.069L36 21.983l-4.586 1.323 4.082 5.214-4.148 3.068-4.022-5.131-2.402 3.725-5.088-16.89h-2.709v-.579l-.139.073c-4.087 2.106-6.771 5.57-7.979 10.299-.594 2.322-.692 4.502-.67 5.921l.002.094h1.735v4.513zm1.362-1.363h1.789v-1.786H6.925zm24.679-2.545 1.957-1.445-4.463-5.704 3.713-1.068-11.383-7.625 3.948 13.107 1.842-2.857zM18.487 11.932h.938l-.397-1.316 1.248.837v-1.31h-1.789z" display="none"/><g display="none"><path d="M26.308 29.12a.8.8 0 0 1-.61-.283.796.796 0 0 1 .099-1.12l9.171-7.69-9.227-7.741a.795.795 0 0 1 1.023-1.218l9.953 8.352a.792.792 0 0 1-.002 1.216l-9.896 8.297a.8.8 0 0 1-.511.187zm-12.615 0a.78.78 0 0 1-.511-.187l-9.897-8.299a.793.793 0 0 1-.001-1.216l9.953-8.352a.795.795 0 1 1 1.022 1.218l-9.227 7.741 9.171 7.69a.796.796 0 0 1-.51 1.405zm4.211 0a.796.796 0 0 1-.773-.986l4.138-16.649a.793.793 0 0 1 .963-.581.797.797 0 0 1 .58.965l-4.138 16.649a.79.79 0 0 1-.77.602z" display="inline"/></g><path d="M34.213 7.072c-1.016-1.017-2.354-1.324-3.77-.864-.668.216-1.482.967-1.797 2.156-.289 1.086-.23 2.823 1.684 4.915 2.792 3.049 1.906 7.486 1.896 7.528q-.001.013-.004.021l-2.132 5.818-5.675-16.24h2.01a.783.783 0 0 0 .783-.78.78.78 0 0 0-.783-.779h-9.804a.78.78 0 1 0 0 1.559h1.333l3.098 8.642a.8.8 0 0 0-.094.178l-2.708 7.413-5.672-16.232h2.007a.779.779 0 1 0 0-1.559H4.784a.78.78 0 1 0 0 1.559h1.334l8.271 23.076a.78.78 0 0 0 .736.517h1.554a.78.78 0 0 0 .736-.513l1.555-4.25 2.894-7.924 4.362 12.17c.11.309.406.517.737.517h1.555a.78.78 0 0 0 .734-.513l5.916-16.146.008-.023c1.385-4.163 1-8.281-.963-10.246zM16.131 32.438h-.454L7.782 10.407h3.139l6.481 18.554zm11.839 0h-.454l-7.897-22.031h3.139l6.484 18.559zm5.747-15.697c-.293-1.472-.934-3.098-2.229-4.513-1.44-1.573-1.517-2.753-1.328-3.467.182-.685.629-1.023.77-1.07q.4-.13.767-.13.794 0 1.406.612c1.282 1.283 1.899 4.634.614 8.568z" display="none"/><g display="none"><path d="M23.481 28.551a.5.5 0 0 0 .497-.498.5.5 0 0 0-.497-.495.494.494 0 0 0-.496.495.5.5 0 0 0 .496.498zm-1.057 2.643a.498.498 0 0 0 0-.993.496.496 0 0 0 0 .993zm1.057 2.117a.504.504 0 0 0 .497-.496.5.5 0 0 0-.497-.497.5.5 0 0 0-.35.147.494.494 0 0 0 .35.846zm-8.988-3.173a.5.5 0 0 0 .496-.496.494.494 0 0 0-.496-.496.5.5 0 0 0-.496.496.496.496 0 0 0 .496.496zm-.529 2.643a.493.493 0 0 0 .496-.497.5.5 0 0 0-.496-.496.5.5 0 0 0-.497.496.5.5 0 0 0 .497.497zm1.519-4.727a.5.5 0 0 0 .496-.497.5.5 0 0 0-.496-.495.499.499 0 0 0-.351.847.5.5 0 0 0 .351.145zm4.457.499a.497.497 0 0 0 0-.994.496.496 0 0 0 0 .994zm-1.977 4.261a.496.496 0 1 0-.003-.992.496.496 0 0 0 .003.992zm-.391-2.147c.13 0 .258-.053.351-.145a.5.5 0 0 0 0-.702.5.5 0 0 0-.351-.147.5.5 0 0 0-.496.497.5.5 0 0 0 .145.352.5.5 0 0 0 .351.145zm8.899-.94a.496.496 0 1 0-.702-.7.496.496 0 0 0 .702.7zm.528 2.645a.49.49 0 0 0 0-.702.497.497 0 1 0 0 .702z" display="inline"/><path d="m30.512 32.131-6.244-17.424V5.873h.615a.688.688 0 0 0 0-1.374h-9.766a.687.687 0 0 0 0 1.374h.616l.012 8.769-6.257 17.489c-.306.855-.223 1.714.231 2.357.452.643 1.232 1.012 2.142 1.012h16.278c.91 0 1.691-.369 2.143-1.012.453-.643.536-1.502.23-2.357zM17.064 15.023a.7.7 0 0 0 .042-.231v-1.367h1.624a.57.57 0 0 0 0-1.138h-1.624v-.839h1.624a.57.57 0 0 0 0-1.138h-1.624v-.839h1.624a.57.57 0 0 0 0-1.139h-1.624V5.873h5.789v8.919a.7.7 0 0 0 .041.231l3.459 9.669h-12.79zM29.16 33.698c-.194.278-.557.429-1.021.429H11.861c-.463 0-.826-.152-1.021-.429-.196-.276-.217-.67-.061-1.104l2.418-6.762h13.604l2.419 6.76c.157.436.134.83-.06 1.106z" display="inline"/></g><g display="none"><path d="M35.546 28.447a.7.7 0 0 1-1.114.112l-.838-.894-4.268-2.182-.087-.063-.087-.072L13.438 8.603a.706.706 0 0 1 .03-.996l2.409-2.262a.706.706 0 0 1 .996.032l.897.959.777-.665-.385-.482a.706.706 0 1 1 1.028-.966l4.824 5.139a.71.71 0 0 1-.031.998.7.7 0 0 1-.503.188.68.68 0 0 1-.492-.219l-3.406-3.626-1.324 1.178a.71.71 0 0 1-1-.031l-.897-.957-1.377 1.228 1.792 1.979 1.926-1.743a.71.71 0 0 1 .999.03l13.044 13.897 1.897 4.449.818.857c.22.234.254.585.086.857zm-4.948-4.429a1.6 1.6 0 0 0-.176.402l2.063 1.101-.846-2.162a1.25 1.25 0 0 0-.791.351q-.145.137-.25.308zm-1.34-.618.154-.14a3 3 0 0 1 .469-.579q.325-.3.744-.501L19.188 9.906l-1.378 1.226z" display="inline"/><g display="inline"><path d="M10.742 18.643a.617.617 0 0 0-1.052.436v10.942c0 .339.276.615.617.615h10.941a.616.616 0 0 0 .435-1.052zm.18 10.761v-8.838l8.836 8.838z"/><path d="m18.026 18.368-.94-.939-.002.004-8.171-8.172-.872-.871-2.46-2.46v-.006L4.348 4.691V36h1.233v-.022h28.306l.021.022h1.744l-17.63-17.63zm.405 2.155 1.372 1.371-1.754 1.755a.615.615 0 0 0 .437 1.052.6.6 0 0 0 .435-.181l1.753-1.753 1.373 1.372-1.754 1.755a.616.616 0 1 0 .873.87l1.754-1.753 1.373 1.372-1.754 1.755a.615.615 0 0 0 .435 1.052.62.62 0 0 0 .438-.181l1.754-1.753 1.373 1.372-1.756 1.755a.616.616 0 1 0 .874.87l1.754-1.753 1.371 1.372-1.754 1.753a.62.62 0 0 0 .438 1.054.62.62 0 0 0 .436-.181l1.754-1.755 3 3.001H5.581V7.673l3 2.999-1.754 1.755a.617.617 0 0 0 .872.873l1.754-1.755 1.373 1.372-1.754 1.755a.616.616 0 1 0 .872.872l1.754-1.755 1.373 1.372-1.755 1.755a.615.615 0 0 0 .436 1.052.62.62 0 0 0 .437-.179l1.754-1.755 1.373 1.372-1.755 1.755a.616.616 0 1 0 .873.87l1.755-1.753 1.372 1.372-1.754 1.755a.615.615 0 0 0 .437 1.052c.157 0 .315-.06.436-.181z"/></g></g><g display="none"><path d="m21.795 10.82-1.7 1.58a.716.716 0 0 0 .975 1.048l1.212-1.127 1.211 1.127a.717.717 0 0 0 .977 0l1.21-1.127 1.213 1.127a.717.717 0 0 0 .977-1.048l-1.7-1.58a.7.7 0 0 0-.489-.191.7.7 0 0 0-.484.191l-1.215 1.128-1.209-1.128a.72.72 0 0 0-.978 0z" display="inline"/><path d="m35.494 9.841-.005-.051-.004-.018-.014-.061-.003-.007-.021-.059-.002-.006-.026-.055-.004-.01-.028-.045-.008-.016-.03-.038-.014-.017q-.015-.02-.034-.038l-.011-.015L30.282 4.4l-.014-.013-.038-.034c-.008-.006-.011-.01-.019-.014q-.017-.016-.038-.028l-.016-.01q-.021-.015-.045-.026l-.012-.006-.051-.024-.008-.004-.059-.021h-.006a.4.4 0 0 0-.063-.018q-.01 0-.017-.002l-.052-.007q-.03-.004-.069-.003H13.179a.715.715 0 0 0-.716.714v10.079a.715.715 0 1 0 1.431 0V5.621h15.168v4.292c0 .396.32.716.714.716h4.292v23.75H13.894v-1.343a.715.715 0 1 0-1.431 0v2.058c0 .396.32.716.716.716h21.605c.394 0 .716-.32.716-.716V9.913zM30.49 6.633l2.565 2.565H30.49z" display="inline"/><path d="M24.603 31.605q.002 0 0 0l.07-.004q.013 0 .028-.004l.039-.006.032-.008.034-.009.032-.01.032-.014.032-.013q.017-.007.032-.018a.1.1 0 0 0 .028-.015q.017-.01.03-.02l.029-.021.026-.019.03-.027.019-.015.004-.006c.012-.01.019-.019.03-.03.004-.006.014-.016.02-.022l.021-.028c.008-.008.015-.02.021-.027q.01-.013.018-.028l.021-.032.014-.026.015-.036.014-.034.011-.028.01-.037.01-.031.004-.033.005-.036q.003-.017.002-.032l.004-.04V17.123l-.004-.04q0-.016-.002-.03l-.005-.036-.004-.034-.01-.032-.01-.036-.011-.03-.014-.034-.015-.034-.014-.028-.021-.032q-.008-.015-.018-.026l-.021-.028-.021-.028-.02-.022c-.012-.01-.019-.021-.03-.029l-.004-.005q-.01-.008-.017-.016l-.032-.028-.026-.019q-.015-.013-.029-.021l-.031-.017a.1.1 0 0 0-.029-.018l-.032-.017-.032-.014q-.016-.005-.033-.013l-.032-.01-.034-.01-.034-.008-.068-.009-.044-.002H5.192l-.04.002-.034.004-.034.005-.036.008-.032.01-.034.012-.032.011-.032.014-.032.017a.1.1 0 0 0-.028.018l-.032.017-.028.021q-.015.009-.026.019l-.031.028q-.01.008-.017.016l-.006.005q-.016.014-.028.029l-.021.022q-.014.01-.025.025l-.019.028q-.01.012-.017.026l-.021.032-.013.028-.015.034-.013.034-.012.03-.009.036-.009.032q-.001.017-.006.034-.003.017-.004.036-.003.015-.002.03l-.004.043v13.774q0 .02.004.04l.002.032q0 .016.004.036.004.016.006.033l.009.031.009.037.012.028a.1.1 0 0 0 .013.034c.004.014.009.023.015.036l.013.026q.01.018.021.032.006.017.017.028l.019.027q.011.017.023.028c.008.007.013.017.021.022a.2.2 0 0 0 .028.03l.006.006.017.015.029.027.028.019.028.021.032.02.026.015.034.018.028.013.034.014a.1.1 0 0 1 .03.01l.036.009.032.008.068.01.07.004h19.389zm-16.47-3.753a.71.71 0 0 0-1.01.021l-1.192 1.239V18.909l4.899 5.102-2.017 2.102a.71.71 0 0 0 .021 1.01.71.71 0 0 0 1.01-.02l1.978-2.06 1.935 2.017c.306.318.714.492 1.153.492.436 0 .845-.174 1.152-.492l1.935-2.017 4.929 5.132H6.896l1.258-1.312a.714.714 0 0 0-.021-1.011zm10.855-3.841 4.897-5.102v10.202zm-3.959 2.057a.16.16 0 0 1-.24 0l-7.894-8.222h16.03z" display="inline"/><path d="M11.858 22.165a.715.715 0 0 0 1.011.036l.777-.723.776.723a.715.715 0 0 0 .975 0l.776-.723.775.723a.716.716 0 1 0 .976-1.048l-1.264-1.177a.72.72 0 0 0-.487-.189.72.72 0 0 0-.488.189l-.775.724-.777-.724a.715.715 0 0 0-.975 0l-1.264 1.177a.717.717 0 0 0-.036 1.012z" display="inline"/></g><g display="none"><path d="M31.266 36a.7.7 0 0 1-.699-.699v-1.318H9.434v1.318a.7.7 0 0 1-.7.699H4.699A.7.7 0 0 1 4 35.301v-4.034a.7.7 0 0 1 .699-.699h1.318V9.435H4.699a.7.7 0 0 1-.699-.7V4.699A.7.7 0 0 1 4.699 4h4.034a.7.7 0 0 1 .7.699v1.318h21.133V4.699a.7.7 0 0 1 .7-.699h4.035a.7.7 0 0 1 .699.699v4.036a.7.7 0 0 1-.699.699h-1.318v1.991a.699.699 0 0 1-1.397 0v-1.99h-1.319a.7.7 0 0 1-.699-.699V7.417H9.434v1.318a.7.7 0 0 1-.7.699H7.415v21.133h1.318a.7.7 0 0 1 .7.699v1.318h21.133v-1.318a.7.7 0 0 1 .699-.699h1.319V13.442a.699.699 0 1 1 1.397 0v17.125h1.318a.7.7 0 0 1 .699.699V35.3a.696.696 0 0 1-.697.7zm3.336-1.398v-2.636h-2.637v2.636zm-26.567 0v-2.636H5.398v2.636zM34.602 8.036V5.398h-2.637v2.638zm-26.567 0V5.398H5.398v2.638z" display="inline"/><path d="M11.425 19.727a.7.7 0 0 1-.699-.699v-8.574a.7.7 0 0 1 .699-.699h17.15a.7.7 0 0 1 .699.699v8.574a.7.7 0 0 1-.699.699zm14.189-1.399L20 15.522l-5.615 2.806zm2.263-.431v-6.314l-6.313 3.157zm-15.754 0 6.313-3.157-6.313-3.157zM20 13.959l5.614-2.808H14.385zm-8.575 15.117a.7.7 0 0 1 0-1.398h7.566a.7.7 0 0 1 0 1.398zm9.584 0a.7.7 0 0 1 0-1.398h7.566a.7.7 0 0 1 0 1.398zm-9.584-3.117a.7.7 0 0 1 0-1.398h7.566a.7.7 0 0 1 0 1.398zm9.584 0a.7.7 0 0 1 0-1.398h7.566a.7.7 0 0 1 0 1.398zm-9.584-3.115a.7.7 0 0 1 0-1.398h17.15a.7.7 0 0 1 0 1.398z" display="inline"/></g><g display="none"><path d="M22.664 22.085c0 .416-.336.754-.749.754s-.747-.338-.747-.754c0-.418.334-.754.747-.754s.749.336.749.754" display="inline"/><g display="inline"><path d="M30.43 34.673a1.28 1.28 0 0 1-1.281-1.279v-9.262c0-.709.576-1.281 1.281-1.281h5.289c.706 0 1.281.572 1.281 1.281v9.262c0 .705-.575 1.279-1.281 1.279zm-.223-1.279c0 .121.102.221.223.221h5.289a.22.22 0 0 0 .219-.221v-.445l-5.73.016v.429zm0-1.473 5.748-.016-.016-6.303-5.732.018zm.223-8.01c-.121 0-.223.1-.223.221v.445l5.743-.018-.013-.422a.22.22 0 0 0-.219-.227z"/><path d="M32.27 24.423h1.608a.19.19 0 0 0 .19-.189.19.19 0 0 0-.19-.188H32.27a.189.189 0 0 0 0 .377zm1.148 8.869a.345.345 0 1 1-.69.003.345.345 0 0 1 .69-.003"/></g><g display="inline"><path d="M4.242 32.733A1.243 1.243 0 0 1 3 31.493V15.421c0-.686.557-1.244 1.242-1.244H16.28c.683 0 1.242.559 1.242 1.244v16.072c0 .682-.56 1.24-1.242 1.24zm.109-1.349h11.821v-1.908H4.351zm0-3.258h11.821V18.083H4.351zm0-11.395h11.821v-1.203H4.351z"/><path d="M9.44 16.423h1.642a.294.294 0 1 0 0-.588H9.44a.293.293 0 0 0 0 .588zm1.483 14.031c0 .369-.297.67-.662.67s-.662-.301-.662-.67a.663.663 0 1 1 1.324 0"/></g><path d="M29.794 25.362v-1.307H16.818v1.307h4.833v2.844H18.74a.68.68 0 1 0 0 1.358h7.204a.68.68 0 0 0 .681-.678.68.68 0 0 0-.681-.68H22.96v-2.844zm4.768-20.035H10.05a.653.653 0 0 0-.655.652v9.228h1.309V6.633h23.205V18.42h-17.09v1.309h17.09v3.457h1.309V5.979a.654.654 0 0 0-.656-.652z" display="inline"/></g><g display="none"><path d="M16.517 19.372a5.32 5.32 0 0 0 2.058-4.202 5.336 5.336 0 0 0-5.33-5.33H5.062C4.475 9.84 4 10.316 4 10.902V29.1c0 .586.475 1.061 1.062 1.061h8.183a5.9 5.9 0 0 0 5.892-5.89 5.9 5.9 0 0 0-2.62-4.899zm-3.273-7.408a3.21 3.21 0 0 1 3.207 3.206 3.21 3.21 0 0 1-3.207 3.207H6.123v-6.413zm0 16.074H6.123v-7.537h7.121a3.77 3.77 0 0 1 3.769 3.77 3.773 3.773 0 0 1-3.769 3.767zm14.983-13.423c-4.286 0-7.773 3.487-7.773 7.773 0 4.284 3.487 7.771 7.773 7.771a7.73 7.73 0 0 0 5.496-2.275 1.063 1.063 0 0 0-1.5-1.503 5.6 5.6 0 0 1-3.996 1.656 5.66 5.66 0 0 1-5.549-4.59h12.26c.588 0 1.063-.475 1.063-1.06-.001-4.284-3.488-7.772-7.774-7.772zm0 2.122a5.66 5.66 0 0 1 5.549 4.589H22.678a5.66 5.66 0 0 1 5.549-4.589zm-4.777-4.212h8.986a1.063 1.063 0 0 0 0-2.125H23.45a1.063 1.063 0 0 0 0 2.125z" display="inline"/></g><path d="M20 5.5c-7.995 0-14.5 6.507-14.5 14.502C5.5 27.996 12.004 34.5 20 34.5s14.5-6.504 14.5-14.498C34.5 12.007 27.995 5.5 20 5.5zm0 1.475c3.201 0 6.135 1.161 8.405 3.083q-.026.033-.048.067c-.015.023-1.376 2.172-4.657 4.194-.715.439-1.559.894-2.537 1.327-2.073-3.988-4.352-6.721-5.468-7.938A13 13 0 0 1 20 6.975zm-5.756 1.343c.797.834 3.3 3.62 5.543 7.885-3.074 1.138-7.234 1.975-12.646 1.709.683-4.219 3.398-7.762 7.103-9.594zm-3.615 20.724a13 13 0 0 1-3.641-9.662 41 41 0 0 0 2.145.056c4.73 0 8.465-.832 11.318-1.906q.337.705.657 1.46.233.545.446 1.088c-5.057 1.435-8.823 4.508-10.901 8.905zM20 33.027c-3.187 0-6.11-1.151-8.376-3.059a.73.73 0 0 0 .363-.354c1.907-4.039 5.396-6.854 10.094-8.154 1.979 5.449 2.623 10.044 2.704 10.657-1.482.588-3.097.91-4.785.91zm6.182-1.562c-.213-1.442-.916-5.516-2.651-10.331 4.061-.706 8.335.161 9.405.405-.508 4.293-3.111 7.954-6.754 9.926zm-3.179-11.734a52 52 0 0 0-.538-1.318 38 38 0 0 0-.648-1.444 23 23 0 0 0 2.742-1.448c3.013-1.875 4.511-3.832 4.929-4.435a12.98 12.98 0 0 1 3.539 8.916l-.001.046c-1.495-.328-5.831-1.118-10.023-.317z" display="none"/><g display="none"><path d="M21.93 35h-5.405a.736.736 0 0 1-.738-.738V21.926h-3.51a.74.74 0 0 1-.738-.737v-5.796a.74.74 0 0 1 .738-.738h3.51v-1.519c0-4.41 3.322-8.136 7.255-8.136h4.684c.406 0 .737.331.737.738v5.794a.74.74 0 0 1-.737.738H23.05c-.086.021-.381.269-.381.814v1.569h5.057a.74.74 0 0 1 .737.738v5.796a.74.74 0 0 1-.737.737h-5.057V34.26a.74.74 0 0 1-.739.74zm-4.667-1.477h3.929V21.188c0-.41.33-.738.738-.738h5.057v-4.32H21.93a.736.736 0 0 1-.738-.737v-2.308c0-1.37.956-2.291 1.85-2.291h3.945V6.477h-3.945c-3.079 0-5.778 3.112-5.778 6.659v2.257a.737.737 0 0 1-.738.737h-3.51v4.32h3.51c.408 0 .738.328.738.738v12.335z" display="inline"/></g><g display="none"><path d="M28.141 27.861c-4.336 0-7.861-3.524-7.861-7.86 0-4.335 3.525-7.862 7.861-7.862 4.334 0 7.859 3.527 7.859 7.862 0 4.336-3.525 7.86-7.859 7.86zm0-14.094c-3.438 0-6.232 2.798-6.232 6.234s2.795 6.232 6.232 6.232c3.436 0 6.231-2.796 6.231-6.232s-2.796-6.234-6.231-6.234zM11.859 27.861C7.525 27.861 4 24.337 4 20.001c0-4.335 3.525-7.862 7.859-7.862 4.335 0 7.861 3.527 7.861 7.862 0 4.336-3.526 7.86-7.861 7.86zm0-14.094c-3.436 0-6.231 2.798-6.231 6.234s2.795 6.232 6.231 6.232c3.438 0 6.233-2.796 6.233-6.232s-2.796-6.234-6.233-6.234z" display="inline"/></g><path d="M35.27 21.108c.202-.637.23-1.298.23-1.915 0-2.065-1.362-2.511-2.387-2.667-.836-.128-3.783-.217-5.537-.261q.147-.181.311-.376c.911-1.085 2.289-2.726 2.146-5.726-.088-1.812-.604-3.131-1.536-3.922a3 3 0 0 0-2.099-.738c-1.809.021-2.07 1.942-2.262 3.345-.123.912-.263 1.945-.701 2.281-1.677 1.288-3.492 2.835-4.236 4.528-.79 1.794-1.599 3.28-3.527 3.28h-.967v-2.402H4.5V34.05h10.206v-2.178c2.203.067 3.171.498 4.009 1.206 1.274 1.078 2.385 1.422 4.573 1.422 2.79 0 6.488-.076 8.27-.438.597-.121 1.391-.442 1.775-1.272.217-.47.277-.962.307-1.338.008-.102.01-.209.012-.312.002-.111.006-.3.023-.409q.03-.029.06-.063c.306-.341.654-.73.823-1.338.164-.579.186-1.171.186-1.668 0-.421-.106-.734-.201-1.009q-.038-.111-.07-.215c.035-.073.117-.188.17-.265.109-.158.234-.337.314-.542.263-.668.284-1.377.284-1.991 0-.272-.018-.676-.163-1.067a1.6 1.6 0 0 0-.33-.533l.052-.051c.247-.253.372-.573.47-.881zM13.212 32.567H5.994V18.019h7.218zM33.846 20.66c-.064.201-.102.274-.117.294-.019.02-.064.056-.104.091-.219.186-.586.494-.595.991-.005.289.122.566.36.783q.075.07.146.128c.125.105.127.111.139.143.063.168.07.394.07.551 0 .479-.014 1.023-.182 1.452-.018.045-.1.163-.152.239-.227.325-.566.813-.405 1.416.038.143.082.269.12.38.073.215.122.358.122.534 0 .399-.017.862-.13 1.272-.071.253-.219.432-.471.714a1 1 0 0 0-.27.307c-.207.372-.215.806-.222 1.157a4 4 0 0 1-.008.226c-.02.252-.057.576-.175.831-.037.081-.148.324-.72.439-1.292.264-4.123.408-7.968.408-2.014 0-2.713-.314-3.605-1.068-1.069-.902-2.316-1.48-4.977-1.559V20.42h.967c3.063 0 4.21-2.608 4.894-4.167.611-1.391 2.256-2.778 3.783-3.951.922-.707 1.099-2.002 1.269-3.255.085-.622.172-1.265.349-1.676.154-.358.289-.385.463-.385q.042 0 .082-.004c.005-.002.52-.034 1.016.385.599.507.949 1.498 1.014 2.865.115 2.424-.948 3.69-1.802 4.709-.53.631-1.032 1.228-1.103 1.968a.746.746 0 0 0 .729.812c2.031.041 5.693.144 6.521.269.91.139 1.119.365 1.119 1.202.003.5-.017 1.024-.157 1.468z" display="none"/><g display="none"><path d="M34.467 10.234h-1.724V8.511a.861.861 0 1 0-1.722 0v1.722h-1.723a.863.863 0 0 0 0 1.723h1.723v1.724a.862.862 0 1 0 1.722 0v-1.724h1.724a.86.86 0 1 0 0-1.722z" display="inline"/><path d="M29.298 10.407a.688.688 0 0 0 0 1.378h1.896v1.895a.689.689 0 0 0 1.377 0v-1.895h1.896a.69.69 0 0 0 0-1.378h-1.896V8.511a.69.69 0 0 0-1.377 0v1.895h-1.896zM18.373 33.774c-7.595 0-13.773-6.18-13.773-13.775S10.778 6.226 18.373 6.226c3.067 0 5.971.987 8.396 2.855l.165.127-3.408 4.426-.165-.128a8.1 8.1 0 0 0-4.988-1.693c-4.515 0-8.188 3.672-8.188 8.187s3.673 8.187 8.188 8.187a8.13 8.13 0 0 0 7.647-5.257l.052-.136h-7.909v-5.586h13.984V20c0 7.595-6.179 13.774-13.774 13.774zm0-26.288c-6.9 0-12.513 5.613-12.513 12.513s5.613 12.515 12.513 12.515S30.886 26.9 30.886 19.999v-1.533H19.424v3.066h8.385l-.446 1.376a9.42 9.42 0 0 1-8.989 6.538c-5.209 0-9.447-4.238-9.447-9.447s4.238-9.447 9.447-9.447c1.703 0 3.367.455 4.813 1.315l.076.045 1.881-2.441-.094-.059a12.5 12.5 0 0 0-6.677-1.926z" display="inline"/></g><g display="none"><path d="M28.109 34.4a.635.635 0 0 1-.635-.634V24.13c0-3.484-1.788-3.484-2.462-3.484-1.878 0-2.829 1.172-2.829 3.484v9.637c0 .35-.284.634-.634.634H16.1a.634.634 0 0 1-.634-.634V15.41c0-.35.284-.634.634-.634h5.45c.35 0 .634.284.634.634v.684l.328-.271c1.29-1.067 2.829-1.608 4.574-1.608 2.157 0 3.973.689 5.251 1.994 1.35 1.378 2.063 3.43 2.063 5.933v11.625c0 .35-.285.634-.635.634zm-3.096-15.024c1.394 0 3.732.618 3.732 4.754v9.002h4.385v-10.99c0-4.231-2.203-6.657-6.044-6.657-3.43 0-4.916 2.59-4.978 2.7a.634.634 0 0 1-.714.308.63.63 0 0 1-.479-.61v-1.837h-4.18v17.087h4.18V24.13c0-2.977 1.532-4.754 4.098-4.754zM6.78 34.4a.635.635 0 0 1-.635-.634V15.41c0-.35.285-.634.635-.634h5.685c.35 0 .634.284.634.634v18.356c0 .35-.284.634-.634.634zm.635-1.268h4.415V16.045H7.415zm2.182-19.493c-2.204 0-3.997-1.803-3.997-4.019S7.393 5.6 9.597 5.6c2.201 0 3.993 1.804 3.993 4.021 0 2.215-1.792 4.018-3.993 4.018zm0-6.773c-1.504 0-2.727 1.235-2.727 2.754s1.223 2.751 2.727 2.751 2.725-1.233 2.725-2.751c-.001-1.518-1.222-2.754-2.725-2.754z" display="inline"/></g><g display="none"><path d="M27.373 13.227a1.28 1.28 0 0 1-1.278-1.278V9.86c0-.706.573-1.28 1.278-1.28h2.088c.706 0 1.28.574 1.28 1.28v2.088a1.28 1.28 0 0 1-1.28 1.278zm-.094-1.185h2.277V9.765h-2.277zm-7.225 12.004c-1.986 0-3.603-1.616-3.603-3.603s1.616-3.604 3.603-3.604 3.604 1.617 3.604 3.604-1.617 3.603-3.604 3.603zm0-6.022c-1.334 0-2.419 1.085-2.419 2.419s1.085 2.419 2.419 2.419 2.42-1.085 2.42-2.419-1.085-2.419-2.42-2.419z" display="inline"/><path d="M9.582 34.301a3.785 3.785 0 0 1-3.779-3.783V9.479a3.784 3.784 0 0 1 3.779-3.78h20.814a3.784 3.784 0 0 1 3.779 3.78v5.9c.015.086.021.134.021.179a.6.6 0 0 1-.016.129l-.006 14.83a3.785 3.785 0 0 1-3.779 3.783H9.582zm-2.596-3.783a2.6 2.6 0 0 0 2.596 2.599h20.814a2.6 2.6 0 0 0 2.595-2.599V16.151h-6.909l.198.307a7.4 7.4 0 0 1 1.162 3.985c0 4.109-3.345 7.452-7.456 7.452-4.107 0-7.45-3.343-7.45-7.452 0-1.412.402-2.79 1.161-3.985l.196-.307H6.986zm13-16.341a6.273 6.273 0 0 0-6.266 6.267 6.274 6.274 0 0 0 6.266 6.269 6.277 6.277 0 0 0 6.271-6.269c.001-3.457-2.813-6.267-6.271-6.267zm0-1.184c1.847 0 3.62.684 4.992 1.923l8.013.052V9.479a2.6 2.6 0 0 0-2.595-2.596H16.483v6.979l.286-.14a7.4 7.4 0 0 1 3.217-.729zm-6.669 1.974h1.545a1.7 1.7 0 0 0 .335-.227l.036-.029.029-.072.038-7.755h-1.982v8.083zm-3.166 0h1.981V6.884h-1.981zM8.7 7.037a2.61 2.61 0 0 0-1.714 2.442v5.487h1.981V6.939z" display="inline"/></g><g display="none"><path d="M14.533 33c-3.44 0-6.789-1.001-9.683-2.895a.79.79 0 0 1-.306-.918.76.76 0 0 1 .807-.511 11.28 11.28 0 0 0 6.84-1.354C10.16 26.64 8.516 25 7.839 22.846a.79.79 0 0 1 .155-.754.75.75 0 0 1 .274-.2c-1.62-1.317-2.636-3.359-2.586-5.536a.78.78 0 0 1 .383-.656.75.75 0 0 1 .682-.039c-1.28-2.121-1.393-4.87-.092-7.145a.77.77 0 0 1 .6-.385.76.76 0 0 1 .65.284c2.74 3.429 6.698 5.614 10.974 6.086a7 7 0 0 1 1.458-4.872C21.638 7.957 23.582 7 25.672 7c1.725 0 3.398.679 4.656 1.876a11.3 11.3 0 0 0 3.209-1.317.74.74 0 0 1 .863.062.79.79 0 0 1 .251.848 7 7 0 0 1-.827 1.745q.305-.12.602-.255a.75.75 0 0 1 .895.21c.219.265.24.646.051.935a13 13 0 0 1-2.875 3.143c.098 4.83-1.786 9.77-5.086 13.292C24.063 31.11 19.61 33 14.533 33zm-6.19-2.793a16.1 16.1 0 0 0 6.19 1.236c5.875 0 9.645-2.709 11.773-4.982 3.113-3.321 4.853-8.018 4.651-12.562a.79.79 0 0 1 .317-.668q.627-.46 1.186-1-.545.118-1.104.185a.765.765 0 0 1-.813-.521.79.79 0 0 1 .33-.92 5.3 5.3 0 0 0 1.201-1.003q-.901.329-1.846.518a.75.75 0 0 1-.703-.228 5.25 5.25 0 0 0-3.855-1.705 5.22 5.22 0 0 0-4.139 2.039 5.45 5.45 0 0 0-1.01 4.582.79.79 0 0 1-.158.675.75.75 0 0 1-.624.28c-4.659-.239-9.05-2.337-12.223-5.805-.725 2.251.085 4.801 2.091 6.171a.79.79 0 0 1 .303.884.76.76 0 0 1-.75.539 6.6 6.6 0 0 1-1.839-.319c.436 2.028 2.051 3.711 4.125 4.137.346.07.6.374.612.735s-.219.684-.561.779a6.8 6.8 0 0 1-1.707.245 5.28 5.28 0 0 0 4.438 2.618.76.76 0 0 1 .709.53.79.79 0 0 1-.253.86 12.84 12.84 0 0 1-6.341 2.7z" display="inline"/></g><g display="none"><path d="M22.321 35.5c-1.422 0-2.706-.184-3.814-.548-1.134-.374-2.116-.915-2.92-1.609-.824-.707-1.411-1.488-1.741-2.318-.323-.809-.479-1.913-.479-3.372v-9.455H10.98a.83.83 0 0 1-.828-.829v-4.183c0-.357.231-.677.574-.787 1.04-.339 1.937-.824 2.668-1.449a7.3 7.3 0 0 0 1.773-2.26c.447-.887.764-2.053.938-3.463a.83.83 0 0 1 .821-.727h4.159a.83.83 0 0 1 .829.828v6.604h6.138c.458 0 .828.371.828.828v4.607c0 .458-.37.829-.828.829h-6.138v6.696c0 2.173.152 2.811.217 2.986.115.304.326.543.646.732.529.317 1.118.469 1.809.469 1.314 0 2.652-.442 3.979-1.312a.828.828 0 0 1 1.284.692v4.614c0 .32-.185.611-.476.748-1.295.613-2.496 1.05-3.568 1.299-1.076.252-2.248.38-3.484.38zM11.808 16.54h2.387a.83.83 0 0 1 .829.828v10.284c0 1.229.122 2.155.362 2.759.231.581.663 1.144 1.283 1.677.64.552 1.431.985 2.354 1.29.943.309 2.054.466 3.299.466 1.11 0 2.154-.113 3.107-.334.829-.192 1.756-.519 2.764-.967v-2.661c-1.19.569-2.399.855-3.606.855-.986 0-1.879-.235-2.653-.701-.647-.38-1.104-.912-1.353-1.576-.15-.396-.323-1.167-.323-3.566v-7.525c0-.457.371-.828.828-.828h6.139v-2.95h-6.139a.83.83 0 0 1-.828-.829V6.156h-2.613c-.212 1.286-.549 2.388-1 3.283a8.9 8.9 0 0 1-2.175 2.77 9.1 9.1 0 0 1-2.662 1.562z" display="inline"/></g><g display="none"><path d="M18.396 33.684c-3.729 0-5.914-7.437-7.56-14.712-.125-.551-.223-.986-.294-1.259-.615-2.375-1.14-2.375-1.422-2.375l-.098.002c-.274.026-1.167.601-1.873 1.21a.763.763 0 0 1-1.102-.111L4.66 14.646a.76.76 0 0 1 .082-1.023c.019-.019 1.912-1.786 5.869-5.186 1.282-1.1 2.542-1.656 3.749-1.656 2.535 0 4.025 2.437 4.272 4.166a107 107 0 0 0 1.158 6.51c.847 3.952 1.44 5.072 1.662 5.372 1.104-.487 3.517-4.047 4.005-6.771.147-.831.024-1.229-.094-1.292-.418-.227-.834-.341-1.236-.341-.854 0-1.424.52-1.43.525a.76.76 0 0 1-.886.125.77.77 0 0 1-.394-.809c.014-.074.331-1.858 1.486-3.722 1.559-2.512 3.894-3.966 6.752-4.198.246-.02.49-.03.723-.03 2.447 0 3.674 1.114 4.271 2.047 1.49 2.331 1.014 6.297-1.376 11.472C29.686 27.6 23.15 33.684 18.396 33.684zM9.119 13.811c1.749 0 2.428 1.69 2.901 3.519.077.294.178.742.306 1.307.465 2.055 1.243 5.495 2.362 8.471 1.651 4.393 3.032 5.05 3.708 5.05 3.608 0 9.792-4.957 13.493-12.964 2.098-4.542 2.636-8.189 1.475-10.006-.57-.891-1.574-1.343-2.984-1.343q-.288 0-.599.024c-2.373.194-4.241 1.353-5.552 3.44a10 10 0 0 0-.832 1.661q.338-.07.73-.072c.659 0 1.319.176 1.963.525.578.311 1.198 1.068.87 2.903-.253 1.414-1.057 3.312-2.097 4.955-.836 1.318-2.099 2.929-3.365 3.11a1 1 0 0 1-.154.012c-.973 0-1.803-1.021-2.932-6.1-.756-3.401-1.27-6.989-1.292-7.141-.165-1.151-1.156-2.855-2.761-2.855-.831 0-1.757.434-2.754 1.289a248 248 0 0 0-5.309 4.67l.481.622c.612-.462 1.482-1.024 2.133-1.072q.108-.005.209-.005z" display="inline"/></g><path d="m26.932 18.581-9.583-4.996a1.6 1.6 0 0 0-.74-.18 1.6 1.6 0 0 0-1.6 1.598v9.992c0 .559.294 1.078.771 1.369a1.61 1.61 0 0 0 1.569.049l9.583-4.996a1.598 1.598 0 0 0 0-2.836zm-10.323 6.415v-9.992L26.192 20zm19.11-11.659c-.502-4.274-2.197-4.865-5.57-5.095-2.396-.163-6.273-.244-10.15-.244-3.875 0-7.748.081-10.148.244-3.373.229-5.066.82-5.57 5.095-.373 3.175-.373 10.143 0 13.328.504 4.274 2.198 4.863 5.57 5.093 2.398.163 6.275.244 10.15.244s7.753-.081 10.148-.244c3.373-.229 5.068-.818 5.57-5.093.373-3.177.375-10.144 0-13.328zM34.13 26.478c-.245 2.099-.748 2.712-1.104 2.99-.57.447-1.605.601-2.984.695-2.219.149-5.972.24-10.041.24-4.068 0-7.822-.091-10.041-.24-1.377-.095-2.413-.248-2.984-.695-.356-.278-.858-.892-1.106-2.99-.356-3.026-.356-9.929 0-12.953.248-2.101.75-2.712 1.106-2.992.571-.445 1.607-.599 2.984-.693 2.219-.149 5.973-.24 10.04-.24 4.069 0 7.824.091 10.042.24 1.379.095 2.414.248 2.984.693.356.28.859.892 1.104 2.992.356 3.026.356 9.926 0 12.953z" display="none"/><path d="M13.706 35.4a.874.874 0 0 1-.874-.759c-.224-1.511-.5-4.303.06-6.678.292-1.229 1.806-7.641 2.122-8.979a8.1 8.1 0 0 1-.502-2.772c0-2.829 1.727-5.045 3.931-5.045 1.763 0 2.947 1.287 2.947 3.203 0 1.085-.413 2.424-.85 3.841-.24.771-.484 1.56-.665 2.321-.146.621-.027 1.217.337 1.677.386.489 1.003.769 1.693.769 1.627 0 2.697-1.271 3.309-2.336.897-1.565 1.392-3.697 1.392-6.003 0-3.592-2.444-5.822-6.379-5.822-5.038 0-7.674 3.744-7.674 7.443 0 1.2.306 2.119.961 2.891.397.472.565.839.379 1.541l-.348 1.36c-.154.596-.624.979-1.197.979q-.273 0-.542-.112c-2.428-.99-3.877-3.638-3.877-7.08 0-2.729 1.175-5.484 3.225-7.558C12.811 6.602 15.811 4.6 20.69 4.6c3.201 0 6.128 1.119 8.241 3.151 1.996 1.914 3.141 4.542 3.141 7.209 0 3.392-.947 6.48-2.667 8.699-1.78 2.302-4.313 3.569-7.132 3.569-1.322 0-2.702-.471-3.69-1.258l-.122-.097-.038.15c-.303 1.198-.71 2.799-.839 3.261-.661 2.405-2.414 4.806-3.137 5.727-.2.263-.457.389-.741.389zm4.736-22.907c-1.46 0-2.605 1.633-2.605 3.719 0 1.294.392 2.208.47 2.378.072.147.09.307.055.453 0 0-1.853 7.854-2.179 9.225-.302 1.277-.374 3-.203 4.85l.025.273.156-.226c.74-1.064 1.713-2.663 2.144-4.233.175-.626.905-3.512 1.126-4.387l.063-.251a.66.66 0 0 1 .564-.498h.015c.316 0 .537.135.65.351.443.845 1.926 1.756 3.549 1.756 4.988 0 8.473-4.499 8.473-10.942 0-4.441-3.762-9.034-10.056-9.034-4.418 0-7.113 1.787-8.595 3.287-1.806 1.828-2.841 4.243-2.841 6.626 0 2.845 1.061 4.955 2.909 5.791l.107.049.34-1.325a1 1 0 0 0 .027-.128.7.7 0 0 0-.137-.217c-.858-1.012-1.275-2.238-1.275-3.749 0-2.324.863-4.497 2.429-6.118 1.65-1.709 3.984-2.651 6.571-2.651 2.349 0 4.315.705 5.687 2.037 1.32 1.283 2.018 3.051 2.018 5.111 0 2.533-.556 4.898-1.566 6.66-1.11 1.938-2.694 3.006-4.459 3.006-1.097 0-2.092-.464-2.732-1.272-.62-.783-.828-1.779-.587-2.806.184-.772.425-1.558.659-2.316.434-1.401.82-2.647.82-3.54-.001-.442-.118-1.879-1.622-1.879z" display="none"/><path d="M26.494 34.837a8.4 8.4 0 0 1-4.096-1.067c-.842.121-1.63.189-2.408.189-7.691 0-13.948-6.259-13.948-13.951 0-.726.06-1.468.177-2.205C5.483 16.472 5.1 15.03 5.1 13.567c0-4.634 3.771-8.404 8.408-8.404 1.44 0 2.866.373 4.123 1.079a17 17 0 0 1 2.359-.182c7.691 0 13.949 6.257 13.949 13.947 0 .703-.058 1.431-.17 2.162A8.7 8.7 0 0 1 34.9 26.43c0 4.635-3.771 8.407-8.406 8.407zm-4.009-2.394c.118 0 .232.032.33.093a7.1 7.1 0 0 0 3.679 1.023 7.137 7.137 0 0 0 7.129-7.129 7.1 7.1 0 0 0-1.069-3.76.65.65 0 0 1-.089-.449c.131-.746.197-1.491.197-2.214 0-6.986-5.685-12.67-12.672-12.67-.764 0-1.549.073-2.335.218a.64.64 0 0 1-.446-.083 7.13 7.13 0 0 0-3.701-1.032c-3.932 0-7.131 3.197-7.131 7.127a7.13 7.13 0 0 0 1.06 3.742.63.63 0 0 1 .085.445 13 13 0 0 0-.204 2.253c0 6.988 5.685 12.674 12.673 12.674.789 0 1.589-.076 2.376-.226a1 1 0 0 1 .118-.012zm-2.026-2.483c-2.835 0-5.499-.908-6.951-2.369-.836-.842-1.274-1.861-1.269-2.949.008-1.295.994-2.349 2.197-2.349 1.281 0 1.996.849 2.627 1.597.751.89 1.456 1.724 3.141 1.724 2.14 0 2.704-1.094 2.704-1.673 0-.94-1.77-1.366-3.643-1.817-3.011-.725-7.134-1.717-7.134-5.944 0-1.808.72-3.423 2.029-4.548 1.32-1.137 3.154-1.737 5.306-1.737.23 0 .467.008.702.023 4.872.285 7.38 2.508 7.649 4.453.079.759-.129 1.443-.585 1.948-.479.532-1.197.825-2.024.825-1.095 0-1.773-.642-2.373-1.207-.753-.71-1.465-1.38-3.11-1.38-.503 0-2.145.097-2.145 1.347 0 .593 1.37.968 3.307 1.433 3.136.751 7.408 1.773 7.408 6.015 0 3.952-3.149 6.608-7.836 6.608zm-6.022-6.39c-.545 0-.916.558-.92 1.079-.005.75.297 1.437.895 2.042 1.222 1.229 3.539 1.991 6.048 1.991 3.985 0 6.56-2.093 6.56-5.332 0-2.995-2.779-3.898-6.413-4.769-1.054-.253-2.048-.492-2.794-.825-1.001-.445-1.509-1.068-1.509-1.854 0-1.594 1.344-2.624 3.422-2.624 2.151 0 3.212.999 3.986 1.729.601.564.94.858 1.497.858.467 0 .84-.139 1.077-.401.212-.234.304-.556.266-.929-.213-1.453-2.548-3.116-6.455-3.346q-.321-.019-.63-.02c-3.68 0-6.058 1.966-6.058 5.008 0 2.987 2.552 3.834 6.157 4.705 1.133.271 2.203.528 3.023.921 1.06.509 1.597 1.227 1.597 2.136 0 1.42-1.246 2.949-3.981 2.949-2.276 0-3.336-1.254-4.109-2.169-.64-.756-1.001-1.149-1.659-1.149z" display="none"/><path d="M25.625 26.468c-.979 0-1.775-1.217-1.775-2.712s.797-2.714 1.775-2.714S27.4 22.26 27.4 23.756s-.796 2.712-1.775 2.712zm-11.25 0c-.979 0-1.775-1.217-1.775-2.712s.797-2.714 1.775-2.714 1.775 1.218 1.775 2.714-.796 2.712-1.775 2.712z"/><path d="M19.964 32.093c-1.304 0-2.505-.05-3.571-.146a23 23 0 0 1-3.178-.512 13.6 13.6 0 0 1-2.759-.945 9.8 9.8 0 0 1-2.236-1.496 8 8 0 0 1-1.695-2.116c-.443-.797-.795-1.753-1.045-2.841-.252-1.084-.38-2.317-.38-3.669 0-2.389.811-4.482 2.407-6.226l.042-.045-.022-.057a7 7 0 0 1-.239-.79c-.071-.295-.139-.72-.201-1.264-.063-.539-.039-1.174.071-1.886.112-.712.32-1.451.618-2.194q-.003.027.04.025.047-.002.124-.016l.08-.001c.197 0 .387.015.636.04.381.037.8.122 1.244.252.441.13 1.029.377 1.797.757.761.38 1.559.854 2.369 1.408 1.494-.372 3.46-.568 5.926-.568 2.477 0 4.447.196 5.856.582.903-.573 1.697-1.047 2.44-1.423.755-.378 1.349-.626 1.816-.755.466-.13.88-.218 1.231-.261a4 4 0 0 1 .524-.039q.13 0 .215.016l.221.043c.226.683.434 1.421.545 2.134.109.705.134 1.34.071 1.886-.063.549-.131.974-.203 1.264a6 6 0 0 1-.239.789l-.021.059.042.045c1.599 1.742 2.409 3.837 2.409 6.226 0 1.343-.128 2.577-.38 3.668-.249 1.084-.604 2.04-1.052 2.841a8 8 0 0 1-1.711 2.116 10 10 0 0 1-2.25 1.496 13.7 13.7 0 0 1-2.774.945 23 23 0 0 1-3.185.512 40 40 0 0 1-3.583.146zm-5.516-13.139q-.388 0-.79.016a6 6 0 0 0-1.754.313 4 4 0 0 0-1.367.821c-1.298 1.188-1.955 2.517-1.955 3.947 0 .849.107 1.611.319 2.268.213.655.489 1.215.821 1.664.335.449.806.837 1.399 1.151a9.7 9.7 0 0 0 1.719.72c.554.166 1.275.298 2.146.393.873.093 1.655.149 2.325.168q1.022.029 2.593.028 1.571 0 2.592-.028a31 31 0 0 0 2.327-.168c.87-.095 1.592-.227 2.145-.393a10 10 0 0 0 1.72-.719c.592-.314 1.063-.702 1.397-1.152.333-.447.61-1.008.821-1.664.214-.653.321-1.417.321-2.268 0-1.452-.657-2.781-1.956-3.948a4 4 0 0 0-1.368-.819 5.9 5.9 0 0 0-1.752-.314q-.402-.015-.79-.016-.545 0-1.063.031-.88.05-2.171.139a33 33 0 0 1-2.224.088c-.635 0-1.383-.03-2.223-.088q-1.291-.088-2.174-.139-.513-.03-1.058-.031zm10.911-1.322c.274 0 .56.005.842.015.78.03 1.502.162 2.146.391.686.244 1.297.61 1.816 1.088 1.584 1.429 2.387 3.086 2.387 4.927 0 .519-.036 1.015-.106 1.474l.19.056c.238-.543.439-1.163.598-1.843.228-.988.343-2.122.343-3.37 0-2.078-.673-3.822-2.06-5.33l-.591-.646.309-.817a6 6 0 0 0 .191-.64c.041-.162.104-.484.175-1.099.048-.42.025-.936-.067-1.534a8 8 0 0 0-.203-.928l-.025-.087-.089.016a8 8 0 0 0-.755.181c-.255.068-.737.24-1.576.663-.681.341-1.424.784-2.207 1.317l-.582.397-.596-.199c-1.299-.356-3.151-.537-5.507-.537-2.345 0-4.192.181-5.493.537l-.679.186-.499-.384a20 20 0 0 0-2.215-1.317c-.848-.42-1.326-.596-1.578-.669a6 6 0 0 0-.745-.174l-.088-.014-.023.085q-.135.47-.205.926c-.092.6-.114 1.116-.066 1.534.071.614.135.937.175 1.1.06.242.124.458.191.639l.307.817-.59.646c-1.387 1.51-2.061 3.253-2.061 5.33 0 1.24.116 2.375.345 3.37q.141.61.325 1.148l.194-.039q-.03-.388-.03-.796c0-1.818.802-3.474 2.383-4.92a5.2 5.2 0 0 1 1.821-1.094 7.2 7.2 0 0 1 2.147-.392q.425-.015.841-.015c.386 0 .769.011 1.137.032.588.034 1.324.082 2.185.139.816.058 1.534.086 2.134.086s1.317-.028 2.134-.086a352 352 0 0 1 2.186-.139c.367-.02.748-.031 1.134-.031z"/></g></svg>