<svg xmlns="http://www.w3.org/2000/svg" width="500" height="500"><path fill="#fefefe" d="M0 0h500v500H0z"/><path fill="#fdfdfd" d="m237.523 97.832 2.363-.013q3.745-.013 7.489-.007l2.58.004c42.41.121 42.41.121 56.647 11.684 8.744 9.38 14.257 24.322 18.023 36.438 5.029 15.896 15.159 25.83 28.938 34.687C361.897 186.088 369.477 192.48 377 199l1.637 1.416c9.415 8.297 14.639 17.384 15.533 29.973 1.21 22.849-4.455 47.107-20.17 64.611-5.193 5.429-10.574 7.666-17.687 9.813l-2.838.904A339 339 0 0 1 346 308l-1.956.592c-4.582.915-9.402.293-14.044.096l-3.254-.108c-6.497-.262-12.748-.968-19.147-2.119-12.911-2.29-27.014-2.43-39.974-.461-14.725 2.17-31.53 2.608-45.526-3.205-10.41-4.249-19.734-4.513-30.849-4.483-24.176-.083-45.11-5.353-65.937-18.437l-2.262-1.412c-6.95-4.606-12.644-10.359-15.864-18.15l-1.144-2.7L105 255l-1.074-2.457c-2.193-6.023-2.169-12.208-2.239-18.543l-.087-2.656c-.074-7.486 2.331-11.195 7.388-16.598a500 500 0 0 1 3.325-3.309l1.646-1.67c2.807-2.793 5.56-5.177 8.877-7.349 3.278-2.073 3.278-2.073 4.152-4.926l.325-2.617c1.86-8.353 7.549-13.913 14.367-18.793 5.678-3.333 11.357-5.121 17.789-6.441 2.751-.547 2.751-.547 5.531-2.641.547-2.256.547-2.256.625-4.812.188-2.686.373-5.178.938-7.813.422-2.295.369-4.12.25-6.437C167 144 167 144 168.875 141.5 171 140 171 140 173 140l.297-2.484.453-3.266.422-3.234c.955-3.477 2.146-4.683 4.828-7.016l2.438-3.125c3.622-4.064 6.797-4.723 11.937-5.812 8.449-1.866 12.954-4.925 19.195-10.907 7.42-6.584 15.446-6.308 24.953-6.324"/><path fill="#212121" d="m237.523 97.832 2.363-.013q3.745-.013 7.489-.007l2.58.004c42.41.121 42.41.121 56.647 11.684 8.744 9.38 14.257 24.322 18.023 36.438 5.029 15.896 15.159 25.83 28.938 34.687C361.897 186.088 369.477 192.48 377 199l1.637 1.416c9.415 8.297 14.639 17.384 15.533 29.973 1.21 22.849-4.455 47.107-20.17 64.611-5.193 5.429-10.574 7.666-17.687 9.813l-2.838.904A339 339 0 0 1 346 308l-1.956.592c-4.582.915-9.402.293-14.044.096l-3.254-.108c-6.497-.262-12.748-.968-19.147-2.119-12.911-2.29-27.014-2.43-39.974-.461-14.725 2.17-31.53 2.608-45.526-3.205-10.41-4.249-19.734-4.513-30.849-4.483-24.176-.083-45.11-5.353-65.937-18.437l-2.262-1.412c-6.95-4.606-12.644-10.359-15.864-18.15l-1.144-2.7L105 255l-1.074-2.457c-2.193-6.023-2.169-12.208-2.239-18.543l-.087-2.656c-.074-7.486 2.331-11.195 7.388-16.598a500 500 0 0 1 3.325-3.309l1.646-1.67c2.807-2.793 5.56-5.177 8.877-7.349 3.278-2.073 3.278-2.073 4.152-4.926l.325-2.617c1.86-8.353 7.549-13.913 14.367-18.793 5.678-3.333 11.357-5.121 17.789-6.441 2.751-.547 2.751-.547 5.531-2.641.547-2.256.547-2.256.625-4.812.188-2.686.373-5.178.938-7.813.422-2.295.369-4.12.25-6.437C167 144 167 144 168.875 141.5 171 140 171 140 173 140l.297-2.484.453-3.266.422-3.234c.955-3.477 2.146-4.683 4.828-7.016l2.438-3.125c3.622-4.064 6.797-4.723 11.937-5.812 8.449-1.866 12.954-4.925 19.195-10.907 7.42-6.584 15.446-6.308 24.953-6.324M259 135c-1.504 2.507-2.915 5.06-4.332 7.617-1.753 2.504-2.804 3.415-5.668 4.383-2.25-.375-2.25-.375-4-1l-.684-6.152c-.135-1.86-.135-1.86-1.316-2.848-2-.04-4-.043-6 0l-4 7h-4l-2-6c-1.988 2.888-1.988 2.888-3.437 5.625C222 146 222 146 219 147l-1-3-2 1v2l-2.3.23c-3.41.972-4.067 2.1-5.887 5.083l-1.481 2.363c-1.36 2.249-1.36 2.249-2.207 4.5-1.565 2.538-3.131 2.815-5.937 3.699-4.629 1.747-7.983 3.533-10.188 8.125a107 107 0 0 0-2.324 9.39C185 183 185 183 183 185c-2.79.211-2.79.211-6.336.16l-3.918-.033q-2.06-.03-4.121-.065c-15.584-1.394-15.584-1.394-29.883 2.533-3.636 3.586-4.949 6.747-5.804 11.718-1.674 7.712-8.088 11.158-14.187 15.436-6.12 4.123-6.12 4.123-9.751 10.251-1.327 13.34.1 27.79 7.313 39.438 7.986 9.133 21.636 15.18 32.654 19.709q2.062.867 4.09 1.811c13.654 6.303 26.668 6.535 41.415 6.544 11.893.024 21.867 1.044 33.177 5.04 14.444 4.88 30.511 3.438 45.359.915 10.327-1.577 20.238.018 30.414 1.79 19.419 3.281 42.327 5.545 59.719-5.185 13.493-9.732 19.98-26.968 23.437-42.69.633-5.06.688-10.09.735-15.185l.087-3.158c.082-10.042-2.685-16.943-9.56-24.24-5.475-5.323-9.615-7.344-17.29-8.332-2.565-.46-4.358-1.057-6.55-2.457l-.812-2.375c-1.713-3.785-4.498-5.104-8.188-6.625-4.69-1.459-9.301-2.045-14.187-2.375-4.624-.444-7.322-1.378-10.813-4.625-1.292-2.19-2.435-4.431-3.586-6.7-1.982-3.224-4.584-5.244-7.484-7.624-4.271-3.71-6.846-7.3-7.618-12.926-.86-3.853-.86-3.853-3.582-4.887-2.564-.752-5.113-1.328-7.73-1.863l-2-1c-2.394-.266-4.79-.513-7.187-.75-6.226-.703-10.18-1.956-14.813-6.25l-.562 1.813c-2.16 3.287-4.79 3.836-8.438 5.187l.938-4.25.527-2.39c.483-2.129.997-4.245 1.535-6.36z"/><path fill="#262626" d="M254 322c2.188.313 2.188.313 4 1-.115 5.068-1.46 7.9-4.25 12.125-3.494 5.648-4.98 11.031-6.375 17.5-2.225 10.197-4.49 19.342-13.008 26.156-4.627 2.383-9.336 2.008-14.367 1.219a90 90 0 0 1-4.875-1.812c-2.102-.905-2.102-.905-4.125-1.188-2.827 2.07-2.827 2.07-4.43 3.77-2.555 2.002-4.853 1.78-8 1.593-7.098-1.003-13.501-2.462-19.57-6.363a174 174 0 0 0-4-2l-1.625 1.375c-5.767 3.946-11.694 3.99-18.437 4l-2.682.074c-4.186.02-6.634-.088-10.315-2.222-3.819-4.38-3.274-9.448-3.226-15.051.609-6.779 3.358-13.398 8.285-18.176 4.154-2.14 8.043-2.313 12.625-2.25l2.134.018c14.565.274 14.565.274 19.804 4.107 2.347 1.42 2.347 1.42 4.53.426l2.47-1.113c5.802-2.611 11.14-3.161 17.437-2.188l3.125 2.125c2.612 2.122 2.612 2.122 5.066 1.695q2.557-.585 5.102-1.218c8.733-1.941 15.766-.46 23.707 3.398l-.238-2.953c.003-4.827 1.933-8.547 4.05-12.797l1.08-2.285c3.164-6.536 3.164-6.536 6.108-8.965m129 4c2.313 0 2.313 0 5 1 2.678 5.956 3.95 11.977 5.125 18.375q.5 2.67 1.008 5.336l.434 2.353c.366 2.004.366 2.004 1.433 3.936.07 1.54.085 3.083.063 4.625l-.028 2.477L396 366l-4 1c-2.757-3.955-3.532-7.224-4-12-3.843-1.787-6.897-2.271-11.125-2.25l-3.133-.016c-2.958.07-2.958.07-5.742 2.266-.365 3.126-.365 3.126-.187 6.625l.082 3.602L368 368c5.53 2.773 9.97 3.52 16.125 3.5l2.379.086c4.412.015 5.955-.113 9.406-3.129L398 366c2.313.188 2.313.188 4 1 .375 2.188.375 2.188 0 5-3.994 3.994-7.774 6.663-13.543 7.266-9.972-.06-17.606-.78-25.457-7.266-2.537 1.171-4.474 2.375-6.687 4.125-4.316 2.443-7.463 2.68-12.313 1.875-5.942-1.896-9.38-5.022-13-10l-.918 1.68c-3.41 5.895-3.41 5.895-6.457 7.82-6.335 1.207-10.967.689-16.625-2.5-5.52-4.654-7.419-10.107-9-17l-2.957 1.094-3.856 1.406-1.947.723C286.35 362.27 284.1 363 281 363l.496 1.703c.533 2.428.603 4.566.567 7.047l-.028 2.422L282 376c-2.328-.184-2.328-.184-5-1-5.843-8.16-5.866-18.375-6-28l-.117-3.617c-.13-5.972-.13-5.972.117-8.383l2-2h3l1 4 3.805-1.207a4029 4029 0 0 1 10.316-3.254c2.749-.863 5.49-1.74 8.227-2.64l2.59-.837 2.152-.714c2.251-.41 3.752-.048 5.91.652-.351 2.458-1.021 4.032-2.375 6.125-3.41 2.436-6.367 2.698-10.465 3.305-4.609.832-8.968 2.302-13.41 3.765C281 343 281 343 278 343l.5 2.5c.559 3.913.568 7.552.5 11.5l2.563-.875c6.451-2.111 11.68-3.38 18.437-3.125 2.222-2.222 2.926-4.085 4-7 7.848-.695 13.437.569 20.566 3.906 2.293 1.23 2.293 1.23 4.434 1.094a187 187 0 0 0 4-6c3.419-3.419 8.491-2.483 13.104-2.52 5.747.12 9.34.973 13.486 5.207 1.455 1.654 1.455 1.654 4.41 1.313l2.742-1.48c3.739-1.744 6.28-1.89 10.383-1.832l3.633.011c3.006.28 4.715.723 7.242 2.301q-.676-3.159-1.375-6.312l-.773-3.551c-.709-3.266-.709-3.266-2.852-6.137-.125-3.187-.125-3.187 0-6M196 212h4c1.586 3.173 1.12 6.588 1.098 10.07l-.005 2.413c-.005 2.547-.018 5.095-.03 7.642q-.008 2.587-.014 5.176A5665 5665 0 0 1 201 250c-5.674 2.49-8.891 3.582-15 3l-3.062-1.625c-3.987-1.866-5.83-.672-9.938.625-3.592-.3-6.587-.862-10-2-5.317.03-10.366.15-15.125 2.625-4.352 2.081-8.248 1.4-12.875.375-4.573-2.147-4.573-2.147-6-5-.683-8.533-.107-15.22 4.625-22.5 3.61-2.28 7.213-1.99 11.375-1.5l2 1-1 5-3.875.688c-3.363.823-3.363.823-5.625 3.375-.681 4.002-.659 7.889-.5 11.937 5.239.488 5.239.488 9.938-1.25 1.16-1.911 1.683-3.553 2.062-5.75l-2.187 1c-2.83 1.006-4.842 1.17-7.813 1-.625-2.375-.625-2.375-1-5 4.278-4.278 12.654-3.963 18.457-4.055q3.09.051 6.18.18c2.555.129 2.555.129 4.363-2.125 3.152-.266 3.152-.266 6.938-.25l3.777-.016C180 230 180 230 183 232l3-2c2.043-.195 2.043-.195 4.188-.125L194 230l-.07-3.43q-.029-2.222-.055-4.445l-.05-2.262c-.018-1.955.072-3.91.175-5.863z"/><path fill="#282828" d="m318 220 1 5-1.715 1.242-2.223 1.633-2.214 1.617c-1.959 1.388-1.959 1.388-2.848 3.508l3.176-.07q2.068-.029 4.137-.055c.69-.017 1.38-.034 2.091-.05 3.767-.037 5.38.031 8.596 2.175l1 3 2-2.5c3.49-2.909 3.49-2.909 7.063-3.062 4.222.603 5.43 1.219 7.937 4.562l1-1c2-.04 4-.043 6 0l-.07-2.336-.055-3.039-.07-3.023C353 225 353 225 355 223c3.536.536 3.536.536 5 2a63 63 0 0 1 .098 4.254l-.01 2.588-.026 2.72-.013 2.733q-.018 3.353-.049 6.705l4 1c-.228 3.957-.45 6.33-3 9.438-4.099 2.134-7.466 2.245-12 1.562-3.184-1.355-4.54-2.233-6.312-5.187L342 249l-2.375 1.938c-3.833 3.01-5.764 3.348-10.625 3.062a206 206 0 0 1-5-2l-2 1c-2.312-.016-2.312-.016-5-.25l-2.687-.203C312 252 312 252 310 249c-.34-4.075-.313-5.53 2-9l-6-1-.113 3.14q-.098 2.055-.2 4.11l-.068 2.066c-.22 4.136-.715 6.663-3.619 9.684l-5-1c-.523-7.406.225-14.225 1.813-21.437l.5-2.33c.979-4.205 2.057-7.717 4.687-11.233 4.683-2.287 8.907-2.176 14-2"/><path fill="#2a2a2a" d="m126 338 2 2c-.536 3.536-.536 3.536-2 5a64 64 0 0 1-4.113.246l-2.533.1q-2.65.09-5.297.172l-2.545.103-2.33.076c-3.165.44-5.445 1.375-7.448 3.897-3.16 6.12-4.115 11.961-2.039 18.644 2.166 4.832 4.726 8.083 9.305 10.762 4.586.454 7.997-.403 11.938-2.75 2.208-2.409 3.27-4.085 4.062-7.25-.425-2.117-.425-2.117-1-4l-3.762.07q-2.463.029-4.925.055l-2.475.05c-4.409.036-7.825-.1-11.838-2.175.875-3.875.875-3.875 2-5 3.387-.308 6.788-.278 10.188-.312l2.869-.088c6.003-.055 9.341.461 13.943 4.4 1 1 1 1 1.375 3.938-.104 6.326-3.598 12.736-8.062 17.125-4.454 2.605-8.176 3.327-13.313 2.937-6.214-1.68-10.568-5.669-14-11-3.5-6.664-5.271-12.548-3.527-20.027 2.135-6.661 5.851-11.54 12.027-14.848 7.02-2.256 14.146-2.775 21.5-2.125"/><path fill="#f9f9f9" d="m165 347.688 2.078-.05c4.718-.004 7.88.968 11.922 3.362a318 318 0 0 1-.687 6.688l-.387 3.761c-1.113 4.269-2.54 5.785-5.926 8.551l-2.176 1.797c-4.296 1.83-8.396 1.558-13.012 1.453l-2.771-.016c-6.731-.08-6.731-.08-9.041-1.234-.205-6.35-.303-12.983 2-19 4.989-4.874 11.34-5.344 18-5.312M204 349c2.438.688 2.438.688 5 2 1.982 6.375 1.665 15.074-.937 21.21-1.962 2.647-4.018 3.773-7.063 4.915-5.76.396-11.727-2.038-17-4.125-2-2-2-2-2.312-4.187.405-3.654 1.811-6.465 3.312-9.813.688-2.327 1.358-4.66 2-7l3.465-.148 4.472-.227c.755-.03 1.51-.062 2.288-.094 1.93-.104 3.854-.31 5.775-.531z"/><path fill="#272727" d="m293 215 1 4-2.047 1.469c-8.093 6.081-11.378 10.553-13.203 20.469-.688 5.348-1.011 10.674-1.125 16.062l-.08 2.176c-.011 3.627.347 5.654 2.307 8.742 2.29 2.22 4.118 3.156 7.148 4.082l-1 5c-3.103.975-4.537 1.203-7.562-.125-4.238-3.26-6.845-6.786-8.438-11.875-.314-2.983-.333-5.94-.312-8.937.005-.842.01-1.683.017-2.55.236-12.33 2.189-24.274 11.17-33.423 4.112-3.624 6.534-5.237 12.125-5.09"/><path fill="#fbfbfb" d="m344.688 349.563 2.435-.14c4.452-.083 7.104.228 10.412 3.358 2.111 2.308 2.868 4.049 3.215 7.156-.366 4.884-3.23 7.894-6.75 11.063-3.557 2.371-4.805 2.484-9 2-3.859-1.442-6.41-3.239-8.937-6.5-1.556-5.124-1.493-10.18-1.063-15.5 2.164-2.164 6.711-1.37 9.688-1.437"/><path fill="#252525" d="m248 182 5 1c1.046 15.34 1.112 30.63 1 46 2.025-1.933 3.421-3.632 5-6l5 1c-.118 6.04-.118 6.04-2.45 8.578-2.882 2.177-4.855 3.348-8.488 3.734L251 236a167 167 0 0 1-1.937-3.5l-1.09-1.969c-2.279-5.93-2.131-12.58-2.141-18.863l-.01-2.298q-.007-2.382-.007-4.762c-.003-2.432-.02-4.862-.04-7.294q-.005-2.322-.005-4.646l-.022-2.197c.017-3.715.135-5.296 2.252-8.471"/><path fill="#fbfbfb" d="M234 351c3.147 1.297 3.901 2.16 6 5 .537 5.778-3.715 11.456-7 16-3.674 2.45-6.735 2.666-11 2-2.389-.903-4.675-1.936-7-3 .228-2.774.481-5.542.75-8.312l.188-2.381c.585-5.736.585-5.736 2.742-8.319 4.894-2.084 10.133-1.668 15.32-.988"/><path fill="#282828" d="M214 211q2.514.428 5 1c11.521 39.222 11.521 39.222 5.75 51.688-1.972 3.33-4.156 6.43-6.75 9.312l-6-1c.32-3.53 1.327-5.625 3.438-8.375 4.682-6.293 5.2-13.016 4.562-20.625-.932-4.325-2.196-8.525-3.5-12.75q-.996-3.27-1.969-6.547l-.888-2.886c-.694-3.041-.825-5.707-.643-8.817z"/><path fill="#f7f7f7" d="M319 354c4.57 2.139 4.57 2.139 6 5 .406 4.041.486 7.754-1 11.563-2.553 1.835-4.751 2.11-7.867 1.96-3.902-.957-6.58-3.514-9.133-6.523-1.856-3.175-2.205-5.318-2-9 5.033-3.02 8.277-3.545 14-3"/><path fill="#292929" d="m258 238 5 1c-.232 5.575-1.723 9.093-5.254 13.445C256 254 256 254 252.438 254.813c-4.244-1.004-5.792-2.388-8.438-5.813-.937-2.187-.937-2.187-1-4l2-2c2.164.023 2.164.023 4.625.375l2.477.336L254 244z"/><path fill="#282828" d="M428 250c-1.75 3.875-1.75 3.875-4 5a61 61 0 0 1-4.133.098l-2.441-.01-2.551-.025-2.574-.014q-3.15-.02-6.301-.049l-2-4c3.109-3.109 6.63-2.544 10.875-2.75l2.473-.168 2.394-.129 2.183-.12c2.42.195 3.986.966 6.075 2.167m-27 30c4.357.458 6.857 3.306 9.813 6.25l1.56 1.45c1.459 1.44 1.459 1.44 3.627 4.3-.176 2.86-.176 2.86-1 5-4.797-.423-7.721-2.659-11-6-4.085-5.027-4.085-5.027-3.75-8.875z"/><path fill="#2d2d2d" d="M90.25 262.336 92 263c-.283 3.367-.59 4.651-3.215 6.879l-2.722 1.683c-3.475 2.165-5.576 3.556-7.063 7.438l-4-1c.72-6.3 4.249-9.544 9-13.375 3.42-2.712 3.42-2.712 6.25-2.29"/><path fill="#282828" d="m413 217 4 2c-.32 2.995-.955 3.958-3.187 6.063-4.553 3.136-8.156 5.436-13.813 4.937l-1-5 2.809-1.496 3.628-1.941 1.854-.987c3.046-1.513 3.046-1.513 5.709-3.576"/><path fill="#272727" d="M228 188v2l4 2c-.875 5.875-.875 5.875-2 7-7.194.464-7.194.464-10.062-1.187C219 196 219 196 219.125 193.5c1.73-4.945 3.714-5.918 8.875-5.5"/><path fill="#2b2b2b" d="M74 203c4.893.445 6.689 1.475 10 5l2.688 1L89 210c.813 2.125.813 2.125 1 4-2.566.962-4.36 1.222-6.973.316-3.88-1.863-7.47-3.757-10.027-7.316.25-2.25.25-2.25 1-4m-6 29c4.315.522 6.618 1.909 9.875 4.75l2.43 2.047C82 241 82 241 81.758 243.766L81 246l-5-1v-3l-2.25-.75c-3.025-1.375-4.733-2.612-6.75-5.25.25-2.25.25-2.25 1-4"/><path fill="#252525" d="M267 189c1.813.086 1.813.086 4 .375l2.188.273C275 190 275 190 276 191c-.6 6.6-.6 6.6-3 9-3.062-.25-3.062-.25-6-1-1.491-2.982-1.12-5.716-1-9z"/><path fill="#e1e1e1" d="M136 233c2 3 2 3 2 7l10-1c-.312 2.875-.312 2.875-1 6-3.47 2.313-4.922 2.425-9 2-1.875-1.062-1.875-1.062-3-3-.28-3.856-.182-7.305 1-11"/><path fill="#eee" d="M170 236c2.164-.293 2.164-.293 4.625-.187l2.477.082L179 236c-.292 3.502-.783 4.783-3.312 7.313C173 245 173 245 169 245c-.625-2.812-.625-2.812-1-6z"/><path fill="#f9f9f9" d="M194 236v10c-3.375.125-3.375.125-7 0l-2-2c.063-2.437.063-2.437 1-5 2.895-2.21 4.332-3 8-3"/><path fill="#e6e6e6" d="M162 239v4c-3.088 1.765-4.233 2-8 2 .375-2.437.375-2.437 1-5 2.463-1.231 4.28-1.072 7-1"/><path fill="#e7e7e7" d="M351 243h3v6h-5c.875-4.875.875-4.875 2-6"/><path fill="#eee" d="M337 240h2c-1.477 4.677-1.477 4.677-4.125 6.313L333 247a56.5 56.5 0 0 1 4-7"/></svg>