<svg xmlns="http://www.w3.org/2000/svg" width="475" height="159"><path fill="#f66861" d="M72 25c2.97 1.51 5.83 3.164 8.688 4.875l2.337 1.355c5.72 3.387 5.72 3.387 7.975 6.77.24 1.917.24 1.917.227 4.104v2.487l-.032 2.67-.008 2.746c-.011 2.893-.037 5.787-.062 8.68q-.016 2.943-.027 5.885A3648 3648 0 0 1 91 79c9.12-3.593 9.12-3.593 15.04-10.687.094-3.009-.12-5.826-.478-8.813-.433-10.147-.433-10.147 1.57-13.259 3.425-3.08 7.632-4.599 11.868-6.241a103 103 0 0 0 4.563-3.062C127 35 127 35 128.933 35.227c4.174 1.561 7.917 3.969 11.755 6.21l2.666 1.526 2.533 1.47 2.319 1.346C150 47 150 47 151 49c2.732 19.674 2.732 19.674-1.167 25.849-3.863 3.584-8.924 5.185-13.84 6.817-2.282.85-2.282.85-4.993 3.334-.52 3.69-.003 7.3.313 11 .203 10.1.203 10.1-2.954 14.056-4.659 3.761-10.032 6.12-15.47 8.542-3.006 1.459-5.69 3.138-8.467 4.992l-2.751 1.788a190 190 0 0 0-5.162 3.496c-2.583 1.593-4.517 2.59-7.509 3.126-4.474-1.235-8.098-3.535-12-6a1808 1808 0 0 0-6.176-3.508 1885 1885 0 0 1-6.136-3.617l-6.176-3.633-2.705-1.598A942 942 0 0 0 46 108q-.176-13.782-.26-27.565c-.025-4.266-.06-8.532-.117-12.799a1230 1230 0 0 1-.097-12.352q-.015-2.355-.055-4.712c-.036-2.2-.04-4.4-.039-6.6l-.033-3.796C46 37 46 37 48.413 34.646L51 33l1.957-1.296A490 490 0 0 1 59 28.187l2.117-1.271C67.65 23.176 67.65 23.176 72 25m-12.187 8-1.983 1.156A959 959 0 0 0 53 37c4.597 4.856 9.257 8.857 16 10 5.625-1.715 10.38-5.478 15-9-2.919-2.255-5.915-4.265-9.062-6.187l-2.598-1.606c-4.98-2.568-8.195.22-12.528 2.793M121 43.875l-1.984 1.105C115.4 46.862 115.4 46.862 113 50a378 378 0 0 0 6.625 4.125l1.871 1.207c3.184 1.91 4.922 2.774 8.629 2.098 2.814-1.4 5.556-2.812 8.25-4.43l2.648-1.562L143 50v-2a3882 3882 0 0 0-6.937-4l-1.999-1.156c-6.146-3.53-7.122-2.35-13.064 1.031M50 42a816 816 0 0 0-.984 24.073 354 354 0 0 1-.45 11.18c-1.554 15.83-1.554 15.83 3.222 30.132 4.414 3.768 9.31 5.83 14.757 7.683 3.99 1.515 7.451 3.805 11.017 6.12 3.94 2.748 3.94 2.748 8.438 3.812 1.12-5.956 2.241-12.195 0-18-2.88-2.218-6.164-3.32-9.523-4.656-8.593-4.172-8.593-4.172-10.448-8.73-1.188-6.884-.455-13.887.159-20.802C68.043 60 68.043 60 64.653 48.237 60.686 44.89 55.28 42 50 42m27.438 3.938-1.827 1.13C72.647 48.824 72.647 48.824 70 51a246 246 0 0 0-.098 8.848l.005 2.686c.005 2.843.018 5.686.03 8.529q.008 2.883.014 5.767.017 7.085.049 14.17c5.536-2.215 10.765-5.145 16-8V42c-3.319 0-5.825 2.214-8.562 3.938M110 53a440 440 0 0 0-.25 7.75l-.102 2.21c-.062 3.428-.01 5.546 2.047 8.353 2.423 1.773 4.845 3.409 7.43 4.937l2.633 1.578c2.116 1.326 2.116 1.326 4.242 1.172V61l-6.875-4-2.16-1.266c-3.268-2.047-3.268-2.047-6.965-2.734m21.456 7.264c-3.295 3.929-2.559 8.956-2.218 13.79.2 1.988.474 3.969.762 5.946q2.595-1.405 5.188-2.812l2.917-1.583L141 74l2.844-1.125c2.308-1.623 2.308-1.623 2.546-3.798.104-2.44.045-4.825-.077-7.264l-.069-2.561A356 356 0 0 0 146 53c-4.671 0-10.982 4.445-14.544 7.264m-29.003 16.607-2.04 1.23-2.163 1.337q-2.27 1.37-4.543 2.738l-2.345 1.416c-3.77 2.247-7.594 4.393-11.424 6.533l-2.11 1.181A3566 3566 0 0 1 73 94v2c4.688 4.309 9.417 7.897 16 8 9.099-3.022 17.144-8.738 25.055-14.041 3.24-2.156 6.531-4.094 9.945-5.959-2.473-2.773-5.193-4.405-8.437-6.187l-2.872-1.606c-3.996-1.792-6.623-1.554-10.238.664m17.11 13.504c-6.359 3.98-12.878 7.63-19.469 11.21a274 274 0 0 0-4.287 2.393 92 92 0 0 1-4.319 2.272c-2.57 3.022-1.9 6.629-1.738 10.438l.055 2.416c.047 1.966.119 3.93.195 5.896 4.405-1.329 8.156-3.064 12.133-5.371l3.441-1.99 1.767-1.034q2.675-1.561 5.358-3.107c6.987-3.775 6.987-3.775 13.301-8.498.547-2.016.547-2.016.39-4.23l-.038-2.432-.102-2.525-.055-2.561A444 444 0 0 0 126 87c-2.184 0-4.708 2.282-6.437 3.375"/><path fill="#f67670" d="M72 25c2.977 1.496 5.83 3.164 8.688 4.875l2.337 1.355c5.72 3.387 5.72 3.387 7.975 6.77.24 1.917.24 1.917.227 4.104v2.487l-.032 2.67-.008 2.746c-.011 2.893-.037 5.787-.062 8.68q-.016 2.943-.027 5.885A3648 3648 0 0 1 91 79l2.476-1.551 3.258-1.984 3.226-1.989c3.06-1.486 4.115-1.893 7.29-.913L110 74l-1.774.869a101 101 0 0 0-5.843 3.233l-2.07 1.225-2.188 1.298c-5.678 3.35-11.356 6.7-17.062 10l-3.403 1.977C75 94 75 94 73 94v2l2.563.75C79.384 98.14 82.519 99.911 86 102v5c-4.363-1.59-8.248-3.742-12.25-6.062l-1.93-1.104C67.14 97.141 67.14 97.141 66 96a65 65 0 0 1-.114-4.336v-2.79l.016-3.034.005-3.09c.005-3.27.018-6.542.03-9.812l.014-6.635Q65.968 58.15 66 50l-5-2-11-6v63c-3.584-3.584-3.396-4.415-3.483-9.304l-.088-3.945a1848 1848 0 0 1-.038-4.27l-.052-4.384q-.046-4.596-.06-9.192a667 667 0 0 0-.174-11.752 536 536 0 0 1-.076-9.057q-.014-2.165-.072-4.33c-.287-11.283-.287-11.283 3.004-14.953C51.254 32.265 53.469 31.105 56 30l3.11-1.934 2.64-1.503 2.672-1.56C67.657 23.745 68.727 23.838 72 25m-12.187 8-1.983 1.156A959 959 0 0 0 53 37c4.597 4.856 9.257 8.857 16 10 5.625-1.715 10.38-5.478 15-9-2.919-2.255-5.915-4.265-9.062-6.187l-2.598-1.606c-4.98-2.568-8.195.22-12.528 2.793m17.624 12.938-1.826 1.13C72.647 48.824 72.647 48.824 70 51a246 246 0 0 0-.098 8.848l.005 2.686c.005 2.843.018 5.686.03 8.529q.008 2.883.014 5.767.017 7.085.049 14.17c5.536-2.215 10.765-5.145 16-8V42c-3.319 0-5.825 2.214-8.562 3.938"/><path fill="#f9483e" d="M248.625 69.5 251 71l1-2h10v38h-10l-1-3-1.812 1.438c-3.988 2.847-7.403 2.881-12.188 2.562-6.61-2.28-11.191-4.898-14.312-11.25-2.618-6.5-2.497-12.347.195-18.86 5.505-9.316 15.95-12.442 25.742-8.39M232 82c-1.614 3.229-1.596 6.51-1 10 1.736 3.025 3.836 5.418 7 7 4.08.385 6.29.441 9.813-1.75 2.587-2.661 4.077-4.675 4.34-8.434-.385-4.03-.9-6.43-3.153-9.879-3.532-2.28-5.705-2.658-9.844-2.437-3.45.8-5.065 2.756-7.156 5.5"/><path fill="#fa4d43" d="M320.125 69.5 322 71l1-2h10v38c-6 1-6 1-8.437-.625L322 105c-1.677.723-3.351 1.457-4.984 2.273-4.726 1.704-9.74.637-14.293-1.183-5.255-2.887-7.923-6.404-9.723-12.09-1.589-6.312-1.12-11.27 2-17 5.378-8.675 15.882-11.937 25.125-7.5M305 78.938c-2.609 3.994-3.302 7.316-3 12.062 1.523 3.688 3.455 6.13 7 8 4.961.541 8.068.145 12-3 2.328-2.993 2.412-6.232 2.328-9.965-.536-3.327-2.216-5.489-4.328-8.035-4.662-2.33-9.731-1.82-14 .938"/><path fill="#fa746c" d="M404.813 69.625c4.756 3.544 8.674 7.46 10.187 13.375v9h-29c2.652 4.963 2.652 4.963 7 7 6.07.331 10.314-1.275 15-5l6 5c-3.382 5.534-8.003 7.268-14 9-5.665.696-10.966-.306-16-3-4.378-3.92-7.65-7.633-8.273-13.637-.24-7.2.44-11.882 5.273-17.363 6.433-6.111 15.564-8.707 23.813-4.375M386 82v2h19c-.451-4.888-.451-4.888-3.062-6.812C394.473 74.17 390.332 75.23 386 82"/><path fill="#fc2a1c" d="M193 50h10v48h17l1 8c-5.523 1.858-10.38 2.307-16.187 2.25l-2.405.023-2.326-.007-2.087-.007C196 108 196 108 192 106z"/><path fill="#fa5045" d="m339.066 68.902 2.497.035 2.503.028L346 69a704 704 0 0 1 10 25c2.321-2.321 2.989-4.17 4.164-7.227l1.211-3.125 1.25-3.273 1.273-3.297Q365.456 73.042 367 69h10c-2.361 8.43-5.446 16.504-8.687 24.625l-1.55 3.91Q364.888 102.27 363 107h-12c-3.648-6.895-6.428-14.023-9.187-21.312l-1.366-3.573C337.201 73.602 337.201 73.602 336 70c1-1 1-1 3.066-1.098"/><path fill="#f7726a" d="M128.933 35.227c4.174 1.561 7.917 3.969 11.754 6.21l2.667 1.526 2.533 1.47 2.319 1.346C150 47 150 47 151 49c2.741 19.74 2.741 19.74-1.2 25.865-3.417 3.134-7.47 4.576-11.8 6.135l-2.8 1.73L133 84c-2-1-2-1-3-4q3.187-1.97 6.375-3.937l1.828-1.131c4.57-2.819 4.57-2.819 6.797-3.932V52h3l-1-5-2 1v2h-2v-2l-2.223-.805C138 46 138 46 135.817 44.43c-2.706-1.867-4.555-2.87-7.817-3.43-5.166 1.577-9.64 4.903-14 8l1 2-5 2c.087 2.606.194 5.208.312 7.813l.069 2.236c.161 4.074.161 4.074 1.775 7.732a142 142 0 0 0 8.031 4.907L126 79V61h1c.087 3.083.14 6.166.187 9.25l.077 2.645.029 2.558.048 2.349C127 80 127 80 124 84l-14-8v-2l-5-1c-1.142-21.613-1.142-21.613 2.194-26.889 3.372-3.125 7.559-4.553 11.806-6.111a94 94 0 0 0 4.562-3.062C127 35 127 35 128.932 35.227"/><path fill="#fc5045" d="M419 50h10v57h-10z"/><path fill="#f93a2f" d="M324 70h8v36h-11l-2.5 1.063c-4.598 1.231-8.879 1.122-13.5-.063-1.8-1.55-1.8-1.55-3-3l2-1 3 1-1-3c3.215-1.607 6.436-1.057 10-1v-2l1.875-.75c2.644-1.556 3.202-2.326 4.125-5.25.432-6.262-.601-11.905-2-18l4 1z"/><path fill="#fa4136" d="M268 69h24c1 2 1 2 1 9h-16l.254 6.09.228 5.818q.08 2.027.166 4.054.122 2.907.23 5.815l.144 3.54C278 106 278 106 277 107h-9z"/><path fill="#fb4a3e" d="M252 69h10v38h-10l-1-3-1 1c-2 .04-4 .043-6 0 2.625-4.875 2.625-4.875 6-6 1.808-4.74 1.94-11.206.328-15.996l-.828-1.754c-1.574-3.41-1.77-5.549-1.5-9.25l4 1z"/><path fill="#fa271b" d="M403.07 68.754c3.979 2.196 7.94 4.662 9.614 9.031C413.989 82.457 414 85.92 414 91h-29l-1 4-1-6h4l-1-3c1-1 1-1 2.858-1.114l2.396.016 2.588.01 2.72.025 2.733.014q3.353.018 6.705.049l-1.812-3.437-1.02-1.934C402.01 77.677 402.01 77.677 399 77v-2h-2.3C385 75 385 75 383 74c5.614-5.918 12.032-8.173 20.07-5.246"/><path fill="#f67d77" d="m144 47 5 1v23h-1V52h-3v2l-14 8v22h-2v23l-2-1V86l-5 1 2-1c.658-3.03.658-3.03 1-6h2V61l-5-1c-2.676-1.41-2.676-1.41-5.312-3.062l-2.676-1.66L112 54l1-3c4.157.312 6.663 1.326 10 3.688 3.179 2.125 3.179 2.125 7 1.937a96 96 0 0 0 9.07-5.602C141 50 141 50 145 50z"/><path fill="#f89490" d="m129 84 2 1c.899 7.653 1.54 15.609-1 23-4.309 5.345-10.943 7.88-17.072 10.62-5.033 2.372-9.725 5.33-14.49 8.192a407 407 0 0 1-5.254 3.083l-2.233 1.307C89 132 89 132 86 131l-1-5h2v-19h3v18c5.913-3.207 5.913-3.207 11.792-6.475 4.232-2.381 8.414-4.67 12.876-6.591 4.176-1.91 7.191-3.505 10.332-6.934 1.73-6.23.867-12.69 0-19h2l1 20z"/><path fill="#f57772" d="M127 35c5.06.715 9.357 3.907 13.688 6.438l2.666 1.525 2.533 1.47 2.319 1.346C150 47 150 47 151 49c2.741 19.74 2.741 19.74-1.2 25.865-3.417 3.134-7.47 4.576-11.8 6.135l-2.8 1.73L133 84c-2-1-2-1-3-4q3.187-1.97 6.375-3.937l1.828-1.131c4.57-2.819 4.57-2.819 6.797-3.932V52h3l-1-5-2 1v2h-2v-2l-2.176-.84c-2.744-1.127-5.366-2.382-8.012-3.722l-2.605-1.317L128 41l-2-1 3-1v-2l-5 1c1.25-1.562 1.25-1.562 3-3"/><path fill="#f85046" d="M407 94c3 1.813 3 1.813 6 4v3c-4.607 4.607-10.058 6.68-16.437 7.375-6.115-.644-11.544-1.672-15.625-6.562L379 99c1.125-1.5 1.125-1.5 3-3 3.533-.46 5.328-.454 8.313 1.563 3.98 2.128 7.405 1.614 11.687.437 3.006-1.882 3.006-1.882 5-4"/><path fill="#f8817b" d="M193 50h10v48h17l1 8c-5.523 1.858-10.38 2.307-16.187 2.25l-2.405.023-2.326-.007-2.087-.007C196 108 196 108 192 106zm2 1v54h23v-5h-16V51z"/><path fill="#ee4641" d="M49 34h4l.059 1.734c1.49 3.589 4.716 4.78 8.004 6.516l2.01 1.102c1.635.894 3.28 1.773 4.927 2.648l-2 2c-6.841-.14-9.458-2.366-16-6v63c-3-3-3-3-3.374-5.853l.002-3.514-.02-3.984.029-4.31-.002-4.411q0-4.622.029-9.243c.023-3.953.023-7.907.016-11.86q-.002-4.554.013-9.108.006-2.187.004-4.374c0-2.035.014-4.07.028-6.105l.014-3.512C47 36 47 36 49 34"/><path fill="#f7a09c" d="M84 37c1.922 1.602 2.908 2.489 3.36 4.993l-.02 2.295v2.608l-.047 2.803-.013 2.88c-.017 3.036-.054 6.072-.093 9.109q-.022 3.086-.04 6.173Q87.093 75.431 87 83h-1V42c-14.707 6.708-14.707 6.708-16.795 13.785-.094 2.503-.094 2.503.111 5.063l-.003 2.719c.013 2.838.13 5.66.25 8.496q.04 2.901.06 5.802c.047 4.717.187 9.422.377 14.135h-1V48h-2v48h-1V50l-3-1c2.873-1.915 5.71-3.369 8.813-4.875C76.116 41.997 80.112 39.808 84 37"/><path fill="#fa392d" d="m339.066 68.902 2.497.035 2.503.028L346 69c2.15 3.532 2.38 6.663 2.625 10.75l.227 3.547L349 86l3 1c1.25 2.375 1.25 2.375 2 5l-1 3c-2.562 1.188-2.562 1.188-5 2l-3-9h-2l-7-18c1-1 1-1 3.066-1.098"/><path fill="#f9463b" d="M403.07 68.754c3.473 1.917 6.298 4.298 8.93 7.246l-1 2h-6l-1 3-2-3-3-1v-2h-2.3C385 75 385 75 383 74c5.614-5.918 12.032-8.173 20.07-5.246"/><path fill="#f7756f" d="M69.469 23.906c3.983 1.721 7.643 3.901 11.344 6.157l2.388 1.431Q86.106 33.237 89 35l-3 2v-2h-2v2c-4.679-1.287-8.094-3.258-11.973-6.074C69.23 29.648 67.916 30.08 65 31a136 136 0 0 0-6.312 3.063c-1.07.547-2.138 1.095-3.239 1.66L53 37v-3l-2-1a707 707 0 0 1 7.688-4.562l2.185-1.327c5.312-3.08 5.312-3.08 8.596-3.205"/><path fill="#f42c21" d="m84 35 7 2q-.177 9.317-.372 18.634-.065 3.17-.125 6.34-.088 4.555-.187 9.108l-.05 2.87-.06 2.668-.048 2.349C90 81 90 81 89 84l-3-1 1-43-3-1z"/><path fill="#fd8b85" d="M46 37h1l1 6h1l1 64h2v2l-6-1z"/><path fill="#f9928c" d="M317 69c2.625.938 2.625.938 5 2l1-2h10v38c-6 1-6 1-9-1h8V70h-8v5l-4-1 1 6-1.715-.992c-2.514-1.11-4.121-1.216-6.848-1.133l-2.316.055L308 78h-3l1-3 6 1 1-3h2v-3z"/><path fill="#f71f12" d="m125 59 4 2 .06 1.697c.095 2.539.205 5.077.315 7.615.03.882.062 1.763.094 2.67l.117 2.569.095 2.364c.215 2.387.215 2.387 2.319 5.085l-3 1v23l-2-1V86l-5 1 2-1c.658-3.03.658-3.03 1-6h2q-.21-4.687-.437-9.375l-.12-2.695-.127-2.578-.11-2.38c-.097-2.047-.097-2.047-1.206-3.972"/><path fill="#f67c75" d="m124 84 1 4c-19.369 12-19.369 12-22 12v-3l-2-1c3.454-2.007 6.914-4.004 10.375-6l2.984-1.734 2.852-1.641 2.634-1.523C122 84 122 84 124 84"/><path fill="#f92012" d="M67 48h2v44h3v4h-5z"/><path fill="#f9453a" d="m312.188 67.938 2.73.027L317 68v2h-2v3c-1.125 1.75-1.125 1.75-3 3-3.187-.312-3.187-.312-6-1l-.375 2.938L305 81l-2 1v-3h-2c-.364-4.252.439-6.585 3-10 3.015-1.005 5.042-1.103 8.188-1.062"/><path fill="#f9a29e" d="M145 52h2v24l-6.875 4.063-2.16 1.293c-1.621.942-3.293 1.796-4.965 2.644-2-1-2-1-3-4q3.187-1.97 6.375-3.937l1.828-1.131c4.57-2.819 4.57-2.819 6.797-3.932z"/><path fill="#f43a30" d="M87 107h3v20h3v3l-5 2c-1.5-1.312-1.5-1.312-3-3v-3h2z"/><path fill="#f5726b" d="M126 61h1c.087 3.083.14 6.166.188 9.25l.076 2.645.029 2.558.048 2.349C127 80 127 80 124 84l-14-8 3-1-1-3c4.985 1.769 9.412 4.398 14 7z"/><path fill="#f85d54" d="m339.066 68.902 2.497.035 2.503.028L346 69l2 6-2.875 1.875c-3.07 1.945-3.07 1.945-5.125 4.125l-4-11c1-1 1-1 3.066-1.098"/><path fill="#f93428" d="M407 94c3 1.813 3 1.813 6 4v3c-2.633 2.42-4.594 3.865-8 5v-2l-4-1z"/><path fill="#f6635b" d="M107 118c-.121 1.766-.121 1.766-1 4-2.723 1.922-2.723 1.922-6.062 3.75l-3.348 1.86L94 129l-1-2h-3v-2a793 793 0 0 1 6.25-3.5l1.777-1.012c3.359-1.849 5.04-2.488 8.973-2.488"/><path fill="#f61c0f" d="M47 37h2c1.125 3.75 1.125 3.75 0 6a116 116 0 0 0-.205 5.643l-.06 3.58-.051 3.879-.063 3.96q-.082 5.213-.153 10.425-.077 5.319-.161 10.638Q48.145 91.563 48 102h-1z"/><path fill="#f66d66" d="m50 105 16 8-2 1 1 4c-3.699-1.373-6.951-3.064-10.312-5.125l-2.676-1.633L50 110l2-1v-2h-2z"/><path fill="#f86057" d="M367 69h10l-2 7-3.312-.562c-3.624-.696-3.624-.696-6.688.562z"/><path fill="#f45b53" d="M54 39c4.972 1.764 9.434 4.394 14 7l-2 2c-5.205-.196-8.393-1.175-12-5z"/><path fill="#f82e21" d="m144 47 5 1v23h-1V52h-3v2l-3 1v-4l3-1z"/><path fill="#f67871" d="M140 75v2l3 1a546 546 0 0 1-4.875 3.063l-2.742 1.722L133 84c-2-1-2-1-3-4q1.932-1.257 3.875-2.5l2.18-1.406C138 75 138 75 140 75"/><path fill="#f77c76" d="m141 50 2 1c-.062 2.25-.062 2.25-1 5-2.657 2.09-5.536 4-9 4v-3l-2-1a546 546 0 0 1 4.875-3.062l2.742-1.723z"/><path fill="#f5574f" d="M49 34h4l3 9-6-1-1 2v-7l-2-1z"/><path fill="#f77e78" d="m110 74-1.625.75c-2.94 1.547-5.633 3.38-8.375 5.25-2-1-2-1-4-4 5.535-3.84 7.726-4.56 14-2"/><path fill="#fb2619" d="M351 87c1.945 2.918 2.453 4.625 3 8l-6 2-2-7z"/><path fill="#fac3c1" d="M86 107h1v19h-2l1 4-5-2 2-1v-2h-3l-1-3c4.75 1.875 4.75 1.875 7 3z"/><path fill="#f82619" d="m312.625 99.938 2.477.027L317 100l-1.922.867c-2.494 1.36-3.042 2.544-4.078 5.133-6.152-.586-6.152-.586-8-1l-1-2 5 1-1-3c2.405-1.203 3.95-1.1 6.625-1.062"/><path fill="#faa9a4" d="M126 61h1c.087 3.083.14 6.166.188 9.25l.076 2.645c.074 6.521.074 6.521-1.776 9.714-.49.46-.982.918-1.488 1.391-2.5-1.312-2.5-1.312-5-3v-3l7 1z"/><path fill="#f5514a" d="M109 57h1l.148 2.16c.433 5.545 1.092 10.56 2.852 15.84l-5-1z"/><path fill="#f67b75" d="M79 99c4.75 1.875 4.75 1.875 7 3v5c-3.594-1.335-6.755-2.96-10-5z"/><path fill="#f77e78" d="m124 84 1 4-6 4c-2-1-2-1-4-4 6.75-4 6.75-4 9-4"/><path fill="#f2514a" d="M133 57v4l-2 1-1 18h-1l-.076-1.712q-.176-3.832-.362-7.663l-.119-2.695-.127-2.578-.11-2.38c-.097-2.047-.097-2.047-1.206-3.972 3.75-2 3.75-2 6-2"/><path fill="#f6554c" d="M129 37v2c-3.115 2.848-6.013 4.633-10 6l-1-3h3l1-4c2.49-.687 4.379-1 7-1"/><path fill="#f6847f" d="M348 75c2.082 3.122 3.326 6.07 4.688 9.563l1.386 3.503C355 91 355 91 354 93c-2-3-2-3-2-6h-4z"/><path fill="#f7635a" d="M406 73c1.875.25 1.875.25 4 1 1.25 2.063 1.25 2.063 2 4h-7l-1 3-2-3-3-2h6z"/><path fill="#f15e5a" d="m129 84 2 1-1 23-4 1v-3h2z"/><path fill="#f8918c" d="M251 91c1 2.698 1.036 3.88.188 6.688C250 100 250 100 248 101v-2l-2 1c-2.672.134-5.323.043-8 0v-1l1.828-.227c4.76-.679 4.76-.679 8.66-3.242C249.707 93.72 249.707 93.72 251 91"/><path fill="#f56861" d="M72 25v2c-3.508 1.604-6.144 2.22-10 2 1-3 1-3 2.75-4.25 2.777-.926 4.466-.523 7.25.25"/><path fill="#f7847e" d="m96 122 2 1-1 2 2 1-6 3v-2h-3v-2a101 101 0 0 1 6-3"/><path fill="#f7908b" d="M407 94c3 1.813 3 1.813 6 4 0 3 0 3-1.5 4.688L410 104l-2-1 1-3 2-1-6-2z"/><path fill="#f77d76" d="M79 29c-1.687 1.625-1.687 1.625-4 3-3.17-.85-5.256-2.17-8-4 4.935-2.841 7.254-1.42 12 1"/><path fill="#f65951" d="m94 77 5 1c-1 3-1 3-2.812 4.25-2.527.866-3.71.635-6.188-.25z"/><path fill="#f7908c" d="m59 110 7 3-2 1 1 4c-3.375-1.186-5.647-2.276-8-5l4 1v-2h-2z"/><path fill="#f7a4a1" d="M128.938 35.125c2.335.99 4.107 2.269 6.062 3.875l-3 1v-2h-2l1 3h-5l1-2h2v-2l-5 1c2.43-3.037 2.43-3.037 4.938-2.875"/><path fill="#f65149" d="m74 121 6 2v2h3v2c-3.735-.498-5.812-.875-9-3z"/><path fill="#f77f78" d="M72 118c2.915 1.074 4.778 1.778 7 4l-3 1v-2h-2v2l-5-2z"/><path fill="#f6534b" d="M71 97c5.75-.125 5.75-.125 8 1l-1 4c-2.937-.812-2.937-.812-6-2z"/><path fill="#f88e88" d="M54 39c3.46 1.25 6.147 2.675 9 5-2.49.687-4.379 1-7 1l-2-2z"/><path fill="#f5362c" d="M111 46c1.6 4.002.293 7.046-1 11h-1l-2-10z"/><path fill="#f69c98" d="M221 84h1c1.317 5.006 2.358 9.865 3 15-4.039-5.092-4.103-8.713-4-15"/><path fill="#f74a40" d="m119 110 1 4-7 1 2-1v-3z"/><path fill="#f87c75" d="m229 71 2 1c-.687 2.438-.687 2.438-2 5-2.625.813-2.625.813-5 1 1.293-2.884 2.66-4.872 5-7"/><path fill="#f5584f" d="m113 89 5 1-1 3h-5z"/><path fill="#f56b66" d="m121 40-2 5h-5c1-3 1-3 2.938-4.187C119 40 119 40 121 40"/><path fill="#f7908b" d="M112 72c2.915 1.074 4.778 1.778 7 4-3 1-3 1-7 1l-2-2h3z"/><path fill="#f55850" d="m113 51 6 1v2c-3.133 1.044-3.99.934-7 0z"/><path fill="#f3261c" d="m353 101 2 3c2.563.73 2.563.73 5 1v1h-9v-3h2z"/><path fill="#f62d22" d="M125 80h2l1 5-3 2-3-1h2z"/></svg>