<svg xmlns="http://www.w3.org/2000/svg" width="344" height="344" style="shape-rendering:geometricPrecision;text-rendering:geometricPrecision;image-rendering:optimizeQuality;fill-rule:evenodd;clip-rule:evenodd"><path fill="#10d4a3" d="M191.5 23.5q6.163 12.573-.5 25a25 25 0 0 1-4.5 4q.098-.658-.5-1-9.713 8.168-21.5 4-.91.186-1 1-7.487-2.002-11-9 .657.098 1-.5-10.338-22.3 12-32 10.072-1.872 19 3 2.912 3.68 7 5.5" style="opacity:1"/><path fill="#7ce7cc" d="M191.5 23.5q-4.088-1.82-7-5.5-8.928-4.872-19-3-22.338 9.7-12 32-.343.598-1 .5-10.382-18.65 7-31.5 19.097-9.382 32 7.5" style="opacity:1"/><path fill="#81e8cf" d="M129.5 40.5a136 136 0 0 0-11-7.5q-10.916-3.459-21 2-6.325 5.517-10 12.5 7.878-21.189 30-16.5 7.577 2.833 12 9.5" style="opacity:1"/><path fill="#17d5a4" d="M129.5 40.5q2.978 3.93 3 9-2 4 0 8-6.414 20.631-28 17.5-19.81-6.594-17-27.5 3.675-6.983 10-12.5 10.084-5.459 21-2a136 136 0 0 1 11 7.5" style="opacity:1"/><path fill="#10d4a3" d="M253.5 41.5q2.326 3.62 2 8-.834 7.043-3.5 14-4.619 6.363-10.5 11-21.474 5.137-30.5-15a72.4 72.4 0 0 1-.5-12 383 383 0 0 1 9-11.5q-.343-.598-1-.5 1.185-1.352 3-2-.098.657.5 1 11.848-6.192 23.5.5 3.406 4.173 8 6.5" style="opacity:1"/><path fill="#78e6cb" d="M253.5 41.5q-4.594-2.327-8-6.5-11.652-6.692-23.5-.5-.598-.343-.5-1 19.227-9.94 32 8" style="opacity:1"/><path fill="#8ae9d1" d="M218.5 35.5q.657-.098 1 .5a383 383 0 0 0-9 11.5q1.773-7.563 8-12" style="opacity:1"/><path fill="#93ead7" d="M132.5 49.5q2 4 0 8-2-4 0-8" style="opacity:1"/><path fill="#6de5c6" d="M186.5 52.5q-10.286 9.177-23 4 .09-.814 1-1 11.787 4.168 21.5-4 .598.342.5 1" style="opacity:1"/><path fill="#7be7ca" d="M180.5 63.5a697 697 0 0 1-22 2q-1.839-.03-3-1 7.648-2.105 16-2 4.779.003 9 1" style="opacity:1"/><path fill="#0dd4a3" d="M180.5 63.5a56 56 0 0 1 19 4q8.79 6.924 19 12.5 10.477 9.712 19 20.5 9.841 16.035 10 35-2 4 0 8a71.3 71.3 0 0 1-4 22q-1.314-.197-2 1-4.178 10.118-11 18.5.343.598 1 .5a1527 1527 0 0 0-5 6q.098-.657-.5-1a1174 1174 0 0 1-19.5 16q-31.896 14.535-65 2.5-14.376-5.646-24-17.5a3788 3788 0 0 0-15-20q-11.467-26.763-4-55 5.951-12.117 14-23.5-.342-.598-1-.5a311 311 0 0 1 3-4q-.098.658.5 1l7.5-7.5q-.342-.598-1-.5a302 302 0 0 1 4-3q5.083-1.315 10-5.5 8.265-3.278 16.5-6.5 1.545-.504 1.5-2h2q1.161.97 3 1a697 697 0 0 0 22-2" style="opacity:1"/><path fill="#7be7ca" d="M153.5 64.5q.045 1.496-1.5 2-8.235 3.222-16.5 6.5-4.917 4.185-10 5.5 12.267-10.133 28-14" style="opacity:1"/><path fill="#90ead4" d="M255.5 49.5q2.11 17.258-14 25 5.881-4.637 10.5-11 2.666-6.957 3.5-14" style="opacity:1"/><path fill="#7ae7cb" d="M199.5 67.5q24.585 10.087 38 33-8.523-10.788-19-20.5-10.21-5.576-19-12.5" style="opacity:1"/><path fill="#adefe0" d="M121.5 81.5q.658-.098 1 .5l-7.5 7.5q-.598-.342-.5-1 3-4 7-7" style="opacity:1"/><path fill="#f8f9f9" d="M172.5 101.5h9a246 246 0 0 1 1 24 359 359 0 0 1 25-1v24q-11.53-.06-23 1v24a128 128 0 0 0-22 1 91.8 91.8 0 0 1-2-24l-24 1a169 169 0 0 1-1-24q11.513-.27 23-1v-24q7.295.479 14-1" style="opacity:1"/><path fill="#71e6c8" d="M111.5 92.5q.658-.098 1 .5-8.049 11.383-14 23.5 4.196-13.403 13-24" style="opacity:1"/><path fill="#b8eee4" d="M247.5 135.5q2 4 0 8-2-4 0-8" style="opacity:1"/><path fill="#79e7cc" d="M243.5 165.5q-4.513 11.048-12 20-.657.098-1-.5 6.822-8.382 11-18.5.686-1.197 2-1" style="opacity:1"/><path fill="#76e6c9" d="M102.5 171.5q7.466 9.885 15 20-9.672-8.332-15-20" style="opacity:1"/><path fill="#6fe5c6" d="M226.5 191.5a85.7 85.7 0 0 1-20 15 1174 1174 0 0 0 19.5-16q.598.343.5 1" style="opacity:1"/><path fill="#289da3" d="M6.5 233.5q6.402-.446 12.5 1l9 22a295 295 0 0 0 9-21l1.5-1.5a30.5 30.5 0 0 1 11 0 225 225 0 0 1 .5 36.5q-4 2-8 0l-1-19q-4.255 9.775-8.5 19.5-4.89 1.176-9.5-.5l-7-18-1 18q-4.105 1.665-8.5.5-1.986-18.75 0-37.5" style="opacity:1"/><path fill="#269da3" d="M69.5 252.5q1.496.045 2-1.5a34.4 34.4 0 0 1 3-7.5q-.186-.91-1-1a18.6 18.6 0 0 1 3-8.5q6.382-1.194 12.5.5 7.8 17.552 12 36-4.61 1.676-9.5.5-2.199-2.329-3-5.5-6-2-12 0-.801 3.171-3 5.5-4.5 1-9 0a3.94 3.94 0 0 1-1-2 360 360 0 0 1 6-16.5m17 3q-4 2-8 0a135 135 0 0 0 4.5-9q1.35 4.827 3.5 9" style="opacity:1"/><path fill="#16999f" d="M140.5 234.5q1.863 2.625 4.5 5 2.68 8.301-4.5 12.5 2.016 2.33 4 1.5 7.832 7.458 0 15.5l-4 2q-12.869 1.224-25.5-.5-1-18 0-36a82.7 82.7 0 0 1 25.5 0m-16 7a41 41 0 0 1 9 .5q6 3 0 6a41 41 0 0 1-9 .5zm11 15q2.477 4.602-2 7h-9v-8a39.7 39.7 0 0 1 11 1" style="opacity:1"/><path fill="#209ca1" d="M161.5 234.5q4.597-1.977 9.5 0a208 208 0 0 0 2 26q6.69 6.28 11-2 .274-12.368 1.5-24.5 4.89-1.176 9.5.5 1.385 15.111-1 30-2.86 5.308-8.5 7.5-13.464 3.529-22.5-6.5-1.878-3.77-1.5-8a66.6 66.6 0 0 0 0-23" style="opacity:1"/><path fill="#03969c" d="M210.5 234.5q4.597-1.977 9.5 0 .749 6.481.5 13h13a85 85 0 0 1 .5-13q4.106-1.665 8.5-.5a171.7 171.7 0 0 1 0 37q-4.394 1.165-8.5-.5a98.4 98.4 0 0 1-.5-14h-13a98.4 98.4 0 0 1-.5 14q-4.903 1.977-9.5 0 2-18 0-36" style="opacity:1"/><path fill="#2ea0a5" d="M269.5 233.5q6.4-.446 12.5 1a1063 1063 0 0 1 12.5 34.5 3.94 3.94 0 0 1-1 2q-4.5 1-9 0-2.199-2.329-3-5.5a24.55 24.55 0 0 0-12-.5 35.6 35.6 0 0 1-3 6q-4.89 1.176-9.5-.5a208.3 208.3 0 0 1 12.5-37m9 22q-3.873.712-6-2a86 86 0 0 0 2.5-7 29.6 29.6 0 0 1 3.5 9" style="opacity:1"/><path fill="#2e9fa5" d="M305.5 233.5q5.025-.247 10 .5a229 229 0 0 0 7 12.5 76.7 76.7 0 0 1 7-12.5q4.89-1.176 9.5.5 1 1.5 0 3l-11 20a99 99 0 0 1-1.5 13.5q-4.394 1.165-8.5-.5l-1-13a356 356 0 0 1-12.5-22q.544-1.025 1-2" style="opacity:1"/><path fill="#72c5c6" d="M161.5 234.5a66.6 66.6 0 0 1 0 23 66.6 66.6 0 0 1 0-23" style="opacity:1"/><path fill="#4fb5bb" d="M210.5 234.5q2 18 0 36-2-18 0-36" style="opacity:1"/><path fill="#87cbcc" d="M86.5 255.5q-2.15-4.173-3.5-9a135 135 0 0 1-4.5 9q-.658.098-1-.5a325 325 0 0 0 5-13.5 153 153 0 0 1 5 13q-.186.91-1 1" style="opacity:1"/><path fill="#87cccd" d="M73.5 242.5q.814.09 1 1a34.4 34.4 0 0 0-3 7.5q-.504 1.545-2 1.5 1.23-5.44 4-10" style="opacity:1"/><path fill="#7fc7c9" d="M140.5 234.5q8.793 3.586 6.5 13a11.5 11.5 0 0 1-3.5 4.5q.834.575 1 1.5-1.984.83-4-1.5 7.18-4.199 4.5-12.5-2.637-2.375-4.5-5" style="opacity:1"/><path fill="#b3e1de" d="M272.5 253.5q2.127 2.712 6 2 1.314-.197 2 1a25.9 25.9 0 0 1-10 1q-.514-2.975 2-4" style="opacity:1"/><path fill="#a3d9d9" d="M133.5 263.5q4.477-2.398 2-7 1.243-1.248 2.5 1 1.292 5.24-4 7-.598-.342-.5-1" style="opacity:1"/><path fill="#c2cecd" d="M161.5 294.5v1q-2.398.401-4-1 2-2 4 0" style="opacity:1"/><path fill="#5d5f60" d="M161.5 295.5v-1q5.492-.225 3 4.5-2.349 1.147-4-.5 1.663-1.185 4-1.5z" style="opacity:1"/><path fill="#171717" d="M71.5 299.5q-.658-.098-1 .5a288 288 0 0 0 5 12.5q3.882-8.114 5-16 .71-2.11 3-2 .05 4.048-2 7.5.342.598 1 .5v1q-1.496-.045-2 1.5a57 57 0 0 1-3 8q.342.598 1 .5.5 4.5-4 4a250 250 0 0 1-3.5-12q-1.005-1.129-2.5-1v-1q.692-4.022-2-8 4.81-1.745 5 4" style="opacity:1"/><path fill="#899191" d="M83.5 294.5q1.466.467 2 2-.954 3.42-3 6-.658.098-1-.5 2.05-3.452 2-7.5" style="opacity:1"/><path fill="#0c0c0c" d="M94.5 295.5q5.716-1.718 12-.5 2 1.5 0 3a32.5 32.5 0 0 1-8 .5v5q4.328-.46 8 1-2 1 0 2-3.672 1.46-8 1v6a32.5 32.5 0 0 1 8 .5q2 1.5 0 3-6.284 1.218-12-.5 2-10.5 0-21" style="opacity:1"/><path fill="#7c7c7c" d="M116.5 294.5q.356 1.937-1 3-1.823-1.918 1-3" style="opacity:1"/><path fill="#101010" d="M116.5 294.5a113 113 0 0 1 15 .5q2 1.5 0 3a12.9 12.9 0 0 1-5 .5q-.925-.166-1.5-1-1.23 9.77.5 19-1.562 1.937-3.5 0a163 163 0 0 1-.5-18q-3.352.442-6-1 1.356-1.063 1-3" style="opacity:1"/><path fill="#0b0b0b" d="M214.5 295.5q1.063-1.356 3-1 .255 4.056 4 5v1q2.364 6.097 7.5 12 .749-8.986.5-18 1.487-.258 2 1-1.965 10.351 0 21-1.651 1.647-4 .5-1.129-1.006-1-2.5-3.238-7.689-9.5-15-1.227 8.773.5 17-1.5 2-3 0 2-10.5 0-21" style="opacity:1"/><path fill="#181818" d="M246.5 294.5q-.488 11.278 1 22-1.562 1.937-3.5 0-1-10.5 0-21 1.006-1.129 2.5-1" style="opacity:1"/><path fill="#99b4b6" d="M273.5 294.5q3.827.252 2 3-2.11-.71-2-3" style="opacity:1"/><path fill="#575757" d="M94.5 295.5q2 10.5 0 21-2-10.5 0-21" style="opacity:1"/><path fill="#0d0d0d" d="M156.5 294.5h1q1.602 1.401 4 1l3 1.5q-2.337.315-4 1.5h-3q-3.807-.573-5.5 4-1.368 5.928 2 11 .598-.342.5-1h1q.316 2.886 2 1h4l3 3q-1.064 1.356-3 1-4.293-.948-8.5-3-.598.342-.5 1-1.5-.5-2-2 .657.098 1-.5-5.752-11.604 5-18.5" style="opacity:1"/><path fill="#090909" d="M176.5 294.5q1.494-.129 2.5 1 .749 8.986.5 18a41 41 0 0 1 9 .5q2 1.5 0 3-6.382 1.194-12.5-.5-1.194-11.12.5-22" style="opacity:1"/><path fill="#050505" d="M199.5 294.5q1.494-.129 2.5 1 1 10.5 0 21-1.5 2-3 0-1.194-11.12.5-22" style="opacity:1"/><path fill="#575757" d="M214.5 295.5q2 10.5 0 21-2-10.5 0-21" style="opacity:1"/><path fill="#6b6b6b" d="M229.5 294.5a163 163 0 0 1-.5 18q-5.136-5.903-7.5-12a59.4 59.4 0 0 1 5.5 7l1-12q.575-.834 1.5-1" style="opacity:1"/><path fill="#3d3d3d" d="M231.5 295.5q2 10.5 0 21-1.965-10.649 0-21" style="opacity:1"/><path fill="#646464" d="M246.5 294.5q.925.166 1.5 1 1.232 10.768-.5 21-1.488-10.722-1-22" style="opacity:1"/><path fill="#131313" d="M271.5 294.5h2q-.11 2.29 2 3-.549 1.792-2.5 2a13 13 0 0 0-5.5-1q-.09-.814-1-1-6.226 4.42-4.5 12 .574-.834 1.5-1v2q-.658-.098-1 .5l3 3q1.405 1.038 2-.5h4q1.144 1.152 3 1.5-1.129 1.006-1 2.5h-2q-2.128-1.426-5-1-5.045-2.559-8-7v-2q2-1.5 0-3v-3q2.625-1.863 5-4.5a147 147 0 0 1 8-2.5" style="opacity:1"/><path fill="#919595" d="M271.5 294.5a147 147 0 0 0-8 2.5q-2.375 2.637-5 4.5 4.017-8.752 13-7" style="opacity:1"/><path fill="#8d9090" d="M66.5 295.5q2.692 3.978 2 8-1.755-3.226-3-7 .186-.91 1-1" style="opacity:1"/><path fill="#646464" d="M126.5 298.5q.485 9.285-1 18-1.73-9.23-.5-19 .575.834 1.5 1" style="opacity:1"/><path fill="#7a7b7b" d="M217.5 294.5q3.064 1.619 4 5-3.745-.944-4-5" style="opacity:1"/><path fill="#999b9b" d="M157.5 298.5a30 30 0 0 0-3.5 3q-1.017 5.582.5 11 .098.658-.5 1-3.368-5.072-2-11 1.693-4.573 5.5-4" style="opacity:1"/><path fill="#656666" d="M226.5 314.5a80 80 0 0 1-7.5-10q-.264 6.282-1.5 12-1.727-8.227-.5-17 6.262 7.311 9.5 15" style="opacity:1"/><path fill="#7d7e7e" d="M82.5 303.5q-1.15 5.473-4 10-.658.098-1-.5a57 57 0 0 0 3-8q.504-1.545 2-1.5" style="opacity:1"/><path fill="#919191" d="M106.5 304.5q2 1 0 2-2-1 0-2" style="opacity:1"/><path fill="#8b8d8d" d="M156.5 294.5q-10.752 6.896-5 18.5-.343.598-1 .5-6.554-9.405 2-17.5a10.1 10.1 0 0 1 4-1.5" style="opacity:1"/><path fill="#7f8080" d="M267.5 298.5q-5.126 3.52-4 10-.926.166-1.5 1-1.726-7.58 4.5-12 .91.186 1 1" style="opacity:1"/><path fill="#c2d1cf" d="M258.5 304.5q2 1.5 0 3-2-1.5 0-3" style="opacity:1"/><path fill="#787c7c" d="M80.5 296.5q-1.118 7.886-5 16a288 288 0 0 1-5-12.5q.342-.598 1-.5a56 56 0 0 1 4 8q2.24-5.765 5-11" style="opacity:1"/><path fill="#9ba1a1" d="M263.5 310.5a309 309 0 0 1 4 3q-.595 1.538-2 .5l-3-3q.342-.598 1-.5" style="opacity:1"/><path fill="#a0b5b7" d="M155.5 312.5q1.487-.258 2 1-1.684 1.886-2-1" style="opacity:1"/><path fill="#7f8182" d="M273.5 317.5q-.129-1.494 1-2.5-1.856-.348-3-1.5 4.492-2.275 3.5 3-.574.834-1.5 1" style="opacity:1"/><path fill="#919fa0" d="m164.5 316.5-3-3q1.127-1.61 3-.5 1.936 1.938 0 3.5" style="opacity:1"/><path fill="#616161" d="M258.5 309.5q2.955 4.441 8 7v1q-6.446-1.446-8-8" style="opacity:1"/><path fill="#6f7070" d="M68.5 304.5q1.495-.129 2.5 1a250 250 0 0 0 3.5 12q-1.935-.837-2.5-3a176 176 0 0 0-3.5-10" style="opacity:1"/><path fill="#9ea7a7" d="M161.5 317.5q-5.074 2.083-9-2-.098-.658.5-1 4.207 2.052 8.5 3" style="opacity:1"/><path fill="#b8c4c4" d="M266.5 316.5q2.872-.426 5 1-2.5 2-5 0z" style="opacity:1"/></svg>