<svg xmlns="http://www.w3.org/2000/svg" width="24" height="24" fill="#d000a6cc" fill-rule="evenodd" stroke="#d000a6cc" class="medium-icon" clip-rule="evenodd" viewBox="0 0 24 24"><path d="m14.5 9.251-3.588 11.625a.885.885 0 0 1-1.652.1L4.185 9.59v7.586l2.232 2.893a.889.889 0 0 1-.7 1.429H.884a.889.889 0 0 1-.7-1.43l2.233-2.892V6.48L.294 4.57a.888.888 0 0 1 .59-1.547h6.73a.885.885 0 0 1 .852.544l3.562 7.694 2.505-8.117a.9.9 0 0 1 .262-.418.88.88 0 0 1 .589-.225h7.733a.888.888 0 0 1 .648 1.49l-2.18 2.355v11.31l2.18 2.355a.889.889 0 0 1-.648 1.49h-9.666a.889.889 0 0 1-.71-1.415L14.5 17.71zm1.768 8.752V4.273h4.822l-1.038 1.12a.9.9 0 0 0-.236.604v12.006c0 .224.085.44.236.603l1.038 1.12h-5.881l.885-1.194a.9.9 0 0 0 .174-.529Zm-5.07-4.325a1 1 0 0 0 .054.099l-1.335 4.326L4.59 6.156a.9.9 0 0 0-.216-.298L3.193 4.796h3.893zm-8.512 6.047.615-.796.614.796z"/></svg>