<svg xmlns="http://www.w3.org/2000/svg" width="1796" height="512" style="shape-rendering:geometricPrecision;text-rendering:geometricPrecision;image-rendering:optimizeQuality;fill-rule:evenodd;clip-rule:evenodd"><path fill="#57a84b" d="m108.5 2.5 2 6a1102 1102 0 0 1 4 68.5l-1 1q1.539 87.533 3 177a1683 1683 0 0 1-4 124.5 1103 1103 0 0 1-6.5 46 134 134 0 0 1-3 11q-.575.834-1.5 1l-19-16q0-3-3-3-69.654-64.393-80-159v-34q4.922-73.763 43-137 2.11-.71 2-3a330 330 0 0 1 24.5-34 788 788 0 0 1 34-33q4.987-7.212 5.5-16" style="opacity:1"/><path fill="#7db274" d="M111.5 6.5q-1.257.513-1 2l-2-6q-.16-2.818 1.5-1a43 43 0 0 1 1.5 5" style="opacity:1"/><path fill="#459c44" d="M111.5 6.5a162.5 162.5 0 0 0 17.5 30q94.285 90.104 94 221-7.282 109.088-92.5 176-8.695-4.457-11.5-14-6.45-20.338-6.5-40a1683 1683 0 0 0 4-124.5q-1.461-89.467-3-177l1-1a1102 1102 0 0 0-4-68.5q-.257-1.487 1-2" style="opacity:1"/><path fill="#87a676" d="M44.5 85.5q.11 2.29-2 3-.11-2.29 2-3" style="opacity:1"/><path fill="#886f4a" d="M1344.5 193.5c43.66.433 87.33.599 131 .5q78.375 7.395 97.5 83.5c9.51 75.186-22.32 122.019-95.5 140.5a187 187 0 0 1-22 3c-36.95.757-73.62.424-110-1-.71-5.13.62-9.797 4-14 5.78-.873 11.45-2.206 17-4 3.26-1.587 5.42-4.087 6.5-7.5 1.07-15.202 1.91-30.369 2.5-45.5q-1.545-50.15 0-102a285 285 0 0 1-1.5-23.5c-1.5-6.675-5.66-10.509-12.5-11.5a206 206 0 0 0-23-3.5q1.245-8.232 6-15m67 184v-157c-.13-5.027 2.2-8.194 7-9.5q31.695-3.72 63 7 55.695 27.35 54 90 1.77 37.209-19.5 67.5c-20.66 23.555-46.5 32.389-77.5 26.5a71.5 71.5 0 0 1-18-6q-8.955-7.096-9-18.5m193-184q46.155 1.851 91.5 0c21.52-1.962 41.69 2.204 60.5 12.5 17.22 13.989 23.05 31.822 17.5 53.5-6.17 15.5-17 26.333-32.5 32.5 43.32 10.817 59.15 37.65 47.5 80.5q-14.835 29.838-46.5 40.5c-20.61 6.812-41.78 9.645-63.5 8.5-26.74-.377-53.41-1.043-80-2-.02-5.473 1.81-10.306 5.5-14.5a70 70 0 0 0 18-3c5.94-2.032 8.77-6.199 8.5-12.5q.285-10.37 1.5-20.5c.16-48.293-.01-96.793-.5-145.5-.12-4.406-1.95-7.906-5.5-10.5a280 280 0 0 0-27.5-5.5c.95-4.917 2.78-9.584 5.5-14m67 18q16.56-.478 33 1.5c22.48 4.474 34.14 18.141 35 41 .12 11.993-4.21 21.993-13 30a37.1 37.1 0 0 1-15 5 260.4 260.4 0 0 1-43 .5c-.17-24.669 0-49.336.5-74 .66-1.484 1.5-2.817 2.5-4m-1 95c16.9-.877 33.56.623 50 4.5 25.72 8.577 36.88 26.41 33.5 53.5-5.11 26.759-21.45 39.759-49 39-5.86-.206-11.69-.706-17.5-1.5-10.38-1.38-16.55-7.213-18.5-17.5q-2.085-32.531-1.5-59.5.585-9.55 3-18.5" style="opacity:1"/><path fill="#886a4a" d="M1411.5 220.5v157c-.69-4.733-1.36-9.566-2-14.5q.825-62.413 0-126c.65-5.6 1.31-11.1 2-16.5" style="opacity:1"/><path fill="#3e2b1f" d="M827.5 268.5q3.865 2.208 4 7a56.7 56.7 0 0 0-.5 17q18.787-17.023 43.5-23.5 48.932-1.589 54.5 47.5.469 41.429 2 82 1.25 3.25 4.5 4.5a89 89 0 0 0 18 4.5q1.912 6.527 0 13a864 864 0 0 1-76.5 0 42.5 42.5 0 0 1 0-13 202 202 0 0 0 17.5-4.5q3.411-3.517 3.5-8.5a770 770 0 0 0-1-75q-5.23-26.13-32-26-17.728.407-31 12a23 23 0 0 0-2 5q-1.373 44.535 1 89 1.25 3.25 4.5 4.5a122 122 0 0 0 17.5 3.5q1.171 7.208-1.5 14-38.493.017-77 0-2-7 0-14a228 228 0 0 1 16-3.5q3.339-1.841 4.5-5.5 2.418-46.455 1-93-1.75-3.75-5.5-5.5a104.3 104.3 0 0 0-18-7q-6.197-6.04 1-11 27.043-3.509 52-13.5m-168 1q76.637-2.359 82 74-1.428 61.169-60 78.5-87.398 12.55-94-75.5 2.31-57.06 57-73.5a534 534 0 0 0 15-3.5m-11 17q30.087-3.576 47.5 21 18.749 35.739 9 75-10.283 31.023-42.5 24.5-19.99-5.478-30.5-23.5-16.869-34.051-8-71 5.967-19.21 24.5-26m582-17c51.09-1.572 78.42 23.094 82 74-3.18 50.344-30.01 77.344-80.5 81q-60.345-1.857-72-61-8.715-80.082 70.5-94m-11 17q42.84-2.188 55.5 39c5.46 18.918 5.79 37.918 1 57q-10.755 31.51-43.5 24.5-18.15-5.666-28.5-21.5c-11.79-22.102-15.12-45.436-10-70q5.175-21.412 25.5-29m-877-16q2.927-.41 4.5 2a2389 2389 0 0 1-.5 20 10.1 10.1 0 0 0 6-1.5q23.668-20.586 55-20a58.5 58.5 0 0 1 14 5q10.32 8.069 18 18.5 20.734-16.117 46-23.5 45.006-3.012 53.5 41.5a479 479 0 0 1 1.5 41.5 3614 3614 0 0 0-.5 43.5q1.71 6.71 8.5 8.5a149 149 0 0 0 15 3l2 2a57.4 57.4 0 0 1-3 11 934 934 0 0 0-74 .5 43.1 43.1 0 0 1 1-13 101 101 0 0 0 17-5.5 14.4 14.4 0 0 0 2.5-5.5 797 797 0 0 1 1.5-39.5 7720 7720 0 0 1-1.5-36.5q-8.524-34.406-43.5-26.5-12.73 3.737-22.5 12.5.44 44.95 1 90 1.035 4.044 4.5 6.5a388 388 0 0 0 17 4q3.487 6.024 0 12.5-34.88-.439-69 1-3.695-.135-6.5-2-1.256-5.692 1-11a366 366 0 0 0 16.5-3.5q4.392-1.89 5.5-6.5a720 720 0 0 0 1-70q-5.563-48.415-51.5-31.5-9.336 3.775-15.5 11.5-1 45 0 90 1.108 4.61 5.5 6.5a410 410 0 0 0 16 3.5q1.56 6.477 0 13a1249 1249 0 0 1-76.5-3q-1.183-5.387.5-10.5a450 450 0 0 0 18-5q3.339-1.841 4.5-5.5a1137 1137 0 0 0 1-94q-1.395-3.078-4.5-4.5a206 206 0 0 0-21-9q-2.781-5.588 3-8 25.465-3.24 49-12.5m712 241h-24c-16.78-2.143-30.95-9.476-42.5-22q-20.402-29.374 8.5-50.5c6.81-4.64 13.47-9.473 20-14.5-3.3-2.656-6.97-4.822-11-6.5-4.65-3.642-8.146-8.142-10.5-13.5a16.24 16.24 0 0 1 0-8 210 210 0 0 0 25.5-17.5 3.9 3.9 0 0 0-1-2q-34.252-12.717-34-49.5 1.017-28.79 25-44.5c19.07-11.416 39.4-15.082 61-11a629 629 0 0 1 27 8c7.33.667 14.67.667 22 0 5.25-.957 9.58-3.457 13-7.5q5.505 14.745-6 25.5c-7.15 2.725-14.49 3.225-22 1.5 8.52 40.453-7.15 66.286-47 77.5l-22 3c-7.04 4.608-7.71 9.941-2 16a20.5 20.5 0 0 0 8 3 520 520 0 0 1 64 7c21.22 8.928 29.38 24.761 24.5 47.5-4.15 14.823-12.31 26.989-24.5 36.5-15.47 11.765-32.8 18.932-52 21.5m-17-227c19.58-1.9 32.41 6.433 38.5 25 3.52 12.112 3.19 24.112-1 36q-8.715 21.263-31.5 16.5-21-6.005-25.5-27.5c-3.42-11.432-3.08-22.765 1-34 3.61-8.452 9.78-13.785 18.5-16m-2 143c18.07-.86 35.74 1.306 53 6.5q23.07 11.942 13.5 36.5-11.355 19.796-34.5 21.5c-16.46 2.37-31.79-.63-46-9-19.55-18.579-18.22-35.579 4-51 3.32-1.83 6.65-3.33 10-4.5" style="opacity:1"/><path fill="#a1a383" d="M112.5 379.5q.05 19.662 6.5 40 2.805 9.543 11.5 14-6.867 9.847-7.5 22a299.5 299.5 0 0 0 .5 42q-7.193.46-14-3-.066-29.103-8-57 .925-.166 1.5-1a134 134 0 0 0 3-11 1103 1103 0 0 0 6.5-46" style="opacity:1"/><path fill="#7b9765" d="M79.5 418.5q3 0 3 3a6.54 6.54 0 0 1-3-3" style="opacity:1"/></svg>