<svg xmlns="http://www.w3.org/2000/svg" width="360" height="452" style="shape-rendering:geometricPrecision;text-rendering:geometricPrecision;image-rendering:optimizeQuality;fill-rule:evenodd;clip-rule:evenodd"><path fill="#7f2eec" d="M290.5 27.5q-2.69 2.89-3 7-2.495 2.99-3.5 7-1.24 18.261.5 36v5q-1.437-.68-2.5-2a7.3 7.3 0 0 1-2 3l-1-5q-2.394-.823-3.5 2a436 436 0 0 1-1-40q-.147-3.08 2-5 1.356-1.064 1-3a183 183 0 0 0-27 1q.186.91 1 1 .915 1.337 1 3l1 8v35q.401 2.398-1 4-3.979.781-5 3a350 350 0 0 0-4-1v-7a55 55 0 0 1 1-12q1.734-11.233.5-23-.348-1.856-1.5-3-3.138-3.882-4-9 .147-3.08-2-5-1.257-.512-1-2 13.212-1.998 27.5-2l27.5.5q-1.255 1.517-1 3.5" style="opacity:1"/><path fill="#b3c8db" d="M290.5 27.5q-.255-1.983 1-3.5l-27.5-.5q-14.288.002-27.5 2-1.356-1.063-1-3 28.358.395 56-1 1.885 3.448-1 6" style="opacity:1"/><path fill="#b8c5e2" d="M237.5 27.5q2.147 1.92 2 5-2.147-1.92-2-5" style="opacity:1"/><path fill="#b5c4de" d="M290.5 27.5q-.31 4.11-3 7 .31-4.11 3-7" style="opacity:1"/><path fill="#abc2d6" d="M276.5 35.5q-3.88-1.974-9-2-8.496.413-16 1-.814-.09-1-1a183 183 0 0 1 27-1q.356 1.936-1 3" style="opacity:1"/><path fill="#bbc8df" d="M217.5 47.5q-12.029-6.72-26-5 9.866-3.95 20 .5 3.909 1.188 6 4.5" style="opacity:1"/><path fill="#9c98d9" d="M252.5 37.5q2.31 3.507 2 8h-1z" style="opacity:1"/><path fill="#afbadb" d="M191.5 42.5a36 36 0 0 1-7 4q2.328-3.918 7-4" style="opacity:1"/><path fill="#7d2dec" d="M191.5 42.5q13.971-1.72 26 5 2.5 1.5 4 4-.11 2.29 2 3-.11 2.29 2 3v1a251 251 0 0 1 1 28q0 1-1 1-4.52.59-8-2v-1q.25-11.01-.5-22-.417-1.374-1.5-2 .11-2.29-2-3-1.5-.5-2-2-.71-2.11-3-2-9.441-6.442-18 1-1.5 2.5-4 4-2.11.71-2 3-2.11.71-2 3 .257 1.487-1 2-2.625 1.74-3 5-2.11.71-2 3-2.11.71-2 3 0 1-1 1-2.643 1.144-3 4a82 82 0 0 1-2.5-3q-2.229 8.633-5.5 1a6.85 6.85 0 0 0 1-4 11.74 11.74 0 0 0 3-5q2.11-.71 2-3 2.11-.71 2-3 2.625-1.74 3-5a4.93 4.93 0 0 0 3-.5q-1.37-2.121 0-4.5 2.643-1.144 3-4 3-2 5-5a36 36 0 0 0 7-4" style="opacity:1"/><path fill="#b9c9df" d="M184.5 46.5q-2 3-5 5 1-4 5-5" style="opacity:1"/><path fill="#a6b0d8" d="M243.5 41.5q1.152 1.144 1.5 3 1.234 11.767-.5 23 .316-13.05-1-26" style="opacity:1"/><path fill="#d8e3ea" d="M287.5 34.5a38 38 0 0 1-2.5 8 612 612 0 0 0-.5 35q-1.74-17.739-.5-36 1.005-4.01 3.5-7" style="opacity:1"/><path fill="#c3cce5" d="M208.5 53.5q-9.216-2.388-18 1 8.559-7.442 18-1" style="opacity:1"/><path fill="#a19eda" d="M179.5 51.5q-.357 2.856-3 4 .357-2.856 3-4" style="opacity:1"/><path fill="#b1beda" d="M221.5 51.5q2.11.71 2 3-2.11-.71-2-3" style="opacity:1"/><path fill="#acb9db" d="M208.5 53.5q2.29-.11 3 2-2.29.11-3-2" style="opacity:1"/><path fill="#bbcee0" d="M223.5 54.5q2.11.71 2 3-2.11-.71-2-3" style="opacity:1"/><path fill="#a88ce4" d="M253.5 45.5h1q.999 6.23 1 13 .153 11.328-2 22z" style="opacity:1"/><path fill="#becfe5" d="M213.5 57.5q2.11.71 2 3-2.11-.71-2-3" style="opacity:1"/><path fill="#9877df" d="M176.5 55.5q-1.37 2.379 0 4.5a4.93 4.93 0 0 1-3 .5q1.006-2.02 0-3.5z" style="opacity:1"/><path fill="#c4d2e4" d="M186.5 58.5q.11 2.29-2 3-.11-2.29 2-3" style="opacity:1"/><path fill="#b0bddc" d="M173.5 60.5q-.375 3.26-3 5 .375-3.26 3-5" style="opacity:1"/><path fill="#ced7e4" d="M184.5 61.5q.11 2.29-2 3-.11-2.29 2-3" style="opacity:1"/><path fill="#b0c0da" d="M170.5 65.5q.11 2.29-2 3-.11-2.29 2-3" style="opacity:1"/><path fill="#b5c3dd" d="M181.5 66.5q-.375 3.26-3 5 .375-3.26 3-5" style="opacity:1"/><path fill="#a9b2db" d="M168.5 68.5q.11 2.29-2 3-.11-2.29 2-3" style="opacity:1"/><path fill="#d6eae8" d="M215.5 60.5q1.083.626 1.5 2 .75 10.99.5 22a919 919 0 0 1-2-24" style="opacity:1"/><path fill="#a7b1d8" d="M225.5 58.5q1.152 1.144 1.5 3 1.235 12.766-.5 25a251 251 0 0 0-1-28" style="opacity:1"/><path fill="#c2d2df" d="M178.5 71.5q.11 2.29-2 3-.11-2.29 2-3" style="opacity:1"/><path fill="#aebadb" d="M274.5 40.5a436 436 0 0 0 1 40 54 54 0 0 1 2 8q-2.443-3.537-3.5-8-1.24-20.26.5-40" style="opacity:1"/><path fill="#acafdd" d="M166.5 71.5a11.74 11.74 0 0 1-3 5l-3 2q1.886-4.39 6-7" style="opacity:1"/><path fill="#c9d9e8" d="M176.5 74.5q.11 2.29-2 3-.11-2.29 2-3" style="opacity:1"/><path fill="#8749e8" d="M163.5 76.5a6.85 6.85 0 0 1-1 4q3.271 7.633 5.5-1a82 82 0 0 0 2.5 3q-5 6-11 11h-1q.269-3.68-2-6.5l.5-1.5q5.019.884 0-2-1.224 1.985-3.5 2 3-4 7-7z" style="opacity:1"/><path fill="#ccdbe5" d="M173.5 78.5q-.357 2.856-3 4 .357-2.856 3-4" style="opacity:1"/><path fill="#aba9df" d="M284.5 77.5q1.437 2.703 2 6l-2-1z" style="opacity:1"/><path fill="#aba8dc" d="M243.5 79.5v7q-2.889-3.19 0-7" style="opacity:1"/><path fill="#bccee4" d="M286.5 83.5q2.147 1.92 2 5-2.147-1.92-2-5" style="opacity:1"/><path fill="#b0b4dc" d="M153.5 85.5q-3.104 4.61-8 7 3.104-4.61 8-7" style="opacity:1"/><path fill="#b8bbe1" d="M217.5 85.5q3.48 2.59 8 2-2.99 3.686-7 .5-1.129-1.005-1-2.5" style="opacity:1"/><path fill="#a395de" d="M252.5 84.5q-3.13 8.412-9 2 1.976.481 4 1 1.021-2.219 5-3" style="opacity:1"/><path fill="#cbdade" d="M277.5 88.5q1.76 1.52 2 4-2.406-1.18-2-4" style="opacity:1"/><path fill="#7f30ec" d="m284.5 82.5 2 1q-.147 3.08 2 5 1.258.513 1 2-.11 2.29 2 3 1.258.513 1 2-.11 2.29 2 3-.11 2.29 2 3-.11 2.29 2 3 1.258.513 1 2 .357 2.856 3 4-.11 2.29 2 3-.11 2.29 2 3-.11 2.29 2 3-.11 2.29 2 3-.11 2.29 2 3 .357 2.856 3 4 1.258.513 1 2-.11 2.29 2 3-.11 2.29 2 3-.11 2.29 2 3 1.76 1.52 2 4-.11 2.29 2 3 3.261 4.523 5 10-.147 3.08 2 5-.57 3.297 2 5 .76 6.54 2 13v12h-33q-3.96-3.568 0-7.5 12.49-.75 25-.5-.382-6.45-3-12-1.049-7.158-5-13-1.365-5.238-5-9-1.258-.513-1-2 .11-2.29-2-3-1.258-.513-1-2-.556-4.15-4-6a24.8 24.8 0 0 1-5-8q.11-2.29-2-3-2.211-1.404-3-4 .11-2.29-2-3-.081-3.198-3-4 .11-2.29-2-3-1.352-1.185-2-3 .11-2.29-2-3-.375-3.261-3-5-3.635-3.762-5-9-.24-2.48-2-4a54 54 0 0 0-2-8q1.106-2.823 3.5-2l1 5a7.3 7.3 0 0 0 2-3q1.063 1.32 2.5 2" style="opacity:1"/><path fill="#b3c2e0" d="M289.5 90.5q2.11.71 2 3-2.11-.71-2-3" style="opacity:1"/><path fill="#a5a3da" d="M145.5 92.5q-2.609 4.114-7 6 2.609-4.114 7-6" style="opacity:1"/><path fill="#c7d1e5" d="M158.5 93.5h1q-1.627 3.13-5 4 1.5-2.5 4-4" style="opacity:1"/><path fill="#b1b5df" d="M250.5 103.5q.594-3.816-2-6.5a179.3 179.3 0 0 0-32 .5q.837-1.935 3-2.5a196 196 0 0 1 28 0q5.837 2.861 3 8.5" style="opacity:1"/><path fill="#8132ec" d="M250.5 103.5q-.72 4.415-3 8-2.181 4.827-2 10.5.006 3.541 1 6.5 1.262 2.818 1 6h4a85 85 0 0 1 13 .5 33.6 33.6 0 0 0 10 2.5q3.523 2.761 8 4 1.144 2.643 4 3 1.379 3.883 5 6-.11 2.29 2 3 .24 2.48 2 4 .335 5.493 3 10 .945 17.27-3 34a21.7 21.7 0 0 1-4 3 9.1 9.1 0 0 1 1 5q.258 1.487-1 2-2.262 2.522-3 6-.24 2.48-2 4-2.11.71-2 3 .258 1.487-1 2-2.11.71-2 3-.936 3.381-4 5-2.643 1.144-3 4-3.5 4.5-8 8-2.29-.11-3 2-2.82-.406-4 2h-1q-6.303.475-12-1a41 41 0 0 0 9-.5q1.817-1.34 0-2.5l-2 2a22.7 22.7 0 0 0-7-3l2-2q-2.526-.975-4-3h13q2.29.11 3-2a25.7 25.7 0 0 1 6-6q3.13-1.627 4-5 2.643-1.144 3-4 2.11-.71 2-3-.258-1.487 1-2 2.11-.71 2-3a117 117 0 0 1 6-13q2.361-2.403 2-6 .926-.166 1.5-1 .745-3.465.5-7v-1q1.73-9.23.5-19-.758-5.048-3.5-9-.517-4.047-4-6-1.5-.5-2-2-.71-2.11-3-2-3.479-.738-6-3-2.908-2.494-7-2h-1q-2.706-.993-6-1-4.54-.32-8 2-3 2-6 0-.5-1.5-2-2-2.147-1.92-2-5-.098-4.392-2-8-1.93-7.953 0-16 2.136-3.022 2-7 1.356-1.064 1-3-6.303-.475-12 1-.356 1.936 1 3-.31 4.493 2 8 1.899 6.048 0 12-2.12 4.078-2 9-.44 4.881-4 8l-10-1q-4.392-1.975-9-4 1.572-8.156 10-6 .626.936 2 1 1.82-.37 2-2v-1q4.236-11.678-1-23-1.556-2.145-2-5v-7a179.3 179.3 0 0 1 32-.5q2.594 2.684 2 6.5" style="opacity:1"/><path fill="#b4c5e0" d="M292.5 95.5q2.11.71 2 3-2.11-.71-2-3" style="opacity:1"/><path fill="#aa9ddf" d="M216.5 97.5v7q-4-3.5 0-7" style="opacity:1"/><path fill="#beccdf" d="M294.5 98.5q2.11.71 2 3-2.11-.71-2-3" style="opacity:1"/><path fill="#cdd1e8" d="M150.5 101.5q-.71 2.11-3 2 .71-2.11 3-2" style="opacity:1"/><path fill="#bdd0df" d="M284.5 101.5q2.625 1.739 3 5-2.625-1.739-3-5" style="opacity:1"/><path fill="#c2d2e1" d="M296.5 101.5q2.11.71 2 3-2.11-.71-2-3" style="opacity:1"/><path fill="#8269d6" d="M227.5 105.5q5.697-1.475 12-1 .356 1.936-1 3v-1q-5.193-1.473-11-1" style="opacity:1"/><path fill="#d5e7e5" d="M227.5 105.5q5.807-.473 11 1-4.23.691-8 0-1.82.37-2 2-1.356-1.064-1-3" style="opacity:1"/><path fill="#957fdb" d="M138.5 98.5q-5.093 6.596-12 11 5.093-6.596 12-11" style="opacity:1"/><path fill="#cadde8" d="M287.5 106.5q2.11.71 2 3-2.11-.71-2-3" style="opacity:1"/><path fill="#cdd3e8" d="M143.5 107.5q-.71 2.11-3 2v-1a5.73 5.73 0 0 1 3-1" style="opacity:1"/><path fill="#ababdb" d="M299.5 106.5q2.643 1.144 3 4-2.643-1.144-3-4" style="opacity:1"/><path fill="#915ee7" d="M140.5 108.5v1q-5 6-11 11-.1-7.153 7-8.5-1.58-2.082-.5-4.5 2.034 1.32 4.5 1" style="opacity:1"/><path fill="#acbad9" d="M164.5 113.5q6.722-1.722 14-.5 2.987.56 5 2.5a50.8 50.8 0 0 0-17-2z" style="opacity:1"/><path fill="#bac6dd" d="M302.5 110.5q2.11.71 2 3-2.11-.71-2-3" style="opacity:1"/><path fill="#c1c9e3" d="M228.5 108.5q1.902 3.608 2 8-2.31-3.507-2-8" style="opacity:1"/><path fill="#b6c2dd" d="M238.5 107.5q.136 3.978-2 7-.136-3.978 2-7" style="opacity:1"/><path fill="#d4e0e9" d="M291.5 112.5q2.11.71 2 3-2.11-.71-2-3" style="opacity:1"/><path fill="#a6a2db" d="M124.5 111.5q-.87 3.373-4 5 .87-3.373 4-5" style="opacity:1"/><path fill="#9988dc" d="M164.5 113.5h2a110 110 0 0 1-11 5q3.342-4.425 9-5" style="opacity:1"/><path fill="#7d27ec" d="M166.5 113.5a50.8 50.8 0 0 1 17 2q.71 2.11 3 2a25.7 25.7 0 0 0 6 6q-.11 2.29 2 3 2.147 1.92 2 5 .188 8.555-1 17-.375 3.261-3 5-2.11.71-2 3-.5 1.5-2 2-2.29-.11-3 2-.513 1.257-2 1-3.08-.147-5 2-9.73.522-19-2-.71-2.11-3-2a25.7 25.7 0 0 0-6-6q-5.263-10.329-4-22 2.57-1.703 2-5 2.11-.71 2-3 3-2 5-5a110 110 0 0 0 11-5" style="opacity:1"/><path fill="#bac7e1" d="M183.5 115.5q2.29-.11 3 2-2.29.11-3-2" style="opacity:1"/><path fill="#a79fde" d="M293.5 115.5q2.919.802 3 4-2.211-1.404-3-4" style="opacity:1"/><path fill="#bac6dd" d="M304.5 113.5q2.11.71 2 3-2.11-.71-2-3" style="opacity:1"/><path fill="#bcc7e2" d="M186.5 117.5c3 1 5 3 6 6a25.7 25.7 0 0 1-6-6" style="opacity:1"/><path fill="#aebbda" d="M306.5 116.5q2.11.71 2 3-2.11-.71-2-3" style="opacity:1"/><path fill="#b4c0dd" d="M155.5 118.5q-2 3-5 5 1-4 5-5" style="opacity:1"/><path fill="#a9a9dc" d="M218.5 109.5q5.236 11.322 1 23 1.867-11.579-1-23" style="opacity:1"/><path fill="#c2d2e4" d="M296.5 119.5q2.11.71 2 3-2.11-.71-2-3" style="opacity:1"/><path fill="#c2cce7" d="M129.5 120.5q.11 2.29-2 3-.11-2.29 2-3" style="opacity:1"/><path fill="#bfd3db" d="M247.5 111.5a125 125 0 0 0-1 17q-.994-2.959-1-6.5-.181-5.673 2-10.5" style="opacity:1"/><path fill="#a7acdb" d="M308.5 119.5q2.11.71 2 3-2.11-.71-2-3" style="opacity:1"/><path fill="#b4bee0" d="M116.5 122.5q.11 2.29-2 3-.11-2.29 2-3" style="opacity:1"/><path fill="#a6a9d9" d="M310.5 122.5q2.11.71 2 3-2.11-.71-2-3" style="opacity:1"/><path fill="#bcc9df" d="M150.5 123.5q.11 2.29-2 3-.11-2.29 2-3" style="opacity:1"/><path fill="#acb8db" d="M192.5 123.5q2.11.71 2 3-2.11-.71-2-3" style="opacity:1"/><path fill="#b5c1dd" d="M301.5 126.5q2.11.71 2 3-2.11-.71-2-3" style="opacity:1"/><path fill="#adb4da" d="M312.5 125.5q2.643 1.144 3 4-2.643-1.144-3-4" style="opacity:1"/><path fill="#a599df" d="M114.5 125.5q.361 3.597-2 6 .143-3.429 2-6" style="opacity:1"/><path fill="#aba3dd" d="M148.5 126.5q.57 3.297-2 5-.147-3.08 2-5" style="opacity:1"/><path fill="#c4cfe1" d="M230.5 128.5q.12 4.922-2 9-.12-4.922 2-9" style="opacity:1"/><path fill="#becfdf" d="M215.5 134.5q-8.428-2.156-10 6-2.203-3.903 2-6.5 4.3-1.201 8 .5" style="opacity:1"/><path fill="#c9d7e3" d="M236.5 130.5q1.902 3.608 2 8-2.31-3.507-2-8" style="opacity:1"/><path fill="#aaafda" d="M316.5 131.5q2.11.71 2 3-2.11-.71-2-3" style="opacity:1"/><path fill="#b4c7d6" d="M219.5 133.5q-.18 1.63-2 2-1.374-.064-2-1 2.188.1 4-1" style="opacity:1"/><path fill="#bbc9df" d="M251.5 134.5q12.029-2.817 23 3a33.6 33.6 0 0 1-10-2.5 85 85 0 0 0-13-.5" style="opacity:1"/><path fill="#b7c9de" d="M146.5 131.5q-1.263 11.671 4 22-3.369-3.224-4.5-8-1.222-7.278.5-14" style="opacity:1"/><path fill="#aebcdd" d="M318.5 134.5q2.11.71 2 3-2.11-.71-2-3" style="opacity:1"/><path fill="#c0cedf" d="M274.5 137.5q4.881.44 8 4-4.477-1.239-8-4" style="opacity:1"/><path fill="#bdc9e0" d="M320.5 137.5q2.11.71 2 3-2.11-.71-2-3" style="opacity:1"/><path fill="#9f90db" d="M205.5 140.5q4.608 2.025 9 4a18.5 18.5 0 0 1-6-.5q-2.889-.633-3-3.5" style="opacity:1"/><path fill="#becbe2" d="M282.5 141.5q2.856.357 4 3-2.856-.357-4-3" style="opacity:1"/><path fill="#b1b4dd" d="M111.5 135.5q.31 4.493-2 8 .128-1.494-1-2.5 2.053-2.578 3-5.5" style="opacity:1"/><path fill="#b2b5e2" d="M308.5 137.5q3.444 1.85 4 6-2.724-2.427-4-6" style="opacity:1"/><path fill="#b4c9dd" d="M262.5 144.5a83 83 0 0 0-14 1q3.46-2.32 8-2 3.294.007 6 1" style="opacity:1"/><path fill="#b6c5dc" d="M196.5 131.5q.995 3.212 1 7 .278 5.461-2 10a105 105 0 0 0 1-17" style="opacity:1"/><path fill="#ced6e6" d="M240.5 143.5q1.5.5 2 2-2 0-2-2" style="opacity:1"/><path fill="#aeb7da" d="m214.5 144.5 10 1q-5.145 1.815-10-1" style="opacity:1"/><path fill="#a8abda" d="M263.5 144.5q4.092-.494 7 2-3.978.136-7-2" style="opacity:1"/><path fill="#a39bda" d="M286.5 144.5q3.621 2.117 5 6-3.621-2.117-5-6" style="opacity:1"/><path fill="#cedbe5" d="M313.5 145.5q2.11.71 2 3-2.11-.71-2-3" style="opacity:1"/><path fill="#b0c1da" d="M324.5 144.5q2.11.71 2 3-2.11-.71-2-3" style="opacity:1"/><path fill="#aab6da" d="M276.5 149.5q2.29-.11 3 2-2.29.11-3-2" style="opacity:1"/><path fill="#a3a2d7" d="M291.5 150.5q2.11.71 2 3-2.11-.71-2-3" style="opacity:1"/><path fill="#bac9e1" d="M316.5 150.5q3.635 3.762 5 9-3.635-3.762-5-9" style="opacity:1"/><path fill="#bdcae2" d="M150.5 153.5a25.7 25.7 0 0 1 6 6c-3-1-5-3-6-6" style="opacity:1"/><path fill="#c2d2e2" d="M192.5 153.5q.11 2.29-2 3-.11-2.29 2-3" style="opacity:1"/><path fill="#bec7e3" d="M281.5 153.5q3.483 1.953 4 6-2.74-2.47-4-6" style="opacity:1"/><path fill="#bfcddd" d="M293.5 153.5q2.406 1.18 2 4-1.76-1.52-2-4" style="opacity:1"/><path fill="#cadce8" d="M188.5 158.5q-.71 2.11-3 2 .71-2.11 3-2" style="opacity:1"/><path fill="#aab3d9" d="M156.5 159.5q2.29-.11 3 2-2.29.11-3-2" style="opacity:1"/><path fill="#a7a0dd" d="M295.5 157.5q2.865 4.428 3 10-2.665-4.507-3-10" style="opacity:1"/><path fill="#b7cde0" d="M331.5 157.5q2.147 1.92 2 5-2.147-1.92-2-5" style="opacity:1"/><path fill="#afbdda" d="M183.5 161.5q-1.92 2.147-5 2 1.92-2.147 5-2" style="opacity:1"/><path fill="#a5a7da" d="M159.5 161.5q9.27 2.522 19 2a97 97 0 0 1-6.5 2q-6.784-.7-12.5-4" style="opacity:1"/><path fill="#a9a0dd" d="M333.5 162.5q2.147 1.92 2 5-2.57-1.703-2-5" style="opacity:1"/><path fill="#b6c1de" d="M321.5 159.5q3.951 5.842 5 13-3.356-6.051-5-13" style="opacity:1"/><path fill="#abafdc" d="M335.5 167.5q2.64 6.07 3 13h-1a178 178 0 0 1-2-13" style="opacity:1"/><path fill="#abaedd" d="M124.5 173.5q2.643 1.144 3 4-2.643-1.144-3-4" style="opacity:1"/><path fill="#a195de" d="M114.5 176.5q2.919.802 3 4-2.211-1.405-3-4" style="opacity:1"/><path fill="#c9dbe2" d="M285.5 159.5q2.742 3.952 3.5 9 1.23 9.77-.5 19 .837-14.295-3-28" style="opacity:1"/><path fill="#c1cde5" d="M127.5 177.5q2.856.357 4 3-2.856-.357-4-3" style="opacity:1"/><path fill="#bcc7df" d="M117.5 180.5q2.643 1.144 3 4-2.643-1.144-3-4" style="opacity:1"/><path fill="#b9c6de" d="M131.5 180.5q13.117 7.29 28 9.5 3.163 3.024 1 6.5.483-3.334-2-5.5-13.695-1.981-26-8.5-1.197-.686-1-2" style="opacity:1"/><path fill="#becbe1" d="M176.5 177.5q2.234 5.604 2 12-2.234-5.604-2-12" style="opacity:1"/><path fill="#8237eb" d="M158.5 93.5q-2.5 1.5-4 4t-4 4q-2.29-.11-3 2-1.5 2.5-4 4a5.73 5.73 0 0 0-3 1q-2.466.32-4.5-1-1.08 2.418.5 4.5-7.1 1.347-7 8.5-2.11.71-2 3-13.986 24.294-3 50 .357 2.856 3 4 1.144 2.643 4 3-.197 1.314 1 2 12.305 6.519 26 8.5 2.483 2.166 2 5.5-5.53 2.765-12 2-4.321-3.27-10-3-1.703-2.57-5-2-2.48-.24-4-2-.71-2.11-3-2-2.117-3.621-6-5-.357-2.856-3-4-.081-3.198-3-4-8.163-15.487-5-33 2.31-3.507 2-8-.401-2.398 1-4 2.361-2.403 2-6 2.11-.71 2-3 .517-4.047 4-6 3.13-1.627 4-5 .5-1.5 2-2 6.907-4.404 12-11 4.391-1.886 7-6 4.896-2.39 8-7 2.276-.015 3.5-2 5.019 2.884 0 2l-.5 1.5q2.269 2.82 2 6.5" style="opacity:1"/><path fill="#b0c1db" d="M326.5 172.5q2.618 5.55 3 12-12.51-.25-25 .5-3.96 3.932 0 7.5v1q-3.675-.561-3-4.5-.22-3.051 2-5l24-1 1-1a34.5 34.5 0 0 1-2-9.5" style="opacity:1"/><path fill="#aeb6dd" d="M120.5 184.5q3.883 1.379 6 5-3.883-1.379-6-5" style="opacity:1"/><path fill="#b8c1df" d="M176.5 177.5q-3.753-1.918-7.5 0a49.2 49.2 0 0 0 0 14 427 427 0 0 1 4.5 16q-8.253-14.526-5.5-31 5.137-4.381 8.5 1" style="opacity:1"/><path fill="#b4c6dd" d="M126.5 189.5q2.29-.11 3 2-2.29.11-3-2" style="opacity:1"/><path fill="#b3c4dc" d="M298.5 167.5q1.734 11.233.5 23-.747 5.987-3.5 11 3.945-16.73 3-34" style="opacity:1"/><path fill="#9e89dd" d="M337.5 180.5h1q1.992 6.454 0 13-17.24 1.986-34 0v-1h33z" style="opacity:1"/><path fill="#9f97da" d="M133.5 193.5q3.297-.57 5 2-3.08.147-5-2" style="opacity:1"/><path fill="#a79edf" d="M288.5 188.5a25 25 0 0 1-.5 7q-.574.834-1.5 1 .453-4.309 2-8" style="opacity:1"/><path fill="#a097da" d="M138.5 195.5q5.679-.27 10 3-5.493-.335-10-3" style="opacity:1"/><path fill="#c0d4de" d="M286.5 196.5q.361 3.597-2 6 .143-3.429 2-6" style="opacity:1"/><path fill="#b5c8dc" d="M160.5 196.5q.129 1.494-1 2.5-5.786 1.215-11-.5 6.47.765 12-2" style="opacity:1"/><path fill="#a79fdd" d="M179.5 194.5q1.857 2.571 2 6-2.67-2.235-2-6" style="opacity:1"/><path fill="#a283e2" d="M295.5 201.5q-.72 4.415-3 8a9.1 9.1 0 0 0-1-5 21.7 21.7 0 0 0 4-3" style="opacity:1"/><path fill="#baccdf" d="M183.5 205.5q2.262 2.522 3 6-3.058-2.116-3-6" style="opacity:1"/><path fill="#b0c0da" d="M173.5 207.5q2.147 1.92 2 5-2.147-1.92-2-5" style="opacity:1"/><path fill="#a894df" d="M175.5 212.5q3.62 1.77 3 6-2.262-2.522-3-6" style="opacity:1"/><path fill="#bdd2e3" d="M186.5 211.5q1.76 1.52 2 4-2.406-1.18-2-4" style="opacity:1"/><path fill="#b9cbe2" d="M291.5 211.5q.058 3.884-3 6 .738-3.478 3-6" style="opacity:1"/><path fill="#b2c4de" d="M278.5 215.5q.11 2.29-2 3-.11-2.29 2-3" style="opacity:1"/><path fill="#a9b1da" d="M190.5 219.5q2.11.71 2 3-2.11-.71-2-3" style="opacity:1"/><path fill="#b6cbdd" d="M179.5 220.5q2.11.71 2 3-2.11-.71-2-3" style="opacity:1"/><path fill="#a8b1d9" d="M275.5 220.5q.11 2.29-2 3-.11-2.29 2-3" style="opacity:1"/><path fill="#bbcde2" d="M286.5 221.5q.11 2.29-2 3-.11-2.29 2-3" style="opacity:1"/><path fill="#a8b1d9" d="M192.5 222.5q2.11.71 2 3-2.11-.71-2-3" style="opacity:1"/><path fill="#abaddc" d="M273.5 223.5q-.357 2.856-3 4 .357-2.856 3-4" style="opacity:1"/><path fill="#cfd8e5" d="M182.5 225.5q2.11.71 2 3-2.11-.71-2-3" style="opacity:1"/><path fill="#a7a6dc" d="M194.5 225.5q3.13 1.627 4 5-3.13-1.627-4-5" style="opacity:1"/><path fill="#d2dbe9" d="M283.5 226.5q.11 2.29-2 3-.11-2.29 2-3" style="opacity:1"/><path fill="#acabdc" d="M270.5 227.5q-.87 3.373-4 5 .87-3.373 4-5" style="opacity:1"/><path fill="#a29cdd" d="M184.5 228.5q2.919.802 3 4-2.211-1.405-3-4" style="opacity:1"/><path fill="#c6cee3" d="M187.5 232.5q2.643 1.144 3 4-2.643-1.144-3-4" style="opacity:1"/><path fill="#a3a1db" d="M200.5 232.5q2.5 1.5 4 4-3.5-.5-4-4" style="opacity:1"/><path fill="#c9d5e5" d="M277.5 234.5q-.357 2.856-3 4 .357-2.856 3-4" style="opacity:1"/><path fill="#cedbe5" d="M206.5 238.5q2.29-.11 3 2-2.29.11-3-2" style="opacity:1"/><path fill="#d5ebe5" d="M226.5 239.5q3.465-.996 7.5-1 6.64-.16 12.5 2h-2a114 114 0 0 0-18-1" style="opacity:1"/><path fill="#ccd8e6" d="M192.5 238.5q2.5 1.5 4 4-3.5-.5-4-4" style="opacity:1"/><path fill="#a2abdb" d="M260.5 238.5q-.71 2.11-3 2 .71-2.11 3-2" style="opacity:1"/><path fill="#8034ec" d="M176.5 177.5q-.234 6.396 2 12 1.201 2.313 1 5-.67 3.765 2 6 1.556 2.145 2 5-.058 3.884 3 6-.406 2.82 2 4 1.76 1.52 2 4-.11 2.29 2 3-.11 2.29 2 3 .87 3.373 4 5 1.5.5 2 2 .5 3.5 4 4 1.5.5 2 2 .71 2.11 3 2a160 160 0 0 0 17-1q9.054-.21 18 1 1.474 2.025 4 3l-2 2a22.7 22.7 0 0 1 7 3l2-2q1.817 1.16 0 2.5a41 41 0 0 1-9 .5 236 236 0 0 0-12.5-1q-6.168-.226-11.5 2-7.15 1.945-14 0-2.145-1.556-5-2-2.856-.357-4-3a6.55 6.55 0 0 0-3-3q-1.5-2.5-4-4-1.5-.5-2-2-.357-2.856-3-4-.081-3.198-3-4 .11-2.29-2-3-1.257-.513-1-2 .11-2.29-2-3-1.257-.513-1-2 .62-4.23-3-6 .147-3.08-2-5a427 427 0 0 0-4.5-16 49.2 49.2 0 0 1 0-14q3.747-1.918 7.5 0" style="opacity:1"/><path fill="#c9d2e7" d="M196.5 242.5a6.55 6.55 0 0 1 3 3q-3 0-3-3" style="opacity:1"/><path fill="#c5d4e7" d="M266.5 246.5q-.71 2.11-3 2 .71-2.11 3-2" style="opacity:1"/><path fill="#abb2da" d="M246.5 249.5q5.697 1.475 12 1-18.18-.48-36 0 5.332-2.226 11.5-2 6.276.335 12.5 1" style="opacity:1"/><path fill="#bbcbdd" d="M203.5 248.5q2.855.444 5 2-3.297.57-5-2" style="opacity:1"/><path fill="#c4d7e2" d="M263.5 248.5q-1.52 1.76-4 2 1.18-2.406 4-2" style="opacity:1"/><path fill="#50dc30" d="M41.5 308.5q.425 1.184 1.5 2 .75-10.989.5-22 1.521-1.897 4.5-2 2.645.067 5 1 1 19.5 0 39-5.112 1.683-10.5.5a102 102 0 0 1-12-17.5q-1.16-3.817-4.5-6-.75 11.489-.5 23-1.94.988-4.5 1-2.97-.194-5-2a246 246 0 0 1 .5-38q5.5-2 11 0a370 370 0 0 1 14 21" style="opacity:1"/><path fill="#48db25" d="M90.5 295.5h-21q-.453 3.839 1 7 6.799-.477 13 1v8h-14v7h21q1.975 4.095 0 8.5a150.6 150.6 0 0 1-30-.5q-2-19.5 0-39a150.6 150.6 0 0 1 30-.5q1.975 4.405 0 8.5" style="opacity:1"/><path fill="#51dc30" d="M108.5 301.5q-3.126 3.74-1 8 2.992 7.713 11.5 8 4.833-.675 9-3 5.838 1.32 6 7-8.096 8.092-19.5 6a5.73 5.73 0 0 0-3-1q-9.684-3.385-15-13.5.835-.574 1-1.5v-9q-.165-.926-1-1.5 12.148-22.316 35-11 6.04 4.966-1 9-7.024-.738-13-2.5-5.61.632-9 5" style="opacity:1"/><path fill="#49dc25" d="M170.5 295.5h-21q-.452 3.839 1 7 6.798-.477 13 1v8h-14v7h21q1.976 4.095 0 8.5a150.5 150.5 0 0 1-30-.5q-2-19.5 0-39a150.5 150.5 0 0 1 30-.5q1.976 4.405 0 8.5" style="opacity:1"/><path fill="#54dd32" d="m205.5 291.5 1 4q-1.453 1.214-2.5 3-5.379.603-10.5-2-3.337-.292-5 2.5.608 1.418 2 2 6.12 1.03 12 3 3.126 1.046 5 3.5-.11 2.29 2 3 3.901 12.834-9 16-1.937-.356-3 1h-8a5.73 5.73 0 0 1-3-1 26.2 26.2 0 0 1-9-3.5q-.01-2.374 1-5a29.2 29.2 0 0 1 7-2.5q6.921 3.493 14 .5-2-1 0-2a9562 9562 0 0 1-14.5-4.5q-11.274-4.552-6-17 5.686-6.648 14.5-6 7.642-.965 12 5m39 0 1 4q-6.119 5.151-13 1-3.337-.292-5 2.5.608 1.418 2 2 6.12 1.03 12 3 3.126 1.046 5 3.5-.11 2.29 2 3 3.901 12.834-9 16-1.937-.356-3 1-5.409-.434-10.5 1a21.9 21.9 0 0 0-6.5-4q-1.144-1.152-3-1.5-.01-2.374 1-5a29.2 29.2 0 0 1 7-2.5q5.745 2.718 12 1.5 4-2 0-4a70.7 70.7 0 0 1-12.5-3.5q-11.274-4.552-6-17 5.686-6.648 14.5-6 7.642-.965 12 5" style="opacity:1"/><path fill="#4bdc32" d="M256.5 325.5v-7q.512-1.258 2-1 2-10.5 0-21-1.875-.116-2.5-2-1.066-3.598.5-7 7.829-1.956 15.5 0a16.24 16.24 0 0 1 0 8 3.65 3.65 0 0 1-1.5 1q-2 10.5 0 21a3.65 3.65 0 0 1 1.5 1q3.9 11.598-8 9-4.393-.037-7.5-2" style="opacity:1"/><path fill="#eff8b9" d="M43.5 288.5q.25 11.011-.5 22-1.075-.816-1.5-2z" style="opacity:1"/><path fill="#82eccb" d="M205.5 291.5q3.029 1.558 1 4zm39 0q3.029 1.558 1 4z" style="opacity:1"/><path fill="#7ee887" d="M90.5 295.5q-9.719 1.486-20 1v6q-1.453-3.161-1-7zm80 0q-9.719 1.486-20 1v6q-1.452-3.161-1-7z" style="opacity:1"/><path fill="#f4f395" d="M258.5 296.5q2 10.5 0 21-1.005-8.999 0-21" style="opacity:1"/><path fill="#aceca0" d="M30.5 309.5q-2.753-.933-3.5-4a217 217 0 0 1-1.5 21q-.25-11.511.5-23 3.34 2.183 4.5 6" style="opacity:1"/><path fill="#7deacd" d="M108.5 301.5a41.5 41.5 0 0 0-1 8q-2.126-4.26 1-8" style="opacity:1"/><path fill="#81eaba" d="M83.5 303.5q4 4 0 8z" style="opacity:1"/><path fill="#81eab9" d="M163.5 303.5q4 4 0 8z" style="opacity:1"/><path fill="#f4f7b6" d="M97.5 302.5v9a97 97 0 0 1-2-6.5q.85-1.492 2-2.5" style="opacity:1"/><path fill="#9bf1dc" d="M207.5 307.5q2.11.71 2 3-2.11-.71-2-3m39 0q2.11.71 2 3-2.11-.71-2-3" style="opacity:1"/><path fill="#80e87d" d="M83.5 311.5q-6.201 1.477-13 1v5q10.281-.486 20 1h-21v-7zm80 0q-6.202 1.477-13 1v5q10.281-.486 20 1h-21v-7z" style="opacity:1"/><path fill="#faf9c4" d="M256.5 318.5v7q-2.889-3.81 0-7" style="opacity:1"/><path fill="#f9faf9" d="M219.5 324.5q-1 1 0 0" style="opacity:1"/><path fill="#b0f1df" d="M197.5 327.5q1.063-1.356 3-1-.907 2.972-3 1m39 0q1.063-1.356 3-1-.907 2.972-3 1" style="opacity:1"/><path fill="#f8f9e9" d="M111.5 326.5a5.73 5.73 0 0 1 3 1q-1.918 1.823-3-1" style="opacity:1"/><path fill="#ecf2f3" d="M186.5 326.5q1.337.915 3 1-2.17 2.078-3-1" style="opacity:1"/><path fill="#56db2a" d="M201.5 346.5v17h-4v-17z" style="opacity:1"/><path fill="#60de44" d="M228.5 346.5h4a32.5 32.5 0 0 0 .5 8q1.076-.816 1.5-2 2.682-1.683 6-.5-5.702 5.064 0 10.5-3.618 2.174-6-1-.424-1.184-1.5-2a8.4 8.4 0 0 0-.5 4h-4z" style="opacity:1"/><path fill="#79e157" d="M258.5 354.5v6q.129 1.494-1 2.5a32.4 32.4 0 0 0-6 1.5 9.1 9.1 0 0 0-5-1v-17h6v5a12.9 12.9 0 0 1 5 .5q1.129 1.006 1 2.5m-6 0q4 3 0 6z" style="opacity:1"/><path fill="#e1f1d9" d="m201.5 346.5 2 8v6l-2 3z" style="opacity:1"/><path fill="#43db2f" d="M274.5 348.5h4q-.356 1.937 1 3-1.368 2.516-2 5.5.162 2.522 2 3.5 1.356 1.063 1 3-3.353.442-6-1-.591-7.157 0-14" style="opacity:1"/><path fill="#69df40" d="M287.5 351.5q-1.368 2.516-2 5.5.162 2.522 2 3.5h1v3q-3.438.384-6.5-1-.274-4.297-1.5-8v-3q1.356-1.063 1-3h5q-.356 1.937 1 3" style="opacity:1"/><path fill="#47db2a" d="M40.5 379.5h-14v10q-1.94.988-4.5 1-2.977-.103-4.5-2v-37q5.41-1.986 12-2 23.986-2.762 21.5 21-2.92 6.42-9 10-.575-.834-1.5-1m0-17q-.639 1.542 0 4-1.224 2.466-4 3.5a41 41 0 0 1-9 .5 61 61 0 0 1 .5-11q4.452.029 9.5.5 2.163.565 3 2.5" style="opacity:1"/><path fill="#4cdc30" d="M59.5 349.5h12a29.2 29.2 0 0 1 1 9q-3.358 10.626-1 22a3.65 3.65 0 0 1 1.5 1 16.25 16.25 0 0 1 0 8q-6.601 1.45-13.5 1-2-5 0-10v-21q-2-5 0-10" style="opacity:1"/><path fill="#4edc2e" d="M90.5 364.5q-3.126 3.74-1 8 2.992 7.713 11.5 8 4.833-.675 9-3 9.603 2.454 3.5 9.5l-6 3a183 183 0 0 1-15.5.5q-1.062-1.321-2.5-2-6.147-4.148-9-11v-15q3.733-8.98 13-12.5 12.833-3.053 22.5 5.5.403 4.17-3.5 6.5a509 509 0 0 0-13-2.5q-5.61.632-9 5" style="opacity:1"/><path fill="#58dd37" d="M156.5 349.5v4q-1.95 4.399-6 7-2.11.71-2 3a25.5 25.5 0 0 1-5 6.5l15 19a9.5 9.5 0 0 0-1.5 2.5 73.4 73.4 0 0 0-11.5-1.5 83.7 83.7 0 0 0-12-14.5 100 100 0 0 0-1.5 14l-2 2a261 261 0 0 1-7.5-2q-2-19.5 0-39 4.813-1.93 9.5 0l1 15a139 139 0 0 0 12.5-15.5 61 61 0 0 1 11-.5" style="opacity:1"/><path fill="#8eefca" d="M156.5 349.5q3.422 1.702 0 4z" style="opacity:1"/><path fill="#faf9c8" d="M17.5 351.5v37a19.6 19.6 0 0 1-2-3.5v-28a61 61 0 0 1 2-5.5" style="opacity:1"/><path fill="#b2e661" d="M59.5 349.5q-2 5 0 10-3.352-1.178-3-5-.352-3.822 3-5" style="opacity:1"/><path fill="#75e058" d="M182.5 351.5v12a50.5 50.5 0 0 1-10-.5q-2.685-5.374-2-11.5h6q.5 18 1 0z" style="opacity:1"/><path fill="#78e260" d="M184.5 351.5q5.025-.247 10 .5 2.685 5.374 2 11.5h-6a41 41 0 0 0-.5-9l-1 10q-2.034-1.32-4.5-1z" style="opacity:1"/><path fill="#62df45" d="M214.5 354.5v6q-1.518 3.564-5.5 3-4.113.576-5.5-3v-6q1.387-3.576 5.5-3 3.982-.564 5.5 3m-6 0q3.636 2.592.5 6-2.7-2.798-.5-6" style="opacity:1"/><path fill="#dbf5e4" d="M228.5 346.5v17l-2-2q-1.066-3.513-4-1 1.767-2.249 5-3-.186-.91-1-1v-3z" style="opacity:1"/><path fill="#e5f6da" d="m232.5 346.5 2 6q-.424 1.184-1.5 2a32.5 32.5 0 0 1-.5-8" style="opacity:1"/><path fill="#5fde3c" d="M270.5 353.5q-.258 1.488 1 2v3a13.1 13.1 0 0 0-7 1q.186.91 1 1h5q1.911 1.034 0 2.5a16.24 16.24 0 0 1-8 0q-1.321-1.062-2-2.5-1.712-2.927 0-6 1.518-3.564 5.5-3 3.012-.29 4.5 2m-5 1q3.955 2.481-1 1.5.834-.574 1-1.5" style="opacity:1"/><path fill="#6adf4d" d="M302.5 351.5h8a8.4 8.4 0 0 1-.5 4q-1 2-2 0a32.5 32.5 0 0 0-.5 8h-5z" style="opacity:1"/><path fill="#63df41" d="M300.5 355.5q.356 1.937-1 3a9.86 9.86 0 0 0-6 1q.186.91 1 1h2q3.444.456 1 3-5.418.864-9-3v-6q4.119-4.208 10-2.5 1.984 1.224 2 3.5m-6-1q1.184.425 2 1.5-1.974.792-2-1.5" style="opacity:1"/><path fill="#dbf2e6" d="M182.5 351.5h2v12h-2z" style="opacity:1"/><path fill="#deef8b" d="M274.5 348.5q-.591 6.843 0 14a346 346 0 0 1-2-8q-.91.186-1 1-1.258-.512-1-2z" style="opacity:1"/><path fill="#72e8ab" d="M279.5 351.5h1v3q-3.518 2.232-1 6-1.838-.978-2-3.5.632-2.984 2-5.5" style="opacity:1"/><path fill="#75e9b1" d="M287.5 351.5q1.356 1.063 1 3-3.518 2.232-1 6-1.838-.978-2-3.5.632-2.984 2-5.5" style="opacity:1"/><path fill="#b5e6dc" d="M71.5 349.5q.925.166 1.5 1 1.2 4.3-.5 8 .198-4.605-1-9" style="opacity:1"/><path fill="#67de36" d="M226.5 353.5v3q-3.081.202-5-2-1.79.705-2 3 .21 2.295 2 3h1q2.934-2.513 4 1-1.488 2.29-4.5 2-4.113.576-5.5-3-2-3 0-6 1.387-3.576 5.5-3 3.012-.29 4.5 2" style="opacity:1"/><path fill="#b8f0db" d="M252.5 354.5v6q-1.184-.425-2-1.5 1.712-1.112 0-2.5.533-1.533 2-2" style="opacity:1"/><path fill="#b3f2de" d="M258.5 354.5h2q-1.712 3.073 0 6h-2z" style="opacity:1"/><path fill="#e1f6f0" d="M302.5 351.5v12q-.783-2.578-3-4v-1q1.356-1.063 1-3z" style="opacity:1"/><path fill="#b2eade" d="M214.5 354.5h2q-2 3 0 6h-2z" style="opacity:1"/><path fill="#85efd6" d="M221.5 354.5q-2 3 0 6-1.79-.705-2-3 .21-2.295 2-3" style="opacity:1"/><path fill="#cbf1c2" d="M271.5 355.5q1.898 2.786-1 5h-3q-1-2-2 0-.814-.09-1-1a13.1 13.1 0 0 1 7-1z" style="opacity:1"/><path fill="#bef0a3" d="M299.5 358.5v1q2.254 3.494-2 4 2.444-2.544-1-3-1-2-2 0-.814-.09-1-1a9.86 9.86 0 0 1 6-1" style="opacity:1"/><path fill="#aaf0ce" d="M150.5 360.5q.11 2.29-2 3-.11-2.29 2-3" style="opacity:1"/><path fill="#e0f7ed" d="m234.5 361.5-2 2a8.4 8.4 0 0 1 .5-4q1.076.816 1.5 2" style="opacity:1"/><path fill="#f9f8b2" d="M40.5 362.5q2 2 0 4-.639-2.458 0-4" style="opacity:1"/><path fill="#7beacc" d="M90.5 364.5a41.6 41.6 0 0 0-1 8q-2.126-4.26 1-8" style="opacity:1"/><path fill="#b9e85f" d="M80.5 362.5v15a2.43 2.43 0 0 1-2-.5q.084-5.54.5-11.5.348-1.856 1.5-3" style="opacity:1"/><path fill="#6bdf4e" d="M183.5 374.5h3a18.5 18.5 0 0 0 .5 6q.575-.834 1.5-1a12.9 12.9 0 0 1 5 .5q1.129 1.006 1 2.5v9h-5q-.5-18-1 0h-5z" style="opacity:1"/><path fill="#7ce7a8" d="M186.5 374.5q2.634 1.578 2 5-.925.166-1.5 1a18.5 18.5 0 0 1-.5-6" style="opacity:1"/><path fill="#86e26c" d="M209.5 374.5a8.4 8.4 0 0 1 4 .5q1.426 1.077.5 2.5-5.919 2.79-4.5-3" style="opacity:1"/><path fill="#89ea9d" d="M40.5 379.5a493 493 0 0 1-11.5 2l-1-1q-.27 4.793-1.5 9v-10z" style="opacity:1"/><path fill="#6bdf3f" d="M181.5 381.5v3q-3.081.202-5-2-1.79.705-2 3 .21 2.295 2 3h1q2.934-2.513 4 1-.166.926-1 1.5-8.83 2.838-11-6 3.048-7.602 11-5 .834.574 1 1.5" style="opacity:1"/><path fill="#6be049" d="M207.5 382.5v6l-2 3q-3.438-.384-6.5 1-2.222-1.456-2.5-4-2-3 0-6 1.387-3.576 5.5-3 3.982-.564 5.5 3m-6 0q3.636 2.592.5 6-2.7-2.798-.5-6" style="opacity:1"/><path fill="#49db37" d="M209.5 379.5h4v12h-4z" style="opacity:1"/><path fill="#62de3b" d="M225.5 381.5v3q-3.081.202-5-2-1.79.705-2 3 .21 2.295 2 3h1q2.934-2.513 4 1-.166.926-1 1.5a26.7 26.7 0 0 0-6.5 1.5q-2.222-1.456-2.5-4v-6q1.387-3.576 5.5-3 3.012-.29 4.5 2" style="opacity:1"/><path fill="#55dd32" d="M238.5 383.5v3a13.1 13.1 0 0 0-7 1q.186.91 1 1h2q3.444.456 1 3-5.163 1.008-8-3v-6q1.387-3.576 5.5-3 4.7-.537 5.5 4m-7-1q3.725.345 1.5 2-1.545-.504-1.5-2" style="opacity:1"/><path fill="#69df49" d="M249.5 380.5a5.73 5.73 0 0 0 1 3 8.4 8.4 0 0 0-4 .5q7.442 1.356 3 7a16.24 16.24 0 0 1-8 0q-1.984-1.224-2-3.5a12.9 12.9 0 0 0 5-.5q-2.73-.3-4-2.5v-3q.166-.926 1-1.5 4.3-1.201 8 .5" style="opacity:1"/><path fill="#b5e75e" d="M59.5 380.5q-2 5 0 10-3.352-1.178-3-5-.352-3.822 3-5" style="opacity:1"/><path fill="#ccebe1" d="M209.5 379.5v12l-2-3v-6z" style="opacity:1"/><path fill="#8fefdb" d="M249.5 380.5q2.823 1.082 1 3a5.73 5.73 0 0 1-1-3" style="opacity:1"/><path fill="#dbf1e7" d="M194.5 382.5h2q-2 3 0 6l-2 3z" style="opacity:1"/><path fill="#c4f0c0" d="M240.5 381.5v3q-1.356 1.063-1 3-3.222-.166-1 2-.588 3.557-3 2 2.444-2.544-1-3-1-2-2 0-.814-.09-1-1a13.1 13.1 0 0 1 7-1v-3z" style="opacity:1"/><path fill="#85efd6" d="M176.5 382.5q-2 3 0 6-1.79-.705-2-3 .21-2.295 2-3" style="opacity:1"/><path fill="#ccebd8" d="M183.5 374.5v17l-2-2q-1.066-3.513-4-1 1.767-2.249 5-3-.186-.91-1-1v-3z" style="opacity:1"/><path fill="#e6f7e3" d="m213.5 379.5 2 3v6l-2 3z" style="opacity:1"/><path fill="#87edcd" d="M220.5 382.5q-2 3 0 6-1.79-.705-2-3 .21-2.295 2-3" style="opacity:1"/><path fill="#d6f4ce" d="m225.5 381.5 2 1v6l-2 1q-1.066-3.513-4-1 1.634-2.425 5-2.5-.834-.574-1-1.5z" style="opacity:1"/><path fill="#f9faf9" d="M89.5 388.5q-1 1 0 0m116 3q2 1 0 0" style="opacity:1"/><path fill="#aec8d9" d="M100.5 426.5q17.239-1.739 35-.5-17.493.75-35 .5" style="opacity:1"/><path fill="#a7c1d3" d="M265.5 426.5q8.729-1.729 18-.5-8.986.749-18 .5" style="opacity:1"/></svg>