<svg xmlns="http://www.w3.org/2000/svg" width="336" height="126" style="shape-rendering:geometricPrecision;text-rendering:geometricPrecision;image-rendering:optimizeQuality;fill-rule:evenodd;clip-rule:evenodd"><path fill="#874be5" d="M293.5 76.5v8h-12v-3q4.797.804 8-2a61 61 0 0 1-4.5-10 159.4 159.4 0 0 1-13-20q-2.168-9.075-1.5-18-2.313 1.87-4.5 0l-.5 1.5a49.6 49.6 0 0 1 0 17.5q-2.466.32-4.5-1 .155-5.594.5-11a21.84 21.84 0 0 0-3-10q10.007-1.5 20-1.5l1 1a29.6 29.6 0 0 0-2.5 4.5q-1 7.5 0 15a199 199 0 0 0 13 20 151 151 0 0 1 3.5 9" style="opacity:1"/><path fill="#8b54e3" d="M244.5 32.5q7.047-.66 11 5 2.506 5.796 1.5 12-2.034 1.32-4.5 1 .644-5.635-2-10.5a10.3 10.3 0 0 0-4-1.5q-10.39 13.143-23.5 24-7.323 18.3 11.5 20v5q-17.3 1.197-19-16a98 98 0 0 0 1.5-9q6.5-10.5 17-17 3.478-8.2 10.5-13" style="opacity:1"/><path fill="#49dc18" d="M47.5 35.5a111.2 111.2 0 0 1 .5 25q-3.188 3.65-6.5 0v-1q2.55.24 5-.5-4.145-.394-5-4.5 1.783-1.393 4-1 1.035-7.135 0-15a43.1 43.1 0 0 0-1 13q-2.519.322-3-2 1.473-5.193 1-11-1.81-2.07 1-3.5 2.35-1.147 4 .5" style="opacity:1"/><path fill="#41dc2c" d="m71.5 36.5 2 5q-.165.925-1 1.5l-10 1q9.138 1.53 5 9.5-3.832-1.332-8-1v3q-1.401-1.602-1-4h8q.329-1.762-1-3a23.8 23.8 0 0 1-9 1 25.9 25.9 0 0 1-1 10 133 133 0 0 1-1-23q8.963.12 17 0" style="opacity:1"/><path fill="#35db16" d="M120.5 37.5a62.4 62.4 0 0 1-13.5 3l-1-1q-1 4.5 0 9 4.338-3.26 9.5-1 .663 1.858 2 3-2.444 2.544 1 3-4.71 1.71-10 .5l7-1a32.4 32.4 0 0 0-8-.5v3a72.4 72.4 0 0 1 12 .5q1.32 2.034 1 4.5-4.292 2.36-9.5 2a34.3 34.3 0 0 1-8-1 313 313 0 0 1-.5-25q3.622-1.97 8.5-2l8.5 1q.544 1.026 1 2" style="opacity:1"/><path fill="#56df3c" d="M40.5 44.5q-1.085 2.496 1 5 .481 2.322 3 2a43.1 43.1 0 0 1 1-13q1.035 7.865 0 15-2.217-.393-4 1 .855 4.106 5 4.5-2.45.74-5 .5-2 .5 0 1 3.312 3.65 6.5 0a111.2 111.2 0 0 0-.5-25q2.46.97 4 3a61 61 0 0 1 0 22 26.5 26.5 0 0 1-6 3q-6.28.126-7-6-.231-3.705-3-6h-1q-1.152-1.144-1.5-3a85 85 0 0 0-.5 13q-3.125 3.873-7 0-1.375-12.23-1-24 3.075-3.971 8-2.5 3.875 5.105 8 9.5" style="opacity:1"/><path fill="#f9fab4" d="M73.5 41.5a8.4 8.4 0 0 1 .5-4q1.147 2.35-.5 4" style="opacity:1"/><path fill="#63e03f" d="M102.5 36.5a313 313 0 0 0 .5 25q3.867.962 8 1 5.208.36 9.5-2h1q-.679 1.438-2 2.5a72.5 72.5 0 0 1-17 0l-2.5-2.5-1-20q-.244 3.265-2.5 5.5-4.208.662-8-1.5-3.873 1.047-6 4.5 2.158 1.485 3 4 5.325.767 10-1l-1 1q6.993 3.007 1.5 8.5l-1-1q-10.998 6.303-19-4-6.337-12.603 5.5-20.5 10.19-3.511 18 3.5 1.794-.519 0-1.5 1.116-1.559 3-1.5" style="opacity:1"/><path fill="#4edf3e" d="M120.5 37.5q1.63.18 2 2a26 26 0 0 1-3.5 5q-4.106-1.665-8.5-.5 2.96.743 6 .5l1 6q-1.337-1.142-2-3-5.162-2.26-9.5 1-1-4.5 0-9l1 1a62.4 62.4 0 0 0 13.5-3" style="opacity:1"/><path fill="#57de3a" d="M123.5 58.5q1.356-1.064 1-3 .572-2.146 3-2.5-1.971-3.96-5-8 .214-3.227 3-5-.841-2.348 2-4 10.947-4.266 17 5.5-2.5 1.5-4 4 3.787 2.482 5 5.5a34 34 0 0 0-1.5 7.5q-1.668 4.204-5.5 3-6.075 4.053-11.5-1-2.369 1.008-3.5-2" style="opacity:1"/><path fill="#55df32" d="M167.5 48.5q-.465 4.82 1 9-4.212 5.247-11 6-4.106-1.504-7.5-2a15.7 15.7 0 0 1-3.5-4q.737-3.978 5-4.5-3.435-2.666-5-6.5 2-2 0-4 9.626-14.867 22-1.5-4.049 3.04-6 6 2.62.528 5 1.5" style="opacity:1"/><path fill="#00fa00" d="M182.5 37.5q2 1 0 0" style="opacity:1"/><path fill="#c2edb4" d="M42.5 38.5q.473 5.807-1 11-2.085-2.504-1-5-.712-3.873 2-6" style="opacity:1"/><path fill="#cae856" d="M53.5 35.5q-.42 14.08 1 28a6.54 6.54 0 0 1-3-3 61 61 0 0 0 0-22q.648-1.815 2-3" style="opacity:1"/><path fill="#47dc2b" d="M182.5 38.5v3q-2.3 3.203-2 7.5l.5 5.5q.673 2.586 2.5 2-2.17 3.177-2 7-6.389.497-12-2.5 3.723-2.19 0-4.5 1.983.255 3.5-1 .067-10.088.5-20 3.192-1.695 7-.5a19.6 19.6 0 0 0 2 3.5" style="opacity:1"/><path fill="#00fa00" d="M182.5 41.5q2 1 0 0" style="opacity:1"/><path fill="#aef385" d="M146.5 42.5v4q-2-2 0-4" style="opacity:1"/><path fill="#ccf199" d="M173.5 35.5a541 541 0 0 0-.5 20q-1.517 1.255-3.5 1-1 0-1 1-1.465-4.18-1-9 2.274 2.533 1 5.5.765 2.74 2.5.5a51.7 51.7 0 0 1 1.5-9.5 6.54 6.54 0 0 0-3-3q4-2 0-4 1.212-2.56 4-2.5" style="opacity:1"/><path fill="#afebaf" d="M34.5 51.5q.5 2 1 0 2.769 2.295 3 6-2.51-1.264-3.5-4 .08 4.763-2.5 8-.249-6.52.5-13 .348 1.856 1.5 3" style="opacity:1"/><path fill="#894fe3" d="M281.5 80.5v4h12v-8q1.465 4.18 1 9h-14q-1.992 7.49-6.5 14-2.176 2.946-5.5 4h-20q-5.348-1.84-8-7-5.421-8.301-4.5-18 1.938-1.936 3.5 0-.1 2.188 1 4a44.1 44.1 0 0 0 9 16q8.516.234 17 .5 12.387-11.133 8.5-25.5a41 41 0 0 0-9-5 7.25 7.25 0 0 1-2.5 2q-3.5-1.5-5-5a26.6 26.6 0 0 0-2 3.5 12.5 12.5 0 0 1-7 0q-2.988-6.228 4-5.5.645-5.043-3-8.5 2.532-4.523 8-3.5 3.388.049 6.5 1a249 249 0 0 0-1.5 11q17.583-.258 18 17" style="opacity:1"/><path fill="#8de493" d="M67.5 53.5q4.22-.713 6 3l-2 6v-7h-12v-3q4.168-.332 8 1" style="opacity:1"/><path fill="#9ceaa7" d="M118.5 53.5q1.941 1.185 3.5 3 1.006-1.128 2.5-1 .356 1.936-1 3 .098-.658-.5-1-.348 1.856-1.5 3h-1q.32-2.466-1-4.5a72.4 72.4 0 0 0-12-.5v-3a32.4 32.4 0 0 1 8 .5l-7 1q5.29 1.21 10-.5" style="opacity:1"/><path fill="#3edb16" d="M71.5 36.5q-8.037.12-17 0-.496 11.544 1 23a25.9 25.9 0 0 0 1-10q4.618.36 9-1 1.329 1.238 1 3h-8q-.401 2.398 1 4h12v7q-8.213 1.483-17 1a213 213 0 0 1-1-28q8.376-1.677 17-.5.835.575 1 1.5" style="opacity:1"/><path fill="#f9fab4" d="M73.5 56.5q1.61 1.125.5 3a4.93 4.93 0 0 1-.5-3m73 1q-1-2 0 0" style="opacity:1"/><path fill="#843de8" d="M231.5 73.5q-.68-3.098-3-5-1.46-6.258 4-10.5 12.07-4.995 15 8.5-1.507 8.506-10 10-3.629-.621-6-3" style="opacity:1"/><path fill="#00fa00" d="M182.5 60.5q2 1 0 0" style="opacity:1"/><path fill="#a696cd" d="M228.5 68.5q2.32 1.902 3 5-2.826-1.323-4-4.5.343-.598 1-.5" style="opacity:1"/><path fill="#00fa00" d="M73.5 74.5q-1-2 0 0m8-1q2 1 0 0" style="opacity:1"/><path fill="#4cde32" d="M48.5 81.5q1.17 2.88 1 5.5-2.201 1.645-2.5 4.5l-1-1a12.4 12.4 0 0 1-4.5 5q-.91-.186-1-1 2-.5 0-1h-7v6q-2.128 1.426-5 1a177 177 0 0 1-1-26q2.845-1.957 7-2l7 .5q2 1 0 2 1.424.925 2.5-.5 1.395 3.078 4.5 4.5-1.911 1.465 0 2.5m-13 2q2.217-.393 4 1-.865 3.075-4 3z" style="opacity:1"/><path fill="#5ee03e" d="M81.5 74.5q1.722.996 4 .5 8.087 6.179-2 9.5a7.25 7.25 0 0 1-2.5-2q-3 2-6 0-3.675 2.109-3 6a61 61 0 0 0 5.5 5q5.427-7.32 10 0a26.7 26.7 0 0 0 1.5-7q.747 4.975.5 10a4.93 4.93 0 0 0-3 .5q-1.303 3.552-5 4.5-4-2-8 0-4.19-4.447-9-6.5l1-1q-2.972-.907-1-3-3.609-3.873 0-8a3.94 3.94 0 0 0-1-2q4.02-5.952 10-6.5 4-4 8 0" style="opacity:1"/><path fill="#5edf3b" d="M113.5 76.5q-2.875 4.99-8 10 1.712 1.388 0 2.5 5.322 3.07 8 8.5-1.356 1.064-1 3h-9q-2.421-2.065-3.5-7 .24 4.513-3.5 6.5a20.4 20.4 0 0 0-5.5 1.5 10.8 10.8 0 0 1-2.5-3q1.887-5.466 2-11.5-.066-5.897-2-11a4.93 4.93 0 0 1 3-.5v-3q4.03-.238 7 2.5-1.637 3.095-.5 6.5l1-5 1 3a6.98 6.98 0 0 1 3.5-2.5q-.841-2.348 2-4 5.646-1.549 8 3.5" style="opacity:1"/><path fill="#12cef3" d="M113.5 75.5q2 1 0 0" style="opacity:1"/><path fill="#bdeb67" d="M27.5 74.5q-.455 13.127 1 26-.925.166-1.5 1a7.3 7.3 0 0 0-2-3q-1-10.5 0-21l1 20q1.219-10.87-.5-21.5.816-1.076 2-1.5" style="opacity:1"/><path fill="#6de04d" d="M136.5 72.5q3.271-.324 5 2.5 5.729.105 11 .5h1q0 1 1 1v8q-4.319 2.238-8-1-3.26 3.87-6.5 0-1.065 2.21-3.5 2-1.91-6.547 0-13" style="opacity:1"/><path fill="#62e046" d="M163.5 82.5q-2 .5 0 1-.549 1.792-2.5 2a27 27 0 0 1-6.5-1v-8q-1 0-1-1h-1q2.296-3.78 7-3v3q2.405-.282 4 1.5-1.554 2.663 0 5.5" style="opacity:1"/><path fill="#63df40" d="M178.5 75.5q1.166.984 2 2.5-.956 2.57-3 .5-1.329 1.238-1 3 2.975-.515 4 2-.436 1.725-2.5 2-3.282.219-4-3-.864 3.528-4.5 3-3.29-.328-6-2v-1q1.469-4.687 1-10 3.734-.303 7 1.5l-2 1q3.396-1.047 5.5 1.5l1-2q1.006 1.128 2.5 1" style="opacity:1"/><path fill="#65e04c" d="M180.5 83.5q-1.025-2.515-4-2-.329-1.762 1-3 2.044 2.07 3-.5-.834-1.516-2-2.5a25.2 25.2 0 0 0 5.5-3q3.167 1.329 6.5 0a4.93 4.93 0 0 0 .5 3q3.445-.059 7-1l1 2q4.255-2.33 7.5 1-2.182 2.58-2.5 6-2.676 3.755-5 0-1.206 1.957-3.5 2a181 181 0 0 0-10.5 0 15.4 15.4 0 0 0-4.5-2" style="opacity:1"/><path fill="#12cef3" d="M49.5 80.5q-1 1 0 0" style="opacity:1"/><path fill="#52de2e" d="M61.5 82.5q-.925-.165-1.5-1-1.218 6.284.5 12 1.185.424 2 1.5.392 3.305-1.5 6.5-4.5-2-9 0l-2-2q.745-2.547-.5-5 3.726-2.387 3-7 .732-4.666-3-7a36 36 0 0 1 1-5q5.934-5.971 12 0a29.3 29.3 0 0 1-1 7" style="opacity:1"/><path fill="#70dbe1" d="M239.5 78.5q2.457 1.807 1 4-1.1-1.812-1-4" style="opacity:1"/><path fill="#7ae2b9" d="M289.5 79.5q-3.203 2.804-8 2v-1a41.6 41.6 0 0 1 8-1" style="opacity:1"/><path fill="#12cef3" d="M61.5 82.5q.384 5.654-1 11-1.718-5.716-.5-12 .575.835 1.5 1" style="opacity:1"/><path fill="#65e052" d="M136.5 72.5q-1.91 6.453 0 13a112 112 0 0 0-12 0q-8.025-1.275-5.5-9 2.034-1.32 4.5-1 .5 10 1 0h10q-.322-2.519 2-3" style="opacity:1"/><path fill="#a5efb2" d="M40.5 93.5v1q-2.379 1.37-4.5 0-.15 3.23-2.5 5v-6z" style="opacity:1"/><path fill="#69e04a" d="M141.5 93.5q-1.201 2.313-1 5h-3q.23-8.736-2-1a10 10 0 0 0 1 3 62.8 62.8 0 0 0-15.5 1 10.8 10.8 0 0 1-2.5-3q1.816-1.83 0-3.5a111 111 0 0 0 10.5-7.5q4.046 2.55 6 7 .718-3.219 4-3 2.064.275 2.5 2" style="opacity:1"/><path fill="#6be054" d="M151.5 91.5a18.5 18.5 0 0 1 3.5 2q3.26-3.601 7 0 4.338-3.873 8.5.5-.582 2.712 0 5-9.45 2.61-19 1.5 1.577-1.083 2-3-1-2-2 0-1.196 1.467-2-1l3-2a5.6 5.6 0 0 1-1-3" style="opacity:1"/><path fill="#62df45" d="M151.5 91.5a5.6 5.6 0 0 0 1 3l-3 2q.804 2.467 2 1h2q-.423 1.917-2 3-7.731.393-15 0a10 10 0 0 1-1-3q2.23-7.736 2 1h3q-.201-2.687 1-5a31.6 31.6 0 0 1 3-5q2.981 2.74 7 3" style="opacity:1"/><path fill="#6be297" d="M113.5 97.5q1.538.595.5 2a2.43 2.43 0 0 1-.5-2" style="opacity:1"/><path fill="#a395c7" d="M248.5 103.5h20q-.467 1.467-2 2-8.5-2-17 0-1.197-.686-1-2" style="opacity:1"/><path fill="#afd0ca" d="M177.5 119.5q5.252 1.945 10.5 0l1.5 1.5q-5.714 2.382-12 1-1.647-1.155 0-2.5" style="opacity:1"/><path fill="#adddbf" d="M76.5 121.5q11.265-1.98 23 0-11.586 1.947-23 0" style="opacity:1"/></svg>