<svg xmlns="http://www.w3.org/2000/svg" width="500" height="500" style="shape-rendering:geometricPrecision;text-rendering:geometricPrecision;image-rendering:optimizeQuality;fill-rule:evenodd;clip-rule:evenodd"><path fill="#0b0c11" d="M-.5-.5h500v500H-.5z" style="opacity:1"/><path fill="#121219" d="M49.5 181.5q201.677.995 407 1v134q-204.14.375-407 0-.225-74.912 0-135" style="opacity:1"/><path fill="#8e63e8" d="M407.5 227.5q.305 2.317 2 4a42.2 42.2 0 0 1 8 7.5 89.4 89.4 0 0 1 2 20q-.629 7.22 0 14a106 106 0 0 1-6.5 2.5q-2.475-2.087-1.5-4.5-4-1 0-2-1.457-1.806-3-1.5a4.46 4.46 0 0 1 2-1.5q-2.238-2.987-3-6.5.426-2.872-1-5 3.43-12.01-8.5-14-4.303 1.292-7 5a544 544 0 0 0-.5 33h-16v-50q8.166-.913 15 2-1.694 3.192-.5 7 1.075-.816 1.5-2a254 254 0 0 1 7-6.5 52 52 0 0 1 10-1.5" style="opacity:1"/><path fill="#4c3778" d="M389.5 230.5q-.426 2.872 1 5-.425 1.184-1.5 2-1.194-3.808.5-7" style="opacity:1"/><path fill="#8b60e6" d="M308.5 257.5h-34q-.401 2.398 1 4 4.437 10.553 15 5.5a7.25 7.25 0 0 0 2-2.5q8-2 16 0-3.801 11.051-15 14.5-30.587 6.135-35-24.5 2.246-29.871 32-26.5 20.904 7.212 18 29.5" style="opacity:1"/><path fill="#13121a" d="M293.5 247.5q-9.639.93-18-2 3.901-8.344 13-5.5 4.113 2.829 5 7.5" style="opacity:1"/><path fill="#8e63e9" d="M211.5 217.5q-.09 9.474 6 17 3.77 2.022 5.5 6 1-2 2 0 1.67 1.89.5 3.5 1.457 1.806 3 1.5a3.65 3.65 0 0 1-1 1.5 12.9 12.9 0 0 0 5 .5l1 2q.09.814 1 1a381 381 0 0 0 1-39h15v67a98.4 98.4 0 0 1-14-.5 2053 2053 0 0 0-25-36.5q-.09-.814-1-1a362 362 0 0 0-1 38h-16v-67a98.4 98.4 0 0 1 14 .5q2.908 2.148 4 5.5" style="opacity:1"/><path fill="#9f66e0" d="M211.5 217.5a21149 21149 0 0 1 21 30 12.9 12.9 0 0 1-5-.5 3.65 3.65 0 0 0 1-1.5q-1.543.306-3-1.5 1.17-1.61-.5-3.5-1-2-2 0-1.73-3.978-5.5-6-6.09-7.526-6-17" style="opacity:1"/><path fill="#5355c8" d="M235.5 211.5a381 381 0 0 1-1 39q-.91-.186-1-1z" style="opacity:1"/><path fill="#2d2041" d="m211.5 241.5-2 37a362 362 0 0 1 1-38q.91.186 1 1" style="opacity:1"/><path fill="#5f438f" d="M275.5 245.5q8.361 2.93 18 2-9.217 1.485-19 1-.356-1.937 1-3" style="opacity:1"/><path fill="#a56def" d="M407.5 227.5q10.68 1.952 14.5 12 .75 19.494.5 39h-15v-19q.762 3.513 3 6.5a4.46 4.46 0 0 0-2 1.5q1.543-.306 3 1.5-4 1 0 2-.975 2.413 1.5 4.5a106 106 0 0 0 6.5-2.5q-.629-6.78 0-14a89.4 89.4 0 0 0-2-20 42.2 42.2 0 0 0-8-7.5q-1.695-1.683-2-4" style="opacity:1"/><path fill="#2e2143" d="M308.5 257.5q-16.232 1.492-33 1v3q-1.401-1.602-1-4z" style="opacity:1"/><path fill="#8f63e7" d="M333.5 227.5q39.801-.934 30.5 38-13.61 21.388-37.5 11.5-17.849-14.07-9.5-35.5 5.528-10.364 16.5-14" style="opacity:1"/><path fill="#121219" d="M337.5 239.5q8.794-.466 11.5 8 1.428 8.793-2 17-10.839 7.608-15-5-2.97-11.812 5.5-20" style="opacity:1"/><path fill="#513a7e" d="M406.5 254.5q1.426 2.128 1 5v19h15q-7.71 1.482-16 1z" style="opacity:1"/><path fill="#9d6aea" d="M64.5 190.5h105v112h-105z" style="opacity:1"/><path fill="#8c5fe7" d="M84.5 192.5q.9 4.687 3.5 1l1 1q6.03-2.82 12.5 0a245 245 0 0 0 8.5-2q4.597.16 9 0l1 2q3.822.051 8-1 1.21 5.923 1.5 0 3.46.729 6.5 0 2.777 3.422 5 0 3.948-.31 7 1 2.822-3.487 5 0 2.694-.62 5 0l1-2 3 4q1.72-1.437 3 1a15.3 15.3 0 0 0 1.5 4.5 9095 9095 0 0 1-1 95.5q-47.796.407-93.5 1l-2-2q-3.354-11.443-3-23-1.527 1.81-1.5-1 .043-2.294 2-3.5.405-13.88-1-28 3.306-6.119 0-12 .143-13.084 2-28-.277-4.227 3.5-7.5 4.155 1.238 8 1a36 36 0 0 0 4.5-2" style="opacity:1"/><path fill="#0a090d" d="M88.5 211.5a98.4 98.4 0 0 1 14 .5 2405 2405 0 0 1 25 35.5q-.059 1.884 1.5 3 .75-17.493.5-35v-4h16v68a49.9 49.9 0 0 1-14-1q-1.814-3.661-5-6-1.26-3.53-4-6a97.6 97.6 0 0 0-13-19q-.375-3.261-3-5-.424-1.184-1.5-2a760 760 0 0 0-.5 39h-16z" style="opacity:1"/><path fill="#c86399" d="M122.5 266.5q2.74 2.47 4 6-3.879-1.48-4-6" style="opacity:1"/><path fill="#d3646f" d="M109.5 247.5a97.6 97.6 0 0 1 13 19q-8.247-8.257-13-19" style="opacity:1"/><path fill="#aa5ba1" d="M106.5 242.5q2.625 1.739 3 5-3.34-1.351-3-5" style="opacity:1"/><path fill="#c266b7" d="M129.5 215.5q.25 17.507-.5 35-1.559-1.116-1.5-3-.658-16.335 2-32" style="opacity:1"/><path fill="#c162a8" d="M88.5 211.5v65q-2.318-18.19-2-37l.5-27q.575-.834 1.5-1" style="opacity:1"/></svg>