<svg xmlns="http://www.w3.org/2000/svg" width="128" height="192" style="shape-rendering:geometricPrecision;text-rendering:geometricPrecision;image-rendering:optimizeQuality;fill-rule:evenodd;clip-rule:evenodd"><path fill="#75dc83" d="M71.5-.5h5q9.67 12.858 12 29a72 72 0 0 1-5.5-2q-1.72 1.437-3-1-8.086.414-16 0-1.963-3.587-3 0l-1-2q-2.098.826-4 1-.417-1.374-1.5-2 5.666-13.655 17-23" style="opacity:1"/><path fill="#5ed270" d="M54.5 22.5q1.083.626 1.5 2 1.902-.174 4-1l1 2q1.037-3.587 3 0 7.914.414 16 0 1.28 2.437 3 1a72 72 0 0 0 5.5 2 67.2 67.2 0 0 1 1 15q.453 3.84-1 7 .003-3.495-2.5-6-3.264-.108-6 1l-4-2-5 1-3-2H54q-1.986-2.07-4-1a2.43 2.43 0 0 1-.5-2q-2-1.5 0-3 .87-7.707 5-14" style="opacity:1"/><path fill="#4db658" d="M49.5 36.5q-2 1.5 0 3l-2 5a8.4 8.4 0 0 0-.5-4 2043 2043 0 0 1-33.5 14 19.6 19.6 0 0 1-2-3.5q-.366-10.656 1.5-21.5.597-4.098 4.5-5.5 6.654-.372 13 2a131 131 0 0 1 19 10.5" style="opacity:1"/><path fill="#4cb859" d="M127.5 39.5v12a79 79 0 0 1-9 22 1175 1175 0 0 1-14-36q12.012-4.222 23 2" style="opacity:1"/><path fill="#4ca552" d="M104.5 37.5a1175 1175 0 0 0 14 36 56.4 56.4 0 0 1-10 15q-1.5-.5-2-2-8.478-12.976-21-22 2.123-6.687 3-14 1.453-3.16 1-7a51.7 51.7 0 0 1 15-6" style="opacity:1"/><path fill="#4dce5f" d="M49.5 39.5a2.43 2.43 0 0 0 .5 2q2.014-1.07 4 1h14l3 2 5-1 4 2q2.736-1.108 6-1 2.503 2.505 2.5 6-.877 7.313-3 14-17.792-10.17-38-6v-14z" style="opacity:1"/><path fill="#4ca552" d="M47.5 44.5v14a5314 5314 0 0 0-11 4.5 349 349 0 0 0-17 13.5 82.6 82.6 0 0 1-6-22 2043 2043 0 0 0 33.5-14 8.4 8.4 0 0 1 .5 4" style="opacity:1"/><path fill="#f8e069" d="M85.5 64.5q12.522 9.024 21 22-20.783.745-41-3 3.943-4.695 8.5-9 .725-1.422.5-3-2.55-.24-5 .5L60 81.5 49.5 71q-3.888-.45-2.5 3.5a83 83 0 0 1 7.5 8q-.352.895-1.5 1A1470 1470 0 0 0 20.5 80q-1.128-1.005-1-2.5v-1a349 349 0 0 1 17-13.5q5.538-2.273 11-4.5 20.208-4.17 38 6" style="opacity:1"/><path fill="#fac937" d="M65.5 83.5q-1.184.424-2 1.5l6.5 6.5q.925 1.424-.5 2.5-2 1-4 0L60 88.5q-3.496 5.293-9.5 6a8.4 8.4 0 0 1 .5-4 46.7 46.7 0 0 0 5.5-6q-.533-1.533-2-2a83 83 0 0 0-7.5-8q-1.388-3.95 2.5-3.5L60 81.5l9.5-9.5q2.45-.74 5-.5a4.93 4.93 0 0 1-.5 3 107 107 0 0 0-8.5 9" style="opacity:1"/><path fill="#f9e060" d="M19.5 77.5q-.128 1.495 1 2.5A1470 1470 0 0 1 53 83.5q1.148-.105 1.5-1 1.467.467 2 2a46.7 46.7 0 0 1-5.5 6 8.4 8.4 0 0 0-.5 4q6.004-.707 9.5-6l5.5 5.5q2 1 4 0 1.425-1.076.5-2.5L63.5 85q.816-1.076 2-1.5 20.217 3.745 41 3 .5 1.5 2 2a108.4 108.4 0 0 1 8 18q-2.319 1.704-5.5 2a340 340 0 0 1-17.5-2q-9-8-18 0-.627-1.083-2-1.5a624 624 0 0 1-33.5-3.5q-.598.342-.5 1-6.23-3.34-13-1-8.2-1.836-17-2.5-1.255-1.517-1-3.5 3.246-10.515 11-18" style="opacity:1"/><path fill="#f5f3ee" d="M39.5 102.5q7.376 11.505-4 19-5.946.017-11-3-6.684-9.396 2-17 6.77-2.34 13 1" style="opacity:1"/><path fill="#f2f1ee" d="M93.5 106.5q2.35 7.309-1 14-4.458 3.225-10 3-11.265-5.052-7-17 9-8 18 0" style="opacity:1"/><path fill="#f9d654" d="M8.5 95.5q-.255 1.983 1 3.5 8.8.664 17 2.5-8.684 7.604-2 17-11.377 1.567-1 6.5 5 1 10 0 1.985-1.224 2-3.5 11.376-7.495 4-19-.098-.658.5-1a624 624 0 0 0 33.5 3.5q1.373.417 2 1.5-4.265 11.948 7 17-.658-.098-1 .5 6.384 6.466 15 3 4.389-6.445-4-6.5 3.35-6.691 1-14a340 340 0 0 0 17.5 2q3.181-.296 5.5-2 5.77 21.418 3 43-7.742-.606-16-3a19.6 19.6 0 0 1 3.5-4q1.11-1.873-.5-3a3753 3753 0 0 0-78-7.5q-3.34-.181-5.5-2.5l-1 2q-2.33-5.699-4 0a230 230 0 0 0-14.5-2q-2.421.455-4 2v-9q2.13-8.336 4.5-17 1.266-5.594 4.5-10" style="opacity:1"/><path fill="#11100e" d="M81.5 106.5q10.916-1.832 9.5 9-7.13 8.176-13-1-1.08-5.33 3.5-8" style="opacity:1"/><path fill="#dfdedf" d="M80.5 108.5q5.775.301 3 5.5-5.944.177-3-5.5" style="opacity:1"/><path fill="#151513" d="M30.5 103.5q11.277.58 7.5 11-9.058 6.848-12.5-4 .77-4.766 5-7" style="opacity:1"/><path fill="#e5e3e4" d="M28.5 106.5q7.34 1.56 1 6-3.358-2.45-1-6" style="opacity:1"/><path fill="#e6afc7" d="M24.5 118.5q5.054 3.017 11 3-.015 2.276-2 3.5a25.2 25.2 0 0 1-10 0q-10.377-4.933 1-6.5" style="opacity:1"/><path fill="#191913" d="M47.5 120.5q4.744 2.912 10.5 4 4.2-.48 7.5-3 1.032 3.327-3 4.5-6.917 1.51-13-2-1.985-1.224-2-3.5" style="opacity:1"/><path fill="#e6afc7" d="M92.5 120.5q8.389.055 4 6.5-8.616 3.466-15-3 .342-.598 1-.5 5.542.225 10-3" style="opacity:1"/><path fill="#f9d048" d="M106.5 139.5a4.93 4.93 0 0 0-3 .5 229 229 0 0 1-13 12.5 134 134 0 0 1-10-9.5q-3.887-.451-2.5 3.5a68.5 68.5 0 0 1 8.5 10.5 32.4 32.4 0 0 1-8 8.5 2342 2342 0 0 1-41-4 17.9 17.9 0 0 1-5-5 108 108 0 0 1 8.5-9q.74-2.451.5-5-7.775 3.51-12.5 11a230 230 0 0 1-12.5-13q-1.834-1.671-4-.5-1.425 1.077-.5 2.5A138 138 0 0 1 25.5 157a19.6 19.6 0 0 1-4 3.5 1571 1571 0 0 1-16.5-2q-1.605.042-2.5 1a115 115 0 0 1-3-9v-19q1.579-1.545 4-2 7.354.779 14.5 2 1.67-5.699 4 0l1-2q2.16 2.319 5.5 2.5a3753 3753 0 0 1 78 7.5" style="opacity:1"/><path fill="#edb62c" d="M37.5 161.5q2.868 5.129 7.5 9a8.44 8.44 0 0 1 .5 4 4.93 4.93 0 0 1-3-.5L29 160.5q-4.23 2.23-6.5 6.5-3.16 1.281-4-2a21 21 0 0 1 3-4.5 19.6 19.6 0 0 0 4-3.5A138 138 0 0 0 12 142.5q-.925-1.423.5-2.5 2.166-1.171 4 .5a230 230 0 0 0 12.5 13q4.725-7.49 12.5-11a12.9 12.9 0 0 1-.5 5 108 108 0 0 0-8.5 9 17.9 17.9 0 0 0 5 5m69-22q1.61 1.127.5 3a19.6 19.6 0 0 0-3.5 4q-4.424 4.932-9 10a18.7 18.7 0 0 0 5.5 7q1.387 3.951-2.5 3.5a64 64 0 0 0-7-6.5l-15 14q-1.83-.58-2-2.5a47.7 47.7 0 0 1 5-6.5 32.4 32.4 0 0 0 8-8.5 68.5 68.5 0 0 0-8.5-10.5q-1.387-3.951 2.5-3.5a134 134 0 0 0 10 9.5 229 229 0 0 0 13-12.5 4.93 4.93 0 0 1 3-.5" style="opacity:1"/><path fill="#f9c93d" d="M103.5 146.5q8.258 2.394 16 3-2.191 27.657-28 37.5-10.521 3.151-21 4.5h-21q-2.5-2-5 0h-1q-.5-2-1 0h-1q-.166-.925-1-1.5-29.18-2.962-38-30.5.895-.958 2.5-1 8.262 1.046 16.5 2a21 21 0 0 0-3 4.5q.84 3.281 4 2 2.27-4.27 6.5-6.5L42.5 174a4.93 4.93 0 0 0 3 .5 8.44 8.44 0 0 0-.5-4q-4.632-3.871-7.5-9a2342 2342 0 0 0 41 4 47.7 47.7 0 0 0-5 6.5q.17 1.92 2 2.5l15-14a64 64 0 0 1 7 6.5q3.887.451 2.5-3.5a18.7 18.7 0 0 1-5.5-7q4.576-5.068 9-10" style="opacity:1"/></svg>