<svg xmlns="http://www.w3.org/2000/svg" xmlns:xlink="http://www.w3.org/1999/xlink" width="800" height="800" viewBox="0 0 24 24"><g id="SVGRepo_iconCarrier"><defs><path id="heart-a" d="M7.646 1.193Q8.673 7.356 3.54 9.126t-2.755 7.93L3 19.266l9.523-9.718q1.473-4.697-2.09-7.76-2.362-1.82-2.787-.595"/><path id="heart-c" d="M18.67 10.047c1.774-1.842 1.773-4.825-.003-6.666a4.44 4.44 0 0 0-6.431-.003L10.97 4.69 9.747 3.42a4.426 4.426 0 0 0-6.418 0c-1.772 1.838-1.772 4.816 0 6.652L10.976 18zm-9.134 9.341L1.89 11.462c-2.52-2.611-2.52-6.817 0-9.429a6.424 6.424 0 0 1 9.079-.216 6.436 6.436 0 0 1 9.138.176c2.522 2.614 2.524 6.824.005 9.441l-7.67 7.948a2 2 0 0 1-1.022.568 2 2 0 0 1-1.884-.562"/></defs><g fill="none" fill-rule="evenodd" transform="translate(1 2)"><g transform="translate(8)"><mask id="heart-b" fill="#fff"><use xlink:href="#heart-a"/></mask><use xlink:href="#heart-a" fill="#d8d8d8"/><g fill="#ff9ef7" mask="url(#heart-b)"><path d="M-9-2h24v24H-9z"/></g></g><mask id="heart-d" fill="#fff"><use xlink:href="#heart-c"/></mask><use xlink:href="#heart-c" fill="#000" fill-rule="nonzero"/><g fill="#ab61ff" mask="url(#heart-d)"><path d="M-1-2h24v24H-1z"/></g></g></g></svg>