<svg xmlns="http://www.w3.org/2000/svg" width="512" height="256" style="shape-rendering:geometricPrecision;text-rendering:geometricPrecision;image-rendering:optimizeQuality;fill-rule:evenodd;clip-rule:evenodd"><path fill="#3ea1ad" d="M145.5 98.5q-1.083.627-1.5 2-.907-2.972-3-1l-1-3q-.324 2.826-2 5l-1-1-4 4h-3q-.663 3.268-3 2l-4 4-1-1q-2.546 3.198-6.5 4a158 158 0 0 0-11-9.5q-19.22-7.927-30.5 9.5a9.5 9.5 0 0 0-1.5-2.5q11.528-33.532 47-28 15.872 3.16 26 15.5" style="opacity:1"/><path fill="#43a6ad" d="M145.5 98.5q6.936 8.2 17 11-3.969-.588-7.5 0a7.3 7.3 0 0 1-2-3q-4.172 3.681-6 9-1-6-2 0-1-6-2 0l-1-2-4 6q-1-6-2 0-2.014-1.07-4 1 .696 2.54 2.5 5-12-2.337-19-12 3.954-.802 6.5-4l1 1 4-4q2.337 1.268 3-2h3l4-4 1 1q1.676-2.174 2-5l1 3q2.093-1.972 3 1 .417-1.373 1.5-2" style="opacity:1"/><path fill="#49adae" d="M134.5 125.5q-1.804-2.46-2.5-5 1.986-2.07 4-1 1-6 2 0l4-6 1 2q1-6 2 0 1-6 2 0 1.828-5.319 6-9a7.3 7.3 0 0 0 2 3q3.531-.588 7.5 0 14.066-.659 22.5-12-3.166 23.673-26.5 29.5-9.871.28-19.5 1.5-1.965-2.096-4.5-3" style="opacity:1"/><path fill="#1f252b" d="M202.5 110.5h27v7h-10v27h-7v-27a61 61 0 0 1-11-.5q1.384-3.062 1-6.5" style="opacity:1"/><path fill="#1e252a" d="M252.5 110.5h7v7h-7zm12 0h7v34h-7z" style="opacity:1"/><path fill="#1f272d" d="M310.5 110.5h8v7h-8z" style="opacity:1"/><path fill="#1f252b" d="M365.5 110.5h7v34q-4.341.687-7.5-2-10.749 5.799-16-5-1.465-7.851 2-15 6.125-5.974 13.5-2a25.9 25.9 0 0 0 1-10m-6 14q8.538 2.252 5.5 11-1.958 4.21-6.5 2.5-6.021-7.216 1-13.5" style="opacity:1"/><path fill="#1f272d" d="M396.5 110.5q16.34-4.108 19 12h-8q-3.059-9.681-11-3-3.73 7.344-.5 15 7.707 8.496 11.5-2a41 41 0 0 1 9 .5q-1.989 8.99-10.5 12.5a62 62 0 0 0-10.5-1.5q-4.006-1.875-6.5-5.5-9.376-17.626 7.5-28" style="opacity:1"/><path fill="#1f262c" d="M425.5 110.5a85 85 0 0 1 13 .5q5.8 2.79 7 9-3.965 2.154-8 .5-.955-2.704-3.5-4-2.468.29-5.5.5-3.04 2.093-1 5l14 4q8 8.5 0 17-7.869 2.259-16 1-7.534-3.322-7-11.5h8q1.527 8.91 10 4.5 2-2.5 0-5l-12-3q-9.389-5.933-3.5-15.5a29 29 0 0 0 4.5-3" style="opacity:1"/><path fill="#1f262c" d="M454.5 110.5a85 85 0 0 1 13 .5q6.588 2.409 7 9.5a16.6 16.6 0 0 1-7 .5q-3.177-6.626-10-3.5-1.87 2.259 0 4.5a82 82 0 0 0 11 3q9.233 4.69 5.5 14.5-1.841 3.339-5.5 4.5-8.888 1.666-17-2-3.603-4.055-4-9.5h8q2.019 8.01 10 5 3.816-2.838 0-5.5a53 53 0 0 1-15-5q-4.35-5.633-.5-12.5 2.096-2.355 4.5-4m-219 8q6.562-.23 11.5 4a91 91 0 0 1 1.5 22q-4.341.687-7.5-2-7.377 4.326-14-1-3.077-5.778 1.5-10.5a152 152 0 0 1 13-3.5q-1.155-2.658-4-3l-6 3q-6.098-1.017-2.5-6a41 41 0 0 1 6.5-3m1 15q7.359-.819 3 4.5-3.763 3.34-6-1 .856-2.399 3-3.5m98-15q10.045-.877 10.5 9a64.2 64.2 0 0 1 0 16q-3.572 1.402-7.5 1 .683-9.77-1.5-19-2.374-.01-5 1a63.1 63.1 0 0 0-1.5 18h-7v-25q4.341-.687 7.5 2 2.113-1.922 4.5-3" style="opacity:1"/><path fill="#1e252a" d="M252.5 119.5h7v25h-7z" style="opacity:1"/><path fill="#1f262c" d="M273.5 119.5h8q1.15 6.498 2.5 13a139 139 0 0 0 4.5-12.5q3.404-1.137 6.5.5a45.6 45.6 0 0 0 3.5 11 166 166 0 0 0 3-11 13.1 13.1 0 0 1 7-1l-6 25q-3.929.402-7.5-1a191 191 0 0 0-4-13l-3.5 14a13.1 13.1 0 0 1-7-1 323 323 0 0 1-7-24" style="opacity:1"/><path fill="#1f252b" d="M310.5 119.5h8v25h-8z" style="opacity:1"/><path fill="#3ea1ad" d="M87.5 129.5q-4.71 5.742-11.5 9l-1-1q-.663 3.268-3 2a21.8 21.8 0 0 1-6 5l-1-1q-2.473 2.18-5.5 3-14.148-1.678-22 10.5-1 1-2 0 12.591-38.55 52-27.5" style="opacity:1"/><path fill="#43a7ae" d="M87.5 129.5q9.189 1.837 15 9-3.731 4.445-11 6.5 1.552 2.26-.5 4.5-1.462-3.567-2 1-1.67-5.699-4 0l-1-1a32 32 0 0 1-7.5 5.5 95 95 0 0 1 8 8.5q-7.571-5.306-14-12.5-4.844-3.924-11-4.5 3.027-.82 5.5-3l1 1a21.8 21.8 0 0 0 6-5q2.337 1.268 3-2l1 1q6.79-3.258 11.5-9" style="opacity:1"/><path fill="#49adae" d="M102.5 138.5q8.508 7.01 17 14-1.494-.129-2.5 1-1-4-2 0-1-6-2 0-1.61-1.17-3.5.5 4 1 0 2 3.601 1.207-.5 2.5-4.101-1.293-.5-2.5-2.266-2.423-4 0 1.26 2.5-1.5.5-2.23 1.13-.5 2.5-3.137 2.513-6.5 1.5-2.23 1.13-.5 2.5-3.31 1.57-5 4.5-4.047-.517-6-4a95 95 0 0 0-8-8.5 32 32 0 0 0 7.5-5.5l1 1q2.33-5.699 4 0 .538-4.567 2-1 2.052-2.24.5-4.5 7.269-2.055 11-6.5" style="opacity:1"/><path fill="#4ab2ae" d="M90.5 167.5q1.69-2.93 5-4.5-1.73-1.37.5-2.5 3.363 1.013 6.5-1.5-1.73-1.37.5-2.5 2.76 2 1.5-.5 1.734-2.423 4 0-3.601 1.207.5 2.5 4.101-1.293.5-2.5 4-1 0-2 1.89-1.67 3.5-.5 1-6 2 0 1-4 2 0 1.006-1.129 2.5-1 17.556 4.815 28-10-5.517 29.718-36.5 30-11.203.617-20.5-5" style="opacity:1"/></svg>