<svg xmlns="http://www.w3.org/2000/svg" width="574" height="126" style="shape-rendering:geometricPrecision;text-rendering:geometricPrecision;image-rendering:optimizeQuality;fill-rule:evenodd;clip-rule:evenodd"><path fill="#39b0f1" d="M86.5 18.5q3.7-1.7 8-.5a110 110 0 0 0 18 8l3.5 3.5q.75 34.996.5 70h-1v-51a145 145 0 0 0-.5-17l-2 2q-5.604-1.2-11-1-3.511.76-1.5 3.5-1.866.684-2.5-1.5l-1 3-1-5q-1.97 3.885-2 8l1-3q2.187 1.87 4.5 0 1.867 2.183-.5 4l-1-2q-1.574 2.41-4.5 2v11q10.22 1.487 21 1v3a229 229 0 0 0-20-1q-1 15.738-2 31-1 0-1-1 2-21 0-42a99.6 99.6 0 0 0 .5-24q-2.55-1.36-5.5-1" style="opacity:1"/><path fill="#1979b7" d="M86.5 19.5q1.466.467 2 2-1.854 2.716 0 5.5-.608 1.418-2 2 3.384 2.25 0 5a3.94 3.94 0 0 0 1 2 26.7 26.7 0 0 0-1.5 6.5A242 242 0 0 0 64.5 41a237 237 0 0 1 21-2.5q-8.065-1.374-16.5 0-.684-1.866 1.5-2.5l8-1-7-1q1.818-1.66-1-1.5a114 114 0 0 1 16-13" style="opacity:1"/><path fill="#1872b5" d="M86.5 19.5v-1q2.95-.36 5.5 1a99.6 99.6 0 0 1-.5 24 218 218 0 0 0-14 11.5 144 144 0 0 0-14 8.5q-.925.165-1.5 1A47.9 47.9 0 0 0 48.5 55q-1.128-1.005-1-2.5 11.452-9.945 23-20 2.818-.16 1 1.5l7 1-8 1q-2.184.634-1.5 2.5 8.435-1.374 16.5 0a237 237 0 0 0-21 2.5A242 242 0 0 1 86 42.5q.354-3.395 1.5-6.5a3.94 3.94 0 0 1-1-2q3.384-2.75 0-5 1.392-.582 2-2-1.854-2.784 0-5.5-.534-1.533-2-2" style="opacity:1"/><path fill="#25a9ee" d="M115.5 48.5q-1.401 1.602-1 4h-21v-11q2.926.41 4.5-2l1 2q2.367-1.817.5-4-2.313 1.87-4.5 0l-1 3q.03-4.115 2-8l1 5 1-3q.634 2.184 2.5 1.5-2.011-2.74 1.5-3.5 5.396-.2 11 1l2-2a145 145 0 0 1 .5 17" style="opacity:1"/><path fill="#1a86d0" d="M47.5 52.5q-.128 1.495 1 2.5A47.9 47.9 0 0 1 62 64.5q.575-.835 1.5-1v2q-10.245.252-20 .5 3.96 1.677 8.5 1.5 6.845-1.675 12.5 1.5-11.135-.005-21.5-.5.39 3.925 4.5 5.5-.342.598-1 .5-7.038-3.413-11.5-10-.575.835-1.5 1a5.6 5.6 0 0 0-1-3 104.5 104.5 0 0 1-13-11q-2.328-4.6 2-7.5l-1-1q6.27-4.06 13-1a57.3 57.3 0 0 0 14 10.5" style="opacity:1"/><path fill="#f4f6f8" d="M278.5 44.5h-3a145 145 0 0 0 0 34q-.09.814-1 1a325 325 0 0 1-1-36q2.872-.427 5 1" style="opacity:1"/><path fill="#dfebf4" d="M165.5 46.5q-3.34-2.52-5 1-1.356-1.064-1-3 3.873-.712 6 2" style="opacity:1"/><path fill="#638cd2" d="M196.5 44.5v4h-4q-1.647-1.65-.5-4 2.424-1.95 4.5 0" style="opacity:1"/><path fill="#8bb7df" d="M384.5 44.5h1v34q-2.458.639-4 0v-1h3z" style="opacity:1"/><path fill="#4d7ccb" d="M396.5 44.5q1.779 2.192 0 4h-4v-4z" style="opacity:1"/><path fill="#79a4dc" d="M275.5 44.5q1 66 2 0h1q1.739 16.739.5 34-1.48 1.007-3.5 0a145 145 0 0 1 0-34" style="opacity:1"/><path fill="#0063c1" d="M275.5 44.5h2q-1 66-2 0" style="opacity:1"/><path fill="#eef4f7" d="M385.5 44.5h-4a43.1 43.1 0 0 1-1 13q-.91-.186-1-1 1.086-6.134 1-13 2.872-.427 5 1" style="opacity:1"/><path fill="#0866c3" d="M384.5 44.5v33h-3v-2q-.626-1.083-2-1.5 1.255-1.517 1-3.5 1.707-4.204.5-9-.625-1.884-2.5-2-.166-.925-1-1.5a18.4 18.4 0 0 0-6-.5 2.43 2.43 0 0 1-2-.5q1.374-.417 2-1.5a25 25 0 0 1 8 1q.09.814 1 1a43.1 43.1 0 0 0 1-13z" style="opacity:1"/><path fill="#0b67c3" d="M455.5 45.5q5.547.079 11 1 .322 2.519-2 3h-1q-3.703-1.225-8-1.5l-2-1q1.374-.417 2-1.5" style="opacity:1"/><path fill="#b2cae8" d="M453.5 45.5q5.716-1.718 12-.5 3.803 1.392 3 5.5-2.398.401-4-1 2.322-.481 2-3a72 72 0 0 0-11-1z" style="opacity:1"/><path fill="#296dc6" d="M520.5 77.5h-3a19.2 19.2 0 0 0-1-6q.765-6.47-2-12-3.449-3.403-8-1-1.488.258-2-1l1-2a44.8 44.8 0 0 1 10 1q.09.814 1 1a43.1 43.1 0 0 0 1-13h3z" style="opacity:1"/><path fill="#b0cee7" d="M520.5 78.5v-34h-3a43.1 43.1 0 0 1-1 13q-.91-.186-1-1 1.477-6.201 1-13h5q.492 17.768-1 35" style="opacity:1"/><path fill="#3f79ca" d="M165.5 46.5v1q-.233 4.824 3 8v1q-.233 4.824 3 8 1.857 2.571 2 6 .209 2.755 2 1a9.1 9.1 0 0 0 1-5q.925-.165 1.5-1a82 82 0 0 0 3.5-12q2.136-3.021 2-7v-1q2.217-.393 4 1a9.1 9.1 0 0 0-1 5q.356 1.936-1 3-3.356 6.052-5 13a103 103 0 0 1-3 11h-6a44.8 44.8 0 0 1-4-12q.147-3.08-2-5 .361-3.597-2-6 .361-3.597-2-6-1.257-.513-1-2 1.66-3.52 5-1" style="opacity:1"/><path fill="#bbd2ea" d="M183.5 45.5q3.025-2.06 6 .5a87 87 0 0 0-3 5.5 9.1 9.1 0 0 1 1-5q-1.783-1.393-4-1" style="opacity:1"/><path fill="#cbddef" d="M303.5 45.5q-.71 2.11-3 2 .71-2.11 3-2" style="opacity:1"/><path fill="#afc8e8" d="M303.5 45.5q5.716-1.718 12-.5 2.483 2.166 2 5.5-1.937.356-3-1 1.356-1.064 1-3a55 55 0 0 0-12-1" style="opacity:1"/><path fill="#b9d1ea" d="M396.5 44.5h-4v4h4q-.425 1.185-1.5 2-5.998-.717-3.5-6 2.698-1.932 5 0" style="opacity:1"/><path fill="#82a4db" d="M453.5 45.5h2q-.626 1.083-2 1.5l2 1q4.297.275 8 1.5-18.207-1.29-16 17-1.232-4.712-1.5-10-1-2-2 0-1.576 9.441 2.5 18-10.736-14.885 3-27.5a10.1 10.1 0 0 1 4-1.5" style="opacity:1"/><path fill="#477ccb" d="M303.5 45.5a55 55 0 0 1 12 1q.356 1.936-1 3-5.654-.384-11 1-4 3 0 6 1.2 3.36 5 3 3.261.375 5 3a6.54 6.54 0 0 0 3 3q3.126 3.74 1 8a6.54 6.54 0 0 0-3 3 89.4 89.4 0 0 1-15 1q-1.494.128-2.5-1-1.147-2.35.5-4 1.337.915 3 1 5.622 3.7 12 .5 1.966-3.41 0-6.5-4.054-2.52-8-5-.71-2.11-3-2a6.54 6.54 0 0 0-3-3 29.2 29.2 0 0 1 1-9q0-1 1-1 2.29.11 3-2" style="opacity:1"/><path fill="#8eb5df" d="M196.5 44.5q1.426 2.128 1 5-2.872.427-5-1h4z" style="opacity:1"/><path fill="#a3c4e5" d="M327.5 54.5q-1.426-2.128-1-5h-3q1.142-1.336 3-2a13.1 13.1 0 0 1 1 7" style="opacity:1"/><path fill="#9dbde4" d="M183.5 46.5q.136 3.979-2 7-.136-3.979 2-7" style="opacity:1"/><path fill="#9ec0e4" d="M165.5 47.5q2.057 3.654 3 8-3.233-3.176-3-8" style="opacity:1"/><path fill="#96bde1" d="M161.5 49.5q2.361 2.403 2 6-1.857-2.571-2-6" style="opacity:1"/><path fill="#b8d2e9" d="M299.5 48.5a29.2 29.2 0 0 0-1 9q-2.766-2.122-2-5 .803-2.641 3-4" style="opacity:1"/><path fill="#e1ebf4" d="M303.5 50.5q-2 3 0 6-4-3 0-6" style="opacity:1"/><path fill="#e7eef5" d="M239.5 54.5v16q.11 2.29-2 3 .416-9.465 2-19" style="opacity:1"/><path fill="#8bb5e0" d="M263.5 55.5a73 73 0 0 0-12 1q2.943-2.276 7-2 2.804.01 5 1" style="opacity:1"/><path fill="#9fc3e5" d="M323.5 49.5v6q-2.975-.514-4 2-1.356-1.064-1-3h4q-.426-2.872 1-5" style="opacity:1"/><path fill="#a5c6e6" d="M493.5 59.5q-9.955-7.898-20 0 .016-2.276 2-3.5 8.04-2.916 16 0 1.984 1.224 2 3.5" style="opacity:1"/><path fill="#8cb5e0" d="M505.5 55.5q4.206-1.706 9-.5.834.575 1 1.5a44.8 44.8 0 0 0-10-1" style="opacity:1"/><path fill="#8fb7e1" d="M533.5 55.5q4.206-1.706 9-.5 2.163.565 3 2.5a29.35 29.35 0 0 0-12-2" style="opacity:1"/><path fill="#85adde" d="M356.5 78.5a133 133 0 0 0-1-23q-1 6.724-2 13 .45-6.899-1-13.5a18.4 18.4 0 0 1 6-.5q.25 12.01-.5 24-1.035 1.857-1.5 0" style="opacity:1"/><path fill="#98bfe2" d="M369.5 55.5q4.206-1.706 9-.5.834.575 1 1.5a25 25 0 0 0-8-1z" style="opacity:1"/><path fill="#7da8db" d="M191.5 55.5q2.647-1.442 6-1 .7 12.756-1.5 25-2.138-1.068-4.5-.5 1.99-11.898 0-23.5" style="opacity:1"/><path fill="#005ec1" d="M193.5 55.5q1.983 4.902 2 11l-1 11a122 122 0 0 1-1-22" style="opacity:1"/><path fill="#b4cfe9" d="M216.5 55.5q2.634 1.578 2 5-3.08.147-5-2h3z" style="opacity:1"/><path fill="#0b65c2" d="M228.5 72.5q0 2 2 2 3.516.66 6 3-6.41.628-12-2v-1a91 91 0 0 1 1-19 115 115 0 0 1 1.5 15q.417 1.373 1.5 2" style="opacity:1"/><path fill="#5b97d5" d="M239.5 54.5h4a313 313 0 0 1-.5 25q-1.517-1.255-3.5-1 .329-1.762-1-3-.91.186-1 1 0 1-1 1-2.484-2.34-6-3a21.5 21.5 0 0 0 7-1q1.063 1.356 3 1-.329 1.762 1 3a61 61 0 0 0 0-22 1959 1959 0 0 1-2 15z" style="opacity:1"/><path fill="#3c76c9" d="M263.5 55.5h1a49.3 49.3 0 0 1 3 8q1.724 7.224.5 15-1.948.699-4.5 0-.643-4.87-4 0-4.328.46-8-1-.5-1.5-2-2-1.263-6.825 4-11a41.7 41.7 0 0 1 9-1q1.698-8.01-7-5.5-2.163.565-3 2.5-1.401-1.602-1-4a73 73 0 0 1 12-1m-2 18q-4.056 1.821-8 0-.201-2.687 1-5l8-1a19.2 19.2 0 0 1-1 6" style="opacity:1"/><path fill="#7ba7db" d="M341.5 69.5q-1-6.775-2-14a73 73 0 0 0-1 17h-1q-1.485-8.715-1-18h5z" style="opacity:1"/><path fill="#1c69c4" d="M341.5 69.5q.258 8.538 8 5 4.914-.933 4-6 1-6.276 2-13a133 133 0 0 1 1 23q-2.518.322-3-2-1.233-3.074-3 1-1.94.987-4.5 1-3.815.246-6.5-2l-1-4a73 73 0 0 1 1-17q1 7.225 2 14" style="opacity:1"/><path fill="#f0f5f8" d="M367.5 56.5q-.5 1.5-2 2 0-2 2-2" style="opacity:1"/><path fill="#1469c3" d="M395.5 78.5q-1.947.924-3 0v-23h3z" style="opacity:1"/><path fill="#93bbe2" d="M395.5 78.5v-23h-3v23q-1.489-11.724-1-24h5q-.473 11.88 1 23.5a2.43 2.43 0 0 1-2 .5" style="opacity:1"/><path fill="#b1cee7" d="M408.5 55.5q-.71 2.11-3 2 .71-2.11 3-2" style="opacity:1"/><path fill="#3b77c9" d="M447.5 66.5q1.356 1.064 1 3 1.288 4.428 6 5.5 3.808 1.195 7-.5 1.602-1.401 4-1 3.513 1.066 1 4-7.224 1.725-15 .5-1.374-.417-2-1.5-.71-2.11-3-2-4.076-8.559-2.5-18 1-2 2 0 .268 5.288 1.5 10" style="opacity:1"/><path fill="#3976c9" d="M216.5 55.5v3h-3q-.895-.958-2.5-1-2.549-.17-3.5 2-1.401 1.602-1 4a5.73 5.73 0 0 0-3 1q-.864-5.418 3-9 5-2 10 0" style="opacity:1"/><path fill="#b5d1e8" d="M213.5 58.5a19.2 19.2 0 0 0-6 1q.951-2.17 3.5-2 1.605.042 2.5 1" style="opacity:1"/><path fill="#7faadd" d="M228.5 72.5q-1.083-.627-1.5-2a115 115 0 0 0-1.5-15 91 91 0 0 0-1 19q-1.025-9.6-2-19.5a18.4 18.4 0 0 1 6-.5z" style="opacity:1"/><path fill="#deecf5" d="M251.5 56.5q-.401 2.398 1 4-.09.814-1 1-1.932-2.697 0-5" style="opacity:1"/><path fill="#bfd6ec" d="M262.5 63.5q.305-2.835-2-4.5-4.232-.642-8 1.5.837-1.935 3-2.5 8.698-2.51 7 5.5" style="opacity:1"/><path fill="#a8c5e6" d="M303.5 56.5q2.802 1.144 5 3-3.8.36-5-3" style="opacity:1"/><path fill="#b6d1e9" d="M332.5 54.5q3.228.865 1 3.5a18.4 18.4 0 0 1-6 .5q2.128-1.427 5-1z" style="opacity:1"/><path fill="#aecce7" d="M371.5 57.5a18.4 18.4 0 0 1 6 .5q.834.575 1 1.5-4-2-8 0z" style="opacity:1"/><path fill="#447bcb" d="M419.5 55.5q-3.535 2.397-8 3-7.22 4.715-4 13 0 3 3 3 3.161 1.453 7 1 .814.09 1 1a25.9 25.9 0 0 1-10 1q-2.856-.357-4-3-4.27-8.842 1-17 2.29.11 3-2 5.5-2 11 0" style="opacity:1"/><path fill="#b1cee9" d="M514.5 59.5q-4-2-8 0v-1q4.551-2.403 8 1" style="opacity:1"/><path fill="#bbd4ea" d="M163.5 55.5q2.361 2.403 2 6-1.857-2.571-2-6" style="opacity:1"/><path fill="#bed5eb" d="M298.5 57.5a6.54 6.54 0 0 1 3 3q-3 0-3-3" style="opacity:1"/><path fill="#497dcc" d="M369.5 55.5h2q-.626 1.083-2 1.5a2.43 2.43 0 0 0 2 .5l-1 2q-.5 1.5-2 2-2.89 3.956-1.5 9 .565 2.163 2.5 3 1.488-.257 2 1 3.988.626 7 3a45.8 45.8 0 0 1-12-1q-3.491-1.854-3.5-6-.952-4.583.5-9 2.11-.71 2-3 1.5-.5 2-2 .512-1.258 2-1" style="opacity:1"/><path fill="#8eb5e1" d="M533.5 55.5q-2 3-5 5 1-4 5-5" style="opacity:1"/><path fill="#289fed" d="M115.5 48.5v51q-2.97 4.616-7.5 5-3.932 3.096-7 5-5.248-.647-9 4-2.034-1.32-4.5-1v-1q3.618.544 4.5-3 .75-10.99.5-22 1-15.262 2-31 9.78.05 20 1v-3q-10.78.487-21-1h21q-.401-2.398 1-4" style="opacity:1"/><path fill="#e8eff5" d="M207.5 59.5q-.1 2.188 1 4h-2q-.401-2.398 1-4" style="opacity:1"/><path fill="#c2d8eb" d="M365.5 58.5q.11 2.29-2 3-.11-2.29 2-3" style="opacity:1"/><path fill="#4a7dcc" d="M493.5 59.5q2.246 2.685 2 6.5.138 4.231-2 7.5a6.54 6.54 0 0 0-3 3q-.166.925-1 1.5-6 1-12 0-3.869-1.614-5-5.5v-11q-.258-1.487 1-2 10.045-7.898 20 0m-6 0q3.129 6.231 1 14-7.344 2.958-12-3-.834-6.249 3-11 4-2 8 0" style="opacity:1"/><path fill="#bdd5ea" d="M487.5 59.5q-4-2-8 0 1.218-2.24 4-2 2.782-.24 4 2" style="opacity:1"/><path fill="#bfd5eb" d="m505.5 55.5-1 2q-3.04 2.04-5 5 .831-5.332 6-7" style="opacity:1"/><path fill="#d8e5f2" d="M185.5 54.5q-1.056 7.185-5 13 1.644-6.948 5-13" style="opacity:1"/><path fill="#74a7da" d="M206.5 55.5q-3.864 3.582-3 9-1.694-3.193-.5-7 1.224-1.985 3.5-2" style="opacity:1"/><path fill="#7facde" d="M264.5 55.5q4.008 2.837 3 8a49.3 49.3 0 0 0-3-8" style="opacity:1"/><path fill="#b0cbe8" d="M301.5 60.5q2.29-.11 3 2-2.29.11-3-2" style="opacity:1"/><path fill="#d4e3f1" d="M487.5 59.5q4.629 1.731 4 7 .492 4.5-3 7 2.129-7.769-1-14" style="opacity:1"/><path fill="#618bd1" d="M504.5 57.5q.512 1.258 2 1v1q-5.257 6.069-1 13 5.837 4.04 11-1 .975 2.903 1 6h3v1q.098.658-.5 1-2.514-.842-4-3l-1.5 1.5a25.25 25.25 0 0 1-10 0q-2.163-.565-3-2.5-.24-2.48-2-4-2-4.5 0-9 1.96-2.96 5-5" style="opacity:1"/><path fill="#3072c7" d="M533.5 55.5a29.35 29.35 0 0 1 12 2q2.393 3.492 3 8-.064 1.374-1 2h-17q-.147 3.08 2 5 1.815.648 3 2 4.298 1.924 9 0 1.329 1.238 1 3-6.37 1.653-13 .5-2.163-.565-3-2.5-.24-2.48-2-4v-9q-.257-1.487 1-2 3-2 5-5m8 4q1.201 2.313 1 5h-11a5.73 5.73 0 0 0 1-3q3.67-4.541 9-2" style="opacity:1"/><path fill="#c6d9ed" d="M541.5 59.5q2.69.575 3 3.5-.504 1.545-2 1.5.201-2.687-1-5" style="opacity:1"/><path fill="#b8d2e9" d="M541.5 59.5q-5.33-2.541-9 2 1.991-5.63 8-3.5.834.575 1 1.5" style="opacity:1"/><path fill="#e5eef5" d="M165.5 61.5q2.147 1.92 2 5-2.817-2.151-2-5" style="opacity:1"/><path fill="#91b3e2" d="M168.5 56.5q2.28 3.585 3 8-3.233-3.176-3-8" style="opacity:1"/><path fill="#c7dbed" d="M313.5 62.5q3 0 3 3a6.54 6.54 0 0 1-3-3" style="opacity:1"/><path fill="#d3e2f0" d="M368.5 61.5a45.8 45.8 0 0 0 1 12q-1.935-.837-2.5-3-1.39-5.044 1.5-9" style="opacity:1"/><path fill="#e3ebf4" d="M378.5 59.5q1.875.116 2.5 2 1.207 4.796-.5 9 .583-5.87-2-11" style="opacity:1"/><path fill="#dfe9f3" d="M405.5 57.5q-5.27 8.158-1 17-1.935-.837-2.5-3-3.186-8.157 3.5-14" style="opacity:1"/><path fill="#6891d3" d="M206.5 63.5h2l5 2v1a4.93 4.93 0 0 0-3 .5q1.129 1.005 1 2.5-5.123-1.043-8-5a5.73 5.73 0 0 1 3-1" style="opacity:1"/><path fill="#e6eef5" d="M420.5 61.5q2 4.5 0 9-.893-4.731 0-9" style="opacity:1"/><path fill="#ecf1f6" d="M479.5 59.5q-3.834 4.751-3 11-1.701-3.7-.5-8 .633-2.889 3.5-3" style="opacity:1"/><path fill="#a4c6e5" d="M532.5 61.5a5.73 5.73 0 0 1-1 3q-1.823-1.918 1-3" style="opacity:1"/><path fill="#84aadc" d="M181.5 53.5a82 82 0 0 1-3.5 12q-.575.835-1.5 1 1.304-7.084 5-13" style="opacity:1"/><path fill="#0061c1" d="M237.5 73.5q2.11-.71 2-3a1959 1959 0 0 0 2-15 61 61 0 0 1 0 22q-1.329-1.238-1-3-1.937.356-3-1" style="opacity:1"/><path fill="#9abfe3" d="M472.5 61.5v11q-1.184-.424-2-1.5 2-4 0-8 .816-1.076 2-1.5" style="opacity:1"/><path fill="#e3ecf5" d="M261.5 73.5q.975-2.903 1-6l-8 1q3.934-2.648 9-2a18.5 18.5 0 0 1-.5 6q-.574.835-1.5 1" style="opacity:1"/><path fill="#4378ca" d="M213.5 66.5q6.003 3.445 3 10-7.083 1.685-14 0v-2h10q1.63-.18 2-2-.064-1.374-1-2-1.487.257-2-1 .129-1.495-1-2.5a4.93 4.93 0 0 1 3-.5" style="opacity:1"/><path fill="#f0f3f7" d="M547.5 67.5q-7.726 1.24-16 1.5 1.255 1.517 1 3.5-2.147-1.92-2-5z" style="opacity:1"/><path fill="#1f6eb1" d="m46.5 74.5 1 2a199 199 0 0 0-20 14q-5.378-2.811-8.5-8-1-2 0-4 7.525-6.355 14.5-13 .925-.165 1.5-1 4.462 6.587 11.5 10" style="opacity:1"/><path fill="#5d8ad1" d="M419.5 55.5q5.636 1.9 6.5 8 .692 19.073-17.5 14a25.9 25.9 0 0 0 10-1q-.186-.91-1-1 2.593-1.105 3-4v-1q2-4.5 0-9-3.745-3.556-9-3 4.465-.603 8-3" style="opacity:1"/><path fill="#107fce" d="M63.5 65.5a3322 3322 0 0 1 11 8q2.918 4.743 8 7.5l-1 1q5.024.135 1.5 3.5-1.313-3.02-4 0-7.704-1.971-15.5 0-5.77-2.859-11.5-8-1.005 1.128-2.5 1l-2-2-1-2q.658.098 1-.5-4.11-1.575-4.5-5.5 10.365.495 21.5.5-5.655-3.175-12.5-1.5-4.54.177-8.5-1.5 9.755-.248 20-.5" style="opacity:1"/><path fill="#bacfeb" d="M176.5 66.5a9.1 9.1 0 0 1-1 5q-1.791 1.755-2-1z" style="opacity:1"/><path fill="#dce8f3" d="M527.5 62.5v9a2.43 2.43 0 0 1-2-.5 206 206 0 0 1 2-8.5" style="opacity:1"/><path fill="#b7d0e9" d="M213.5 65.5q7.023 2.622 4.5 10-.575.835-1.5 1 3.003-6.555-3-10z" style="opacity:1"/><path fill="#adcbe7" d="M253.5 64.5q-5.263 4.175-4 11-2.44-2.019-2-4.5 1.226-4.973 6-6.5" style="opacity:1"/><path fill="#d5e3f1" d="M254.5 68.5q-1.201 2.313-1 5-.958-.895-1-2.5.276-2.064 2-2.5" style="opacity:1"/><path fill="#ebf1f6" d="M297.5 72.5q1.918-1.823 3 1a5.73 5.73 0 0 1-3-1" style="opacity:1"/><path fill="#b2cce9" d="M353.5 68.5q.914 5.067-4 6 2.685-2.658 4-6" style="opacity:1"/><path fill="#bbd3ea" d="M407.5 71.5a6.54 6.54 0 0 1 3 3q-3 0-3-3" style="opacity:1"/><path fill="#f1f5f7" d="M465.5 73.5q1.063-1.356 3-1 .634 3.422-2 5 2.513-2.934-1-4" style="opacity:1"/><path fill="#dce7f2" d="M499.5 71.5q1.76 1.52 2 4-2.406-1.18-2-4" style="opacity:1"/><path fill="#c3daed" d="M527.5 71.5q1.76 1.52 2 4-2.406-1.18-2-4" style="opacity:1"/><path fill="#d9e8f3" d="M206.5 74.5h-4a2.43 2.43 0 0 1 .5-2 19.6 19.6 0 0 1 3.5 2" style="opacity:1"/><path fill="#b2cce9" d="M213.5 70.5q.936.626 1 2-.37 1.82-2 2 1.1-1.812 1-4" style="opacity:1"/><path fill="#bbd3ea" d="M228.5 72.5q1.5.5 2 2-2 0-2-2" style="opacity:1"/><path fill="#4a80cd" d="M323.5 49.5h3q-.426 2.872 1 5h5v3q-2.872-.427-5 1a75.5 75.5 0 0 0 1 16q1.602 1.401 4 1v3q-4.778.72-8.5-2-2.115-8.82-1.5-18-1.937.356-3-1 1.025-2.514 4-2z" style="opacity:1"/><path fill="#e7eff5" d="M337.5 72.5h1l1 4q-2.406-1.18-2-4" style="opacity:1"/><path fill="#aec7e7" d="M341.5 69.5q1.583 6.045 8 5-7.742 3.538-8-5" style="opacity:1"/><path fill="#c7d9ed" d="M448.5 69.5q5.405 5.139 13 5-3.192 1.695-7 .5-4.712-1.072-6-5.5" style="opacity:1"/><path fill="#bbd5ec" d="M545.5 77.5q.329-1.762-1-3-4.702 1.924-9 0 5.26.29 10-2 1.932 2.698 0 5" style="opacity:1"/><path fill="#a0bae4" d="M253.5 73.5q3.944 1.821 8 0-1.25 1.872-4 2-2.75-.128-4-2" style="opacity:1"/><path fill="#bfd6eb" d="M312.5 67.5q1.966 3.09 0 6.5-6.378 3.2-12-.5a12 12 0 0 1 6 1q7.346.158 6-7" style="opacity:1"/><path fill="#c8dbed" d="M332.5 78.5v-3q-2.398.401-4-1a30 30 0 0 1 5-.5q2.124 2.873-1 4.5" style="opacity:1"/><path fill="#d9e5f2" d="M420.5 71.5q-.407 2.895-3 4-3.839.453-7-1 5.757.717 10-3" style="opacity:1"/><path fill="#acc9e8" d="M446.5 74.5q2.29-.11 3 2-2.29.11-3-2" style="opacity:1"/><path fill="#d7e4f1" d="M317.5 73.5q0 3-3 3a6.54 6.54 0 0 1 3-3" style="opacity:1"/><path fill="#96b3e1" d="M380.5 70.5q.255 1.983-1 3.5 1.374.417 2 1.5-1.488-.257-2 1 0 1-1 1-3.012-2.374-7-3 5.93.78 9-4" style="opacity:1"/><path fill="#d3e2f0" d="M493.5 73.5q0 3-3 3a6.54 6.54 0 0 1 3-3" style="opacity:1"/><path fill="#dee8f3" d="M237.5 76.5q.09-.814 1-1 1.329 1.238 1 3z" style="opacity:1"/><path fill="#d5e3f0" d="M249.5 75.5q1.5.5 2 2-2 0-2-2" style="opacity:1"/><path fill="#e2ecf4" d="M263.5 78.5q-1.803-1.358-4 0 3.357-4.87 4 0" style="opacity:1"/><path fill="#cfdfef" d="M353.5 76.5a5.73 5.73 0 0 1-3 1q1.767-4.074 3-1" style="opacity:1"/><path fill="#edf3f7" d="M379.5 76.5q.512-1.257 2-1v3z" style="opacity:1"/><path fill="#72a1d9" d="M202.5 76.5q6.917 1.685 14 0-3.46 2.32-8 2l-6-.5q-1.857-1.035 0-1.5" style="opacity:1"/><path fill="#7fa8dc" d="M224.5 75.5q5.59 2.628 12 2-4.71 1.711-10 .5-1.321-1.062-2-2.5" style="opacity:1"/><path fill="#6398d6" d="M314.5 76.5q-.626 1.083-2 1.5-6.78 1.22-13-.5a89.4 89.4 0 0 0 15-1" style="opacity:1"/><path fill="#8db1e0" d="M366.5 76.5a45.8 45.8 0 0 0 12 1q-.425 1.185-1.5 2a51.7 51.7 0 0 0-9.5-1.5q-.834-.575-1-1.5" style="opacity:1"/><path fill="#f9faf9" d="M171.5 78.5q-1 1 0 0" style="opacity:1"/><path fill="#1072c8" d="M90.5 85.5h1q0 1 1 1 .25 11.01-.5 22-.882 3.544-4.5 3a1498 1498 0 0 0-6-5q2.78-.582 5-4l-2-2q2.085.587 3-2.5v-6q2.772-2.792 0-6.5 1.1-.88 3 0" style="opacity:1"/><path fill="#2682cc" d="M74.5 73.5q9.31 4.315 16 12-1.9-.88-3 0 2.772 3.708 0 6.5v6q-.915 3.087-3 2.5l2 2q-2.22 3.418-5 4h-1q-15.509-14.01-31-28 1.495.128 2.5-1 5.73 5.141 11.5 8 7.796-1.971 15.5 0 2.687-3.02 4 0 3.524-3.365-1.5-3.5l1-1q-5.082-2.757-8-7.5" style="opacity:1"/><path fill="#f9faf9" d="M116.5 99.5q2 1 0 0m-36 7q-1 1 0 0m7 6q-1 1 0 0" style="opacity:1"/></svg>