<svg xmlns="http://www.w3.org/2000/svg" width="815" height="306" style="shape-rendering:geometricPrecision;text-rendering:geometricPrecision;image-rendering:optimizeQuality;fill-rule:evenodd;clip-rule:evenodd"><path fill="#5ca788" d="M75.5 12.5q0 1-1 1a2113 2113 0 0 0-65 .5q1.255 1.517 1 3.5-2.147-1.92-2-5zm195 0h65q.356 1.937-1 3-15.217-1.998-31.5-2-16.283.002-31.5 2h-1z" style="opacity:1"/><path fill="#415661" d="M75.5 12.5h3q27.743 1.248 56 1.5a20.4 20.4 0 0 0-5.5 1.5 429 429 0 0 0-50.5-.5q-1.128 1.005-1 2.5a10.2 10.2 0 0 0-3-3v-1q1 0 1-1" style="opacity:1"/><path fill="#405761" d="M268.5 12.5h2v3a22.8 22.8 0 0 1-4 5 9.17 9.17 0 0 1 2-4.5q-1.13-2.23-2.5-.5a1565 1565 0 0 0-55.5-1.5q29.256-.252 58-1.5" style="opacity:1"/><path fill="#3db47d" d="M71.5 14.5q7.52 9.855 14 21 1.025.544 2 1 4.234 5.454 7 12a39 39 0 0 1-2 4.5q6.118 1.932 7 8.5-1.635 2.254-3.5 1l-.5 2q3.235 3.455 5 8 1.393-1.783 1-4 1.762-.329 3 1 2.034 4.52 6 7l6 8q-.712 4.22 3 6l1 2q.82 6.952 4 13-1.762-.329-3 1a19 19 0 0 0 3 5q-1.505-8.371 4.5-2a56 56 0 0 0 2.5 7 382 382 0 0 0 7 8 12.9 12.9 0 0 0 .5 5 65 65 0 0 1 6 9q-1.177 6.702 5.5 10 1.772 2.547 0 5-2-2-4 0-1.697 2.361-.5 5a3.94 3.94 0 0 0 2 1 15 15 0 0 0 3.5-4q1.237-1.329 3-1a78 78 0 0 0 6 9.5 4.46 4.46 0 0 0-2 1.5q2.696 2.447 3.5 6 1.48-1.006 3.5 0 1.274 7.347 7 12 7.585-1.171 4-8a97.5 97.5 0 0 1 10-16q4.915-4.75 8.5-11a971 971 0 0 1 16.5-32l4-9 16-25q7.005-5.997 9.5-15 1.517-1.255 3.5-1 .918-7.342 6-13a9.1 9.1 0 0 0 1-5 55 55 0 0 1 4-9q6.584-8.642 11-19a22.8 22.8 0 0 0 4-5h1a745 745 0 0 1 56-.5q1.655 2.52-1 4.5a37 37 0 0 0 2 4.5q-1.13 2.23-2.5.5v4l-4-2q-.926 1.424.5 2.5-4 1 0 2-4.577 2.04-2 6.5-1.24 5.556-7 5.5 1.524.78 2 2.5a20.2 20.2 0 0 0-1 5 41690 41690 0 0 1-139 239q-1.853.332-3 2a51 51 0 0 0-4-5.5q4.386-4.34-1-3.5a135 135 0 0 0-2.5-7q-1.48 1.006-3.5 0a1104 1104 0 0 0-20-33 534 534 0 0 1-21-37 155 155 0 0 0-10-20q-1.238-1.329-3-1a1158 1158 0 0 0-21-37 8.44 8.44 0 0 0-.5-4 24.2 24.2 0 0 1-5-9 14.7 14.7 0 0 0-3.5-3 1807 1807 0 0 1-41-70q-.318-5.562-5-8a88 88 0 0 1-6-11q-3.14-7.212-4.5-14a29.5 29.5 0 0 0-4.5-2.5q3.267-.663 2-3 5.377-2.405 1-6.5l-4 4q-1.187-.849 0-2.5a9.6 9.6 0 0 0-3-3 307 307 0 0 1 35 0q4.39.327 8.5 1.5l7-1q7.247 3.762 2.5 10.5 3.15 4.628 7 .5-4.065-4.542-3.5-10a9.5 9.5 0 0 0-2.5-1.5q2.45-.74 5-.5" style="opacity:1"/><path fill="#31445b" d="M78.5 12.5a813 813 0 0 1 57 1 2956 2956 0 0 0 37 63 3043 3043 0 0 0 37-63 871 871 0 0 1 59-1 1669 1669 0 0 1-58 1.5q27.86.261 55.5 1.5 1.37-1.73 2.5.5a9.17 9.17 0 0 0-2 4.5q-4.416 10.358-11 19-5.793 4.575-7 12-3.393 8.307-9 15-4.143.58-3 4-3.607 3.213-4 8-1.401 1.602-1 4l-16 25q-5.695 6.716-9.5 15-4.682 3.085-4.5 9l-15 28a97.5 97.5 0 0 0-10 16 23.7 23.7 0 0 1-4 5 76 76 0 0 1-7-9l-15-28a8.4 8.4 0 0 0-.5-4 128 128 0 0 1-8.5-12 10.2 10.2 0 0 1-3-3 498 498 0 0 0-18-32l-1-2a601 601 0 0 0-3-6l-6-8a172.3 172.3 0 0 0-16-28q-2.766-6.546-7-12l-2-5q-.137-6.965-5-9-2.085-2.1-3-5-.128-1.495 1-2.5a429 429 0 0 1 50.5.5 20.4 20.4 0 0 1 5.5-1.5 1556 1556 0 0 1-56-1.5" style="opacity:1"/><path fill="#4ca285" d="M71.5 14.5h3a10.2 10.2 0 0 1 3 3q.915 2.9 3 5a37.8 37.8 0 0 0 5 9l2 5a44 44 0 0 1-2-1q-6.48-11.145-14-21" style="opacity:1"/><path fill="#48b184" d="M334.5 15.5a300.5 300.5 0 0 1-20 35q.18-2.548 1-5-.476-1.72-2-2.5 5.76.056 7-5.5-2.577-4.46 2-6.5-4-1 0-2-1.426-1.076-.5-2.5l4 2v-4q1.37 1.73 2.5-.5a37 37 0 0 1-2-4.5q2.655-1.98 1-4.5a745 745 0 0 0-56 .5q15.217-1.998 31.5-2 16.283.002 31.5 2" style="opacity:1"/><path fill="#45b384" d="M74.5 13.5v1h-3q-2.55-.24-5 .5 1.374.561 2.5 1.5-.565 5.458 3.5 10-3.85 4.128-7-.5 4.747-6.738-2.5-10.5l-7 1a42.3 42.3 0 0 0-8.5-1.5 307 307 0 0 0-35 0 9.6 9.6 0 0 1 3 3q-1.187 1.651 0 2.5l4-4q4.377 4.095-1 6.5 1.267 2.337-2 3 2.37 1.06 4.5 2.5 1.36 6.788 4.5 14a156 156 0 0 1-15-25q.255-1.983-1-3.5a2113 2113 0 0 1 65-.5" style="opacity:1"/><path fill="#275554" d="M80.5 22.5q4.863 2.035 5 9a37.8 37.8 0 0 1-5-9" style="opacity:1"/><path fill="#285655" d="M255.5 39.5a55 55 0 0 0-4 9 10.2 10.2 0 0 0-3 3q1.207-7.425 7-12" style="opacity:1"/><path fill="#479071" d="M31.5 53.5q4.682 2.438 5 8-1.314.195-2-1a44 44 0 0 0-3-7" style="opacity:1"/><path fill="#4ba184" d="M251.5 48.5a9.1 9.1 0 0 1-1 5q-5.082 5.658-6 13-1.983-.255-3.5 1-2.495 9.003-9.5 15-.401-2.398 1-4 4.685-5.214 7-12 5.607-6.693 9-15a10.2 10.2 0 0 1 3-3" style="opacity:1"/><path fill="#010202" d="M384.5 60.5q5.286.25 7.5 5 17.985 59.961 36 120 18.485-61.32 36-120 1.712-4.458 6.5-5 17.526 2.274 9.5 18a10890 10890 0 0 1-42 133q-11.417 8.54-21-2a26878 26878 0 0 1-43.5-141 9.2 9.2 0 0 1 2-4.5q4.438-2.406 9-3.5" style="opacity:1"/><path fill="#43ad81" d="M94.5 48.5a172.3 172.3 0 0 1 16 28q-3.966-2.48-6-7-1.238-1.329-3-1 .393 2.217-1 4-1.765-4.545-5-8l.5-2q1.865 1.254 3.5-1-.882-6.568-7-8.5a39 39 0 0 0 2-4.5" style="opacity:1"/><path fill="#020202" d="M712.5 67.5q16.816.043 12.5 16a32.5 32.5 0 0 1-9 6q-14.808-2.06-11-17 3.255-3.485 7.5-5" style="opacity:1"/><path fill="#285455" d="M239.5 66.5q-2.315 6.786-7 12 .393-4.787 4-8-1.143-3.42 3-4" style="opacity:1"/><path fill="#3a796d" d="M116.5 84.5a601 601 0 0 1 3 6q-3.712-1.78-3-6" style="opacity:1"/><path fill="#010202" d="M616.5 112.5q34.454-1.247 45.5 31 1.304 9.626-1 19-3.675 4.689-9 7-25.746 1.322-53 0-3.506 19.514 14.5 27.5 19.14 5.977 36-5 9.547-2.225 11 7.5-2.067 6.322-8 9.5a77 77 0 0 1-13 5q-30.268 5.77-51.5-14.5-5.77-8.058-8.5-16.5.024-19.09 0-38 8.675-26.898 37-32.5m3 15q25.814 1.551 24.5 27a9.5 9.5 0 0 1-2.5 1.5q-21.494.75-43 .5-2.31-24.59 21-29m148-15q18.61-1.363 34.5 8 2.991 19.447-15 10l-1 1q-1.647-2.201-4.5-2.5-7.577-.047-14-.5-17.523 6.228-8 21.5a1439 1439 0 0 1 35 13q12.312 8.12 12 23 .817 14.56-11 23a181 181 0 0 1-11.5 5.5q-14.535.653-29.5-1.5-11.232-2.275-17.5-11.5-2.067-6.663 3.5-10.5 2.5-1 5 0 16.68 12.585 37 7 8.341-4.935 6.5-14.5-3.312-7.803-11.5-10.5l-20-6q-20.058-7.203-20-28a79.2 79.2 0 0 1 7.5-15.5q9.444-9.347 22.5-11" style="opacity:1"/><path fill="#010101" d="M491.5 113.5q5.665.708 9.5 5 .068 32.076 2 64 10.939 22.103 33.5 12.5 7.569-5.568 10.5-14.5.05-31.596 2-63 8.68-7.311 17 0 1 32.5 0 65-6.75 24.75-31.5 31.5-29.226 5.101-46.5-19.5a44.8 44.8 0 0 1-5-16 870 870 0 0 1 0-59q2.914-5.067 8.5-6m223 0q5.995.236 9.5 5 1 56 0 112-1.876 25.863-27 31-6.531-.354-11.5-4.5 1.07-2.014-1-4a18.4 18.4 0 0 1 4-7q14.199.286 16.5-13.5l1-114q3.597-3.912 8.5-5" style="opacity:1"/><path fill="#47a783" d="M120.5 92.5a498 498 0 0 1 18 32 382 382 0 0 1-7-8 56 56 0 0 1-2.5-7q-6.005-6.371-4.5 2a19 19 0 0 1-3-5q1.238-1.329 3-1-3.18-6.048-4-13" style="opacity:1"/><path fill="#275655" d="m215.5 107.5-4 9a180 180 0 0 1-10 15q-.182-5.915 4.5-9 3.805-8.284 9.5-15" style="opacity:1"/><path fill="#295957" d="M141.5 127.5a128 128 0 0 0 8.5 12 8.4 8.4 0 0 1 .5 4q-5.69-7.225-9-16" style="opacity:1"/><path fill="#4b9c7a" d="M77.5 131.5q1.94 1.185 3.5 3a24.2 24.2 0 0 0 5 9 8.44 8.44 0 0 1 .5 4q-5.69-7.225-9-16" style="opacity:1"/><path fill="#4a9c82" d="M211.5 116.5a971 971 0 0 0-16.5 32q-3.585 6.25-8.5 11l15-28a180 180 0 0 0 10-15" style="opacity:1"/><path fill="#44ad83" d="M138.5 124.5a10.2 10.2 0 0 0 3 3q3.31 8.775 9 16l15 28q-2.02-1.006-3.5 0-.804-3.553-3.5-6a4.46 4.46 0 0 1 2-1.5 78 78 0 0 1-6-9.5q-1.763-.329-3 1a15 15 0 0 1-3.5 4 3.94 3.94 0 0 1-2-1q-1.197-2.639.5-5 2-2 4 0 1.772-2.453 0-5-6.677-3.298-5.5-10a65 65 0 0 0-6-9 12.9 12.9 0 0 1-.5-5" style="opacity:1"/><path fill="#47a582" d="M165.5 171.5a76 76 0 0 0 7 9 23.7 23.7 0 0 0 4-5q3.585 6.829-4 8-5.726-4.653-7-12" style="opacity:1"/><path fill="#020202" d="M678.5 191.5q18.541.759 12.5 18-5.683 6.98-14.5 4.5-8.311-5.733-5.5-15.5 2.65-4.908 7.5-7" style="opacity:1"/><path fill="#4b9a79" d="M107.5 184.5q1.762-.329 3 1a155 155 0 0 1 10 20 324 324 0 0 1-13-21" style="opacity:1"/><path fill="#253e31" d="M141.5 242.5q-1 1 0 0" style="opacity:1"/><path fill="#4aa880" d="M161.5 275.5q2.02 1.006 3.5 0a135 135 0 0 1 2.5 7q5.386-.84 1 3.5a51 51 0 0 1 4 5.5q1.147-1.668 3-2-.89 3.713-4 4.5a488 488 0 0 0-10-18.5" style="opacity:1"/></svg>