<svg xmlns="http://www.w3.org/2000/svg" width="600" height="205" style="shape-rendering:geometricPrecision;text-rendering:geometricPrecision;image-rendering:optimizeQuality;fill-rule:evenodd;clip-rule:evenodd"><path fill="#1795f2" d="M47.5-.5h42v99a2170 2170 0 0 1-42-99" style="opacity:1"/><path fill="#1263ba" d="M89.5-.5h42a4429 4429 0 0 1-42 99z" style="opacity:1"/><path fill="#76c1f9" d="M-.5 28.5a571 571 0 0 1 47.5 1 3081 3081 0 0 1 41.5 97 745 745 0 0 1 0 77l-89-172z" style="opacity:1"/><path fill="#a7d9f9" d="M90.5 204.5h-2v-1a745 745 0 0 0 0-77 2420 2420 0 0 0 42.5-96l1.5-1.5a369 369 0 0 1 47 .5 21598 21598 0 0 0-89 175" style="opacity:1"/><path d="M443.5 55.5q12.234-1.018 10.5 11-7 8-14 0-2.007-6.81 3.5-11m71 3q9.98-.089 19 4a22.6 22.6 0 0 1-4 8q-22.359-9.612-21 14h18l-1 10h-17v40h-12a840 840 0 0 0-.5-41q-5.113 1.683-10.5.5-1.665-4.105-.5-8.5 5.5-2 11 0-3.154-22.52 18.5-27m-334 6a597 597 0 0 1 13 2 1624 1624 0 0 1 15.5 54 1167 1167 0 0 0 15.5-55q6.4.446 12.5-1l.5 1.5a2694 2694 0 0 0-21 68.5 90 90 0 0 1-15 0z" style="opacity:1"/><path fill="#000001" d="M379.5 68.5h9v13h17a105 105 0 0 1-1 9q-7.809 1.389-15 0a171 171 0 0 0-.5 32q3.062 3.711 8 3 4.78.159 9-2 2.98 2.946 4.5 7-6.596 5.596-15.5 5-15.828.353-19-15a453 453 0 0 0-1.5-30q-4.54.081-10 0v-9h11v-12q2.398.401 4-1" style="opacity:1"/><path d="M324.5 79.5q30.596 1.12 27 32a307 307 0 0 0-35 1q1.548 12.55 14 14 7.6-.8 14-5 3.513 3.547 4.5 8-13.58 9.14-29.5 4.5-15.623-8.237-15-26-.456-21.906 20-28.5m3 9q13.445 1.337 12 15a133 133 0 0 1-23-1q1.254-10.715 11-14m-80-7h12q-.25 20.505.5 41 1.69 3.853 6 4 6.803-.651 11-6 .75-19.494.5-39h12v53h-10a20.1 20.1 0 0 0-1.5-6q-8.502 9.816-21.5 6.5-6.25-2.25-8.5-8.5-.75-22.494-.5-45m180 0h28v44h14v9q-21.006.25-42-.5-.751-4.125 0-8.5 8.016.249 16-.5a145 145 0 0 1 0-34q-5.14-.007-9.5.5a20.4 20.4 0 0 0-5.5-1.5q-1.416-4.079-1-8.5m114-1q5.938.91 12 2a1013 1013 0 0 1 12.5 42 691 691 0 0 0 12.5-43q6.4.446 12.5-1a980 980 0 0 1-19 58q-7.64 16.193-25.5 17a105 105 0 0 1-1-9q11.307-.822 16-11-3.535-1.355-4.5-5A2072 2072 0 0 0 540.5 82q.834-.575 1-1.5" style="opacity:1"/></svg>