<svg xmlns="http://www.w3.org/2000/svg" width="800" height="800" fill="none" viewBox="0 0 24 24"><g id="SVGRepo_iconCarrier" stroke="#deadff" stroke-linecap="round" stroke-linejoin="round" stroke-width="2"><path d="M3 8.2c0-1.12 0-1.68.218-2.108a2 2 0 0 1 .874-.874C4.52 5 5.08 5 6.2 5h3.475c.489 0 .733 0 .963.055.204.05.4.13.579.24.201.123.374.296.72.642l.126.126c.346.346.519.519.72.642q.271.165.579.24c.23.055.474.055.963.055H17.8c1.12 0 1.68 0 2.108.218a2 2 0 0 1 .874.874C21 8.52 21 9.08 21 10.2v5.6c0 1.12 0 1.68-.218 2.108a2 2 0 0 1-.874.874C19.48 19 18.92 19 17.8 19H6.2c-1.12 0-1.68 0-2.108-.218a2 2 0 0 1-.874-.874C3 17.48 3 16.92 3 15.8z"/><path fill-rule="evenodd" d="M11.998 10.712c-.7-.78-1.867-.989-2.744-.275-.877.713-1 1.906-.312 2.75.39.476 1.313 1.311 2.043 1.948.347.302.52.454.73.515.178.053.387.053.566 0 .21-.062.382-.213.729-.515.73-.637 1.654-1.472 2.043-1.948.688-.844.58-2.044-.312-2.75s-2.044-.504-2.743.275" clip-rule="evenodd"/></g></svg>